<svg width="102" height="115" viewBox="0 0 102 115" fill="none" xmlns="http://www.w3.org/2000/svg">
<path d="M30.1191 114.016C20.6823 114.016 13.3825 111.371 8.21973 106.081C3.09928 100.791 0.539062 93.1742 0.539062 83.2295V32.8291C0.539062 22.3343 2.97233 14.2939 7.83887 8.70801C12.7477 3.07975 20.1745 0.265625 30.1191 0.265625C40.1061 0.265625 47.5329 3.07975 52.3994 8.70801C57.266 14.2939 59.6992 22.3343 59.6992 32.8291V83.2295C59.6992 93.1742 57.139 100.791 52.0186 106.081C46.8981 111.371 39.5983 114.016 30.1191 114.016ZM30.1191 93.4492C31.8542 93.4492 33.2083 92.6663 34.1816 91.1006C35.1549 89.5348 35.6416 87.7786 35.6416 85.832V30.6709C35.6416 28.0472 35.3454 25.762 34.7529 23.8154C34.2028 21.8265 32.6582 20.832 30.1191 20.832C27.5801 20.832 26.0143 21.8265 25.4219 23.8154C24.8717 25.762 24.5967 28.0472 24.5967 30.6709V85.832C24.5967 87.7786 25.0833 89.5348 26.0566 91.1006C27.0723 92.6663 28.4264 93.4492 30.1191 93.4492ZM77.6631 113V26.9258C76.1396 28.7454 74.0449 30.2266 71.3789 31.3691C68.7129 32.4694 66.195 33.0195 63.8252 33.0195V15.1826C66.068 14.8441 68.4801 14.1247 71.0615 13.0244C73.6429 11.8818 76.0339 10.3372 78.2344 8.39062C80.4772 6.40169 82.1911 4.01074 83.376 1.21777H101.34V113H77.6631Z" fill="url(#paint0_linear_95_67)"/>
<defs>
<linearGradient id="paint0_linear_95_67" x1="52" y1="-25" x2="52" y2="141" gradientUnits="userSpaceOnUse">
<stop stop-color="#FFA45B"/>
<stop offset="0.869792" stop-color="#EA473B" stop-opacity="0"/>
</linearGradient>
</defs>
</svg>
