<svg width="125" height="115" viewBox="0 0 125 115" fill="none" xmlns="http://www.w3.org/2000/svg">
<path d="M30.1191 114.016C20.6823 114.016 13.3825 111.371 8.21973 106.081C3.09928 100.791 0.539062 93.1742 0.539062 83.2295V32.8291C0.539062 22.3343 2.97233 14.2939 7.83887 8.70801C12.7477 3.07975 20.1745 0.265625 30.1191 0.265625C40.1061 0.265625 47.5329 3.07975 52.3994 8.70801C57.266 14.2939 59.6992 22.3343 59.6992 32.8291V83.2295C59.6992 93.1742 57.139 100.791 52.0186 106.081C46.8981 111.371 39.5983 114.016 30.1191 114.016ZM30.1191 93.4492C31.8542 93.4492 33.2083 92.6663 34.1816 91.1006C35.1549 89.5348 35.6416 87.7786 35.6416 85.832V30.6709C35.6416 28.0472 35.3454 25.762 34.7529 23.8154C34.2028 21.8265 32.6582 20.832 30.1191 20.832C27.5801 20.832 26.0143 21.8265 25.4219 23.8154C24.8717 25.762 24.5967 28.0472 24.5967 30.6709V85.832C24.5967 87.7786 25.0833 89.5348 26.0566 91.1006C27.0723 92.6663 28.4264 93.4492 30.1191 93.4492ZM66.1738 113V107.668C66.1738 102.124 67.0202 97.152 68.7129 92.751C70.4479 88.3076 72.6696 84.2028 75.3779 80.4365C78.0863 76.6279 80.9427 72.904 83.9473 69.2646C86.8672 65.71 89.639 62.0706 92.2627 58.3467C94.9287 54.5804 97.0869 50.5179 98.7373 46.1592C100.43 41.7581 101.276 36.8281 101.276 31.3691C101.276 28.7454 100.874 26.5026 100.07 24.6406C99.3086 22.7363 97.7005 21.7842 95.2461 21.7842C91.5221 21.7842 89.6602 25.1061 89.6602 31.75V45.3975H66.1738C66.1315 44.4242 66.068 43.3239 65.9834 42.0967C65.9411 40.8695 65.9199 39.6846 65.9199 38.542C65.9199 30.5016 66.7663 23.6885 68.459 18.1025C70.1517 12.4743 73.1351 8.2002 77.4092 5.28027C81.7256 2.31803 87.777 0.836914 95.5635 0.836914C104.831 0.836914 112.025 3.43945 117.146 8.64453C122.308 13.8496 124.89 21.2764 124.89 30.9248C124.89 37.484 124.043 43.2393 122.351 48.1904C120.658 53.0993 118.415 57.585 115.622 61.6475C112.829 65.6676 109.761 69.6878 106.418 73.708C104.048 76.5433 101.742 79.4421 99.499 82.4043C97.2985 85.3665 95.3519 88.5404 93.6592 91.9258H124.128V113H66.1738Z" fill="url(#paint0_linear_95_69)"/>
<defs>
<linearGradient id="paint0_linear_95_69" x1="62.5" y1="-25" x2="62.5" y2="141" gradientUnits="userSpaceOnUse">
<stop stop-color="#FFA45B"/>
<stop offset="0.869792" stop-color="#EA473B" stop-opacity="0"/>
</linearGradient>
</defs>
</svg>
