<svg width="124" height="115" viewBox="0 0 124 115" fill="none" xmlns="http://www.w3.org/2000/svg">
<path d="M30.1191 114.016C20.6823 114.016 13.3825 111.371 8.21973 106.081C3.09928 100.791 0.539062 93.1742 0.539062 83.2295V32.8291C0.539062 22.3343 2.97233 14.2939 7.83887 8.70801C12.7477 3.07975 20.1745 0.265625 30.1191 0.265625C40.1061 0.265625 47.5329 3.07975 52.3994 8.70801C57.266 14.2939 59.6992 22.3343 59.6992 32.8291V83.2295C59.6992 93.1742 57.139 100.791 52.0186 106.081C46.8981 111.371 39.5983 114.016 30.1191 114.016ZM30.1191 93.4492C31.8542 93.4492 33.2083 92.6663 34.1816 91.1006C35.1549 89.5348 35.6416 87.7786 35.6416 85.832V30.6709C35.6416 28.0472 35.3454 25.762 34.7529 23.8154C34.2028 21.8265 32.6582 20.832 30.1191 20.832C27.5801 20.832 26.0143 21.8265 25.4219 23.8154C24.8717 25.762 24.5967 28.0472 24.5967 30.6709V85.832C24.5967 87.7786 25.0833 89.5348 26.0566 91.1006C27.0723 92.6663 28.4264 93.4492 30.1191 93.4492ZM92.9609 114.27C83.1009 114.27 75.9281 111.667 71.4424 106.462C66.9567 101.257 64.7139 93.4069 64.7139 82.9121V71.2324H87.6289V82.9756C87.6289 85.9378 87.9886 88.4557 88.708 90.5293C89.4697 92.5605 91.1413 93.5762 93.7227 93.5762C96.3464 93.5762 98.0179 92.4759 98.7373 90.2754C99.4567 88.0326 99.8164 84.3932 99.8164 79.3574V76.5645C99.8164 72.7135 99.1605 69.3493 97.8486 66.4717C96.5791 63.5941 94.0612 62.1553 90.2949 62.1553C89.8294 62.1553 89.4062 62.1764 89.0254 62.2188C88.6868 62.2188 88.3906 62.2399 88.1367 62.2822V42.2236C91.9876 42.2236 94.9287 41.3773 96.96 39.6846C98.9912 37.9495 100.007 35.0719 100.007 31.0518C100.007 24.7464 98.1872 21.5938 94.5479 21.5938C92.1781 21.5938 90.57 22.5247 89.7236 24.3867C88.9196 26.2064 88.5176 28.5339 88.5176 31.3691V34.7334H65.4121C65.3698 34.2256 65.3275 33.612 65.2852 32.8926C65.2852 32.1732 65.2852 31.4749 65.2852 30.7979C65.2852 20.557 67.6761 13.0456 72.458 8.26367C77.2399 3.48177 84.5609 1.09082 94.4209 1.09082C113.464 1.09082 122.985 10.9932 122.985 30.7979C122.985 36.2992 122.245 40.8483 120.764 44.4453C119.283 48 116.532 50.4967 112.512 51.9355C115.686 53.459 118.034 55.4056 119.558 57.7754C121.081 60.1452 122.076 63.0863 122.541 66.5986C123.007 70.111 123.239 74.3639 123.239 79.3574C123.239 90.5293 120.891 99.141 116.193 105.192C111.538 111.244 103.794 114.27 92.9609 114.27Z" fill="url(#paint0_linear_96_121)"/>
<defs>
<linearGradient id="paint0_linear_96_121" x1="62.5" y1="-25" x2="62.5" y2="141" gradientUnits="userSpaceOnUse">
<stop stop-color="#FFA45B"/>
<stop offset="0.869792" stop-color="#EA473B" stop-opacity="0"/>
</linearGradient>
</defs>
</svg>
