<svg width="125" height="115" viewBox="0 0 125 115" fill="none" xmlns="http://www.w3.org/2000/svg">
<path d="M30.1191 114.016C20.6823 114.016 13.3825 111.371 8.21973 106.081C3.09928 100.791 0.539062 93.1742 0.539062 83.2295V32.8291C0.539062 22.3343 2.97233 14.2939 7.83887 8.70801C12.7477 3.07975 20.1745 0.265625 30.1191 0.265625C40.1061 0.265625 47.5329 3.07975 52.3994 8.70801C57.266 14.2939 59.6992 22.3343 59.6992 32.8291V83.2295C59.6992 93.1742 57.139 100.791 52.0186 106.081C46.8981 111.371 39.5983 114.016 30.1191 114.016ZM30.1191 93.4492C31.8542 93.4492 33.2083 92.6663 34.1816 91.1006C35.1549 89.5348 35.6416 87.7786 35.6416 85.832V30.6709C35.6416 28.0472 35.3454 25.762 34.7529 23.8154C34.2028 21.8265 32.6582 20.832 30.1191 20.832C27.5801 20.832 26.0143 21.8265 25.4219 23.8154C24.8717 25.762 24.5967 28.0472 24.5967 30.6709V85.832C24.5967 87.7786 25.0833 89.5348 26.0566 91.1006C27.0723 92.6663 28.4264 93.4492 30.1191 93.4492ZM94.3574 114.587C85.7669 114.587 78.7422 112.471 73.2832 108.239C67.8665 103.965 65.1582 97.4271 65.1582 88.625V71.9941H88.3906V81.5791C88.3906 83.568 88.4964 85.4935 88.708 87.3555C88.9619 89.2174 89.512 90.7409 90.3584 91.9258C91.2048 93.1107 92.5378 93.7031 94.3574 93.7031C96.7695 93.7031 98.3564 92.8991 99.1182 91.291C99.8799 89.6406 100.261 87.5459 100.261 85.0068V63.0439C100.261 61.2243 100.134 59.4258 99.8799 57.6484C99.6683 55.8711 99.1605 54.39 98.3564 53.2051C97.5524 52.0202 96.2617 51.4277 94.4844 51.4277C90.2526 51.4277 88.1367 54.4958 88.1367 60.6318H67.6338V1.21777H120.891V22.165H88.835V37.9072C89.9352 36.5531 91.4163 35.3682 93.2783 34.3525C95.1826 33.2946 97.4043 32.7656 99.9434 32.7656C105.021 32.7656 109.147 33.7389 112.321 35.6855C115.537 37.6322 117.992 40.3405 119.685 43.8105C121.42 47.2806 122.604 51.3008 123.239 55.8711C123.916 60.4414 124.255 65.3503 124.255 70.5977C124.255 77.3262 123.895 83.3988 123.176 88.8154C122.499 94.1898 121.123 98.8024 119.05 102.653C117.019 106.504 114.014 109.466 110.036 111.54C106.101 113.571 100.874 114.587 94.3574 114.587Z" fill="url(#paint0_linear_116_254)"/>
<defs>
<linearGradient id="paint0_linear_116_254" x1="62.5" y1="-25" x2="62.5" y2="141" gradientUnits="userSpaceOnUse">
<stop stop-color="#FFA45B"/>
<stop offset="0.869792" stop-color="#EA473B" stop-opacity="0"/>
</linearGradient>
</defs>
</svg>
