<svg width="125" height="115" viewBox="0 0 125 115" fill="none" xmlns="http://www.w3.org/2000/svg">
<path d="M30.1191 114.016C20.6823 114.016 13.3825 111.371 8.21973 106.081C3.09928 100.791 0.539062 93.1742 0.539062 83.2295V32.8291C0.539062 22.3343 2.97233 14.2939 7.83887 8.70801C12.7477 3.07975 20.1745 0.265625 30.1191 0.265625C40.1061 0.265625 47.5329 3.07975 52.3994 8.70801C57.266 14.2939 59.6992 22.3343 59.6992 32.8291V83.2295C59.6992 93.1742 57.139 100.791 52.0186 106.081C46.8981 111.371 39.5983 114.016 30.1191 114.016ZM30.1191 93.4492C31.8542 93.4492 33.2083 92.6663 34.1816 91.1006C35.1549 89.5348 35.6416 87.7786 35.6416 85.832V30.6709C35.6416 28.0472 35.3454 25.762 34.7529 23.8154C34.2028 21.8265 32.6582 20.832 30.1191 20.832C27.5801 20.832 26.0143 21.8265 25.4219 23.8154C24.8717 25.762 24.5967 28.0472 24.5967 30.6709V85.832C24.5967 87.7786 25.0833 89.5348 26.0566 91.1006C27.0723 92.6663 28.4264 93.4492 30.1191 93.4492ZM95.8174 114.016C88.0732 114.016 82.0007 112.704 77.5996 110.08C73.2409 107.414 70.1517 103.415 68.332 98.083C66.5547 92.751 65.666 86.1071 65.666 78.1514V47.9365C65.666 40.1924 65.9834 33.3581 66.6182 27.4336C67.2952 21.5091 68.6706 16.5368 70.7441 12.5166C72.8177 8.49642 75.9069 5.44954 80.0117 3.37598C84.1165 1.30241 89.5967 0.265625 96.4521 0.265625C101.149 0.265625 105.529 1.09082 109.592 2.74121C113.654 4.34928 116.934 6.78255 119.431 10.041C121.927 13.2572 123.176 17.2985 123.176 22.165V34.2256H101.657V31.9404C101.657 30.0785 101.551 28.2165 101.34 26.3545C101.171 24.4925 100.705 22.9479 99.9434 21.7207C99.1816 20.4935 97.891 19.8799 96.0713 19.8799C93.5745 19.8799 91.8395 20.5781 90.8662 21.9746C89.8929 23.3288 89.4062 25.2965 89.4062 27.8779V50.2852C90.4642 48.2962 92.0511 46.7093 94.167 45.5244C96.2829 44.2972 98.8643 43.6836 101.911 43.6836C108.09 43.6836 112.829 44.932 116.13 47.4287C119.473 49.8831 121.779 53.5648 123.049 58.4736C124.318 63.3825 124.953 69.5186 124.953 76.8818C124.953 84.3298 124.043 90.8467 122.224 96.4326C120.404 101.976 117.357 106.293 113.083 109.382C108.851 112.471 103.096 114.016 95.8174 114.016ZM94.9922 93.4492C97.6159 93.4492 99.1816 92.349 99.6895 90.1484C100.197 87.9056 100.451 85.0492 100.451 81.5791V72.5654C100.451 66.4717 98.7373 63.4248 95.3096 63.4248C91.374 63.4248 89.4062 66.0697 89.4062 71.3594V85.1973C89.4062 90.6986 91.2682 93.4492 94.9922 93.4492Z" fill="url(#paint0_linear_122_455)"/>
<defs>
<linearGradient id="paint0_linear_122_455" x1="62.5" y1="-25" x2="62.5" y2="141" gradientUnits="userSpaceOnUse">
<stop stop-color="#FFA45B"/>
<stop offset="0.869792" stop-color="#EA473B" stop-opacity="0"/>
</linearGradient>
</defs>
</svg>
