<svg width="124" height="115" viewBox="0 0 124 115" fill="none" xmlns="http://www.w3.org/2000/svg">
<path d="M30.1191 114.016C20.6823 114.016 13.3825 111.371 8.21973 106.081C3.09928 100.791 0.539062 93.1742 0.539062 83.2295V32.8291C0.539062 22.3343 2.97233 14.2939 7.83887 8.70801C12.7477 3.07975 20.1745 0.265625 30.1191 0.265625C40.1061 0.265625 47.5329 3.07975 52.3994 8.70801C57.266 14.2939 59.6992 22.3343 59.6992 32.8291V83.2295C59.6992 93.1742 57.139 100.791 52.0186 106.081C46.8981 111.371 39.5983 114.016 30.1191 114.016ZM30.1191 93.4492C31.8542 93.4492 33.2083 92.6663 34.1816 91.1006C35.1549 89.5348 35.6416 87.7786 35.6416 85.832V30.6709C35.6416 28.0472 35.3454 25.762 34.7529 23.8154C34.2028 21.8265 32.6582 20.832 30.1191 20.832C27.5801 20.832 26.0143 21.8265 25.4219 23.8154C24.8717 25.762 24.5967 28.0472 24.5967 30.6709V85.832C24.5967 87.7786 25.0833 89.5348 26.0566 91.1006C27.0723 92.6663 28.4264 93.4492 30.1191 93.4492ZM71.4424 112.937C72.1195 102.526 73.5794 92.7933 75.8223 83.7373C78.0651 74.6813 80.6465 66.2601 83.5664 58.4736C86.4863 50.6449 89.3005 43.472 92.0088 36.9551L98.2295 21.9111H66.6816V1.21777H123.049V13.4053C123.049 17.891 122.308 22.4189 120.827 26.9893C119.346 31.5596 117.399 36.5954 114.987 42.0967C109.74 54.0303 105.55 65.9215 102.419 77.7705C99.3298 89.5771 97.4255 101.299 96.7061 112.937H71.4424Z" fill="url(#paint0_linear_122_458)"/>
<defs>
<linearGradient id="paint0_linear_122_458" x1="62.5" y1="-25" x2="62.5" y2="141" gradientUnits="userSpaceOnUse">
<stop stop-color="#FFA45B"/>
<stop offset="0.869792" stop-color="#EA473B" stop-opacity="0"/>
</linearGradient>
</defs>
</svg>
