<svg width="124" height="116" viewBox="0 0 124 116" fill="none" xmlns="http://www.w3.org/2000/svg">
<path d="M30.1191 115.016C20.6823 115.016 13.3825 112.371 8.21973 107.081C3.09928 101.791 0.539062 94.1742 0.539062 84.2295V33.8291C0.539062 23.3343 2.97233 15.2939 7.83887 9.70801C12.7477 4.07975 20.1745 1.26562 30.1191 1.26562C40.1061 1.26562 47.5329 4.07975 52.3994 9.70801C57.266 15.2939 59.6992 23.3343 59.6992 33.8291V84.2295C59.6992 94.1742 57.139 101.791 52.0186 107.081C46.8981 112.371 39.5983 115.016 30.1191 115.016ZM30.1191 94.4492C31.8542 94.4492 33.2083 93.6663 34.1816 92.1006C35.1549 90.5348 35.6416 88.7786 35.6416 86.832V31.6709C35.6416 29.0472 35.3454 26.762 34.7529 24.8154C34.2028 22.8265 32.6582 21.832 30.1191 21.832C27.5801 21.832 26.0143 22.8265 25.4219 24.8154C24.8717 26.762 24.5967 29.0472 24.5967 31.6709V86.832C24.5967 88.7786 25.0833 90.5348 26.0566 92.1006C27.0723 93.6663 28.4264 94.4492 30.1191 94.4492ZM94.3574 115.206C83.8626 115.206 76.3724 112.201 71.8867 106.192C67.401 100.183 65.1582 91.6774 65.1582 80.6748V73.248C65.1582 67.5775 65.8353 62.986 67.1895 59.4736C68.5436 55.9613 71.0404 53.2741 74.6797 51.4121C71.252 50.0156 68.8187 47.6882 67.3799 44.4297C65.9411 41.1289 65.2217 37.0452 65.2217 32.1787V29.2588C65.2217 19.3564 67.6973 12.1624 72.6484 7.67676C77.6419 3.14876 84.8783 0.884766 94.3574 0.884766C104.09 0.884766 111.369 3.21224 116.193 7.86719C121.018 12.4798 123.43 19.9066 123.43 30.1475C123.43 35.5218 122.795 40.0286 121.525 43.668C120.256 47.3073 117.738 49.931 113.972 51.5391C117.992 53.6126 120.594 56.3421 121.779 59.7275C122.964 63.0706 123.557 67.5775 123.557 73.248V80.6748C123.557 91.6774 121.314 100.183 116.828 106.192C112.342 112.201 104.852 115.206 94.3574 115.206ZM94.3574 42.0176C98.293 42.0176 100.261 38.4629 100.261 31.3535C100.261 28.9837 99.8376 26.7409 98.9912 24.625C98.1872 22.5091 96.6426 21.4512 94.3574 21.4512C92.0723 21.4512 90.5065 22.5091 89.6602 24.625C88.8561 26.7409 88.4541 28.9837 88.4541 31.3535C88.4541 38.4629 90.4219 42.0176 94.3574 42.0176ZM94.3574 93.1162C98.4199 93.1162 100.451 89.8366 100.451 83.2773V73.0576C100.451 69.6722 99.9857 67.0273 99.0547 65.123C98.166 63.2188 96.6003 62.2666 94.3574 62.2666C92.0299 62.2666 90.443 63.2188 89.5967 65.123C88.7503 67.0273 88.3271 69.6722 88.3271 73.0576V83.2773C88.3271 89.8366 90.3372 93.1162 94.3574 93.1162Z" fill="url(#paint0_linear_502_4490)"/>
<defs>
<linearGradient id="paint0_linear_502_4490" x1="62.5" y1="-24" x2="62.5" y2="142" gradientUnits="userSpaceOnUse">
<stop stop-color="#FFA45B"/>
<stop offset="0.869792" stop-color="#EA473B" stop-opacity="0"/>
</linearGradient>
</defs>
</svg>
