<svg width="125" height="115" viewBox="0 0 125 115" fill="none" xmlns="http://www.w3.org/2000/svg">
<path d="M30.1191 114.016C20.6823 114.016 13.3825 111.371 8.21973 106.081C3.09928 100.791 0.539062 93.1742 0.539062 83.2295V32.8291C0.539062 22.3343 2.97233 14.2939 7.83887 8.70801C12.7477 3.07975 20.1745 0.265625 30.1191 0.265625C40.1061 0.265625 47.5329 3.07975 52.3994 8.70801C57.266 14.2939 59.6992 22.3343 59.6992 32.8291V83.2295C59.6992 93.1742 57.139 100.791 52.0186 106.081C46.8981 111.371 39.5983 114.016 30.1191 114.016ZM30.1191 93.4492C31.8542 93.4492 33.2083 92.6663 34.1816 91.1006C35.1549 89.5348 35.6416 87.7786 35.6416 85.832V30.6709C35.6416 28.0472 35.3454 25.762 34.7529 23.8154C34.2028 21.8265 32.6582 20.832 30.1191 20.832C27.5801 20.832 26.0143 21.8265 25.4219 23.8154C24.8717 25.762 24.5967 28.0472 24.5967 30.6709V85.832C24.5967 87.7786 25.0833 89.5348 26.0566 91.1006C27.0723 92.6663 28.4264 93.4492 30.1191 93.4492ZM94.167 114.016C89.4697 114.016 85.0898 113.212 81.0273 111.604C76.9648 109.953 73.6852 107.499 71.1885 104.24C68.6917 100.982 67.4434 96.9404 67.4434 92.1162V80.0557H88.9619V82.3408C88.9619 84.2028 89.0465 86.0648 89.2158 87.9268C89.4274 89.7887 89.9141 91.3333 90.6758 92.5605C91.4798 93.7878 92.7705 94.4014 94.5479 94.4014C97.0446 94.4014 98.7796 93.7243 99.7529 92.3701C100.726 90.9736 101.213 88.9847 101.213 86.4033V63.9961C100.155 65.9427 98.568 67.5296 96.4521 68.7568C94.3363 69.984 91.7549 70.5977 88.708 70.5977C82.5719 70.5977 77.8324 69.3704 74.4893 66.916C71.1462 64.4193 68.8398 60.7165 67.5703 55.8076C66.3008 50.8988 65.666 44.7627 65.666 37.3994C65.666 29.9515 66.5758 23.4557 68.3955 17.9121C70.2152 12.3262 73.2409 7.98861 77.4727 4.89941C81.7467 1.81022 87.5231 0.265625 94.8018 0.265625C102.588 0.265625 108.661 1.59863 113.02 4.26465C117.378 6.88835 120.446 10.8662 122.224 16.1982C124.043 21.488 124.953 28.1318 124.953 36.1299V66.3447C124.953 74.0889 124.615 80.9232 123.938 86.8477C123.303 92.7721 121.949 97.7445 119.875 101.765C117.801 105.785 114.712 108.832 110.607 110.905C106.503 112.979 101.022 114.016 94.167 114.016ZM95.3096 50.8564C99.2451 50.8564 101.213 48.2116 101.213 42.9219V29.084C101.213 23.5827 99.3509 20.832 95.627 20.832C93.0033 20.832 91.4375 21.9535 90.9297 24.1963C90.4219 26.3968 90.168 29.2321 90.168 32.7021V41.7158C90.168 47.8096 91.8818 50.8564 95.3096 50.8564Z" fill="url(#paint0_linear_502_4491)"/>
<defs>
<linearGradient id="paint0_linear_502_4491" x1="62.5" y1="-25" x2="62.5" y2="141" gradientUnits="userSpaceOnUse">
<stop stop-color="#FFA45B"/>
<stop offset="0.869792" stop-color="#EA473B" stop-opacity="0"/>
</linearGradient>
</defs>
</svg>
