<svg width="32" height="21" viewBox="0 0 32 21" fill="none" xmlns="http://www.w3.org/2000/svg">
<path d="M25.5 0.999999C22.4624 0.999999 20 3.46243 20 6.5C20 9.53757 22.4624 12 25.5 12C28.5376 12 31 9.53757 31 6.5C31 3.46243 28.5376 1 25.5 0.999999Z" fill="#BDC3C7"/>
<path d="M25.5 -5.68248e-07C29.084 -2.54925e-07 32 2.916 32 6.5C32 10.084 29.084 13 25.5 13C21.916 13 19 10.084 19 6.5C19 2.916 21.916 -8.81571e-07 25.5 -5.68248e-07ZM25.5 11C27.981 11 30 8.981 30 6.5C30 4.019 27.981 2 25.5 2C23.019 2 21 4.019 21 6.5C21 8.981 23.019 11 25.5 11Z" fill="#BDC3C7"/>
<path d="M8.5 0.999998C5.46244 0.999998 3 3.46243 3 6.5C3 9.53756 5.46243 12 8.5 12C11.5376 12 14 9.53756 14 6.5C14 3.46243 11.5376 0.999998 8.5 0.999998Z" fill="#BDC3C7"/>
<path d="M8.5 -2.05444e-06C12.084 -1.74111e-06 15 2.916 15 6.5C15 10.084 12.084 13 8.5 13C4.916 13 2 10.084 2 6.5C2 2.916 4.916 -2.36776e-06 8.5 -2.05444e-06ZM8.5 11C10.981 11 13 8.981 13 6.5C13 4.019 10.981 2 8.5 2C6.019 2 4 4.019 4 6.5C4 8.981 6.019 11 8.5 11Z" fill="#BDC3C7"/>
<path d="M31 6C31.553 6 32 6.447 32 7C32 14.72 25.72 21 18 21C17.447 21 17 20.553 17 20C17 19.447 17.447 19 18 19C24.617 19 30 13.617 30 7C30 6.447 30.447 6 31 6Z" fill="#BDC3C7"/>
<path d="M14 6C14.553 6 15 6.447 15 7C15 14.72 8.72 21 1 21C0.447 21 3.9078e-08 20.553 8.74228e-08 20C1.35768e-07 19.447 0.447 19 1 19C7.617 19 13 13.617 13 7C13 6.447 13.447 6 14 6Z" fill="#BDC3C7"/>
</svg>
