<svg width="630" height="339" viewBox="0 0 630 339" fill="none" xmlns="http://www.w3.org/2000/svg">
<g clip-path="url(#clip0_243_4741)">
<path d="M0 169.5C0 75.8877 75.8877 0 169.5 0H775V339H169.5C75.8877 339 0 263.112 0 169.5Z" fill="#FD130B"/>
<g opacity="0.6">
<path d="M287.936 270.122L272.432 216.843H203.649L188.145 270.122H147.552L215.207 68.002H260.592L328.529 270.122H287.936ZM263.411 185.835L247.343 133.966C246.018 129.258 244.44 123.479 242.551 116.629C240.662 109.779 239.168 103.324 238.041 97.3192C236.716 104.282 235.222 110.935 233.53 117.334C231.839 123.733 230.345 129.258 229.02 133.966L213.234 185.835H263.411Z" stroke="white" stroke-width="2.81897"/>
<path d="M409.998 114.515C428.405 114.515 442.5 118.828 452.282 127.482C462.064 136.136 466.941 149.47 466.941 167.511V270.122H440.724L433.395 248.979H432.267C426.066 257.239 419.526 263.3 412.676 267.162C405.826 271.024 396.382 272.941 384.345 272.941C371.575 272.941 360.891 269.079 352.35 261.383C343.808 253.687 339.523 241.735 339.523 225.582C339.523 209.429 344.964 197.956 355.873 190.063C366.783 182.17 383.217 177.744 405.205 176.814L429.448 175.968V168.357C429.448 158.575 427.419 151.64 423.388 147.497C419.357 143.353 413.662 141.295 406.333 141.295C399.004 141.295 392.464 142.366 385.614 144.537C378.763 146.707 372.139 149.385 365.74 152.571L354.182 127.764C361.709 123.817 370.166 120.632 379.553 118.179C388.94 115.727 399.088 114.515 409.998 114.515ZM429.73 197.956L413.662 198.52C400.329 199.084 391.026 201.762 385.754 206.554C380.483 211.346 377.861 217.773 377.861 225.864C377.861 233.193 379.694 238.408 383.358 241.509C387.023 244.61 391.872 246.16 397.876 246.16C406.699 246.16 414.226 243.2 420.428 237.281C426.629 231.361 429.73 222.594 429.73 210.923V197.956Z" stroke="white" stroke-width="2.81897"/>
</g>
<path d="M355.422 133.064C357.758 133.064 359.651 131.171 359.651 128.836C359.651 126.501 357.758 124.607 355.422 124.607C353.087 124.607 351.194 126.501 351.194 128.836C351.194 131.171 353.087 133.064 355.422 133.064Z" fill="white"/>
<path d="M430.125 179.577C432.46 179.577 434.353 177.684 434.353 175.349C434.353 173.013 432.46 171.12 430.125 171.12C427.79 171.12 425.896 173.013 425.896 175.349C425.896 177.684 427.79 179.577 430.125 179.577Z" fill="white"/>
<path d="M432.944 252.87C435.279 252.87 437.172 250.977 437.172 248.642C437.172 246.306 435.279 244.413 432.944 244.413C430.608 244.413 428.715 246.306 428.715 248.642C428.715 250.977 430.608 252.87 432.944 252.87Z" fill="white"/>
<path d="M430.125 202.129C432.46 202.129 434.353 200.236 434.353 197.9C434.353 195.565 432.46 193.672 430.125 193.672C427.79 193.672 425.896 195.565 425.896 197.9C425.896 200.236 427.79 202.129 430.125 202.129Z" fill="white"/>
<path d="M466.771 274.013C469.107 274.013 471 272.119 471 269.784C471 267.449 469.107 265.556 466.771 265.556C464.436 265.556 462.543 267.449 462.543 269.784C462.543 272.119 464.436 274.013 466.771 274.013Z" fill="white"/>
<path d="M441.401 274.013C443.736 274.013 445.629 272.119 445.629 269.784C445.629 267.449 443.736 265.556 441.401 265.556C439.066 265.556 437.172 267.449 437.172 269.784C437.172 272.119 439.066 274.013 441.401 274.013Z" fill="white"/>
<path d="M365.289 157.025C367.624 157.025 369.517 155.132 369.517 152.797C369.517 150.462 367.624 148.568 365.289 148.568C362.953 148.568 361.06 150.462 361.06 152.797C361.06 155.132 362.953 157.025 365.289 157.025Z" fill="white"/>
<path d="M385.021 210.586C387.357 210.586 389.25 208.693 389.25 206.357C389.25 204.022 387.357 202.129 385.021 202.129C382.686 202.129 380.793 204.022 380.793 206.357C380.793 208.693 382.686 210.586 385.021 210.586Z" fill="white"/>
<path d="M351.194 196.49C353.529 196.49 355.422 194.597 355.422 192.262C355.422 189.926 353.529 188.033 351.194 188.033C348.859 188.033 346.966 189.926 346.966 192.262C346.966 194.597 348.859 196.49 351.194 196.49Z" fill="white"/>
<path d="M351.194 264.145C353.529 264.145 355.422 262.252 355.422 259.917C355.422 257.582 353.529 255.688 351.194 255.688C348.859 255.688 346.966 257.582 346.966 259.917C346.966 262.252 348.859 264.145 351.194 264.145Z" fill="white"/>
<path d="M385.021 247.232C387.357 247.232 389.25 245.339 389.25 243.004C389.25 240.669 387.357 238.775 385.021 238.775C382.686 238.775 380.793 240.669 380.793 243.004C380.793 245.339 382.686 247.232 385.021 247.232Z" fill="white"/>
<path d="M455.496 134.473C457.831 134.473 459.724 132.58 459.724 130.245C459.724 127.91 457.831 126.017 455.496 126.017C453.16 126.017 451.267 127.91 451.267 130.245C451.267 132.58 453.16 134.473 455.496 134.473Z" fill="white"/>
<path d="M263.806 189.442C266.141 189.442 268.034 187.549 268.034 185.214C268.034 182.878 266.141 180.985 263.806 180.985C261.471 180.985 259.578 182.878 259.578 185.214C259.578 187.549 261.471 189.442 263.806 189.442Z" fill="white"/>
<path d="M272.263 221.861C274.598 221.861 276.491 219.968 276.491 217.633C276.491 215.297 274.598 213.404 272.263 213.404C269.927 213.404 268.034 215.297 268.034 217.633C268.034 219.968 269.927 221.861 272.263 221.861Z" fill="white"/>
<path d="M289.177 274.013C291.512 274.013 293.405 272.119 293.405 269.784C293.405 267.449 291.512 265.556 289.177 265.556C286.841 265.556 284.948 267.449 284.948 269.784C284.948 272.119 286.841 274.013 289.177 274.013Z" fill="white"/>
<path d="M328.642 274.013C330.978 274.013 332.871 272.119 332.871 269.784C332.871 267.449 330.978 265.556 328.642 265.556C326.307 265.556 324.414 267.449 324.414 269.784C324.414 272.119 326.307 274.013 328.642 274.013Z" fill="white"/>
<path d="M148.228 274.013C150.564 274.013 152.457 272.119 152.457 269.784C152.457 267.449 150.564 265.556 148.228 265.556C145.893 265.556 144 267.449 144 269.784C144 272.119 145.893 274.013 148.228 274.013Z" fill="white"/>
<path d="M187.694 274.013C190.029 274.013 191.922 272.119 191.922 269.784C191.922 267.449 190.029 265.556 187.694 265.556C185.359 265.556 183.465 267.449 183.465 269.784C183.465 272.119 185.359 274.013 187.694 274.013Z" fill="white"/>
<path d="M204.608 221.861C206.943 221.861 208.836 219.968 208.836 217.633C208.836 215.297 206.943 213.404 204.608 213.404C202.272 213.404 200.379 215.297 200.379 217.633C200.379 219.968 202.272 221.861 204.608 221.861Z" fill="white"/>
<path d="M213.065 189.442C215.4 189.442 217.293 187.549 217.293 185.214C217.293 182.878 215.4 180.985 213.065 180.985C210.729 180.985 208.836 182.878 208.836 185.214C208.836 187.549 210.729 189.442 213.065 189.442Z" fill="white"/>
<path d="M238.435 104.875C240.771 104.875 242.664 102.982 242.664 100.646C242.664 98.3111 240.771 96.418 238.435 96.418C236.1 96.418 234.207 98.3111 234.207 100.646C234.207 102.982 236.1 104.875 238.435 104.875Z" fill="white"/>
<path d="M260.987 72.4559C263.322 72.4559 265.215 70.5628 265.215 68.2275C265.215 65.8922 263.322 63.999 260.987 63.999C258.652 63.999 256.759 65.8922 256.759 68.2275C256.759 70.5628 258.652 72.4559 260.987 72.4559Z" fill="white"/>
<path d="M215.228 72.4559C217.564 72.4559 219.457 70.5628 219.457 68.2275C219.457 65.8922 217.564 63.999 215.228 63.999C212.893 63.999 211 65.8922 211 68.2275C211 70.5628 212.893 72.4559 215.228 72.4559Z" fill="white"/>
</g>
<defs>
<clipPath id="clip0_243_4741">
<rect width="630" height="339" fill="white"/>
</clipPath>
</defs>
</svg>
