<svg width="32" height="21" viewBox="0 0 32 21" fill="none" xmlns="http://www.w3.org/2000/svg">
<path d="M6.5 20C9.53757 20 12 17.5376 12 14.5C12 11.4624 9.53757 9 6.5 9C3.46243 9 1 11.4624 1 14.5C1 17.5376 3.46243 20 6.5 20Z" fill="#BDC3C7"/>
<path d="M6.5 21C2.916 21 0 18.084 0 14.5C0 10.916 2.916 8 6.5 8C10.084 8 13 10.916 13 14.5C13 18.084 10.084 21 6.5 21ZM6.5 10C4.019 10 2 12.019 2 14.5C2 16.981 4.019 19 6.5 19C8.981 19 11 16.981 11 14.5C11 12.019 8.981 10 6.5 10Z" fill="#BDC3C7"/>
<path d="M23.5 20C26.5376 20 29 17.5376 29 14.5C29 11.4624 26.5376 9 23.5 9C20.4624 9 18 11.4624 18 14.5C18 17.5376 20.4624 20 23.5 20Z" fill="#BDC3C7"/>
<path d="M23.5 21C19.916 21 17 18.084 17 14.5C17 10.916 19.916 8 23.5 8C27.084 8 30 10.916 30 14.5C30 18.084 27.084 21 23.5 21ZM23.5 10C21.019 10 19 12.019 19 14.5C19 16.981 21.019 19 23.5 19C25.981 19 28 16.981 28 14.5C28 12.019 25.981 10 23.5 10Z" fill="#BDC3C7"/>
<path d="M1 15C0.447 15 0 14.553 0 14C0 6.28 6.28 0 14 0C14.553 0 15 0.447 15 1C15 1.553 14.553 2 14 2C7.383 2 2 7.383 2 14C2 14.553 1.553 15 1 15Z" fill="#BDC3C7"/>
<path d="M18 15C17.447 15 17 14.553 17 14C17 6.28 23.28 0 31 0C31.553 0 32 0.447 32 1C32 1.553 31.553 2 31 2C24.383 2 19 7.383 19 14C19 14.553 18.553 15 18 15Z" fill="#BDC3C7"/>
</svg>
