<svg width="369" height="148" viewBox="0 0 369 148" fill="none" xmlns="http://www.w3.org/2000/svg">
<path d="M0 15C0 6.71573 6.71573 0 15 0H354C362.284 0 369 6.71573 369 15V68C369 112.183 333.183 148 289 148H15C6.71574 148 0 141.284 0 133V15Z" fill="#ECECEC"/>
<path d="M22.6705 25.5455L26.8892 38.8068H27.0511L31.2784 25.5455H35.3693L29.3523 43H24.5966L18.571 25.5455H22.6705ZM39.6818 43.2472C38.8466 43.2472 38.1023 43.1023 37.4489 42.8125C36.7955 42.517 36.2784 42.0824 35.8977 41.5085C35.5227 40.929 35.3352 40.2074 35.3352 39.3438C35.3352 38.6165 35.4688 38.0057 35.7358 37.5114C36.0028 37.017 36.3665 36.6193 36.8267 36.3182C37.2869 36.017 37.8097 35.7898 38.3949 35.6364C38.9858 35.483 39.6051 35.375 40.2528 35.3125C41.0142 35.233 41.6278 35.1591 42.0938 35.0909C42.5597 35.017 42.8977 34.9091 43.108 34.767C43.3182 34.625 43.4233 34.4148 43.4233 34.1364V34.0852C43.4233 33.5455 43.2528 33.1278 42.9119 32.8324C42.5767 32.5369 42.0994 32.3892 41.4801 32.3892C40.8267 32.3892 40.3068 32.5341 39.9205 32.8239C39.5341 33.108 39.2784 33.4659 39.1534 33.8977L35.7955 33.625C35.9659 32.8295 36.3011 32.142 36.8011 31.5625C37.3011 30.9773 37.946 30.5284 38.7358 30.2159C39.5313 29.8977 40.4517 29.7386 41.4972 29.7386C42.2244 29.7386 42.9205 29.8239 43.5852 29.9943C44.2557 30.1648 44.8494 30.429 45.3665 30.7869C45.8892 31.1449 46.3011 31.6051 46.6023 32.1676C46.9034 32.7244 47.054 33.392 47.054 34.1705V43H43.6108V41.1847H43.5085C43.2983 41.5938 43.017 41.9545 42.6648 42.267C42.3125 42.5739 41.8892 42.8153 41.3949 42.9915C40.9006 43.1619 40.3295 43.2472 39.6818 43.2472ZM40.7216 40.7415C41.2557 40.7415 41.7273 40.6364 42.1364 40.4261C42.5455 40.2102 42.8665 39.9205 43.0994 39.5568C43.3324 39.1932 43.4489 38.7812 43.4489 38.321V36.9318C43.3352 37.0057 43.179 37.0739 42.9801 37.1364C42.7869 37.1932 42.5682 37.2472 42.3239 37.2983C42.0795 37.3437 41.8352 37.3864 41.5909 37.4261C41.3466 37.4602 41.125 37.4915 40.9261 37.5199C40.5 37.5824 40.1278 37.6818 39.8097 37.8182C39.4915 37.9545 39.2443 38.1392 39.0682 38.3722C38.892 38.5994 38.804 38.8835 38.804 39.2244C38.804 39.7188 38.983 40.0966 39.3409 40.358C39.7045 40.6136 40.1648 40.7415 40.7216 40.7415ZM49.8707 43V29.9091H53.3906V32.1932H53.527C53.7656 31.3807 54.1662 30.767 54.7287 30.3523C55.2912 29.9318 55.9389 29.7216 56.6719 29.7216C56.8537 29.7216 57.0497 29.733 57.2599 29.7557C57.4702 29.7784 57.6548 29.8097 57.8139 29.8494V33.071C57.6435 33.0199 57.4077 32.9744 57.1065 32.9347C56.8054 32.8949 56.5298 32.875 56.2798 32.875C55.7457 32.875 55.2685 32.9915 54.848 33.2244C54.4332 33.4517 54.1037 33.7699 53.8594 34.179C53.6207 34.5881 53.5014 35.0597 53.5014 35.5938V43H49.8707ZM59.6911 43V29.9091H63.3217V43H59.6911ZM61.5149 28.2216C60.9751 28.2216 60.5121 28.0426 60.1257 27.6847C59.745 27.321 59.5547 26.8864 59.5547 26.3807C59.5547 25.8807 59.745 25.4517 60.1257 25.0938C60.5121 24.7301 60.9751 24.5483 61.5149 24.5483C62.0547 24.5483 62.5149 24.7301 62.8956 25.0938C63.282 25.4517 63.4751 25.8807 63.4751 26.3807C63.4751 26.8864 63.282 27.321 62.8956 27.6847C62.5149 28.0426 62.0547 28.2216 61.5149 28.2216ZM72.196 43.2557C70.8494 43.2557 69.6903 42.983 68.7188 42.4375C67.7528 41.8864 67.0085 41.108 66.4858 40.1023C65.9631 39.0909 65.7017 37.8949 65.7017 36.5142C65.7017 35.1676 65.9631 33.9858 66.4858 32.9688C67.0085 31.9517 67.7443 31.1591 68.6932 30.5909C69.6477 30.0227 70.767 29.7386 72.0511 29.7386C72.9148 29.7386 73.7188 29.8778 74.4631 30.1562C75.2131 30.429 75.8665 30.8409 76.4233 31.392C76.9858 31.9432 77.4233 32.6364 77.7358 33.4716C78.0483 34.3011 78.2045 35.2727 78.2045 36.3864V37.3835H67.1506V35.1335H74.7869C74.7869 34.6108 74.6733 34.1477 74.446 33.7443C74.2188 33.3409 73.9034 33.0256 73.5 32.7983C73.1023 32.5653 72.6392 32.4489 72.1108 32.4489C71.5597 32.4489 71.071 32.5767 70.6449 32.8324C70.2244 33.0824 69.8949 33.4205 69.6562 33.8466C69.4176 34.267 69.2955 34.7358 69.2898 35.2528V37.392C69.2898 38.0398 69.4091 38.5994 69.6477 39.071C69.892 39.5426 70.2358 39.9062 70.679 40.1619C71.1222 40.4176 71.6477 40.5455 72.2557 40.5455C72.6591 40.5455 73.0284 40.4886 73.3636 40.375C73.6989 40.2614 73.9858 40.0909 74.2244 39.8636C74.4631 39.6364 74.6449 39.358 74.7699 39.0284L78.1278 39.25C77.9574 40.0568 77.608 40.7614 77.0795 41.3636C76.5568 41.9602 75.8807 42.4261 75.0511 42.7614C74.2273 43.0909 73.2756 43.2557 72.196 43.2557ZM85.3977 43.2131C84.4034 43.2131 83.5028 42.9574 82.696 42.446C81.8949 41.929 81.2585 41.1705 80.7869 40.1705C80.321 39.1648 80.0881 37.9318 80.0881 36.4716C80.0881 34.9716 80.3295 33.7244 80.8125 32.7301C81.2955 31.7301 81.9375 30.983 82.7386 30.4886C83.5455 29.9886 84.429 29.7386 85.3892 29.7386C86.1222 29.7386 86.733 29.8636 87.2216 30.1136C87.7159 30.358 88.1136 30.6648 88.4148 31.0341C88.7216 31.3977 88.9545 31.7557 89.1136 32.108H89.2244V25.5455H92.8466V43H89.267V40.9034H89.1136C88.9432 41.267 88.7017 41.6278 88.3892 41.9858C88.0824 42.3381 87.6818 42.6307 87.1875 42.8636C86.6989 43.0966 86.1023 43.2131 85.3977 43.2131ZM86.5483 40.3239C87.1335 40.3239 87.6278 40.1648 88.0312 39.8466C88.4403 39.5227 88.7528 39.071 88.9688 38.4915C89.1903 37.9119 89.3011 37.233 89.3011 36.4545C89.3011 35.6761 89.1932 35 88.9773 34.4261C88.7614 33.8523 88.4489 33.4091 88.0398 33.0966C87.6307 32.7841 87.1335 32.6278 86.5483 32.6278C85.9517 32.6278 85.4489 32.7898 85.0398 33.1136C84.6307 33.4375 84.321 33.8864 84.1108 34.4602C83.9006 35.0341 83.7955 35.6989 83.7955 36.4545C83.7955 37.2159 83.9006 37.8892 84.1108 38.4744C84.3267 39.054 84.6364 39.5085 85.0398 39.8381C85.4489 40.1619 85.9517 40.3239 86.5483 40.3239ZM101.455 43V25.5455H108.341C109.665 25.5455 110.793 25.7983 111.724 26.304C112.656 26.804 113.366 27.5 113.855 28.392C114.349 29.2784 114.597 30.3011 114.597 31.4602C114.597 32.6193 114.347 33.642 113.847 34.5284C113.347 35.4148 112.622 36.1051 111.673 36.5994C110.73 37.0937 109.588 37.3409 108.247 37.3409H103.858V34.3835H107.651C108.361 34.3835 108.946 34.2614 109.406 34.017C109.872 33.767 110.219 33.4233 110.446 32.9858C110.679 32.5426 110.795 32.0341 110.795 31.4602C110.795 30.8807 110.679 30.375 110.446 29.9432C110.219 29.5057 109.872 29.1676 109.406 28.929C108.94 28.6847 108.349 28.5625 107.634 28.5625H105.145V43H101.455ZM116.925 43V29.9091H120.445V32.1932H120.582C120.82 31.3807 121.221 30.767 121.783 30.3523C122.346 29.9318 122.994 29.7216 123.727 29.7216C123.908 29.7216 124.104 29.733 124.315 29.7557C124.525 29.7784 124.71 29.8097 124.869 29.8494V33.071C124.698 33.0199 124.462 32.9744 124.161 32.9347C123.86 32.8949 123.585 32.875 123.335 32.875C122.8 32.875 122.323 32.9915 121.903 33.2244C121.488 33.4517 121.158 33.7699 120.914 34.179C120.675 34.5881 120.556 35.0597 120.556 35.5938V43H116.925ZM126.746 43V29.9091H130.376V43H126.746ZM128.57 28.2216C128.03 28.2216 127.567 28.0426 127.18 27.6847C126.8 27.321 126.609 26.8864 126.609 26.3807C126.609 25.8807 126.8 25.4517 127.18 25.0938C127.567 24.7301 128.03 24.5483 128.57 24.5483C129.109 24.5483 129.57 24.7301 129.95 25.0938C130.337 25.4517 130.53 25.8807 130.53 26.3807C130.53 26.8864 130.337 27.321 129.95 27.6847C129.57 28.0426 129.109 28.2216 128.57 28.2216ZM133.217 43V40.8352L139.626 32.9006V32.8068H133.438V29.9091H143.998V32.2699L137.981 40.0085V40.1023H144.219V43H133.217ZM152.587 43.2557C151.24 43.2557 150.081 42.983 149.109 42.4375C148.143 41.8864 147.399 41.108 146.876 40.1023C146.354 39.0909 146.092 37.8949 146.092 36.5142C146.092 35.1676 146.354 33.9858 146.876 32.9688C147.399 31.9517 148.135 31.1591 149.084 30.5909C150.038 30.0227 151.158 29.7386 152.442 29.7386C153.305 29.7386 154.109 29.8778 154.854 30.1562C155.604 30.429 156.257 30.8409 156.814 31.392C157.376 31.9432 157.814 32.6364 158.126 33.4716C158.439 34.3011 158.595 35.2727 158.595 36.3864V37.3835H147.541V35.1335H155.178C155.178 34.6108 155.064 34.1477 154.837 33.7443C154.609 33.3409 154.294 33.0256 153.891 32.7983C153.493 32.5653 153.03 32.4489 152.501 32.4489C151.95 32.4489 151.462 32.5767 151.036 32.8324C150.615 33.0824 150.286 33.4205 150.047 33.8466C149.808 34.267 149.686 34.7358 149.68 35.2528V37.392C149.68 38.0398 149.8 38.5994 150.038 39.071C150.283 39.5426 150.626 39.9062 151.07 40.1619C151.513 40.4176 152.038 40.5455 152.646 40.5455C153.05 40.5455 153.419 40.4886 153.754 40.375C154.089 40.2614 154.376 40.0909 154.615 39.8636C154.854 39.6364 155.036 39.358 155.161 39.0284L158.518 39.25C158.348 40.0568 157.999 40.7614 157.47 41.3636C156.947 41.9602 156.271 42.4261 155.442 42.7614C154.618 43.0909 153.666 43.2557 152.587 43.2557Z" fill="black"/>
<path d="M19.4091 88V76.3636H26.3864V77.6136H20.8182V81.5455H25.8636V82.7955H20.8182V88H19.4091ZM31.6364 88.1818C30.7955 88.1818 30.0701 87.9962 29.4602 87.625C28.8542 87.25 28.3864 86.7273 28.0568 86.0568C27.7311 85.3826 27.5682 84.5985 27.5682 83.7045C27.5682 82.8106 27.7311 82.0227 28.0568 81.3409C28.3864 80.6553 28.8447 80.1212 29.4318 79.7386C30.0227 79.3523 30.7121 79.1591 31.5 79.1591C31.9545 79.1591 32.4034 79.2348 32.8466 79.3864C33.2898 79.5379 33.6932 79.7841 34.0568 80.125C34.4205 80.4621 34.7102 80.9091 34.9261 81.4659C35.142 82.0227 35.25 82.7083 35.25 83.5227V84.0909H28.5227V82.9318H33.8864C33.8864 82.4394 33.7879 82 33.5909 81.6136C33.3977 81.2273 33.1212 80.9223 32.7614 80.6989C32.4053 80.4754 31.9848 80.3636 31.5 80.3636C30.9659 80.3636 30.5038 80.4962 30.1136 80.7614C29.7273 81.0227 29.4299 81.3636 29.2216 81.7841C29.0133 82.2045 28.9091 82.6553 28.9091 83.1364V83.9091C28.9091 84.5682 29.0227 85.1269 29.25 85.5852C29.4811 86.0398 29.8011 86.3864 30.2102 86.625C30.6193 86.8598 31.0947 86.9773 31.6364 86.9773C31.9886 86.9773 32.3068 86.928 32.5909 86.8295C32.8788 86.7273 33.1269 86.5758 33.3352 86.375C33.5436 86.1705 33.7045 85.9167 33.8182 85.6136L35.1136 85.9773C34.9773 86.4167 34.7481 86.803 34.4261 87.1364C34.1042 87.4659 33.7064 87.7235 33.233 87.9091C32.7595 88.0909 32.2273 88.1818 31.6364 88.1818ZM39.858 88.2045C39.3049 88.2045 38.803 88.1004 38.3523 87.892C37.9015 87.6799 37.5436 87.375 37.2784 86.9773C37.0133 86.5758 36.8807 86.0909 36.8807 85.5227C36.8807 85.0227 36.9792 84.6174 37.1761 84.3068C37.3731 83.9924 37.6364 83.7462 37.9659 83.5682C38.2955 83.3902 38.6591 83.2576 39.0568 83.1705C39.4583 83.0795 39.8617 83.0076 40.267 82.9545C40.7973 82.8864 41.2273 82.8352 41.5568 82.8011C41.8902 82.7633 42.1326 82.7008 42.2841 82.6136C42.4394 82.5265 42.517 82.375 42.517 82.1591V82.1136C42.517 81.553 42.3636 81.1174 42.0568 80.8068C41.7538 80.4962 41.2936 80.3409 40.6761 80.3409C40.036 80.3409 39.5341 80.4811 39.1705 80.7614C38.8068 81.0417 38.5511 81.3409 38.4034 81.6591L37.1307 81.2045C37.358 80.6742 37.661 80.2614 38.0398 79.9659C38.4223 79.6667 38.839 79.4583 39.2898 79.3409C39.7443 79.2197 40.1913 79.1591 40.6307 79.1591C40.911 79.1591 41.233 79.1932 41.5966 79.2614C41.964 79.3258 42.3182 79.4602 42.6591 79.6648C43.0038 79.8693 43.2898 80.178 43.517 80.5909C43.7443 81.0038 43.858 81.5568 43.858 82.25V88H42.517V86.8182H42.4489C42.358 87.0076 42.2064 87.2102 41.9943 87.4261C41.7822 87.642 41.5 87.8258 41.1477 87.9773C40.7955 88.1288 40.3655 88.2045 39.858 88.2045ZM40.0625 87C40.5928 87 41.0398 86.8958 41.4034 86.6875C41.7708 86.4792 42.0473 86.2102 42.233 85.8807C42.4223 85.5511 42.517 85.2045 42.517 84.8409V83.6136C42.4602 83.6818 42.3352 83.7443 42.142 83.8011C41.9527 83.8542 41.733 83.9015 41.483 83.9432C41.2367 83.9811 40.9962 84.0152 40.7614 84.0455C40.5303 84.072 40.3428 84.0947 40.1989 84.1136C39.8504 84.1591 39.5246 84.233 39.2216 84.3352C38.9223 84.4337 38.6799 84.5833 38.4943 84.7841C38.3125 84.9811 38.2216 85.25 38.2216 85.5909C38.2216 86.0568 38.3939 86.4091 38.7386 86.6477C39.0871 86.8826 39.5284 87 40.0625 87ZM50.1009 79.2727V80.4091H45.5781V79.2727H50.1009ZM46.8963 77.1818H48.2372V85.5C48.2372 85.8788 48.2921 86.1629 48.402 86.3523C48.5156 86.5379 48.6596 86.6629 48.8338 86.7273C49.0118 86.7879 49.1993 86.8182 49.3963 86.8182C49.544 86.8182 49.6652 86.8106 49.7599 86.7955C49.8546 86.7765 49.9304 86.7614 49.9872 86.75L50.2599 87.9545C50.169 87.9886 50.0421 88.0227 49.8793 88.0568C49.7164 88.0947 49.5099 88.1136 49.2599 88.1136C48.8812 88.1136 48.5099 88.0322 48.1463 87.8693C47.7865 87.7064 47.4872 87.4583 47.2486 87.125C47.0137 86.7917 46.8963 86.3712 46.8963 85.8636V77.1818ZM57.6179 84.4318V79.2727H58.9588V88H57.6179V86.5227H57.527C57.3224 86.9659 57.0043 87.3428 56.5724 87.6534C56.1406 87.9602 55.5952 88.1136 54.9361 88.1136C54.3906 88.1136 53.9058 87.9943 53.4815 87.7557C53.0573 87.5133 52.724 87.1496 52.4815 86.6648C52.2391 86.1761 52.1179 85.5606 52.1179 84.8182V79.2727H53.4588V84.7273C53.4588 85.3636 53.6368 85.8712 53.9929 86.25C54.3527 86.6288 54.8111 86.8182 55.3679 86.8182C55.7012 86.8182 56.0402 86.733 56.3849 86.5625C56.7334 86.392 57.0251 86.1307 57.2599 85.7784C57.4986 85.4261 57.6179 84.9773 57.6179 84.4318ZM61.4148 88V79.2727H62.7102V80.5909H62.8011C62.9602 80.1591 63.2481 79.8087 63.6648 79.5398C64.0814 79.2708 64.5511 79.1364 65.0739 79.1364C65.1723 79.1364 65.2955 79.1383 65.4432 79.142C65.5909 79.1458 65.7027 79.1515 65.7784 79.1591V80.5227C65.733 80.5114 65.6288 80.4943 65.4659 80.4716C65.3068 80.4451 65.1383 80.4318 64.9602 80.4318C64.536 80.4318 64.1572 80.5208 63.8239 80.6989C63.4943 80.8731 63.233 81.1155 63.0398 81.4261C62.8504 81.733 62.7557 82.0833 62.7557 82.4773V88H61.4148ZM70.7614 88.1818C69.9205 88.1818 69.1951 87.9962 68.5852 87.625C67.9792 87.25 67.5114 86.7273 67.1818 86.0568C66.8561 85.3826 66.6932 84.5985 66.6932 83.7045C66.6932 82.8106 66.8561 82.0227 67.1818 81.3409C67.5114 80.6553 67.9697 80.1212 68.5568 79.7386C69.1477 79.3523 69.8371 79.1591 70.625 79.1591C71.0795 79.1591 71.5284 79.2348 71.9716 79.3864C72.4148 79.5379 72.8182 79.7841 73.1818 80.125C73.5455 80.4621 73.8352 80.9091 74.0511 81.4659C74.267 82.0227 74.375 82.7083 74.375 83.5227V84.0909H67.6477V82.9318H73.0114C73.0114 82.4394 72.9129 82 72.7159 81.6136C72.5227 81.2273 72.2462 80.9223 71.8864 80.6989C71.5303 80.4754 71.1098 80.3636 70.625 80.3636C70.0909 80.3636 69.6288 80.4962 69.2386 80.7614C68.8523 81.0227 68.5549 81.3636 68.3466 81.7841C68.1383 82.2045 68.0341 82.6553 68.0341 83.1364V83.9091C68.0341 84.5682 68.1477 85.1269 68.375 85.5852C68.6061 86.0398 68.9261 86.3864 69.3352 86.625C69.7443 86.8598 70.2197 86.9773 70.7614 86.9773C71.1136 86.9773 71.4318 86.928 71.7159 86.8295C72.0038 86.7273 72.2519 86.5758 72.4602 86.375C72.6686 86.1705 72.8295 85.9167 72.9432 85.6136L74.2386 85.9773C74.1023 86.4167 73.8731 86.803 73.5511 87.1364C73.2292 87.4659 72.8314 87.7235 72.358 87.9091C71.8845 88.0909 71.3523 88.1818 70.7614 88.1818ZM83.483 88.2045C82.9299 88.2045 82.428 88.1004 81.9773 87.892C81.5265 87.6799 81.1686 87.375 80.9034 86.9773C80.6383 86.5758 80.5057 86.0909 80.5057 85.5227C80.5057 85.0227 80.6042 84.6174 80.8011 84.3068C80.9981 83.9924 81.2614 83.7462 81.5909 83.5682C81.9205 83.3902 82.2841 83.2576 82.6818 83.1705C83.0833 83.0795 83.4867 83.0076 83.892 82.9545C84.4223 82.8864 84.8523 82.8352 85.1818 82.8011C85.5152 82.7633 85.7576 82.7008 85.9091 82.6136C86.0644 82.5265 86.142 82.375 86.142 82.1591V82.1136C86.142 81.553 85.9886 81.1174 85.6818 80.8068C85.3788 80.4962 84.9186 80.3409 84.3011 80.3409C83.661 80.3409 83.1591 80.4811 82.7955 80.7614C82.4318 81.0417 82.1761 81.3409 82.0284 81.6591L80.7557 81.2045C80.983 80.6742 81.286 80.2614 81.6648 79.9659C82.0473 79.6667 82.464 79.4583 82.9148 79.3409C83.3693 79.2197 83.8163 79.1591 84.2557 79.1591C84.536 79.1591 84.858 79.1932 85.2216 79.2614C85.589 79.3258 85.9432 79.4602 86.2841 79.6648C86.6288 79.8693 86.9148 80.178 87.142 80.5909C87.3693 81.0038 87.483 81.5568 87.483 82.25V88H86.142V86.8182H86.0739C85.983 87.0076 85.8314 87.2102 85.6193 87.4261C85.4072 87.642 85.125 87.8258 84.7727 87.9773C84.4205 88.1288 83.9905 88.2045 83.483 88.2045ZM83.6875 87C84.2178 87 84.6648 86.8958 85.0284 86.6875C85.3958 86.4792 85.6723 86.2102 85.858 85.8807C86.0473 85.5511 86.142 85.2045 86.142 84.8409V83.6136C86.0852 83.6818 85.9602 83.7443 85.767 83.8011C85.5777 83.8542 85.358 83.9015 85.108 83.9432C84.8617 83.9811 84.6212 84.0152 84.3864 84.0455C84.1553 84.072 83.9678 84.0947 83.8239 84.1136C83.4754 84.1591 83.1496 84.233 82.8466 84.3352C82.5473 84.4337 82.3049 84.5833 82.1193 84.7841C81.9375 84.9811 81.8466 85.25 81.8466 85.5909C81.8466 86.0568 82.0189 86.4091 82.3636 86.6477C82.7121 86.8826 83.1534 87 83.6875 87ZM96.4077 88L93.7486 79.2727H95.1577L97.044 85.9545H97.1349L98.9986 79.2727H100.43L102.271 85.9318H102.362L104.249 79.2727H105.658L102.999 88H101.68L99.7713 81.2955H99.6349L97.7259 88H96.4077ZM107.43 88V79.2727H108.771V88H107.43ZM108.112 77.8182C107.851 77.8182 107.625 77.7292 107.436 77.5511C107.25 77.3731 107.158 77.1591 107.158 76.9091C107.158 76.6591 107.25 76.4451 107.436 76.267C107.625 76.089 107.851 76 108.112 76C108.374 76 108.597 76.089 108.783 76.267C108.972 76.4451 109.067 76.6591 109.067 76.9091C109.067 77.1591 108.972 77.3731 108.783 77.5511C108.597 77.7292 108.374 77.8182 108.112 77.8182ZM114.523 88.1818C113.795 88.1818 113.153 87.9981 112.597 87.6307C112.04 87.2595 111.604 86.7367 111.29 86.0625C110.975 85.3845 110.818 84.5833 110.818 83.6591C110.818 82.7424 110.975 81.947 111.29 81.2727C111.604 80.5985 112.042 80.0777 112.602 79.7102C113.163 79.3428 113.811 79.1591 114.545 79.1591C115.114 79.1591 115.563 79.2538 115.892 79.4432C116.225 79.6288 116.479 79.8409 116.653 80.0795C116.831 80.3144 116.97 80.5076 117.068 80.6591H117.182V76.3636H118.523V88H117.227V86.6591H117.068C116.97 86.8182 116.83 87.0189 116.648 87.2614C116.466 87.5 116.206 87.714 115.869 87.9034C115.532 88.089 115.083 88.1818 114.523 88.1818ZM114.705 86.9773C115.242 86.9773 115.697 86.8371 116.068 86.5568C116.439 86.2727 116.722 85.8807 116.915 85.3807C117.108 84.8769 117.205 84.2955 117.205 83.6364C117.205 82.9848 117.11 82.4148 116.92 81.9261C116.731 81.4337 116.451 81.0511 116.08 80.7784C115.708 80.5019 115.25 80.3636 114.705 80.3636C114.136 80.3636 113.663 80.5095 113.284 80.8011C112.909 81.089 112.627 81.4811 112.438 81.9773C112.252 82.4697 112.159 83.0227 112.159 83.6364C112.159 84.2576 112.254 84.822 112.443 85.3295C112.636 85.8333 112.92 86.2348 113.295 86.5341C113.674 86.8295 114.144 86.9773 114.705 86.9773ZM124.824 88.1818C123.983 88.1818 123.258 87.9962 122.648 87.625C122.042 87.25 121.574 86.7273 121.244 86.0568C120.919 85.3826 120.756 84.5985 120.756 83.7045C120.756 82.8106 120.919 82.0227 121.244 81.3409C121.574 80.6553 122.032 80.1212 122.619 79.7386C123.21 79.3523 123.9 79.1591 124.688 79.1591C125.142 79.1591 125.591 79.2348 126.034 79.3864C126.477 79.5379 126.881 79.7841 127.244 80.125C127.608 80.4621 127.898 80.9091 128.114 81.4659C128.33 82.0227 128.438 82.7083 128.438 83.5227V84.0909H121.71V82.9318H127.074C127.074 82.4394 126.975 82 126.778 81.6136C126.585 81.2273 126.309 80.9223 125.949 80.6989C125.593 80.4754 125.172 80.3636 124.688 80.3636C124.153 80.3636 123.691 80.4962 123.301 80.7614C122.915 81.0227 122.617 81.3636 122.409 81.7841C122.201 82.2045 122.097 82.6553 122.097 83.1364V83.9091C122.097 84.5682 122.21 85.1269 122.438 85.5852C122.669 86.0398 122.989 86.3864 123.398 86.625C123.807 86.8598 124.282 86.9773 124.824 86.9773C125.176 86.9773 125.494 86.928 125.778 86.8295C126.066 86.7273 126.314 86.5758 126.523 86.375C126.731 86.1705 126.892 85.9167 127.006 85.6136L128.301 85.9773C128.165 86.4167 127.936 86.803 127.614 87.1364C127.292 87.4659 126.894 87.7235 126.42 87.9091C125.947 88.0909 125.415 88.1818 124.824 88.1818ZM134.977 88V79.2727H136.273V80.5909H136.364C136.523 80.1591 136.811 79.8087 137.227 79.5398C137.644 79.2708 138.114 79.1364 138.636 79.1364C138.735 79.1364 138.858 79.1383 139.006 79.142C139.153 79.1458 139.265 79.1515 139.341 79.1591V80.5227C139.295 80.5114 139.191 80.4943 139.028 80.4716C138.869 80.4451 138.701 80.4318 138.523 80.4318C138.098 80.4318 137.72 80.5208 137.386 80.6989C137.057 80.8731 136.795 81.1155 136.602 81.4261C136.413 81.733 136.318 82.0833 136.318 82.4773V88H134.977ZM143.499 88.2045C142.946 88.2045 142.444 88.1004 141.993 87.892C141.542 87.6799 141.184 87.375 140.919 86.9773C140.654 86.5758 140.521 86.0909 140.521 85.5227C140.521 85.0227 140.62 84.6174 140.817 84.3068C141.014 83.9924 141.277 83.7462 141.607 83.5682C141.936 83.3902 142.3 83.2576 142.697 83.1705C143.099 83.0795 143.502 83.0076 143.908 82.9545C144.438 82.8864 144.868 82.8352 145.197 82.8011C145.531 82.7633 145.773 82.7008 145.925 82.6136C146.08 82.5265 146.158 82.375 146.158 82.1591V82.1136C146.158 81.553 146.004 81.1174 145.697 80.8068C145.394 80.4962 144.934 80.3409 144.317 80.3409C143.677 80.3409 143.175 80.4811 142.811 80.7614C142.447 81.0417 142.192 81.3409 142.044 81.6591L140.771 81.2045C140.999 80.6742 141.302 80.2614 141.68 79.9659C142.063 79.6667 142.48 79.4583 142.93 79.3409C143.385 79.2197 143.832 79.1591 144.271 79.1591C144.552 79.1591 144.874 79.1932 145.237 79.2614C145.605 79.3258 145.959 79.4602 146.3 79.6648C146.644 79.8693 146.93 80.178 147.158 80.5909C147.385 81.0038 147.499 81.5568 147.499 82.25V88H146.158V86.8182H146.089C145.999 87.0076 145.847 87.2102 145.635 87.4261C145.423 87.642 145.141 87.8258 144.788 87.9773C144.436 88.1288 144.006 88.2045 143.499 88.2045ZM143.703 87C144.233 87 144.68 86.8958 145.044 86.6875C145.411 86.4792 145.688 86.2102 145.874 85.8807C146.063 85.5511 146.158 85.2045 146.158 84.8409V83.6136C146.101 83.6818 145.976 83.7443 145.783 83.8011C145.593 83.8542 145.374 83.9015 145.124 83.9432C144.877 83.9811 144.637 84.0152 144.402 84.0455C144.171 84.072 143.983 84.0947 143.839 84.1136C143.491 84.1591 143.165 84.233 142.862 84.3352C142.563 84.4337 142.321 84.5833 142.135 84.7841C141.953 84.9811 141.862 85.25 141.862 85.5909C141.862 86.0568 142.035 86.4091 142.379 86.6477C142.728 86.8826 143.169 87 143.703 87ZM151.287 82.75V88H149.946V79.2727H151.241V80.6364H151.355C151.56 80.1932 151.87 79.8371 152.287 79.5682C152.704 79.2955 153.241 79.1591 153.901 79.1591C154.491 79.1591 155.009 79.2803 155.452 79.5227C155.895 79.7614 156.24 80.125 156.486 80.6136C156.732 81.0985 156.855 81.7121 156.855 82.4545V88H155.514V82.5455C155.514 81.8598 155.336 81.3258 154.98 80.9432C154.624 80.5568 154.135 80.3636 153.514 80.3636C153.086 80.3636 152.704 80.4564 152.366 80.642C152.033 80.8277 151.77 81.0985 151.577 81.4545C151.384 81.8106 151.287 82.2424 151.287 82.75ZM162.828 91.4545C162.18 91.4545 161.624 91.3712 161.158 91.2045C160.692 91.0417 160.304 90.8258 159.993 90.5568C159.686 90.2917 159.442 90.0076 159.26 89.7045L160.328 88.9545C160.449 89.1136 160.603 89.2955 160.788 89.5C160.974 89.7083 161.228 89.8883 161.55 90.0398C161.875 90.1951 162.302 90.2727 162.828 90.2727C163.533 90.2727 164.114 90.1023 164.572 89.7614C165.031 89.4205 165.26 88.8864 165.26 88.1591V86.3864H165.146C165.048 86.5455 164.908 86.7424 164.726 86.9773C164.548 87.2083 164.29 87.4148 163.953 87.5966C163.62 87.7746 163.169 87.8636 162.601 87.8636C161.896 87.8636 161.264 87.697 160.703 87.3636C160.146 87.0303 159.705 86.5455 159.379 85.9091C159.057 85.2727 158.896 84.5 158.896 83.5909C158.896 82.697 159.054 81.9186 159.368 81.2557C159.682 80.589 160.12 80.0739 160.68 79.7102C161.241 79.3428 161.889 79.1591 162.624 79.1591C163.192 79.1591 163.643 79.2538 163.976 79.4432C164.313 79.6288 164.571 79.8409 164.749 80.0795C164.93 80.3144 165.071 80.5076 165.169 80.6591H165.305V79.2727H166.601V88.25C166.601 89 166.43 89.6098 166.089 90.0795C165.752 90.553 165.298 90.8996 164.726 91.1193C164.158 91.3428 163.525 91.4545 162.828 91.4545ZM162.783 86.6591C163.321 86.6591 163.775 86.536 164.146 86.2898C164.518 86.0436 164.8 85.6894 164.993 85.2273C165.186 84.7652 165.283 84.2121 165.283 83.5682C165.283 82.9394 165.188 82.3845 164.999 81.9034C164.809 81.4223 164.529 81.0455 164.158 80.7727C163.786 80.5 163.328 80.3636 162.783 80.3636C162.214 80.3636 161.741 80.5076 161.362 80.7955C160.987 81.0833 160.705 81.4697 160.516 81.9545C160.33 82.4394 160.237 82.9773 160.237 83.5682C160.237 84.1742 160.332 84.7102 160.521 85.1761C160.714 85.6383 160.999 86.0019 161.374 86.267C161.752 86.5284 162.222 86.6591 162.783 86.6591ZM172.714 88.1818C171.874 88.1818 171.148 87.9962 170.538 87.625C169.932 87.25 169.464 86.7273 169.135 86.0568C168.809 85.3826 168.646 84.5985 168.646 83.7045C168.646 82.8106 168.809 82.0227 169.135 81.3409C169.464 80.6553 169.923 80.1212 170.51 79.7386C171.101 79.3523 171.79 79.1591 172.578 79.1591C173.033 79.1591 173.482 79.2348 173.925 79.3864C174.368 79.5379 174.771 79.7841 175.135 80.125C175.499 80.4621 175.788 80.9091 176.004 81.4659C176.22 82.0227 176.328 82.7083 176.328 83.5227V84.0909H169.601V82.9318H174.964C174.964 82.4394 174.866 82 174.669 81.6136C174.476 81.2273 174.199 80.9223 173.839 80.6989C173.483 80.4754 173.063 80.3636 172.578 80.3636C172.044 80.3636 171.582 80.4962 171.192 80.7614C170.805 81.0227 170.508 81.3636 170.3 81.7841C170.091 82.2045 169.987 82.6553 169.987 83.1364V83.9091C169.987 84.5682 170.101 85.1269 170.328 85.5852C170.559 86.0398 170.879 86.3864 171.288 86.625C171.697 86.8598 172.173 86.9773 172.714 86.9773C173.067 86.9773 173.385 86.928 173.669 86.8295C173.957 86.7273 174.205 86.5758 174.413 86.375C174.622 86.1705 174.783 85.9167 174.896 85.6136L176.192 85.9773C176.055 86.4167 175.826 86.803 175.504 87.1364C175.182 87.4659 174.785 87.7235 174.311 87.9091C173.838 88.0909 173.305 88.1818 172.714 88.1818ZM186.413 88.1818C185.625 88.1818 184.934 87.9943 184.339 87.6193C183.749 87.2443 183.286 86.7197 182.953 86.0455C182.624 85.3712 182.459 84.5833 182.459 83.6818C182.459 82.7727 182.624 81.9792 182.953 81.3011C183.286 80.6231 183.749 80.0966 184.339 79.7216C184.934 79.3466 185.625 79.1591 186.413 79.1591C187.201 79.1591 187.891 79.3466 188.482 79.7216C189.076 80.0966 189.538 80.6231 189.868 81.3011C190.201 81.9792 190.368 82.7727 190.368 83.6818C190.368 84.5833 190.201 85.3712 189.868 86.0455C189.538 86.7197 189.076 87.2443 188.482 87.6193C187.891 87.9943 187.201 88.1818 186.413 88.1818ZM186.413 86.9773C187.012 86.9773 187.504 86.8239 187.891 86.517C188.277 86.2102 188.563 85.8068 188.749 85.3068C188.934 84.8068 189.027 84.2652 189.027 83.6818C189.027 83.0985 188.934 82.5549 188.749 82.0511C188.563 81.5473 188.277 81.1402 187.891 80.8295C187.504 80.5189 187.012 80.3636 186.413 80.3636C185.815 80.3636 185.322 80.5189 184.936 80.8295C184.55 81.1402 184.264 81.5473 184.078 82.0511C183.893 82.5549 183.8 83.0985 183.8 83.6818C183.8 84.2652 183.893 84.8068 184.078 85.3068C184.264 85.8068 184.55 86.2102 184.936 86.517C185.322 86.8239 185.815 86.9773 186.413 86.9773ZM196.301 79.2727V80.4091H191.597V79.2727H196.301ZM193.006 88V78.0682C193.006 77.5682 193.123 77.1515 193.358 76.8182C193.593 76.4848 193.898 76.2348 194.273 76.0682C194.648 75.9015 195.044 75.8182 195.46 75.8182C195.79 75.8182 196.059 75.8447 196.267 75.8977C196.475 75.9508 196.631 76 196.733 76.0455L196.347 77.2045C196.278 77.1818 196.184 77.1534 196.062 77.1193C195.945 77.0852 195.79 77.0682 195.597 77.0682C195.153 77.0682 194.833 77.1799 194.636 77.4034C194.443 77.6269 194.347 77.9545 194.347 78.3864V88H193.006ZM202.68 91.2727V79.2727H203.976V80.6591H204.135C204.233 80.5076 204.37 80.3144 204.544 80.0795C204.722 79.8409 204.976 79.6288 205.305 79.4432C205.639 79.2538 206.089 79.1591 206.658 79.1591C207.393 79.1591 208.04 79.3428 208.601 79.7102C209.161 80.0777 209.599 80.5985 209.913 81.2727C210.228 81.947 210.385 82.7424 210.385 83.6591C210.385 84.5833 210.228 85.3845 209.913 86.0625C209.599 86.7367 209.163 87.2595 208.607 87.6307C208.05 87.9981 207.408 88.1818 206.68 88.1818C206.12 88.1818 205.671 88.089 205.334 87.9034C204.997 87.714 204.737 87.5 204.555 87.2614C204.374 87.0189 204.233 86.8182 204.135 86.6591H204.021V91.2727H202.68ZM203.999 83.6364C203.999 84.2955 204.095 84.8769 204.288 85.3807C204.482 85.8807 204.764 86.2727 205.135 86.5568C205.506 86.8371 205.961 86.9773 206.499 86.9773C207.059 86.9773 207.527 86.8295 207.902 86.5341C208.281 86.2348 208.565 85.8333 208.754 85.3295C208.947 84.822 209.044 84.2576 209.044 83.6364C209.044 83.0227 208.949 82.4697 208.76 81.9773C208.574 81.4811 208.292 81.089 207.913 80.8011C207.538 80.5095 207.067 80.3636 206.499 80.3636C205.953 80.3636 205.495 80.5019 205.124 80.7784C204.752 81.0511 204.472 81.4337 204.283 81.9261C204.093 82.4148 203.999 82.9848 203.999 83.6364ZM212.43 88V79.2727H213.726V80.5909H213.817C213.976 80.1591 214.264 79.8087 214.68 79.5398C215.097 79.2708 215.567 79.1364 216.089 79.1364C216.188 79.1364 216.311 79.1383 216.459 79.142C216.607 79.1458 216.718 79.1515 216.794 79.1591V80.5227C216.749 80.5114 216.644 80.4943 216.482 80.4716C216.322 80.4451 216.154 80.4318 215.976 80.4318C215.552 80.4318 215.173 80.5208 214.839 80.6989C214.51 80.8731 214.249 81.1155 214.055 81.4261C213.866 81.733 213.771 82.0833 213.771 82.4773V88H212.43ZM218.384 88V79.2727H219.724V88H218.384ZM219.065 77.8182C218.804 77.8182 218.579 77.7292 218.389 77.5511C218.204 77.3731 218.111 77.1591 218.111 76.9091C218.111 76.6591 218.204 76.4451 218.389 76.267C218.579 76.089 218.804 76 219.065 76C219.327 76 219.55 76.089 219.736 76.267C219.925 76.4451 220.02 76.6591 220.02 76.9091C220.02 77.1591 219.925 77.3731 219.736 77.5511C219.55 77.7292 219.327 77.8182 219.065 77.8182ZM221.93 88V86.9773L226.885 80.6136V80.5227H222.089V79.2727H228.612V80.3409L223.794 86.6591V86.75H228.771V88H221.93ZM234.246 88.1818C233.405 88.1818 232.679 87.9962 232.07 87.625C231.464 87.25 230.996 86.7273 230.666 86.0568C230.34 85.3826 230.178 84.5985 230.178 83.7045C230.178 82.8106 230.34 82.0227 230.666 81.3409C230.996 80.6553 231.454 80.1212 232.041 79.7386C232.632 79.3523 233.321 79.1591 234.109 79.1591C234.564 79.1591 235.013 79.2348 235.456 79.3864C235.899 79.5379 236.303 79.7841 236.666 80.125C237.03 80.4621 237.32 80.9091 237.536 81.4659C237.751 82.0227 237.859 82.7083 237.859 83.5227V84.0909H231.132V82.9318H236.496C236.496 82.4394 236.397 82 236.2 81.6136C236.007 81.2273 235.731 80.9223 235.371 80.6989C235.015 80.4754 234.594 80.3636 234.109 80.3636C233.575 80.3636 233.113 80.4962 232.723 80.7614C232.337 81.0227 232.039 81.3636 231.831 81.7841C231.623 82.2045 231.518 82.6553 231.518 83.1364V83.9091C231.518 84.5682 231.632 85.1269 231.859 85.5852C232.09 86.0398 232.411 86.3864 232.82 86.625C233.229 86.8598 233.704 86.9773 234.246 86.9773C234.598 86.9773 234.916 86.928 235.2 86.8295C235.488 86.7273 235.736 86.5758 235.945 86.375C236.153 86.1705 236.314 85.9167 236.428 85.6136L237.723 85.9773C237.587 86.4167 237.357 86.803 237.036 87.1364C236.714 87.4659 236.316 87.7235 235.842 87.9091C235.369 88.0909 234.837 88.1818 234.246 88.1818ZM246.081 81.2273L244.876 81.5682C244.801 81.3674 244.689 81.1723 244.541 80.983C244.397 80.7898 244.2 80.6307 243.95 80.5057C243.7 80.3807 243.38 80.3182 242.99 80.3182C242.456 80.3182 242.011 80.4413 241.655 80.6875C241.303 80.9299 241.126 81.2386 241.126 81.6136C241.126 81.947 241.248 82.2102 241.49 82.4034C241.732 82.5966 242.111 82.7576 242.626 82.8864L243.922 83.2045C244.702 83.3939 245.284 83.6837 245.666 84.0739C246.049 84.4602 246.24 84.9583 246.24 85.5682C246.24 86.0682 246.096 86.5152 245.808 86.9091C245.524 87.303 245.126 87.6136 244.615 87.8409C244.104 88.0682 243.509 88.1818 242.831 88.1818C241.941 88.1818 241.204 87.9886 240.621 87.6023C240.037 87.2159 239.668 86.6515 239.513 85.9091L240.786 85.5909C240.907 86.0606 241.136 86.4129 241.473 86.6477C241.814 86.8826 242.259 87 242.808 87C243.433 87 243.929 86.8674 244.297 86.6023C244.668 86.3333 244.854 86.0114 244.854 85.6364C244.854 85.3333 244.748 85.0795 244.536 84.875C244.323 84.6667 243.998 84.5114 243.558 84.4091L242.104 84.0682C241.304 83.8788 240.717 83.5852 240.342 83.1875C239.971 82.786 239.786 82.2841 239.786 81.6818C239.786 81.1894 239.924 80.7538 240.2 80.375C240.481 79.9962 240.861 79.6989 241.342 79.483C241.827 79.267 242.376 79.1591 242.99 79.1591C243.854 79.1591 244.532 79.3485 245.024 79.7273C245.52 80.1061 245.873 80.6061 246.081 81.2273ZM20.8182 108.364V120H19.4091V108.364H20.8182ZM24.8026 114.75V120H23.4616V111.273H24.7571V112.636H24.8707C25.0753 112.193 25.3859 111.837 25.8026 111.568C26.2192 111.295 26.7571 111.159 27.4162 111.159C28.0071 111.159 28.5241 111.28 28.9673 111.523C29.4105 111.761 29.7552 112.125 30.0014 112.614C30.2476 113.098 30.3707 113.712 30.3707 114.455V120H29.0298V114.545C29.0298 113.86 28.8518 113.326 28.4957 112.943C28.1397 112.557 27.651 112.364 27.0298 112.364C26.6018 112.364 26.2192 112.456 25.8821 112.642C25.5488 112.828 25.2855 113.098 25.0923 113.455C24.8991 113.811 24.8026 114.242 24.8026 114.75ZM36.3665 120.182C35.5483 120.182 34.8438 119.989 34.2528 119.602C33.6619 119.216 33.2074 118.684 32.8892 118.006C32.571 117.328 32.4119 116.553 32.4119 115.682C32.4119 114.795 32.5748 114.013 32.9006 113.335C33.2301 112.653 33.6884 112.121 34.2756 111.739C34.8665 111.352 35.5559 111.159 36.3438 111.159C36.9574 111.159 37.5104 111.273 38.0028 111.5C38.4953 111.727 38.8987 112.045 39.2131 112.455C39.5275 112.864 39.7225 113.341 39.7983 113.886H38.4574C38.3551 113.489 38.1278 113.136 37.7756 112.83C37.4271 112.519 36.9574 112.364 36.3665 112.364C35.8438 112.364 35.3854 112.5 34.9915 112.773C34.6013 113.042 34.2964 113.422 34.0767 113.915C33.8608 114.403 33.7528 114.977 33.7528 115.636C33.7528 116.311 33.8589 116.898 34.071 117.398C34.2869 117.898 34.59 118.286 34.9801 118.562C35.3741 118.839 35.8362 118.977 36.3665 118.977C36.715 118.977 37.0312 118.917 37.3153 118.795C37.5994 118.674 37.84 118.5 38.0369 118.273C38.2339 118.045 38.3741 117.773 38.4574 117.455H39.7983C39.7225 117.97 39.535 118.434 39.2358 118.847C38.9403 119.256 38.5483 119.581 38.0597 119.824C37.5748 120.062 37.0104 120.182 36.3665 120.182ZM43.0994 108.364V120H41.7585V108.364H43.0994ZM51.0554 116.432V111.273H52.3963V120H51.0554V118.523H50.9645C50.7599 118.966 50.4418 119.343 50.0099 119.653C49.5781 119.96 49.0327 120.114 48.3736 120.114C47.8281 120.114 47.3433 119.994 46.919 119.756C46.4948 119.513 46.1615 119.15 45.919 118.665C45.6766 118.176 45.5554 117.561 45.5554 116.818V111.273H46.8963V116.727C46.8963 117.364 47.0743 117.871 47.4304 118.25C47.7902 118.629 48.2486 118.818 48.8054 118.818C49.1387 118.818 49.4777 118.733 49.8224 118.562C50.1709 118.392 50.4626 118.131 50.6974 117.778C50.9361 117.426 51.0554 116.977 51.0554 116.432ZM58.1477 120.182C57.4205 120.182 56.7784 119.998 56.2216 119.631C55.6648 119.259 55.2292 118.737 54.9148 118.062C54.6004 117.384 54.4432 116.583 54.4432 115.659C54.4432 114.742 54.6004 113.947 54.9148 113.273C55.2292 112.598 55.6667 112.078 56.2273 111.71C56.7879 111.343 57.4356 111.159 58.1705 111.159C58.7386 111.159 59.1875 111.254 59.517 111.443C59.8504 111.629 60.1042 111.841 60.2784 112.08C60.4564 112.314 60.5947 112.508 60.6932 112.659H60.8068V108.364H62.1477V120H60.8523V118.659H60.6932C60.5947 118.818 60.4545 119.019 60.2727 119.261C60.0909 119.5 59.8314 119.714 59.4943 119.903C59.1572 120.089 58.7083 120.182 58.1477 120.182ZM58.3295 118.977C58.8674 118.977 59.322 118.837 59.6932 118.557C60.0644 118.273 60.3466 117.881 60.5398 117.381C60.733 116.877 60.8295 116.295 60.8295 115.636C60.8295 114.985 60.7348 114.415 60.5455 113.926C60.3561 113.434 60.0758 113.051 59.7045 112.778C59.3333 112.502 58.875 112.364 58.3295 112.364C57.7614 112.364 57.2879 112.509 56.9091 112.801C56.5341 113.089 56.2519 113.481 56.0625 113.977C55.8769 114.47 55.7841 115.023 55.7841 115.636C55.7841 116.258 55.8788 116.822 56.0682 117.33C56.2614 117.833 56.5455 118.235 56.9205 118.534C57.2992 118.83 57.7689 118.977 58.3295 118.977ZM64.7898 120V111.273H66.1307V120H64.7898ZM65.4716 109.818C65.2102 109.818 64.9848 109.729 64.7955 109.551C64.6098 109.373 64.517 109.159 64.517 108.909C64.517 108.659 64.6098 108.445 64.7955 108.267C64.9848 108.089 65.2102 108 65.4716 108C65.733 108 65.9564 108.089 66.142 108.267C66.3314 108.445 66.4261 108.659 66.4261 108.909C66.4261 109.159 66.3314 109.373 66.142 109.551C65.9564 109.729 65.733 109.818 65.4716 109.818ZM69.9276 114.75V120H68.5866V111.273H69.8821V112.636H69.9957C70.2003 112.193 70.5109 111.837 70.9276 111.568C71.3442 111.295 71.8821 111.159 72.5412 111.159C73.1321 111.159 73.6491 111.28 74.0923 111.523C74.5355 111.761 74.8802 112.125 75.1264 112.614C75.3726 113.098 75.4957 113.712 75.4957 114.455V120H74.1548V114.545C74.1548 113.86 73.9768 113.326 73.6207 112.943C73.2647 112.557 72.776 112.364 72.1548 112.364C71.7268 112.364 71.3442 112.456 71.0071 112.642C70.6738 112.828 70.4105 113.098 70.2173 113.455C70.0241 113.811 69.9276 114.242 69.9276 114.75ZM81.4688 123.455C80.821 123.455 80.2642 123.371 79.7983 123.205C79.3324 123.042 78.9441 122.826 78.6335 122.557C78.3267 122.292 78.0824 122.008 77.9006 121.705L78.9688 120.955C79.09 121.114 79.2434 121.295 79.429 121.5C79.6146 121.708 79.8684 121.888 80.1903 122.04C80.5161 122.195 80.9422 122.273 81.4688 122.273C82.1733 122.273 82.7547 122.102 83.2131 121.761C83.6714 121.42 83.9006 120.886 83.9006 120.159V118.386H83.7869C83.6884 118.545 83.5483 118.742 83.3665 118.977C83.1884 119.208 82.9309 119.415 82.5938 119.597C82.2604 119.775 81.8097 119.864 81.2415 119.864C80.5369 119.864 79.9044 119.697 79.3438 119.364C78.7869 119.03 78.3456 118.545 78.0199 117.909C77.6979 117.273 77.5369 116.5 77.5369 115.591C77.5369 114.697 77.6941 113.919 78.0085 113.256C78.3229 112.589 78.7604 112.074 79.321 111.71C79.8816 111.343 80.5294 111.159 81.2642 111.159C81.8324 111.159 82.2831 111.254 82.6165 111.443C82.9536 111.629 83.2112 111.841 83.3892 112.08C83.571 112.314 83.7112 112.508 83.8097 112.659H83.946V111.273H85.2415V120.25C85.2415 121 85.071 121.61 84.7301 122.08C84.393 122.553 83.9384 122.9 83.3665 123.119C82.7983 123.343 82.1657 123.455 81.4688 123.455ZM81.4233 118.659C81.9612 118.659 82.4157 118.536 82.7869 118.29C83.1581 118.044 83.4403 117.689 83.6335 117.227C83.8267 116.765 83.9233 116.212 83.9233 115.568C83.9233 114.939 83.8286 114.384 83.6392 113.903C83.4498 113.422 83.1695 113.045 82.7983 112.773C82.4271 112.5 81.9688 112.364 81.4233 112.364C80.8551 112.364 80.3816 112.508 80.0028 112.795C79.6278 113.083 79.3456 113.47 79.1562 113.955C78.9706 114.439 78.8778 114.977 78.8778 115.568C78.8778 116.174 78.9725 116.71 79.1619 117.176C79.3551 117.638 79.6392 118.002 80.0142 118.267C80.393 118.528 80.8627 118.659 81.4233 118.659ZM98.3778 113.227L97.1733 113.568C97.0975 113.367 96.9858 113.172 96.8381 112.983C96.6941 112.79 96.4972 112.631 96.2472 112.506C95.9972 112.381 95.6771 112.318 95.2869 112.318C94.7528 112.318 94.3078 112.441 93.9517 112.688C93.5994 112.93 93.4233 113.239 93.4233 113.614C93.4233 113.947 93.5445 114.21 93.7869 114.403C94.0294 114.597 94.4081 114.758 94.9233 114.886L96.2188 115.205C96.9991 115.394 97.5805 115.684 97.9631 116.074C98.3456 116.46 98.5369 116.958 98.5369 117.568C98.5369 118.068 98.393 118.515 98.1051 118.909C97.821 119.303 97.4233 119.614 96.9119 119.841C96.4006 120.068 95.8059 120.182 95.1278 120.182C94.2377 120.182 93.5009 119.989 92.9176 119.602C92.3343 119.216 91.965 118.652 91.8097 117.909L93.0824 117.591C93.2036 118.061 93.4328 118.413 93.7699 118.648C94.1108 118.883 94.5559 119 95.1051 119C95.7301 119 96.2263 118.867 96.5938 118.602C96.965 118.333 97.1506 118.011 97.1506 117.636C97.1506 117.333 97.0445 117.08 96.8324 116.875C96.6203 116.667 96.2945 116.511 95.8551 116.409L94.4006 116.068C93.6013 115.879 93.0142 115.585 92.6392 115.188C92.268 114.786 92.0824 114.284 92.0824 113.682C92.0824 113.189 92.2206 112.754 92.4972 112.375C92.7775 111.996 93.1581 111.699 93.6392 111.483C94.1241 111.267 94.6733 111.159 95.2869 111.159C96.1506 111.159 96.8286 111.348 97.321 111.727C97.8172 112.106 98.1695 112.606 98.3778 113.227ZM104.351 111.273V112.409H99.8281V111.273H104.351ZM101.146 109.182H102.487V117.5C102.487 117.879 102.542 118.163 102.652 118.352C102.766 118.538 102.91 118.663 103.084 118.727C103.262 118.788 103.449 118.818 103.646 118.818C103.794 118.818 103.915 118.811 104.01 118.795C104.105 118.777 104.18 118.761 104.237 118.75L104.51 119.955C104.419 119.989 104.292 120.023 104.129 120.057C103.966 120.095 103.76 120.114 103.51 120.114C103.131 120.114 102.76 120.032 102.396 119.869C102.036 119.706 101.737 119.458 101.499 119.125C101.264 118.792 101.146 118.371 101.146 117.864V109.182ZM111.868 116.432V111.273H113.209V120H111.868V118.523H111.777C111.572 118.966 111.254 119.343 110.822 119.653C110.391 119.96 109.845 120.114 109.186 120.114C108.641 120.114 108.156 119.994 107.732 119.756C107.307 119.513 106.974 119.15 106.732 118.665C106.489 118.176 106.368 117.561 106.368 116.818V111.273H107.709V116.727C107.709 117.364 107.887 117.871 108.243 118.25C108.603 118.629 109.061 118.818 109.618 118.818C109.951 118.818 110.29 118.733 110.635 118.562C110.983 118.392 111.275 118.131 111.51 117.778C111.749 117.426 111.868 116.977 111.868 116.432ZM119.551 111.273V112.409H114.847V111.273H119.551ZM116.256 120V110.068C116.256 109.568 116.373 109.152 116.608 108.818C116.843 108.485 117.148 108.235 117.523 108.068C117.898 107.902 118.294 107.818 118.71 107.818C119.04 107.818 119.309 107.845 119.517 107.898C119.725 107.951 119.881 108 119.983 108.045L119.597 109.205C119.528 109.182 119.434 109.153 119.312 109.119C119.195 109.085 119.04 109.068 118.847 109.068C118.403 109.068 118.083 109.18 117.886 109.403C117.693 109.627 117.597 109.955 117.597 110.386V120H116.256ZM125.317 111.273V112.409H120.612V111.273H125.317ZM122.021 120V110.068C122.021 109.568 122.139 109.152 122.374 108.818C122.608 108.485 122.913 108.235 123.288 108.068C123.663 107.902 124.059 107.818 124.476 107.818C124.805 107.818 125.074 107.845 125.283 107.898C125.491 107.951 125.646 108 125.749 108.045L125.362 109.205C125.294 109.182 125.199 109.153 125.078 109.119C124.961 109.085 124.805 109.068 124.612 109.068C124.169 109.068 123.849 109.18 123.652 109.403C123.459 109.627 123.362 109.955 123.362 110.386V120H122.021ZM130.496 120.182C129.655 120.182 128.929 119.996 128.32 119.625C127.714 119.25 127.246 118.727 126.916 118.057C126.59 117.383 126.428 116.598 126.428 115.705C126.428 114.811 126.59 114.023 126.916 113.341C127.246 112.655 127.704 112.121 128.291 111.739C128.882 111.352 129.571 111.159 130.359 111.159C130.814 111.159 131.263 111.235 131.706 111.386C132.149 111.538 132.553 111.784 132.916 112.125C133.28 112.462 133.57 112.909 133.786 113.466C134.001 114.023 134.109 114.708 134.109 115.523V116.091H127.382V114.932H132.746C132.746 114.439 132.647 114 132.45 113.614C132.257 113.227 131.981 112.922 131.621 112.699C131.265 112.475 130.844 112.364 130.359 112.364C129.825 112.364 129.363 112.496 128.973 112.761C128.587 113.023 128.289 113.364 128.081 113.784C127.873 114.205 127.768 114.655 127.768 115.136V115.909C127.768 116.568 127.882 117.127 128.109 117.585C128.34 118.04 128.661 118.386 129.07 118.625C129.479 118.86 129.954 118.977 130.496 118.977C130.848 118.977 131.166 118.928 131.45 118.83C131.738 118.727 131.986 118.576 132.195 118.375C132.403 118.17 132.564 117.917 132.678 117.614L133.973 117.977C133.837 118.417 133.607 118.803 133.286 119.136C132.964 119.466 132.566 119.723 132.092 119.909C131.619 120.091 131.087 120.182 130.496 120.182ZM139.445 120.182C138.717 120.182 138.075 119.998 137.518 119.631C136.962 119.259 136.526 118.737 136.212 118.062C135.897 117.384 135.74 116.583 135.74 115.659C135.74 114.742 135.897 113.947 136.212 113.273C136.526 112.598 136.964 112.078 137.524 111.71C138.085 111.343 138.732 111.159 139.467 111.159C140.036 111.159 140.484 111.254 140.814 111.443C141.147 111.629 141.401 111.841 141.575 112.08C141.753 112.314 141.892 112.508 141.99 112.659H142.104V108.364H143.445V120H142.149V118.659H141.99C141.892 118.818 141.751 119.019 141.57 119.261C141.388 119.5 141.128 119.714 140.791 119.903C140.454 120.089 140.005 120.182 139.445 120.182ZM139.626 118.977C140.164 118.977 140.619 118.837 140.99 118.557C141.361 118.273 141.643 117.881 141.837 117.381C142.03 116.877 142.126 116.295 142.126 115.636C142.126 114.985 142.032 114.415 141.842 113.926C141.653 113.434 141.373 113.051 141.001 112.778C140.63 112.502 140.172 112.364 139.626 112.364C139.058 112.364 138.585 112.509 138.206 112.801C137.831 113.089 137.549 113.481 137.359 113.977C137.174 114.47 137.081 115.023 137.081 115.636C137.081 116.258 137.176 116.822 137.365 117.33C137.558 117.833 137.842 118.235 138.217 118.534C138.596 118.83 139.066 118.977 139.626 118.977ZM153.155 120.205C152.602 120.205 152.1 120.1 151.649 119.892C151.198 119.68 150.84 119.375 150.575 118.977C150.31 118.576 150.178 118.091 150.178 117.523C150.178 117.023 150.276 116.617 150.473 116.307C150.67 115.992 150.933 115.746 151.263 115.568C151.592 115.39 151.956 115.258 152.354 115.17C152.755 115.08 153.159 115.008 153.564 114.955C154.094 114.886 154.524 114.835 154.854 114.801C155.187 114.763 155.429 114.701 155.581 114.614C155.736 114.527 155.814 114.375 155.814 114.159V114.114C155.814 113.553 155.661 113.117 155.354 112.807C155.051 112.496 154.59 112.341 153.973 112.341C153.333 112.341 152.831 112.481 152.467 112.761C152.104 113.042 151.848 113.341 151.7 113.659L150.428 113.205C150.655 112.674 150.958 112.261 151.337 111.966C151.719 111.667 152.136 111.458 152.587 111.341C153.041 111.22 153.488 111.159 153.928 111.159C154.208 111.159 154.53 111.193 154.893 111.261C155.261 111.326 155.615 111.46 155.956 111.665C156.301 111.869 156.587 112.178 156.814 112.591C157.041 113.004 157.155 113.557 157.155 114.25V120H155.814V118.818H155.746C155.655 119.008 155.503 119.21 155.291 119.426C155.079 119.642 154.797 119.826 154.445 119.977C154.092 120.129 153.662 120.205 153.155 120.205ZM153.359 119C153.89 119 154.337 118.896 154.7 118.688C155.068 118.479 155.344 118.21 155.53 117.881C155.719 117.551 155.814 117.205 155.814 116.841V115.614C155.757 115.682 155.632 115.744 155.439 115.801C155.25 115.854 155.03 115.902 154.78 115.943C154.534 115.981 154.293 116.015 154.058 116.045C153.827 116.072 153.64 116.095 153.496 116.114C153.147 116.159 152.821 116.233 152.518 116.335C152.219 116.434 151.977 116.583 151.791 116.784C151.609 116.981 151.518 117.25 151.518 117.591C151.518 118.057 151.691 118.409 152.036 118.648C152.384 118.883 152.825 119 153.359 119ZM160.943 114.75V120H159.602V111.273H160.898V112.636H161.011C161.216 112.193 161.527 111.837 161.943 111.568C162.36 111.295 162.898 111.159 163.557 111.159C164.148 111.159 164.665 111.28 165.108 111.523C165.551 111.761 165.896 112.125 166.142 112.614C166.388 113.098 166.511 113.712 166.511 114.455V120H165.17V114.545C165.17 113.86 164.992 113.326 164.636 112.943C164.28 112.557 163.792 112.364 163.17 112.364C162.742 112.364 162.36 112.456 162.023 112.642C161.689 112.828 161.426 113.098 161.233 113.455C161.04 113.811 160.943 114.242 160.943 114.75ZM168.962 120V111.273H170.303V120H168.962ZM169.643 109.818C169.382 109.818 169.157 109.729 168.967 109.551C168.782 109.373 168.689 109.159 168.689 108.909C168.689 108.659 168.782 108.445 168.967 108.267C169.157 108.089 169.382 108 169.643 108C169.905 108 170.128 108.089 170.314 108.267C170.503 108.445 170.598 108.659 170.598 108.909C170.598 109.159 170.503 109.373 170.314 109.551C170.128 109.729 169.905 109.818 169.643 109.818ZM172.759 120V111.273H174.054V112.636H174.168C174.349 112.17 174.643 111.809 175.048 111.551C175.454 111.29 175.94 111.159 176.509 111.159C177.084 111.159 177.563 111.29 177.946 111.551C178.332 111.809 178.634 112.17 178.849 112.636H178.94C179.164 112.186 179.499 111.828 179.946 111.562C180.393 111.294 180.929 111.159 181.554 111.159C182.334 111.159 182.973 111.403 183.469 111.892C183.965 112.377 184.213 113.133 184.213 114.159V120H182.872V114.159C182.872 113.515 182.696 113.055 182.344 112.778C181.991 112.502 181.577 112.364 181.099 112.364C180.486 112.364 180.01 112.549 179.673 112.92C179.336 113.288 179.168 113.754 179.168 114.318V120H177.804V114.023C177.804 113.527 177.643 113.127 177.321 112.824C176.999 112.517 176.584 112.364 176.077 112.364C175.728 112.364 175.402 112.456 175.099 112.642C174.8 112.828 174.558 113.085 174.372 113.415C174.19 113.741 174.099 114.117 174.099 114.545V120H172.759ZM189.233 120.205C188.68 120.205 188.178 120.1 187.727 119.892C187.277 119.68 186.919 119.375 186.653 118.977C186.388 118.576 186.256 118.091 186.256 117.523C186.256 117.023 186.354 116.617 186.551 116.307C186.748 115.992 187.011 115.746 187.341 115.568C187.67 115.39 188.034 115.258 188.432 115.17C188.833 115.08 189.237 115.008 189.642 114.955C190.172 114.886 190.602 114.835 190.932 114.801C191.265 114.763 191.508 114.701 191.659 114.614C191.814 114.527 191.892 114.375 191.892 114.159V114.114C191.892 113.553 191.739 113.117 191.432 112.807C191.129 112.496 190.669 112.341 190.051 112.341C189.411 112.341 188.909 112.481 188.545 112.761C188.182 113.042 187.926 113.341 187.778 113.659L186.506 113.205C186.733 112.674 187.036 112.261 187.415 111.966C187.797 111.667 188.214 111.458 188.665 111.341C189.119 111.22 189.566 111.159 190.006 111.159C190.286 111.159 190.608 111.193 190.972 111.261C191.339 111.326 191.693 111.46 192.034 111.665C192.379 111.869 192.665 112.178 192.892 112.591C193.119 113.004 193.233 113.557 193.233 114.25V120H191.892V118.818H191.824C191.733 119.008 191.581 119.21 191.369 119.426C191.157 119.642 190.875 119.826 190.523 119.977C190.17 120.129 189.741 120.205 189.233 120.205ZM189.438 119C189.968 119 190.415 118.896 190.778 118.688C191.146 118.479 191.422 118.21 191.608 117.881C191.797 117.551 191.892 117.205 191.892 116.841V115.614C191.835 115.682 191.71 115.744 191.517 115.801C191.328 115.854 191.108 115.902 190.858 115.943C190.612 115.981 190.371 116.015 190.136 116.045C189.905 116.072 189.718 116.095 189.574 116.114C189.225 116.159 188.9 116.233 188.597 116.335C188.297 116.434 188.055 116.583 187.869 116.784C187.688 116.981 187.597 117.25 187.597 117.591C187.597 118.057 187.769 118.409 188.114 118.648C188.462 118.883 188.903 119 189.438 119ZM197.021 108.364V120H195.68V108.364H197.021ZM205.659 113.227L204.455 113.568C204.379 113.367 204.267 113.172 204.119 112.983C203.975 112.79 203.778 112.631 203.528 112.506C203.278 112.381 202.958 112.318 202.568 112.318C202.034 112.318 201.589 112.441 201.233 112.688C200.881 112.93 200.705 113.239 200.705 113.614C200.705 113.947 200.826 114.21 201.068 114.403C201.311 114.597 201.689 114.758 202.205 114.886L203.5 115.205C204.28 115.394 204.862 115.684 205.244 116.074C205.627 116.46 205.818 116.958 205.818 117.568C205.818 118.068 205.674 118.515 205.386 118.909C205.102 119.303 204.705 119.614 204.193 119.841C203.682 120.068 203.087 120.182 202.409 120.182C201.519 120.182 200.782 119.989 200.199 119.602C199.616 119.216 199.246 118.652 199.091 117.909L200.364 117.591C200.485 118.061 200.714 118.413 201.051 118.648C201.392 118.883 201.837 119 202.386 119C203.011 119 203.508 118.867 203.875 118.602C204.246 118.333 204.432 118.011 204.432 117.636C204.432 117.333 204.326 117.08 204.114 116.875C203.902 116.667 203.576 116.511 203.136 116.409L201.682 116.068C200.883 115.879 200.295 115.585 199.92 115.188C199.549 114.786 199.364 114.284 199.364 113.682C199.364 113.189 199.502 112.754 199.778 112.375C200.059 111.996 200.439 111.699 200.92 111.483C201.405 111.267 201.955 111.159 202.568 111.159C203.432 111.159 204.11 111.348 204.602 111.727C205.098 112.106 205.451 112.606 205.659 113.227ZM209.837 118.409L209.746 119.023C209.681 119.455 209.583 119.917 209.45 120.409C209.321 120.902 209.187 121.366 209.047 121.801C208.907 122.237 208.791 122.583 208.7 122.841H207.678C207.727 122.598 207.791 122.278 207.871 121.881C207.95 121.483 208.03 121.038 208.109 120.545C208.193 120.057 208.261 119.557 208.314 119.045L208.382 118.409H209.837ZM220.616 111.273V112.409H216.094V111.273H220.616ZM217.412 109.182H218.753V117.5C218.753 117.879 218.808 118.163 218.918 118.352C219.031 118.538 219.175 118.663 219.349 118.727C219.527 118.788 219.715 118.818 219.912 118.818C220.06 118.818 220.181 118.811 220.276 118.795C220.37 118.777 220.446 118.761 220.503 118.75L220.776 119.955C220.685 119.989 220.558 120.023 220.395 120.057C220.232 120.095 220.026 120.114 219.776 120.114C219.397 120.114 219.026 120.032 218.662 119.869C218.302 119.706 218.003 119.458 217.764 119.125C217.529 118.792 217.412 118.371 217.412 117.864V109.182ZM226.085 120.182C225.297 120.182 224.606 119.994 224.011 119.619C223.42 119.244 222.958 118.72 222.625 118.045C222.295 117.371 222.131 116.583 222.131 115.682C222.131 114.773 222.295 113.979 222.625 113.301C222.958 112.623 223.42 112.097 224.011 111.722C224.606 111.347 225.297 111.159 226.085 111.159C226.873 111.159 227.563 111.347 228.153 111.722C228.748 112.097 229.21 112.623 229.54 113.301C229.873 113.979 230.04 114.773 230.04 115.682C230.04 116.583 229.873 117.371 229.54 118.045C229.21 118.72 228.748 119.244 228.153 119.619C227.563 119.994 226.873 120.182 226.085 120.182ZM226.085 118.977C226.684 118.977 227.176 118.824 227.562 118.517C227.949 118.21 228.235 117.807 228.42 117.307C228.606 116.807 228.699 116.265 228.699 115.682C228.699 115.098 228.606 114.555 228.42 114.051C228.235 113.547 227.949 113.14 227.562 112.83C227.176 112.519 226.684 112.364 226.085 112.364C225.487 112.364 224.994 112.519 224.608 112.83C224.222 113.14 223.936 113.547 223.75 114.051C223.564 114.555 223.472 115.098 223.472 115.682C223.472 116.265 223.564 116.807 223.75 117.307C223.936 117.807 224.222 118.21 224.608 118.517C224.994 118.824 225.487 118.977 226.085 118.977ZM232.638 123.273C232.411 123.273 232.208 123.254 232.03 123.216C231.852 123.182 231.729 123.148 231.661 123.114L232.001 121.932C232.327 122.015 232.615 122.045 232.865 122.023C233.115 122 233.337 121.888 233.53 121.688C233.727 121.491 233.907 121.17 234.07 120.727L234.32 120.045L231.092 111.273H232.547L234.956 118.227H235.047L237.456 111.273H238.911L235.206 121.273C235.039 121.723 234.833 122.097 234.587 122.392C234.34 122.691 234.054 122.913 233.729 123.057C233.407 123.201 233.043 123.273 232.638 123.273ZM246.862 113.227L245.658 113.568C245.582 113.367 245.47 113.172 245.322 112.983C245.179 112.79 244.982 112.631 244.732 112.506C244.482 112.381 244.161 112.318 243.771 112.318C243.237 112.318 242.792 112.441 242.436 112.688C242.084 112.93 241.908 113.239 241.908 113.614C241.908 113.947 242.029 114.21 242.271 114.403C242.514 114.597 242.893 114.758 243.408 114.886L244.703 115.205C245.483 115.394 246.065 115.684 246.447 116.074C246.83 116.46 247.021 116.958 247.021 117.568C247.021 118.068 246.877 118.515 246.589 118.909C246.305 119.303 245.908 119.614 245.396 119.841C244.885 120.068 244.29 120.182 243.612 120.182C242.722 120.182 241.985 119.989 241.402 119.602C240.819 119.216 240.449 118.652 240.294 117.909L241.567 117.591C241.688 118.061 241.917 118.413 242.254 118.648C242.595 118.883 243.04 119 243.589 119C244.214 119 244.711 118.867 245.078 118.602C245.449 118.333 245.635 118.011 245.635 117.636C245.635 117.333 245.529 117.08 245.317 116.875C245.105 116.667 244.779 116.511 244.339 116.409L242.885 116.068C242.086 115.879 241.499 115.585 241.124 115.188C240.752 114.786 240.567 114.284 240.567 113.682C240.567 113.189 240.705 112.754 240.982 112.375C241.262 111.996 241.643 111.699 242.124 111.483C242.608 111.267 243.158 111.159 243.771 111.159C244.635 111.159 245.313 111.348 245.805 111.727C246.302 112.106 246.654 112.606 246.862 113.227ZM257.199 120.182C256.358 120.182 255.633 119.996 255.023 119.625C254.417 119.25 253.949 118.727 253.619 118.057C253.294 117.383 253.131 116.598 253.131 115.705C253.131 114.811 253.294 114.023 253.619 113.341C253.949 112.655 254.407 112.121 254.994 111.739C255.585 111.352 256.275 111.159 257.062 111.159C257.517 111.159 257.966 111.235 258.409 111.386C258.852 111.538 259.256 111.784 259.619 112.125C259.983 112.462 260.273 112.909 260.489 113.466C260.705 114.023 260.812 114.708 260.812 115.523V116.091H254.085V114.932H259.449C259.449 114.439 259.35 114 259.153 113.614C258.96 113.227 258.684 112.922 258.324 112.699C257.968 112.475 257.547 112.364 257.062 112.364C256.528 112.364 256.066 112.496 255.676 112.761C255.29 113.023 254.992 113.364 254.784 113.784C254.576 114.205 254.472 114.655 254.472 115.136V115.909C254.472 116.568 254.585 117.127 254.812 117.585C255.044 118.04 255.364 118.386 255.773 118.625C256.182 118.86 256.657 118.977 257.199 118.977C257.551 118.977 257.869 118.928 258.153 118.83C258.441 118.727 258.689 118.576 258.898 118.375C259.106 118.17 259.267 117.917 259.381 117.614L260.676 117.977C260.54 118.417 260.311 118.803 259.989 119.136C259.667 119.466 259.269 119.723 258.795 119.909C258.322 120.091 257.79 120.182 257.199 120.182ZM266.648 111.273V112.409H262.125V111.273H266.648ZM263.443 109.182H264.784V117.5C264.784 117.879 264.839 118.163 264.949 118.352C265.063 118.538 265.206 118.663 265.381 118.727C265.559 118.788 265.746 118.818 265.943 118.818C266.091 118.818 266.212 118.811 266.307 118.795C266.402 118.777 266.477 118.761 266.534 118.75L266.807 119.955C266.716 119.989 266.589 120.023 266.426 120.057C266.263 120.095 266.057 120.114 265.807 120.114C265.428 120.114 265.057 120.032 264.693 119.869C264.333 119.706 264.034 119.458 263.795 119.125C263.561 118.792 263.443 118.371 263.443 117.864V109.182ZM272.116 120.182C271.298 120.182 270.594 119.989 270.003 119.602C269.412 119.216 268.957 118.684 268.639 118.006C268.321 117.328 268.162 116.553 268.162 115.682C268.162 114.795 268.325 114.013 268.651 113.335C268.98 112.653 269.438 112.121 270.026 111.739C270.616 111.352 271.306 111.159 272.094 111.159C272.707 111.159 273.26 111.273 273.753 111.5C274.245 111.727 274.649 112.045 274.963 112.455C275.277 112.864 275.473 113.341 275.548 113.886H274.207C274.105 113.489 273.878 113.136 273.526 112.83C273.177 112.519 272.707 112.364 272.116 112.364C271.594 112.364 271.135 112.5 270.741 112.773C270.351 113.042 270.046 113.422 269.827 113.915C269.611 114.403 269.503 114.977 269.503 115.636C269.503 116.311 269.609 116.898 269.821 117.398C270.037 117.898 270.34 118.286 270.73 118.562C271.124 118.839 271.586 118.977 272.116 118.977C272.465 118.977 272.781 118.917 273.065 118.795C273.349 118.674 273.59 118.5 273.787 118.273C273.984 118.045 274.124 117.773 274.207 117.455H275.548C275.473 117.97 275.285 118.434 274.986 118.847C274.69 119.256 274.298 119.581 273.81 119.824C273.325 120.062 272.76 120.182 272.116 120.182ZM278.486 120.091C278.205 120.091 277.965 119.991 277.764 119.79C277.563 119.589 277.463 119.348 277.463 119.068C277.463 118.788 277.563 118.547 277.764 118.347C277.965 118.146 278.205 118.045 278.486 118.045C278.766 118.045 279.007 118.146 279.207 118.347C279.408 118.547 279.509 118.788 279.509 119.068C279.509 119.254 279.461 119.424 279.366 119.58C279.276 119.735 279.152 119.86 278.997 119.955C278.846 120.045 278.675 120.091 278.486 120.091Z" fill="#555555"/>
<path d="M317.883 53.3125C314.979 53.3125 312.733 52.4987 311.145 50.8711C309.569 49.2435 308.781 46.8997 308.781 43.8398V28.332C308.781 25.1029 309.53 22.6289 311.027 20.9102C312.538 19.1784 314.823 18.3125 317.883 18.3125C320.956 18.3125 323.241 19.1784 324.738 20.9102C326.236 22.6289 326.984 25.1029 326.984 28.332V43.8398C326.984 46.8997 326.197 49.2435 324.621 50.8711C323.046 52.4987 320.799 53.3125 317.883 53.3125ZM317.883 46.9844C318.417 46.9844 318.833 46.7435 319.133 46.2617C319.432 45.7799 319.582 45.2396 319.582 44.6406V27.668C319.582 26.8607 319.491 26.1576 319.309 25.5586C319.139 24.9466 318.664 24.6406 317.883 24.6406C317.102 24.6406 316.62 24.9466 316.438 25.5586C316.268 26.1576 316.184 26.8607 316.184 27.668V44.6406C316.184 45.2396 316.333 45.7799 316.633 46.2617C316.945 46.7435 317.362 46.9844 317.883 46.9844ZM332.512 53V26.5156C332.043 27.0755 331.398 27.5312 330.578 27.8828C329.758 28.2214 328.983 28.3906 328.254 28.3906V22.9023C328.944 22.7982 329.686 22.5768 330.48 22.2383C331.275 21.8867 332.01 21.4115 332.688 20.8125C333.378 20.2005 333.905 19.4648 334.27 18.6055H339.797V53H332.512Z" fill="url(#paint0_linear_94_42)"/>
<defs>
<linearGradient id="paint0_linear_94_42" x1="325" y1="11" x2="325" y2="62" gradientUnits="userSpaceOnUse">
<stop stop-color="#8E8883"/>
<stop offset="0.869792" stop-color="#8E8883" stop-opacity="0"/>
</linearGradient>
</defs>
</svg>
