<svg width="369" height="148" viewBox="0 0 369 148" fill="none" xmlns="http://www.w3.org/2000/svg">
<path d="M0 15C0 6.71573 6.71573 0 15 0H354C362.284 0 369 6.71573 369 15V68C369 112.183 333.183 148 289 148H15C6.71574 148 0 141.284 0 133V15Z" fill="#FFA45B"/>
<path d="M19.517 43V25.5455H26.4034C27.7216 25.5455 28.8466 25.7812 29.7784 26.2528C30.7159 26.7187 31.429 27.3807 31.9176 28.2386C32.4119 29.0909 32.6591 30.0937 32.6591 31.2472C32.6591 32.4062 32.4091 33.4034 31.9091 34.2386C31.4091 35.0682 30.6847 35.7045 29.7358 36.1477C28.7926 36.5909 27.6506 36.8125 26.3097 36.8125H21.6989V33.8466H25.7131C26.4176 33.8466 27.0028 33.75 27.4688 33.5568C27.9347 33.3636 28.2813 33.0739 28.5085 32.6875C28.7415 32.3011 28.858 31.821 28.858 31.2472C28.858 30.6676 28.7415 30.179 28.5085 29.7812C28.2813 29.3835 27.9318 29.0824 27.4602 28.8778C26.9943 28.6676 26.4063 28.5625 25.696 28.5625H23.2074V43H19.517ZM28.9432 35.0568L33.2812 43H29.2074L24.9631 35.0568H28.9432ZM40.9538 43.2557C39.6072 43.2557 38.4482 42.983 37.4766 42.4375C36.5107 41.8864 35.7663 41.108 35.2436 40.1023C34.7209 39.0909 34.4595 37.8949 34.4595 36.5142C34.4595 35.1676 34.7209 33.9858 35.2436 32.9688C35.7663 31.9517 36.5021 31.1591 37.451 30.5909C38.4055 30.0227 39.5249 29.7386 40.8089 29.7386C41.6726 29.7386 42.4766 29.8778 43.2209 30.1562C43.9709 30.429 44.6243 30.8409 45.1811 31.392C45.7436 31.9432 46.1811 32.6364 46.4936 33.4716C46.8061 34.3011 46.9624 35.2727 46.9624 36.3864V37.3835H35.9084V35.1335H43.5447C43.5447 34.6108 43.4311 34.1477 43.2038 33.7443C42.9766 33.3409 42.6612 33.0256 42.2578 32.7983C41.8601 32.5653 41.397 32.4489 40.8686 32.4489C40.3175 32.4489 39.8288 32.5767 39.4027 32.8324C38.9822 33.0824 38.6527 33.4205 38.4141 33.8466C38.1754 34.267 38.0533 34.7358 38.0476 35.2528V37.392C38.0476 38.0398 38.1669 38.5994 38.4055 39.071C38.6499 39.5426 38.9936 39.9062 39.4368 40.1619C39.88 40.4176 40.4055 40.5455 41.0135 40.5455C41.4169 40.5455 41.7862 40.4886 42.1214 40.375C42.4567 40.2614 42.7436 40.0909 42.9822 39.8636C43.2209 39.6364 43.4027 39.358 43.5277 39.0284L46.8857 39.25C46.7152 40.0568 46.3658 40.7614 45.8374 41.3636C45.3146 41.9602 44.6385 42.4261 43.8089 42.7614C42.9851 43.0909 42.0334 43.2557 40.9538 43.2557ZM49.3317 47.9091V29.9091H52.9112V32.108H53.0732C53.2322 31.7557 53.4624 31.3977 53.7635 31.0341C54.0703 30.6648 54.468 30.358 54.9567 30.1136C55.451 29.8636 56.0646 29.7386 56.7976 29.7386C57.7521 29.7386 58.6328 29.9886 59.4396 30.4886C60.2464 30.983 60.8913 31.7301 61.3743 32.7301C61.8572 33.7244 62.0987 34.9716 62.0987 36.4716C62.0987 37.9318 61.8629 39.1648 61.3913 40.1705C60.9254 41.1705 60.2891 41.929 59.4822 42.446C58.6811 42.9574 57.7834 43.2131 56.7891 43.2131C56.0845 43.2131 55.4851 43.0966 54.9908 42.8636C54.5021 42.6307 54.1016 42.3381 53.7891 41.9858C53.4766 41.6278 53.2379 41.267 53.0732 40.9034H52.9624V47.9091H49.3317ZM52.8857 36.4545C52.8857 37.233 52.9936 37.9119 53.2095 38.4915C53.4254 39.071 53.7379 39.5227 54.147 39.8466C54.5561 40.1648 55.0533 40.3239 55.6385 40.3239C56.2294 40.3239 56.7294 40.1619 57.1385 39.8381C57.5476 39.5085 57.8572 39.054 58.0675 38.4744C58.2834 37.8892 58.3913 37.2159 58.3913 36.4545C58.3913 35.6989 58.2862 35.0341 58.076 34.4602C57.8658 33.8864 57.5561 33.4375 57.147 33.1136C56.7379 32.7898 56.2351 32.6278 55.6385 32.6278C55.0476 32.6278 54.5476 32.7841 54.1385 33.0966C53.7351 33.4091 53.4254 33.8523 53.2095 34.4261C52.9936 35 52.8857 35.6761 52.8857 36.4545ZM68.1499 25.5455V43H64.5192V25.5455H68.1499ZM74.7912 43.2472C73.956 43.2472 73.2116 43.1023 72.5582 42.8125C71.9048 42.517 71.3878 42.0824 71.0071 41.5085C70.6321 40.929 70.4446 40.2074 70.4446 39.3438C70.4446 38.6165 70.5781 38.0057 70.8452 37.5114C71.1122 37.017 71.4759 36.6193 71.9361 36.3182C72.3963 36.017 72.919 35.7898 73.5043 35.6364C74.0952 35.483 74.7145 35.375 75.3622 35.3125C76.1236 35.233 76.7372 35.1591 77.2031 35.0909C77.669 35.017 78.0071 34.9091 78.2173 34.767C78.4276 34.625 78.5327 34.4148 78.5327 34.1364V34.0852C78.5327 33.5455 78.3622 33.1278 78.0213 32.8324C77.6861 32.5369 77.2088 32.3892 76.5895 32.3892C75.9361 32.3892 75.4162 32.5341 75.0298 32.8239C74.6435 33.108 74.3878 33.4659 74.2628 33.8977L70.9048 33.625C71.0753 32.8295 71.4105 32.142 71.9105 31.5625C72.4105 30.9773 73.0554 30.5284 73.8452 30.2159C74.6406 29.8977 75.5611 29.7386 76.6065 29.7386C77.3338 29.7386 78.0298 29.8239 78.6946 29.9943C79.3651 30.1648 79.9588 30.429 80.4759 30.7869C80.9986 31.1449 81.4105 31.6051 81.7116 32.1676C82.0128 32.7244 82.1634 33.392 82.1634 34.1705V43H78.7202V41.1847H78.6179C78.4077 41.5938 78.1264 41.9545 77.7741 42.267C77.4219 42.5739 76.9986 42.8153 76.5043 42.9915C76.0099 43.1619 75.4389 43.2472 74.7912 43.2472ZM75.831 40.7415C76.3651 40.7415 76.8366 40.6364 77.2457 40.4261C77.6548 40.2102 77.9759 39.9205 78.2088 39.5568C78.4418 39.1932 78.5582 38.7812 78.5582 38.321V36.9318C78.4446 37.0057 78.2884 37.0739 78.0895 37.1364C77.8963 37.1932 77.6776 37.2472 77.4332 37.2983C77.1889 37.3437 76.9446 37.3864 76.7003 37.4261C76.456 37.4602 76.2344 37.4915 76.0355 37.5199C75.6094 37.5824 75.2372 37.6818 74.919 37.8182C74.6009 37.9545 74.3537 38.1392 74.1776 38.3722C74.0014 38.5994 73.9134 38.8835 73.9134 39.2244C73.9134 39.7188 74.0923 40.0966 74.4503 40.358C74.8139 40.6136 75.2741 40.7415 75.831 40.7415ZM86.7528 47.9091C86.2926 47.9091 85.8608 47.8722 85.4574 47.7983C85.0597 47.7301 84.7301 47.642 84.4688 47.5341L85.2869 44.8239C85.7131 44.9545 86.0966 45.0256 86.4375 45.0369C86.7841 45.0483 87.0824 44.9688 87.3324 44.7983C87.5881 44.6278 87.7955 44.3381 87.9545 43.929L88.1676 43.375L83.4716 29.9091H87.2898L90 39.5227H90.1364L92.8722 29.9091H96.7159L91.6278 44.4148C91.3835 45.1193 91.0511 45.733 90.6307 46.2557C90.2159 46.7841 89.6903 47.1903 89.054 47.4744C88.4176 47.7642 87.6506 47.9091 86.7528 47.9091ZM101.955 43.2472C101.12 43.2472 100.376 43.1023 99.7223 42.8125C99.0689 42.517 98.5518 42.0824 98.1712 41.5085C97.7962 40.929 97.6087 40.2074 97.6087 39.3438C97.6087 38.6165 97.7422 38.0057 98.0092 37.5114C98.2763 37.017 98.6399 36.6193 99.1001 36.3182C99.5604 36.017 100.083 35.7898 100.668 35.6364C101.259 35.483 101.879 35.375 102.526 35.3125C103.288 35.233 103.901 35.1591 104.367 35.0909C104.833 35.017 105.171 34.9091 105.381 34.767C105.592 34.625 105.697 34.4148 105.697 34.1364V34.0852C105.697 33.5455 105.526 33.1278 105.185 32.8324C104.85 32.5369 104.373 32.3892 103.754 32.3892C103.1 32.3892 102.58 32.5341 102.194 32.8239C101.808 33.108 101.552 33.4659 101.427 33.8977L98.0689 33.625C98.2393 32.8295 98.5746 32.142 99.0746 31.5625C99.5746 30.9773 100.219 30.5284 101.009 30.2159C101.805 29.8977 102.725 29.7386 103.771 29.7386C104.498 29.7386 105.194 29.8239 105.859 29.9943C106.529 30.1648 107.123 30.429 107.64 30.7869C108.163 31.1449 108.575 31.6051 108.876 32.1676C109.177 32.7244 109.327 33.392 109.327 34.1705V43H105.884V41.1847H105.782C105.572 41.5938 105.29 41.9545 104.938 42.267C104.586 42.5739 104.163 42.8153 103.668 42.9915C103.174 43.1619 102.603 43.2472 101.955 43.2472ZM102.995 40.7415C103.529 40.7415 104.001 40.6364 104.41 40.4261C104.819 40.2102 105.14 39.9205 105.373 39.5568C105.606 39.1932 105.722 38.7812 105.722 38.321V36.9318C105.609 37.0057 105.452 37.0739 105.254 37.1364C105.06 37.1932 104.842 37.2472 104.597 37.2983C104.353 37.3437 104.109 37.3864 103.864 37.4261C103.62 37.4602 103.398 37.4915 103.2 37.5199C102.773 37.5824 102.401 37.6818 102.083 37.8182C101.765 37.9545 101.518 38.1392 101.342 38.3722C101.165 38.5994 101.077 38.8835 101.077 39.2244C101.077 39.7188 101.256 40.0966 101.614 40.358C101.978 40.6136 102.438 40.7415 102.995 40.7415ZM112.212 43V25.5455H115.843V32.108H115.954C116.113 31.7557 116.343 31.3977 116.644 31.0341C116.951 30.6648 117.349 30.358 117.837 30.1136C118.332 29.8636 118.945 29.7386 119.678 29.7386C120.633 29.7386 121.513 29.9886 122.32 30.4886C123.127 30.983 123.772 31.7301 124.255 32.7301C124.738 33.7244 124.979 34.9716 124.979 36.4716C124.979 37.9318 124.744 39.1648 124.272 40.1705C123.806 41.1705 123.17 41.929 122.363 42.446C121.562 42.9574 120.664 43.2131 119.67 43.2131C118.965 43.2131 118.366 43.0966 117.871 42.8636C117.383 42.6307 116.982 42.3381 116.67 41.9858C116.357 41.6278 116.119 41.267 115.954 40.9034H115.792V43H112.212ZM115.766 36.4545C115.766 37.233 115.874 37.9119 116.09 38.4915C116.306 39.071 116.619 39.5227 117.028 39.8466C117.437 40.1648 117.934 40.3239 118.519 40.3239C119.11 40.3239 119.61 40.1619 120.019 39.8381C120.428 39.5085 120.738 39.054 120.948 38.4744C121.164 37.8892 121.272 37.2159 121.272 36.4545C121.272 35.6989 121.167 35.0341 120.957 34.4602C120.746 33.8864 120.437 33.4375 120.028 33.1136C119.619 32.7898 119.116 32.6278 118.519 32.6278C117.928 32.6278 117.428 32.7841 117.019 33.0966C116.616 33.4091 116.306 33.8523 116.09 34.4261C115.874 35 115.766 35.6761 115.766 36.4545ZM131.033 25.5455V43H127.402V25.5455H131.033ZM139.907 43.2557C138.56 43.2557 137.401 42.983 136.43 42.4375C135.464 41.8864 134.719 41.108 134.197 40.1023C133.674 39.0909 133.413 37.8949 133.413 36.5142C133.413 35.1676 133.674 33.9858 134.197 32.9688C134.719 31.9517 135.455 31.1591 136.404 30.5909C137.359 30.0227 138.478 29.7386 139.762 29.7386C140.626 29.7386 141.43 29.8778 142.174 30.1562C142.924 30.429 143.577 30.8409 144.134 31.392C144.697 31.9432 145.134 32.6364 145.447 33.4716C145.759 34.3011 145.915 35.2727 145.915 36.3864V37.3835H134.862V35.1335H142.498C142.498 34.6108 142.384 34.1477 142.157 33.7443C141.93 33.3409 141.614 33.0256 141.211 32.7983C140.813 32.5653 140.35 32.4489 139.822 32.4489C139.271 32.4489 138.782 32.5767 138.356 32.8324C137.935 33.0824 137.606 33.4205 137.367 33.8466C137.129 34.267 137.006 34.7358 137.001 35.2528V37.392C137.001 38.0398 137.12 38.5994 137.359 39.071C137.603 39.5426 137.947 39.9062 138.39 40.1619C138.833 40.4176 139.359 40.5455 139.967 40.5455C140.37 40.5455 140.739 40.4886 141.075 40.375C141.41 40.2614 141.697 40.0909 141.935 39.8636C142.174 39.6364 142.356 39.358 142.481 39.0284L145.839 39.25C145.668 40.0568 145.319 40.7614 144.79 41.3636C144.268 41.9602 143.592 42.4261 142.762 42.7614C141.938 43.0909 140.987 43.2557 139.907 43.2557Z" fill="white"/>
<path d="M21.5227 88L18.3409 76.3636H19.7727L22.2045 85.8409H22.3182L24.7955 76.3636H26.3864L28.8636 85.8409H28.9773L31.4091 76.3636H32.8409L29.6591 88H28.2045L25.6364 78.7273H25.5455L22.9773 88H21.5227ZM34.4148 88V79.2727H35.7557V88H34.4148ZM35.0966 77.8182C34.8352 77.8182 34.6098 77.7292 34.4205 77.5511C34.2348 77.3731 34.142 77.1591 34.142 76.9091C34.142 76.6591 34.2348 76.4451 34.4205 76.267C34.6098 76.089 34.8352 76 35.0966 76C35.358 76 35.5814 76.089 35.767 76.267C35.9564 76.4451 36.0511 76.6591 36.0511 76.9091C36.0511 77.1591 35.9564 77.3731 35.767 77.5511C35.5814 77.7292 35.358 77.8182 35.0966 77.8182ZM42.0071 79.2727V80.4091H37.4844V79.2727H42.0071ZM38.8026 77.1818H40.1435V85.5C40.1435 85.8788 40.1984 86.1629 40.3082 86.3523C40.4219 86.5379 40.5658 86.6629 40.7401 86.7273C40.9181 86.7879 41.1056 86.8182 41.3026 86.8182C41.4503 86.8182 41.5715 86.8106 41.6662 86.7955C41.7609 86.7765 41.8366 86.7614 41.8935 86.75L42.1662 87.9545C42.0753 87.9886 41.9484 88.0227 41.7855 88.0568C41.6226 88.0947 41.4162 88.1136 41.1662 88.1136C40.7874 88.1136 40.4162 88.0322 40.0526 87.8693C39.6927 87.7064 39.3935 87.4583 39.1548 87.125C38.92 86.7917 38.8026 86.3712 38.8026 85.8636V77.1818ZM45.5526 82.75V88H44.2116V76.3636H45.5526V80.6364H45.6662C45.8707 80.1856 46.1776 79.8277 46.5866 79.5625C46.9995 79.2936 47.5488 79.1591 48.2344 79.1591C48.8291 79.1591 49.3499 79.2784 49.7969 79.517C50.2438 79.7519 50.5904 80.1136 50.8366 80.6023C51.0866 81.0871 51.2116 81.7045 51.2116 82.4545V88H49.8707V82.5455C49.8707 81.8523 49.6908 81.3163 49.331 80.9375C48.9749 80.5549 48.4806 80.3636 47.848 80.3636C47.4086 80.3636 47.0147 80.4564 46.6662 80.642C46.3215 80.8277 46.0488 81.0985 45.848 81.4545C45.651 81.8106 45.5526 82.2424 45.5526 82.75ZM60.733 88.2045C60.1799 88.2045 59.678 88.1004 59.2273 87.892C58.7765 87.6799 58.4186 87.375 58.1534 86.9773C57.8883 86.5758 57.7557 86.0909 57.7557 85.5227C57.7557 85.0227 57.8542 84.6174 58.0511 84.3068C58.2481 83.9924 58.5114 83.7462 58.8409 83.5682C59.1705 83.3902 59.5341 83.2576 59.9318 83.1705C60.3333 83.0795 60.7367 83.0076 61.142 82.9545C61.6723 82.8864 62.1023 82.8352 62.4318 82.8011C62.7652 82.7633 63.0076 82.7008 63.1591 82.6136C63.3144 82.5265 63.392 82.375 63.392 82.1591V82.1136C63.392 81.553 63.2386 81.1174 62.9318 80.8068C62.6288 80.4962 62.1686 80.3409 61.5511 80.3409C60.911 80.3409 60.4091 80.4811 60.0455 80.7614C59.6818 81.0417 59.4261 81.3409 59.2784 81.6591L58.0057 81.2045C58.233 80.6742 58.536 80.2614 58.9148 79.9659C59.2973 79.6667 59.714 79.4583 60.1648 79.3409C60.6193 79.2197 61.0663 79.1591 61.5057 79.1591C61.786 79.1591 62.108 79.1932 62.4716 79.2614C62.839 79.3258 63.1932 79.4602 63.5341 79.6648C63.8788 79.8693 64.1648 80.178 64.392 80.5909C64.6193 81.0038 64.733 81.5568 64.733 82.25V88H63.392V86.8182H63.3239C63.233 87.0076 63.0814 87.2102 62.8693 87.4261C62.6572 87.642 62.375 87.8258 62.0227 87.9773C61.6705 88.1288 61.2405 88.2045 60.733 88.2045ZM60.9375 87C61.4678 87 61.9148 86.8958 62.2784 86.6875C62.6458 86.4792 62.9223 86.2102 63.108 85.8807C63.2973 85.5511 63.392 85.2045 63.392 84.8409V83.6136C63.3352 83.6818 63.2102 83.7443 63.017 83.8011C62.8277 83.8542 62.608 83.9015 62.358 83.9432C62.1117 83.9811 61.8712 84.0152 61.6364 84.0455C61.4053 84.072 61.2178 84.0947 61.0739 84.1136C60.7254 84.1591 60.3996 84.233 60.0966 84.3352C59.7973 84.4337 59.5549 84.5833 59.3693 84.7841C59.1875 84.9811 59.0966 85.25 59.0966 85.5909C59.0966 86.0568 59.2689 86.4091 59.6136 86.6477C59.9621 86.8826 60.4034 87 60.9375 87ZM73.0213 82.75V88H71.6804V76.3636H73.0213V80.6364H73.1349C73.3395 80.1856 73.6463 79.8277 74.0554 79.5625C74.4683 79.2936 75.0175 79.1591 75.7031 79.1591C76.2978 79.1591 76.8187 79.2784 77.2656 79.517C77.7126 79.7519 78.0592 80.1136 78.3054 80.6023C78.5554 81.0871 78.6804 81.7045 78.6804 82.4545V88H77.3395V82.5455C77.3395 81.8523 77.1596 81.3163 76.7997 80.9375C76.4437 80.5549 75.9493 80.3636 75.3168 80.3636C74.8774 80.3636 74.4834 80.4564 74.1349 80.642C73.7902 80.8277 73.5175 81.0985 73.3168 81.4545C73.1198 81.8106 73.0213 82.2424 73.0213 82.75ZM81.1335 88V79.2727H82.4744V88H81.1335ZM81.8153 77.8182C81.554 77.8182 81.3286 77.7292 81.1392 77.5511C80.9536 77.3731 80.8608 77.1591 80.8608 76.9091C80.8608 76.6591 80.9536 76.4451 81.1392 76.267C81.3286 76.089 81.554 76 81.8153 76C82.0767 76 82.3002 76.089 82.4858 76.267C82.6752 76.4451 82.7699 76.6591 82.7699 76.9091C82.7699 77.1591 82.6752 77.3731 82.4858 77.5511C82.3002 77.7292 82.0767 77.8182 81.8153 77.8182ZM88.4531 91.4545C87.8054 91.4545 87.2486 91.3712 86.7827 91.2045C86.3168 91.0417 85.9285 90.8258 85.6179 90.5568C85.3111 90.2917 85.0668 90.0076 84.8849 89.7045L85.9531 88.9545C86.0743 89.1136 86.2277 89.2955 86.4134 89.5C86.599 89.7083 86.8527 89.8883 87.1747 90.0398C87.5005 90.1951 87.9266 90.2727 88.4531 90.2727C89.1577 90.2727 89.7391 90.1023 90.1974 89.7614C90.6558 89.4205 90.8849 88.8864 90.8849 88.1591V86.3864H90.7713C90.6728 86.5455 90.5327 86.7424 90.3509 86.9773C90.1728 87.2083 89.9152 87.4148 89.5781 87.5966C89.2448 87.7746 88.794 87.8636 88.2259 87.8636C87.5213 87.8636 86.8887 87.697 86.3281 87.3636C85.7713 87.0303 85.33 86.5455 85.0043 85.9091C84.6823 85.2727 84.5213 84.5 84.5213 83.5909C84.5213 82.697 84.6785 81.9186 84.9929 81.2557C85.3073 80.589 85.7448 80.0739 86.3054 79.7102C86.866 79.3428 87.5137 79.1591 88.2486 79.1591C88.8168 79.1591 89.2675 79.2538 89.6009 79.4432C89.938 79.6288 90.1955 79.8409 90.3736 80.0795C90.5554 80.3144 90.6955 80.5076 90.794 80.6591H90.9304V79.2727H92.2259V88.25C92.2259 89 92.0554 89.6098 91.7145 90.0795C91.3774 90.553 90.9228 90.8996 90.3509 91.1193C89.7827 91.3428 89.1501 91.4545 88.4531 91.4545ZM88.4077 86.6591C88.9455 86.6591 89.4001 86.536 89.7713 86.2898C90.1425 86.0436 90.4247 85.6894 90.6179 85.2273C90.8111 84.7652 90.9077 84.2121 90.9077 83.5682C90.9077 82.9394 90.813 82.3845 90.6236 81.9034C90.4342 81.4223 90.1539 81.0455 89.7827 80.7727C89.4115 80.5 88.9531 80.3636 88.4077 80.3636C87.8395 80.3636 87.366 80.5076 86.9872 80.7955C86.6122 81.0833 86.33 81.4697 86.1406 81.9545C85.955 82.4394 85.8622 82.9773 85.8622 83.5682C85.8622 84.1742 85.9569 84.7102 86.1463 85.1761C86.3395 85.6383 86.6236 86.0019 86.9986 86.267C87.3774 86.5284 87.8471 86.6591 88.4077 86.6591ZM96.0213 82.75V88H94.6804V76.3636H96.0213V80.6364H96.1349C96.3395 80.1856 96.6463 79.8277 97.0554 79.5625C97.4683 79.2936 98.0175 79.1591 98.7031 79.1591C99.2978 79.1591 99.8187 79.2784 100.266 79.517C100.713 79.7519 101.059 80.1136 101.305 80.6023C101.555 81.0871 101.68 81.7045 101.68 82.4545V88H100.339V82.5455C100.339 81.8523 100.16 81.3163 99.7997 80.9375C99.4437 80.5549 98.9493 80.3636 98.3168 80.3636C97.8774 80.3636 97.4834 80.4564 97.1349 80.642C96.7902 80.8277 96.5175 81.0985 96.3168 81.4545C96.1198 81.8106 96.0213 82.2424 96.0213 82.75ZM109.974 76.3636V88H108.634V76.3636H109.974ZM116.089 88.1818C115.249 88.1818 114.523 87.9962 113.913 87.625C113.307 87.25 112.839 86.7273 112.51 86.0568C112.184 85.3826 112.021 84.5985 112.021 83.7045C112.021 82.8106 112.184 82.0227 112.51 81.3409C112.839 80.6553 113.298 80.1212 113.885 79.7386C114.476 79.3523 115.165 79.1591 115.953 79.1591C116.408 79.1591 116.857 79.2348 117.3 79.3864C117.743 79.5379 118.146 79.7841 118.51 80.125C118.874 80.4621 119.163 80.9091 119.379 81.4659C119.595 82.0227 119.703 82.7083 119.703 83.5227V84.0909H112.976V82.9318H118.339C118.339 82.4394 118.241 82 118.044 81.6136C117.851 81.2273 117.574 80.9223 117.214 80.6989C116.858 80.4754 116.438 80.3636 115.953 80.3636C115.419 80.3636 114.957 80.4962 114.567 80.7614C114.18 81.0227 113.883 81.3636 113.675 81.7841C113.466 82.2045 113.362 82.6553 113.362 83.1364V83.9091C113.362 84.5682 113.476 85.1269 113.703 85.5852C113.934 86.0398 114.254 86.3864 114.663 86.625C115.072 86.8598 115.548 86.9773 116.089 86.9773C116.442 86.9773 116.76 86.928 117.044 86.8295C117.332 86.7273 117.58 86.5758 117.788 86.375C117.997 86.1705 118.158 85.9167 118.271 85.6136L119.567 85.9773C119.43 86.4167 119.201 86.803 118.879 87.1364C118.557 87.4659 118.16 87.7235 117.686 87.9091C117.213 88.0909 116.68 88.1818 116.089 88.1818ZM128.614 79.2727L125.386 88H124.023L120.795 79.2727H122.25L124.659 86.2273H124.75L127.159 79.2727H128.614ZM133.73 88.1818C132.889 88.1818 132.164 87.9962 131.554 87.625C130.948 87.25 130.48 86.7273 130.151 86.0568C129.825 85.3826 129.662 84.5985 129.662 83.7045C129.662 82.8106 129.825 82.0227 130.151 81.3409C130.48 80.6553 130.938 80.1212 131.526 79.7386C132.116 79.3523 132.806 79.1591 133.594 79.1591C134.048 79.1591 134.497 79.2348 134.94 79.3864C135.384 79.5379 135.787 79.7841 136.151 80.125C136.514 80.4621 136.804 80.9091 137.02 81.4659C137.236 82.0227 137.344 82.7083 137.344 83.5227V84.0909H130.616V82.9318H135.98C135.98 82.4394 135.882 82 135.685 81.6136C135.491 81.2273 135.215 80.9223 134.855 80.6989C134.499 80.4754 134.079 80.3636 133.594 80.3636C133.06 80.3636 132.598 80.4962 132.207 80.7614C131.821 81.0227 131.524 81.3636 131.315 81.7841C131.107 82.2045 131.003 82.6553 131.003 83.1364V83.9091C131.003 84.5682 131.116 85.1269 131.344 85.5852C131.575 86.0398 131.895 86.3864 132.304 86.625C132.713 86.8598 133.188 86.9773 133.73 86.9773C134.082 86.9773 134.401 86.928 134.685 86.8295C134.973 86.7273 135.221 86.5758 135.429 86.375C135.637 86.1705 135.798 85.9167 135.912 85.6136L137.207 85.9773C137.071 86.4167 136.842 86.803 136.52 87.1364C136.198 87.4659 135.8 87.7235 135.327 87.9091C134.853 88.0909 134.321 88.1818 133.73 88.1818ZM140.724 76.3636V88H139.384V76.3636H140.724ZM151.226 88.1818C150.438 88.1818 149.747 87.9943 149.152 87.6193C148.561 87.2443 148.099 86.7197 147.766 86.0455C147.436 85.3712 147.271 84.5833 147.271 83.6818C147.271 82.7727 147.436 81.9792 147.766 81.3011C148.099 80.6231 148.561 80.0966 149.152 79.7216C149.747 79.3466 150.438 79.1591 151.226 79.1591C152.014 79.1591 152.703 79.3466 153.294 79.7216C153.889 80.0966 154.351 80.6231 154.68 81.3011C155.014 81.9792 155.18 82.7727 155.18 83.6818C155.18 84.5833 155.014 85.3712 154.68 86.0455C154.351 86.7197 153.889 87.2443 153.294 87.6193C152.703 87.9943 152.014 88.1818 151.226 88.1818ZM151.226 86.9773C151.824 86.9773 152.317 86.8239 152.703 86.517C153.089 86.2102 153.375 85.8068 153.561 85.3068C153.747 84.8068 153.839 84.2652 153.839 83.6818C153.839 83.0985 153.747 82.5549 153.561 82.0511C153.375 81.5473 153.089 81.1402 152.703 80.8295C152.317 80.5189 151.824 80.3636 151.226 80.3636C150.627 80.3636 150.135 80.5189 149.749 80.8295C149.362 81.1402 149.076 81.5473 148.891 82.0511C148.705 82.5549 148.612 83.0985 148.612 83.6818C148.612 84.2652 148.705 84.8068 148.891 85.3068C149.076 85.8068 149.362 86.2102 149.749 86.517C150.135 86.8239 150.627 86.9773 151.226 86.9773ZM161.114 79.2727V80.4091H156.409V79.2727H161.114ZM157.818 88V78.0682C157.818 77.5682 157.936 77.1515 158.17 76.8182C158.405 76.4848 158.71 76.2348 159.085 76.0682C159.46 75.9015 159.856 75.8182 160.273 75.8182C160.602 75.8182 160.871 75.8447 161.08 75.8977C161.288 75.9508 161.443 76 161.545 76.0455L161.159 77.2045C161.091 77.1818 160.996 77.1534 160.875 77.1193C160.758 77.0852 160.602 77.0682 160.409 77.0682C159.966 77.0682 159.646 77.1799 159.449 77.4034C159.256 77.6269 159.159 77.9545 159.159 78.3864V88H157.818ZM170.788 88.1818C170.061 88.1818 169.419 87.9981 168.862 87.6307C168.305 87.2595 167.87 86.7367 167.555 86.0625C167.241 85.3845 167.084 84.5833 167.084 83.6591C167.084 82.7424 167.241 81.947 167.555 81.2727C167.87 80.5985 168.307 80.0777 168.868 79.7102C169.429 79.3428 170.076 79.1591 170.811 79.1591C171.379 79.1591 171.828 79.2538 172.158 79.4432C172.491 79.6288 172.745 79.8409 172.919 80.0795C173.097 80.3144 173.235 80.5076 173.334 80.6591H173.447V76.3636H174.788V88H173.493V86.6591H173.334C173.235 86.8182 173.095 87.0189 172.913 87.2614C172.732 87.5 172.472 87.714 172.135 87.9034C171.798 88.089 171.349 88.1818 170.788 88.1818ZM170.97 86.9773C171.508 86.9773 171.963 86.8371 172.334 86.5568C172.705 86.2727 172.987 85.8807 173.18 85.3807C173.374 84.8769 173.47 84.2955 173.47 83.6364C173.47 82.9848 173.375 82.4148 173.186 81.9261C172.997 81.4337 172.716 81.0511 172.345 80.7784C171.974 80.5019 171.516 80.3636 170.97 80.3636C170.402 80.3636 169.929 80.5095 169.55 80.8011C169.175 81.089 168.893 81.4811 168.703 81.9773C168.518 82.4697 168.425 83.0227 168.425 83.6364C168.425 84.2576 168.519 84.822 168.709 85.3295C168.902 85.8333 169.186 86.2348 169.561 86.5341C169.94 86.8295 170.41 86.9773 170.97 86.9773ZM181.089 88.1818C180.249 88.1818 179.523 87.9962 178.913 87.625C178.307 87.25 177.839 86.7273 177.51 86.0568C177.184 85.3826 177.021 84.5985 177.021 83.7045C177.021 82.8106 177.184 82.0227 177.51 81.3409C177.839 80.6553 178.298 80.1212 178.885 79.7386C179.476 79.3523 180.165 79.1591 180.953 79.1591C181.408 79.1591 181.857 79.2348 182.3 79.3864C182.743 79.5379 183.146 79.7841 183.51 80.125C183.874 80.4621 184.163 80.9091 184.379 81.4659C184.595 82.0227 184.703 82.7083 184.703 83.5227V84.0909H177.976V82.9318H183.339C183.339 82.4394 183.241 82 183.044 81.6136C182.851 81.2273 182.574 80.9223 182.214 80.6989C181.858 80.4754 181.438 80.3636 180.953 80.3636C180.419 80.3636 179.957 80.4962 179.567 80.7614C179.18 81.0227 178.883 81.3636 178.675 81.7841C178.466 82.2045 178.362 82.6553 178.362 83.1364V83.9091C178.362 84.5682 178.476 85.1269 178.703 85.5852C178.934 86.0398 179.254 86.3864 179.663 86.625C180.072 86.8598 180.548 86.9773 181.089 86.9773C181.442 86.9773 181.76 86.928 182.044 86.8295C182.332 86.7273 182.58 86.5758 182.788 86.375C182.997 86.1705 183.158 85.9167 183.271 85.6136L184.567 85.9773C184.43 86.4167 184.201 86.803 183.879 87.1364C183.557 87.4659 183.16 87.7235 182.686 87.9091C182.213 88.0909 181.68 88.1818 181.089 88.1818ZM186.743 91.2727V79.2727H188.038V80.6591H188.197C188.296 80.5076 188.432 80.3144 188.607 80.0795C188.785 79.8409 189.038 79.6288 189.368 79.4432C189.701 79.2538 190.152 79.1591 190.72 79.1591C191.455 79.1591 192.103 79.3428 192.663 79.7102C193.224 80.0777 193.661 80.5985 193.976 81.2727C194.29 81.947 194.447 82.7424 194.447 83.6591C194.447 84.5833 194.29 85.3845 193.976 86.0625C193.661 86.7367 193.226 87.2595 192.669 87.6307C192.112 87.9981 191.47 88.1818 190.743 88.1818C190.182 88.1818 189.733 88.089 189.396 87.9034C189.059 87.714 188.8 87.5 188.618 87.2614C188.436 87.0189 188.296 86.8182 188.197 86.6591H188.084V91.2727H186.743ZM188.061 83.6364C188.061 84.2955 188.158 84.8769 188.351 85.3807C188.544 85.8807 188.826 86.2727 189.197 86.5568C189.569 86.8371 190.023 86.9773 190.561 86.9773C191.122 86.9773 191.589 86.8295 191.964 86.5341C192.343 86.2348 192.627 85.8333 192.817 85.3295C193.01 84.822 193.107 84.2576 193.107 83.6364C193.107 83.0227 193.012 82.4697 192.822 81.9773C192.637 81.4811 192.355 81.089 191.976 80.8011C191.601 80.5095 191.129 80.3636 190.561 80.3636C190.016 80.3636 189.557 80.5019 189.186 80.7784C188.815 81.0511 188.535 81.4337 188.345 81.9261C188.156 82.4148 188.061 82.9848 188.061 83.6364ZM200.288 79.2727V80.4091H195.766V79.2727H200.288ZM197.084 77.1818H198.425V85.5C198.425 85.8788 198.48 86.1629 198.589 86.3523C198.703 86.5379 198.847 86.6629 199.021 86.7273C199.199 86.7879 199.387 86.8182 199.584 86.8182C199.732 86.8182 199.853 86.8106 199.947 86.7955C200.042 86.7765 200.118 86.7614 200.175 86.75L200.447 87.9545C200.357 87.9886 200.23 88.0227 200.067 88.0568C199.904 88.0947 199.697 88.1136 199.447 88.1136C199.069 88.1136 198.697 88.0322 198.334 87.8693C197.974 87.7064 197.675 87.4583 197.436 87.125C197.201 86.7917 197.084 86.3712 197.084 85.8636V77.1818ZM203.834 82.75V88H202.493V76.3636H203.834V80.6364H203.947C204.152 80.1856 204.459 79.8277 204.868 79.5625C205.281 79.2936 205.83 79.1591 206.516 79.1591C207.11 79.1591 207.631 79.2784 208.078 79.517C208.525 79.7519 208.872 80.1136 209.118 80.6023C209.368 81.0871 209.493 81.7045 209.493 82.4545V88H208.152V82.5455C208.152 81.8523 207.972 81.3163 207.612 80.9375C207.256 80.5549 206.762 80.3636 206.129 80.3636C205.69 80.3636 205.296 80.4564 204.947 80.642C204.603 80.8277 204.33 81.0985 204.129 81.4545C203.932 81.8106 203.834 82.2424 203.834 82.75ZM219.014 88.2045C218.461 88.2045 217.959 88.1004 217.509 87.892C217.058 87.6799 216.7 87.375 216.435 86.9773C216.17 86.5758 216.037 86.0909 216.037 85.5227C216.037 85.0227 216.135 84.6174 216.332 84.3068C216.529 83.9924 216.793 83.7462 217.122 83.5682C217.452 83.3902 217.815 83.2576 218.213 83.1705C218.615 83.0795 219.018 83.0076 219.423 82.9545C219.954 82.8864 220.384 82.8352 220.713 82.8011C221.046 82.7633 221.289 82.7008 221.44 82.6136C221.596 82.5265 221.673 82.375 221.673 82.1591V82.1136C221.673 81.553 221.52 81.1174 221.213 80.8068C220.91 80.4962 220.45 80.3409 219.832 80.3409C219.192 80.3409 218.69 80.4811 218.327 80.7614C217.963 81.0417 217.707 81.3409 217.56 81.6591L216.287 81.2045C216.514 80.6742 216.817 80.2614 217.196 79.9659C217.579 79.6667 217.995 79.4583 218.446 79.3409C218.901 79.2197 219.348 79.1591 219.787 79.1591C220.067 79.1591 220.389 79.1932 220.753 79.2614C221.12 79.3258 221.474 79.4602 221.815 79.6648C222.16 79.8693 222.446 80.178 222.673 80.5909C222.901 81.0038 223.014 81.5568 223.014 82.25V88H221.673V86.8182H221.605C221.514 87.0076 221.363 87.2102 221.151 87.4261C220.938 87.642 220.656 87.8258 220.304 87.9773C219.952 88.1288 219.522 88.2045 219.014 88.2045ZM219.219 87C219.749 87 220.196 86.8958 220.56 86.6875C220.927 86.4792 221.204 86.2102 221.389 85.8807C221.579 85.5511 221.673 85.2045 221.673 84.8409V83.6136C221.616 83.6818 221.491 83.7443 221.298 83.8011C221.109 83.8542 220.889 83.9015 220.639 83.9432C220.393 83.9811 220.152 84.0152 219.918 84.0455C219.687 84.072 219.499 84.0947 219.355 84.1136C219.007 84.1591 218.681 84.233 218.378 84.3352C218.079 84.4337 217.836 84.5833 217.651 84.7841C217.469 84.9811 217.378 85.25 217.378 85.5909C217.378 86.0568 217.55 86.4091 217.895 86.6477C218.243 86.8826 218.685 87 219.219 87ZM226.803 82.75V88H225.462V79.2727H226.757V80.6364H226.871C227.075 80.1932 227.386 79.8371 227.803 79.5682C228.219 79.2955 228.757 79.1591 229.416 79.1591C230.007 79.1591 230.524 79.2803 230.967 79.5227C231.411 79.7614 231.755 80.125 232.001 80.6136C232.248 81.0985 232.371 81.7121 232.371 82.4545V88H231.03V82.5455C231.03 81.8598 230.852 81.3258 230.496 80.9432C230.14 80.5568 229.651 80.3636 229.03 80.3636C228.602 80.3636 228.219 80.4564 227.882 80.642C227.549 80.8277 227.286 81.0985 227.092 81.4545C226.899 81.8106 226.803 82.2424 226.803 82.75ZM238.116 88.1818C237.389 88.1818 236.747 87.9981 236.19 87.6307C235.634 87.2595 235.198 86.7367 234.884 86.0625C234.569 85.3845 234.412 84.5833 234.412 83.6591C234.412 82.7424 234.569 81.947 234.884 81.2727C235.198 80.5985 235.635 80.0777 236.196 79.7102C236.757 79.3428 237.404 79.1591 238.139 79.1591C238.707 79.1591 239.156 79.2538 239.486 79.4432C239.819 79.6288 240.073 79.8409 240.247 80.0795C240.425 80.3144 240.563 80.5076 240.662 80.6591H240.776V76.3636H242.116V88H240.821V86.6591H240.662C240.563 86.8182 240.423 87.0189 240.241 87.2614C240.06 87.5 239.8 87.714 239.463 87.9034C239.126 88.089 238.677 88.1818 238.116 88.1818ZM238.298 86.9773C238.836 86.9773 239.291 86.8371 239.662 86.5568C240.033 86.2727 240.315 85.8807 240.509 85.3807C240.702 84.8769 240.798 84.2955 240.798 83.6364C240.798 82.9848 240.704 82.4148 240.514 81.9261C240.325 81.4337 240.045 81.0511 239.673 80.7784C239.302 80.5019 238.844 80.3636 238.298 80.3636C237.73 80.3636 237.257 80.5095 236.878 80.8011C236.503 81.089 236.221 81.4811 236.031 81.9773C235.846 82.4697 235.753 83.0227 235.753 83.6364C235.753 84.2576 235.848 84.822 236.037 85.3295C236.23 85.8333 236.514 86.2348 236.889 86.5341C237.268 86.8295 237.738 86.9773 238.298 86.9773ZM252.804 88.1818C251.986 88.1818 251.281 87.9886 250.69 87.6023C250.099 87.2159 249.645 86.6837 249.327 86.0057C249.009 85.3277 248.849 84.553 248.849 83.6818C248.849 82.7955 249.012 82.0133 249.338 81.3352C249.668 80.6534 250.126 80.1212 250.713 79.7386C251.304 79.3523 251.993 79.1591 252.781 79.1591C253.395 79.1591 253.948 79.2727 254.44 79.5C254.933 79.7273 255.336 80.0455 255.651 80.4545C255.965 80.8636 256.16 81.3409 256.236 81.8864H254.895C254.793 81.4886 254.565 81.1364 254.213 80.8295C253.865 80.5189 253.395 80.3636 252.804 80.3636C252.281 80.3636 251.823 80.5 251.429 80.7727C251.039 81.0417 250.734 81.4223 250.514 81.9148C250.298 82.4034 250.19 82.9773 250.19 83.6364C250.19 84.3106 250.296 84.8977 250.509 85.3977C250.724 85.8977 251.027 86.286 251.418 86.5625C251.812 86.839 252.274 86.9773 252.804 86.9773C253.152 86.9773 253.469 86.9167 253.753 86.7955C254.037 86.6742 254.277 86.5 254.474 86.2727C254.671 86.0455 254.812 85.7727 254.895 85.4545H256.236C256.16 85.9697 255.973 86.4337 255.673 86.8466C255.378 87.2557 254.986 87.5814 254.497 87.8239C254.012 88.0625 253.448 88.1818 252.804 88.1818ZM261.741 88.1818C260.954 88.1818 260.262 87.9943 259.668 87.6193C259.077 87.2443 258.615 86.7197 258.281 86.0455C257.952 85.3712 257.787 84.5833 257.787 83.6818C257.787 82.7727 257.952 81.9792 258.281 81.3011C258.615 80.6231 259.077 80.0966 259.668 79.7216C260.262 79.3466 260.954 79.1591 261.741 79.1591C262.529 79.1591 263.219 79.3466 263.81 79.7216C264.404 80.0966 264.866 80.6231 265.196 81.3011C265.529 81.9792 265.696 82.7727 265.696 83.6818C265.696 84.5833 265.529 85.3712 265.196 86.0455C264.866 86.7197 264.404 87.2443 263.81 87.6193C263.219 87.9943 262.529 88.1818 261.741 88.1818ZM261.741 86.9773C262.34 86.9773 262.832 86.8239 263.219 86.517C263.605 86.2102 263.891 85.8068 264.077 85.3068C264.262 84.8068 264.355 84.2652 264.355 83.6818C264.355 83.0985 264.262 82.5549 264.077 82.0511C263.891 81.5473 263.605 81.1402 263.219 80.8295C262.832 80.5189 262.34 80.3636 261.741 80.3636C261.143 80.3636 260.651 80.5189 260.264 80.8295C259.878 81.1402 259.592 81.5473 259.406 82.0511C259.221 82.5549 259.128 83.0985 259.128 83.6818C259.128 84.2652 259.221 84.8068 259.406 85.3068C259.592 85.8068 259.878 86.2102 260.264 86.517C260.651 86.8239 261.143 86.9773 261.741 86.9773ZM269.084 82.75V88H267.743V79.2727H269.038V80.6364H269.152C269.357 80.1932 269.667 79.8371 270.084 79.5682C270.5 79.2955 271.038 79.1591 271.697 79.1591C272.288 79.1591 272.805 79.2803 273.249 79.5227C273.692 79.7614 274.036 80.125 274.283 80.6136C274.529 81.0985 274.652 81.7121 274.652 82.4545V88H273.311V82.5455C273.311 81.8598 273.133 81.3258 272.777 80.9432C272.421 80.5568 271.932 80.3636 271.311 80.3636C270.883 80.3636 270.5 80.4564 270.163 80.642C269.83 80.8277 269.567 81.0985 269.374 81.4545C269.18 81.8106 269.084 82.2424 269.084 82.75ZM280.898 79.2727V80.4091H276.375V79.2727H280.898ZM277.693 77.1818H279.034V85.5C279.034 85.8788 279.089 86.1629 279.199 86.3523C279.313 86.5379 279.456 86.6629 279.631 86.7273C279.809 86.7879 279.996 86.8182 280.193 86.8182C280.341 86.8182 280.462 86.8106 280.557 86.7955C280.652 86.7765 280.727 86.7614 280.784 86.75L281.057 87.9545C280.966 87.9886 280.839 88.0227 280.676 88.0568C280.513 88.0947 280.307 88.1136 280.057 88.1136C279.678 88.1136 279.307 88.0322 278.943 87.8693C278.583 87.7064 278.284 87.4583 278.045 87.125C277.811 86.7917 277.693 86.3712 277.693 85.8636V77.1818ZM286.48 88.1818C285.639 88.1818 284.914 87.9962 284.304 87.625C283.698 87.25 283.23 86.7273 282.901 86.0568C282.575 85.3826 282.412 84.5985 282.412 83.7045C282.412 82.8106 282.575 82.0227 282.901 81.3409C283.23 80.6553 283.688 80.1212 284.276 79.7386C284.866 79.3523 285.556 79.1591 286.344 79.1591C286.798 79.1591 287.247 79.2348 287.69 79.3864C288.134 79.5379 288.537 79.7841 288.901 80.125C289.264 80.4621 289.554 80.9091 289.77 81.4659C289.986 82.0227 290.094 82.7083 290.094 83.5227V84.0909H283.366V82.9318H288.73C288.73 82.4394 288.632 82 288.435 81.6136C288.241 81.2273 287.965 80.9223 287.605 80.6989C287.249 80.4754 286.829 80.3636 286.344 80.3636C285.81 80.3636 285.348 80.4962 284.957 80.7614C284.571 81.0227 284.274 81.3636 284.065 81.7841C283.857 82.2045 283.753 82.6553 283.753 83.1364V83.9091C283.753 84.5682 283.866 85.1269 284.094 85.5852C284.325 86.0398 284.645 86.3864 285.054 86.625C285.463 86.8598 285.938 86.9773 286.48 86.9773C286.832 86.9773 287.151 86.928 287.435 86.8295C287.723 86.7273 287.971 86.5758 288.179 86.375C288.387 86.1705 288.548 85.9167 288.662 85.6136L289.957 85.9773C289.821 86.4167 289.592 86.803 289.27 87.1364C288.948 87.4659 288.55 87.7235 288.077 87.9091C287.603 88.0909 287.071 88.1818 286.48 88.1818ZM293.474 82.75V88H292.134V79.2727H293.429V80.6364H293.543C293.747 80.1932 294.058 79.8371 294.474 79.5682C294.891 79.2955 295.429 79.1591 296.088 79.1591C296.679 79.1591 297.196 79.2803 297.639 79.5227C298.082 79.7614 298.427 80.125 298.673 80.6136C298.92 81.0985 299.043 81.7121 299.043 82.4545V88H297.702V82.5455C297.702 81.8598 297.524 81.3258 297.168 80.9432C296.812 80.5568 296.323 80.3636 295.702 80.3636C295.274 80.3636 294.891 80.4564 294.554 80.642C294.221 80.8277 293.957 81.0985 293.764 81.4545C293.571 81.8106 293.474 82.2424 293.474 82.75ZM305.288 79.2727V80.4091H300.766V79.2727H305.288ZM302.084 77.1818H303.425V85.5C303.425 85.8788 303.48 86.1629 303.589 86.3523C303.703 86.5379 303.847 86.6629 304.021 86.7273C304.199 86.7879 304.387 86.8182 304.584 86.8182C304.732 86.8182 304.853 86.8106 304.947 86.7955C305.042 86.7765 305.118 86.7614 305.175 86.75L305.447 87.9545C305.357 87.9886 305.23 88.0227 305.067 88.0568C304.904 88.0947 304.697 88.1136 304.447 88.1136C304.069 88.1136 303.697 88.0322 303.334 87.8693C302.974 87.7064 302.675 87.4583 302.436 87.125C302.201 86.7917 302.084 86.3712 302.084 85.8636V77.1818ZM19.4091 120V108.364H20.8182V114.136H20.9545L26.1818 108.364H28.0227L23.1364 113.614L28.0227 120H26.3182L22.2727 114.591L20.8182 116.227V120H19.4091ZM32.6832 120.182C31.8423 120.182 31.117 119.996 30.5071 119.625C29.901 119.25 29.4332 118.727 29.1037 118.057C28.7779 117.383 28.6151 116.598 28.6151 115.705C28.6151 114.811 28.7779 114.023 29.1037 113.341C29.4332 112.655 29.8916 112.121 30.4787 111.739C31.0696 111.352 31.759 111.159 32.5469 111.159C33.0014 111.159 33.4503 111.235 33.8935 111.386C34.3366 111.538 34.7401 111.784 35.1037 112.125C35.4673 112.462 35.7571 112.909 35.973 113.466C36.1889 114.023 36.2969 114.708 36.2969 115.523V116.091H29.5696V114.932H34.9332C34.9332 114.439 34.8348 114 34.6378 113.614C34.4446 113.227 34.1681 112.922 33.8082 112.699C33.4522 112.475 33.0317 112.364 32.5469 112.364C32.0128 112.364 31.5507 112.496 31.1605 112.761C30.7741 113.023 30.4768 113.364 30.2685 113.784C30.0601 114.205 29.956 114.655 29.956 115.136V115.909C29.956 116.568 30.0696 117.127 30.2969 117.585C30.5279 118.04 30.848 118.386 31.2571 118.625C31.6662 118.86 32.1416 118.977 32.6832 118.977C33.0355 118.977 33.3537 118.928 33.6378 118.83C33.9257 118.727 34.1738 118.576 34.3821 118.375C34.5904 118.17 34.7514 117.917 34.8651 117.614L36.1605 117.977C36.0241 118.417 35.795 118.803 35.473 119.136C35.151 119.466 34.7533 119.723 34.2798 119.909C33.8063 120.091 33.2741 120.182 32.6832 120.182ZM38.3366 123.273V111.273H39.6321V112.659H39.7912C39.8897 112.508 40.026 112.314 40.2003 112.08C40.3783 111.841 40.6321 111.629 40.9616 111.443C41.295 111.254 41.7457 111.159 42.3139 111.159C43.0488 111.159 43.6965 111.343 44.2571 111.71C44.8177 112.078 45.2552 112.598 45.5696 113.273C45.884 113.947 46.0412 114.742 46.0412 115.659C46.0412 116.583 45.884 117.384 45.5696 118.062C45.2552 118.737 44.8196 119.259 44.2628 119.631C43.706 119.998 43.0639 120.182 42.3366 120.182C41.776 120.182 41.3272 120.089 40.9901 119.903C40.6529 119.714 40.3935 119.5 40.2116 119.261C40.0298 119.019 39.8897 118.818 39.7912 118.659H39.6776V123.273H38.3366ZM39.6548 115.636C39.6548 116.295 39.7514 116.877 39.9446 117.381C40.1378 117.881 40.42 118.273 40.7912 118.557C41.1624 118.837 41.617 118.977 42.1548 118.977C42.7154 118.977 43.1832 118.83 43.5582 118.534C43.937 118.235 44.2211 117.833 44.4105 117.33C44.6037 116.822 44.7003 116.258 44.7003 115.636C44.7003 115.023 44.6056 114.47 44.4162 113.977C44.2306 113.481 43.9484 113.089 43.5696 112.801C43.1946 112.509 42.723 112.364 42.1548 112.364C41.6094 112.364 41.151 112.502 40.7798 112.778C40.4086 113.051 40.1283 113.434 39.9389 113.926C39.7495 114.415 39.6548 114.985 39.6548 115.636ZM51.8821 111.273V112.409H47.3594V111.273H51.8821ZM48.6776 109.182H50.0185V117.5C50.0185 117.879 50.0734 118.163 50.1832 118.352C50.2969 118.538 50.4408 118.663 50.6151 118.727C50.7931 118.788 50.9806 118.818 51.1776 118.818C51.3253 118.818 51.4465 118.811 51.5412 118.795C51.6359 118.777 51.7116 118.761 51.7685 118.75L52.0412 119.955C51.9503 119.989 51.8234 120.023 51.6605 120.057C51.4976 120.095 51.2912 120.114 51.0412 120.114C50.6624 120.114 50.2912 120.032 49.9276 119.869C49.5677 119.706 49.2685 119.458 49.0298 119.125C48.795 118.792 48.6776 118.371 48.6776 117.864V109.182ZM58.3991 123.273V111.273H59.6946V112.659H59.8537C59.9522 112.508 60.0885 112.314 60.2628 112.08C60.4408 111.841 60.6946 111.629 61.0241 111.443C61.3575 111.254 61.8082 111.159 62.3764 111.159C63.1113 111.159 63.759 111.343 64.3196 111.71C64.8802 112.078 65.3177 112.598 65.6321 113.273C65.9465 113.947 66.1037 114.742 66.1037 115.659C66.1037 116.583 65.9465 117.384 65.6321 118.062C65.3177 118.737 64.8821 119.259 64.3253 119.631C63.7685 119.998 63.1264 120.182 62.3991 120.182C61.8385 120.182 61.3897 120.089 61.0526 119.903C60.7154 119.714 60.456 119.5 60.2741 119.261C60.0923 119.019 59.9522 118.818 59.8537 118.659H59.7401V123.273H58.3991ZM59.7173 115.636C59.7173 116.295 59.8139 116.877 60.0071 117.381C60.2003 117.881 60.4825 118.273 60.8537 118.557C61.2249 118.837 61.6795 118.977 62.2173 118.977C62.7779 118.977 63.2457 118.83 63.6207 118.534C63.9995 118.235 64.2836 117.833 64.473 117.33C64.6662 116.822 64.7628 116.258 64.7628 115.636C64.7628 115.023 64.6681 114.47 64.4787 113.977C64.2931 113.481 64.0109 113.089 63.6321 112.801C63.2571 112.509 62.7855 112.364 62.2173 112.364C61.6719 112.364 61.2135 112.502 60.8423 112.778C60.4711 113.051 60.1908 113.434 60.0014 113.926C59.812 114.415 59.7173 114.985 59.7173 115.636ZM69.4901 108.364V120H68.1491V108.364H69.4901ZM74.5142 120.205C73.9612 120.205 73.4593 120.1 73.0085 119.892C72.5578 119.68 72.1998 119.375 71.9347 118.977C71.6695 118.576 71.5369 118.091 71.5369 117.523C71.5369 117.023 71.6354 116.617 71.8324 116.307C72.0294 115.992 72.2926 115.746 72.6222 115.568C72.9517 115.39 73.3153 115.258 73.7131 115.17C74.1146 115.08 74.518 115.008 74.9233 114.955C75.4536 114.886 75.8835 114.835 76.2131 114.801C76.5464 114.763 76.7888 114.701 76.9403 114.614C77.0956 114.527 77.1733 114.375 77.1733 114.159V114.114C77.1733 113.553 77.0199 113.117 76.7131 112.807C76.41 112.496 75.9498 112.341 75.3324 112.341C74.6922 112.341 74.1903 112.481 73.8267 112.761C73.4631 113.042 73.2074 113.341 73.0597 113.659L71.7869 113.205C72.0142 112.674 72.3172 112.261 72.696 111.966C73.0786 111.667 73.4953 111.458 73.946 111.341C74.4006 111.22 74.8475 111.159 75.2869 111.159C75.5672 111.159 75.8892 111.193 76.2528 111.261C76.6203 111.326 76.9744 111.46 77.3153 111.665C77.66 111.869 77.946 112.178 78.1733 112.591C78.4006 113.004 78.5142 113.557 78.5142 114.25V120H77.1733V118.818H77.1051C77.0142 119.008 76.8627 119.21 76.6506 119.426C76.4384 119.642 76.1563 119.826 75.804 119.977C75.4517 120.129 75.0218 120.205 74.5142 120.205ZM74.7188 119C75.2491 119 75.696 118.896 76.0597 118.688C76.4271 118.479 76.7036 118.21 76.8892 117.881C77.0786 117.551 77.1733 117.205 77.1733 116.841V115.614C77.1165 115.682 76.9915 115.744 76.7983 115.801C76.6089 115.854 76.3892 115.902 76.1392 115.943C75.893 115.981 75.6525 116.015 75.4176 116.045C75.1866 116.072 74.9991 116.095 74.8551 116.114C74.5066 116.159 74.1809 116.233 73.8778 116.335C73.5786 116.434 73.3362 116.583 73.1506 116.784C72.9688 116.981 72.8778 117.25 72.8778 117.591C72.8778 118.057 73.0502 118.409 73.3949 118.648C73.7434 118.883 74.1847 119 74.7188 119ZM81.5128 123.273C81.2855 123.273 81.0829 123.254 80.9048 123.216C80.7268 123.182 80.6037 123.148 80.5355 123.114L80.8764 121.932C81.2022 122.015 81.4901 122.045 81.7401 122.023C81.9901 122 82.2116 121.888 82.4048 121.688C82.6018 121.491 82.7817 121.17 82.9446 120.727L83.1946 120.045L79.9673 111.273H81.4219L83.831 118.227H83.9219L86.331 111.273H87.7855L84.081 121.273C83.9143 121.723 83.7079 122.097 83.4616 122.392C83.2154 122.691 82.9295 122.913 82.6037 123.057C82.2817 123.201 81.9181 123.273 81.5128 123.273ZM92.902 120.182C92.0611 120.182 91.3357 119.996 90.7259 119.625C90.1198 119.25 89.652 118.727 89.3224 118.057C88.9967 117.383 88.8338 116.598 88.8338 115.705C88.8338 114.811 88.9967 114.023 89.3224 113.341C89.652 112.655 90.1103 112.121 90.6974 111.739C91.2884 111.352 91.9777 111.159 92.7656 111.159C93.2202 111.159 93.669 111.235 94.1122 111.386C94.5554 111.538 94.9588 111.784 95.3224 112.125C95.6861 112.462 95.9759 112.909 96.1918 113.466C96.4077 114.023 96.5156 114.708 96.5156 115.523V116.091H89.7884V114.932H95.152C95.152 114.439 95.0535 114 94.8565 113.614C94.6634 113.227 94.3868 112.922 94.027 112.699C93.6709 112.475 93.2505 112.364 92.7656 112.364C92.2315 112.364 91.7694 112.496 91.3793 112.761C90.9929 113.023 90.6955 113.364 90.4872 113.784C90.2789 114.205 90.1747 114.655 90.1747 115.136V115.909C90.1747 116.568 90.2884 117.127 90.5156 117.585C90.7467 118.04 91.0668 118.386 91.4759 118.625C91.8849 118.86 92.3603 118.977 92.902 118.977C93.2543 118.977 93.5724 118.928 93.8565 118.83C94.1444 118.727 94.3925 118.576 94.6009 118.375C94.8092 118.17 94.9702 117.917 95.0838 117.614L96.3793 117.977C96.2429 118.417 96.0137 118.803 95.6918 119.136C95.3698 119.466 94.9721 119.723 94.4986 119.909C94.0251 120.091 93.4929 120.182 92.902 120.182ZM98.5554 120V111.273H99.8509V112.591H99.9418C100.101 112.159 100.389 111.809 100.805 111.54C101.222 111.271 101.692 111.136 102.214 111.136C102.313 111.136 102.436 111.138 102.584 111.142C102.732 111.146 102.843 111.152 102.919 111.159V112.523C102.874 112.511 102.769 112.494 102.607 112.472C102.447 112.445 102.279 112.432 102.101 112.432C101.677 112.432 101.298 112.521 100.964 112.699C100.635 112.873 100.374 113.116 100.18 113.426C99.991 113.733 99.8963 114.083 99.8963 114.477V120H98.5554ZM110.69 113.227L109.486 113.568C109.41 113.367 109.298 113.172 109.151 112.983C109.007 112.79 108.81 112.631 108.56 112.506C108.31 112.381 107.99 112.318 107.599 112.318C107.065 112.318 106.62 112.441 106.264 112.688C105.912 112.93 105.736 113.239 105.736 113.614C105.736 113.947 105.857 114.21 106.099 114.403C106.342 114.597 106.721 114.758 107.236 114.886L108.531 115.205C109.312 115.394 109.893 115.684 110.276 116.074C110.658 116.46 110.849 116.958 110.849 117.568C110.849 118.068 110.705 118.515 110.418 118.909C110.134 119.303 109.736 119.614 109.224 119.841C108.713 120.068 108.118 120.182 107.44 120.182C106.55 120.182 105.813 119.989 105.23 119.602C104.647 119.216 104.277 118.652 104.122 117.909L105.395 117.591C105.516 118.061 105.745 118.413 106.082 118.648C106.423 118.883 106.868 119 107.418 119C108.043 119 108.539 118.867 108.906 118.602C109.277 118.333 109.463 118.011 109.463 117.636C109.463 117.333 109.357 117.08 109.145 116.875C108.933 116.667 108.607 116.511 108.168 116.409L106.713 116.068C105.914 115.879 105.327 115.585 104.952 115.188C104.58 114.786 104.395 114.284 104.395 113.682C104.395 113.189 104.533 112.754 104.81 112.375C105.09 111.996 105.471 111.699 105.952 111.483C106.437 111.267 106.986 111.159 107.599 111.159C108.463 111.159 109.141 111.348 109.634 111.727C110.13 112.106 110.482 112.606 110.69 113.227ZM121.027 120.182C120.186 120.182 119.461 119.996 118.851 119.625C118.245 119.25 117.777 118.727 117.447 118.057C117.122 117.383 116.959 116.598 116.959 115.705C116.959 114.811 117.122 114.023 117.447 113.341C117.777 112.655 118.235 112.121 118.822 111.739C119.413 111.352 120.103 111.159 120.891 111.159C121.345 111.159 121.794 111.235 122.237 111.386C122.68 111.538 123.084 111.784 123.447 112.125C123.811 112.462 124.101 112.909 124.317 113.466C124.533 114.023 124.641 114.708 124.641 115.523V116.091H117.913V114.932H123.277C123.277 114.439 123.179 114 122.982 113.614C122.788 113.227 122.512 112.922 122.152 112.699C121.796 112.475 121.375 112.364 120.891 112.364C120.357 112.364 119.894 112.496 119.504 112.761C119.118 113.023 118.821 113.364 118.612 113.784C118.404 114.205 118.3 114.655 118.3 115.136V115.909C118.3 116.568 118.413 117.127 118.641 117.585C118.872 118.04 119.192 118.386 119.601 118.625C120.01 118.86 120.485 118.977 121.027 118.977C121.379 118.977 121.697 118.928 121.982 118.83C122.269 118.727 122.518 118.576 122.726 118.375C122.934 118.17 123.095 117.917 123.209 117.614L124.504 117.977C124.368 118.417 124.139 118.803 123.817 119.136C123.495 119.466 123.097 119.723 122.624 119.909C122.15 120.091 121.618 120.182 121.027 120.182ZM128.021 114.75V120H126.68V111.273H127.976V112.636H128.089C128.294 112.193 128.605 111.837 129.021 111.568C129.438 111.295 129.976 111.159 130.635 111.159C131.226 111.159 131.743 111.28 132.186 111.523C132.629 111.761 132.974 112.125 133.22 112.614C133.466 113.098 133.589 113.712 133.589 114.455V120H132.249V114.545C132.249 113.86 132.071 113.326 131.714 112.943C131.358 112.557 130.87 112.364 130.249 112.364C129.821 112.364 129.438 112.456 129.101 112.642C128.768 112.828 128.504 113.098 128.311 113.455C128.118 113.811 128.021 114.242 128.021 114.75ZM139.562 123.455C138.915 123.455 138.358 123.371 137.892 123.205C137.426 123.042 137.038 122.826 136.727 122.557C136.42 122.292 136.176 122.008 135.994 121.705L137.062 120.955C137.184 121.114 137.337 121.295 137.523 121.5C137.708 121.708 137.962 121.888 138.284 122.04C138.61 122.195 139.036 122.273 139.562 122.273C140.267 122.273 140.848 122.102 141.307 121.761C141.765 121.42 141.994 120.886 141.994 120.159V118.386H141.881C141.782 118.545 141.642 118.742 141.46 118.977C141.282 119.208 141.025 119.415 140.688 119.597C140.354 119.775 139.903 119.864 139.335 119.864C138.631 119.864 137.998 119.697 137.438 119.364C136.881 119.03 136.439 118.545 136.114 117.909C135.792 117.273 135.631 116.5 135.631 115.591C135.631 114.697 135.788 113.919 136.102 113.256C136.417 112.589 136.854 112.074 137.415 111.71C137.975 111.343 138.623 111.159 139.358 111.159C139.926 111.159 140.377 111.254 140.71 111.443C141.047 111.629 141.305 111.841 141.483 112.08C141.665 112.314 141.805 112.508 141.903 112.659H142.04V111.273H143.335V120.25C143.335 121 143.165 121.61 142.824 122.08C142.487 122.553 142.032 122.9 141.46 123.119C140.892 123.343 140.259 123.455 139.562 123.455ZM139.517 118.659C140.055 118.659 140.509 118.536 140.881 118.29C141.252 118.044 141.534 117.689 141.727 117.227C141.92 116.765 142.017 116.212 142.017 115.568C142.017 114.939 141.922 114.384 141.733 113.903C141.544 113.422 141.263 113.045 140.892 112.773C140.521 112.5 140.063 112.364 139.517 112.364C138.949 112.364 138.475 112.508 138.097 112.795C137.722 113.083 137.439 113.47 137.25 113.955C137.064 114.439 136.972 114.977 136.972 115.568C136.972 116.174 137.066 116.71 137.256 117.176C137.449 117.638 137.733 118.002 138.108 118.267C138.487 118.528 138.956 118.659 139.517 118.659ZM148.358 120.205C147.805 120.205 147.303 120.1 146.852 119.892C146.402 119.68 146.044 119.375 145.778 118.977C145.513 118.576 145.381 118.091 145.381 117.523C145.381 117.023 145.479 116.617 145.676 116.307C145.873 115.992 146.136 115.746 146.466 115.568C146.795 115.39 147.159 115.258 147.557 115.17C147.958 115.08 148.362 115.008 148.767 114.955C149.297 114.886 149.727 114.835 150.057 114.801C150.39 114.763 150.633 114.701 150.784 114.614C150.939 114.527 151.017 114.375 151.017 114.159V114.114C151.017 113.553 150.864 113.117 150.557 112.807C150.254 112.496 149.794 112.341 149.176 112.341C148.536 112.341 148.034 112.481 147.67 112.761C147.307 113.042 147.051 113.341 146.903 113.659L145.631 113.205C145.858 112.674 146.161 112.261 146.54 111.966C146.922 111.667 147.339 111.458 147.79 111.341C148.244 111.22 148.691 111.159 149.131 111.159C149.411 111.159 149.733 111.193 150.097 111.261C150.464 111.326 150.818 111.46 151.159 111.665C151.504 111.869 151.79 112.178 152.017 112.591C152.244 113.004 152.358 113.557 152.358 114.25V120H151.017V118.818H150.949C150.858 119.008 150.706 119.21 150.494 119.426C150.282 119.642 150 119.826 149.648 119.977C149.295 120.129 148.866 120.205 148.358 120.205ZM148.562 119C149.093 119 149.54 118.896 149.903 118.688C150.271 118.479 150.547 118.21 150.733 117.881C150.922 117.551 151.017 117.205 151.017 116.841V115.614C150.96 115.682 150.835 115.744 150.642 115.801C150.453 115.854 150.233 115.902 149.983 115.943C149.737 115.981 149.496 116.015 149.261 116.045C149.03 116.072 148.843 116.095 148.699 116.114C148.35 116.159 148.025 116.233 147.722 116.335C147.422 116.434 147.18 116.583 146.994 116.784C146.813 116.981 146.722 117.25 146.722 117.591C146.722 118.057 146.894 118.409 147.239 118.648C147.587 118.883 148.028 119 148.562 119ZM158.328 123.455C157.68 123.455 157.124 123.371 156.658 123.205C156.192 123.042 155.804 122.826 155.493 122.557C155.186 122.292 154.942 122.008 154.76 121.705L155.828 120.955C155.949 121.114 156.103 121.295 156.288 121.5C156.474 121.708 156.728 121.888 157.05 122.04C157.375 122.195 157.802 122.273 158.328 122.273C159.033 122.273 159.614 122.102 160.072 121.761C160.531 121.42 160.76 120.886 160.76 120.159V118.386H160.646C160.548 118.545 160.408 118.742 160.226 118.977C160.048 119.208 159.79 119.415 159.453 119.597C159.12 119.775 158.669 119.864 158.101 119.864C157.396 119.864 156.764 119.697 156.203 119.364C155.646 119.03 155.205 118.545 154.879 117.909C154.557 117.273 154.396 116.5 154.396 115.591C154.396 114.697 154.554 113.919 154.868 113.256C155.182 112.589 155.62 112.074 156.18 111.71C156.741 111.343 157.389 111.159 158.124 111.159C158.692 111.159 159.143 111.254 159.476 111.443C159.813 111.629 160.071 111.841 160.249 112.08C160.43 112.314 160.571 112.508 160.669 112.659H160.805V111.273H162.101V120.25C162.101 121 161.93 121.61 161.589 122.08C161.252 122.553 160.798 122.9 160.226 123.119C159.658 123.343 159.025 123.455 158.328 123.455ZM158.283 118.659C158.821 118.659 159.275 118.536 159.646 118.29C160.018 118.044 160.3 117.689 160.493 117.227C160.686 116.765 160.783 116.212 160.783 115.568C160.783 114.939 160.688 114.384 160.499 113.903C160.309 113.422 160.029 113.045 159.658 112.773C159.286 112.5 158.828 112.364 158.283 112.364C157.714 112.364 157.241 112.508 156.862 112.795C156.487 113.083 156.205 113.47 156.016 113.955C155.83 114.439 155.737 114.977 155.737 115.568C155.737 116.174 155.832 116.71 156.021 117.176C156.214 117.638 156.499 118.002 156.874 118.267C157.252 118.528 157.722 118.659 158.283 118.659ZM168.214 120.182C167.374 120.182 166.648 119.996 166.038 119.625C165.432 119.25 164.964 118.727 164.635 118.057C164.309 117.383 164.146 116.598 164.146 115.705C164.146 114.811 164.309 114.023 164.635 113.341C164.964 112.655 165.423 112.121 166.01 111.739C166.601 111.352 167.29 111.159 168.078 111.159C168.533 111.159 168.982 111.235 169.425 111.386C169.868 111.538 170.271 111.784 170.635 112.125C170.999 112.462 171.288 112.909 171.504 113.466C171.72 114.023 171.828 114.708 171.828 115.523V116.091H165.101V114.932H170.464C170.464 114.439 170.366 114 170.169 113.614C169.976 113.227 169.699 112.922 169.339 112.699C168.983 112.475 168.563 112.364 168.078 112.364C167.544 112.364 167.082 112.496 166.692 112.761C166.305 113.023 166.008 113.364 165.8 113.784C165.591 114.205 165.487 114.655 165.487 115.136V115.909C165.487 116.568 165.601 117.127 165.828 117.585C166.059 118.04 166.379 118.386 166.788 118.625C167.197 118.86 167.673 118.977 168.214 118.977C168.567 118.977 168.885 118.928 169.169 118.83C169.457 118.727 169.705 118.576 169.913 118.375C170.122 118.17 170.283 117.917 170.396 117.614L171.692 117.977C171.555 118.417 171.326 118.803 171.004 119.136C170.682 119.466 170.285 119.723 169.811 119.909C169.338 120.091 168.805 120.182 168.214 120.182ZM177.163 120.182C176.436 120.182 175.794 119.998 175.237 119.631C174.68 119.259 174.245 118.737 173.93 118.062C173.616 117.384 173.459 116.583 173.459 115.659C173.459 114.742 173.616 113.947 173.93 113.273C174.245 112.598 174.682 112.078 175.243 111.71C175.804 111.343 176.451 111.159 177.186 111.159C177.754 111.159 178.203 111.254 178.533 111.443C178.866 111.629 179.12 111.841 179.294 112.08C179.472 112.314 179.61 112.508 179.709 112.659H179.822V108.364H181.163V120H179.868V118.659H179.709C179.61 118.818 179.47 119.019 179.288 119.261C179.107 119.5 178.847 119.714 178.51 119.903C178.173 120.089 177.724 120.182 177.163 120.182ZM177.345 118.977C177.883 118.977 178.338 118.837 178.709 118.557C179.08 118.273 179.362 117.881 179.555 117.381C179.749 116.877 179.845 116.295 179.845 115.636C179.845 114.985 179.75 114.415 179.561 113.926C179.372 113.434 179.091 113.051 178.72 112.778C178.349 112.502 177.891 112.364 177.345 112.364C176.777 112.364 176.304 112.509 175.925 112.801C175.55 113.089 175.268 113.481 175.078 113.977C174.893 114.47 174.8 115.023 174.8 115.636C174.8 116.258 174.894 116.822 175.084 117.33C175.277 117.833 175.561 118.235 175.936 118.534C176.315 118.83 176.785 118.977 177.345 118.977Z" fill="#FFF0E5"/>
<path d="M317.883 53.3125C314.979 53.3125 312.733 52.4987 311.145 50.8711C309.569 49.2435 308.781 46.8997 308.781 43.8398V28.332C308.781 25.1029 309.53 22.6289 311.027 20.9102C312.538 19.1784 314.823 18.3125 317.883 18.3125C320.956 18.3125 323.241 19.1784 324.738 20.9102C326.236 22.6289 326.984 25.1029 326.984 28.332V43.8398C326.984 46.8997 326.197 49.2435 324.621 50.8711C323.046 52.4987 320.799 53.3125 317.883 53.3125ZM317.883 46.9844C318.417 46.9844 318.833 46.7435 319.133 46.2617C319.432 45.7799 319.582 45.2396 319.582 44.6406V27.668C319.582 26.8607 319.491 26.1576 319.309 25.5586C319.139 24.9466 318.664 24.6406 317.883 24.6406C317.102 24.6406 316.62 24.9466 316.438 25.5586C316.268 26.1576 316.184 26.8607 316.184 27.668V44.6406C316.184 45.2396 316.333 45.7799 316.633 46.2617C316.945 46.7435 317.362 46.9844 317.883 46.9844ZM328.977 53V51.3594C328.977 49.6536 329.237 48.1237 329.758 46.7695C330.292 45.4023 330.975 44.1393 331.809 42.9805C332.642 41.8086 333.521 40.6628 334.445 39.543C335.344 38.4492 336.197 37.3294 337.004 36.1836C337.824 35.0247 338.488 33.7747 338.996 32.4336C339.517 31.0794 339.777 29.5625 339.777 27.8828C339.777 27.0755 339.654 26.3854 339.406 25.8125C339.172 25.2266 338.677 24.9336 337.922 24.9336C336.776 24.9336 336.203 25.9557 336.203 28V32.1992H328.977C328.964 31.8997 328.944 31.5612 328.918 31.1836C328.905 30.806 328.898 30.4414 328.898 30.0898C328.898 27.6159 329.159 25.5195 329.68 23.8008C330.201 22.069 331.118 20.7539 332.434 19.8555C333.762 18.944 335.624 18.4883 338.02 18.4883C340.871 18.4883 343.085 19.2891 344.66 20.8906C346.249 22.4922 347.043 24.7773 347.043 27.7461C347.043 29.7643 346.783 31.5352 346.262 33.0586C345.741 34.569 345.051 35.9492 344.191 37.1992C343.332 38.4362 342.388 39.6732 341.359 40.9102C340.63 41.7826 339.921 42.6745 339.23 43.5859C338.553 44.4974 337.954 45.474 337.434 46.5156H346.809V53H328.977Z" fill="url(#paint0_linear_94_43)"/>
<defs>
<linearGradient id="paint0_linear_94_43" x1="328" y1="11" x2="328" y2="62" gradientUnits="userSpaceOnUse">
<stop stop-color="#FFF0E5"/>
<stop offset="0.869792" stop-color="#FFF0E5" stop-opacity="0"/>
</linearGradient>
</defs>
</svg>
