<svg width="369" height="148" viewBox="0 0 369 148" fill="none" xmlns="http://www.w3.org/2000/svg">
<path d="M0 15C0 6.71573 6.71573 0 15 0H354C362.284 0 369 6.71573 369 15V68C369 112.183 333.183 148 289 148H15C6.71574 148 0 141.284 0 133V15Z" fill="#ECECEC"/>
<path d="M19.517 43V25.5455H31.2784V28.5881H23.2074V32.7472H30.6733V35.7898H23.2074V39.9574H31.3125V43H19.517ZM37.7749 35.4318V43H34.1442V29.9091H37.6044V32.2188H37.7578C38.0476 31.4574 38.5334 30.8551 39.2152 30.4119C39.897 29.9631 40.7237 29.7386 41.6953 29.7386C42.6044 29.7386 43.397 29.9375 44.0732 30.3352C44.7493 30.733 45.2749 31.3011 45.6499 32.0398C46.0249 32.7727 46.2124 33.6477 46.2124 34.6648V43H42.5817V35.3125C42.5874 34.5114 42.3828 33.8864 41.968 33.4375C41.5533 32.983 40.9822 32.7557 40.255 32.7557C39.7663 32.7557 39.3345 32.8608 38.9595 33.071C38.5902 33.2812 38.3004 33.5881 38.0902 33.9915C37.8857 34.3892 37.7805 34.8693 37.7749 35.4318ZM56.0369 29.9091V32.6364H48.1534V29.9091H56.0369ZM49.9432 26.7727H53.5739V38.9773C53.5739 39.3125 53.625 39.5739 53.7273 39.7614C53.8295 39.9432 53.9716 40.071 54.1534 40.1449C54.3409 40.2187 54.5568 40.2557 54.8011 40.2557C54.9716 40.2557 55.142 40.2415 55.3125 40.2131C55.483 40.179 55.6136 40.1534 55.7045 40.1364L56.2756 42.8381C56.0938 42.8949 55.8381 42.9602 55.5085 43.0341C55.179 43.1136 54.7784 43.1619 54.3068 43.179C53.4318 43.2131 52.6648 43.0966 52.0057 42.8295C51.3523 42.5625 50.8438 42.1477 50.4801 41.5852C50.1165 41.0227 49.9375 40.3125 49.9432 39.4545V26.7727ZM64.2273 43.2557C62.8807 43.2557 61.7216 42.983 60.75 42.4375C59.7841 41.8864 59.0398 41.108 58.517 40.1023C57.9943 39.0909 57.733 37.8949 57.733 36.5142C57.733 35.1676 57.9943 33.9858 58.517 32.9688C59.0398 31.9517 59.7756 31.1591 60.7244 30.5909C61.679 30.0227 62.7983 29.7386 64.0824 29.7386C64.946 29.7386 65.75 29.8778 66.4943 30.1562C67.2443 30.429 67.8977 30.8409 68.4545 31.392C69.017 31.9432 69.4545 32.6364 69.767 33.4716C70.0795 34.3011 70.2358 35.2727 70.2358 36.3864V37.3835H59.1818V35.1335H66.8182C66.8182 34.6108 66.7045 34.1477 66.4773 33.7443C66.25 33.3409 65.9347 33.0256 65.5312 32.7983C65.1335 32.5653 64.6705 32.4489 64.142 32.4489C63.5909 32.4489 63.1023 32.5767 62.6761 32.8324C62.2557 33.0824 61.9261 33.4205 61.6875 33.8466C61.4489 34.267 61.3267 34.7358 61.321 35.2528V37.392C61.321 38.0398 61.4403 38.5994 61.679 39.071C61.9233 39.5426 62.267 39.9062 62.7102 40.1619C63.1534 40.4176 63.679 40.5455 64.2869 40.5455C64.6903 40.5455 65.0597 40.4886 65.3949 40.375C65.7301 40.2614 66.017 40.0909 66.2557 39.8636C66.4943 39.6364 66.6761 39.358 66.8011 39.0284L70.1591 39.25C69.9886 40.0568 69.6392 40.7614 69.1108 41.3636C68.5881 41.9602 67.9119 42.4261 67.0824 42.7614C66.2585 43.0909 65.3068 43.2557 64.2273 43.2557ZM72.6051 43V29.9091H76.125V32.1932H76.2614C76.5 31.3807 76.9006 30.767 77.4631 30.3523C78.0256 29.9318 78.6733 29.7216 79.4062 29.7216C79.5881 29.7216 79.7841 29.733 79.9943 29.7557C80.2045 29.7784 80.3892 29.8097 80.5483 29.8494V33.071C80.3778 33.0199 80.142 32.9744 79.8409 32.9347C79.5398 32.8949 79.2642 32.875 79.0142 32.875C78.4801 32.875 78.0028 32.9915 77.5824 33.2244C77.1676 33.4517 76.8381 33.7699 76.5938 34.179C76.3551 34.5881 76.2358 35.0597 76.2358 35.5938V43H72.6051ZM90.0447 29.9091V32.6364H82.1612V29.9091H90.0447ZM83.951 26.7727H87.5817V38.9773C87.5817 39.3125 87.6328 39.5739 87.7351 39.7614C87.8374 39.9432 87.9794 40.071 88.1612 40.1449C88.3487 40.2187 88.5646 40.2557 88.8089 40.2557C88.9794 40.2557 89.1499 40.2415 89.3203 40.2131C89.4908 40.179 89.6214 40.1534 89.7124 40.1364L90.2834 42.8381C90.1016 42.8949 89.8459 42.9602 89.5163 43.0341C89.1868 43.1136 88.7862 43.1619 88.3146 43.179C87.4396 43.2131 86.6726 43.0966 86.0135 42.8295C85.3601 42.5625 84.8516 42.1477 84.4879 41.5852C84.1243 41.0227 83.9453 40.3125 83.951 39.4545V26.7727ZM96.1428 43.2472C95.3075 43.2472 94.5632 43.1023 93.9098 42.8125C93.2564 42.517 92.7393 42.0824 92.3587 41.5085C91.9837 40.929 91.7962 40.2074 91.7962 39.3438C91.7962 38.6165 91.9297 38.0057 92.1967 37.5114C92.4638 37.017 92.8274 36.6193 93.2876 36.3182C93.7479 36.017 94.2706 35.7898 94.8558 35.6364C95.4467 35.483 96.0661 35.375 96.7138 35.3125C97.4751 35.233 98.0888 35.1591 98.5547 35.0909C99.0206 35.017 99.3587 34.9091 99.5689 34.767C99.7791 34.625 99.8842 34.4148 99.8842 34.1364V34.0852C99.8842 33.5455 99.7138 33.1278 99.3729 32.8324C99.0376 32.5369 98.5604 32.3892 97.9411 32.3892C97.2876 32.3892 96.7678 32.5341 96.3814 32.8239C95.995 33.108 95.7393 33.4659 95.6143 33.8977L92.2564 33.625C92.4268 32.8295 92.7621 32.142 93.2621 31.5625C93.7621 30.9773 94.407 30.5284 95.1967 30.2159C95.9922 29.8977 96.9126 29.7386 97.9581 29.7386C98.6854 29.7386 99.3814 29.8239 100.046 29.9943C100.717 30.1648 101.31 30.429 101.827 30.7869C102.35 31.1449 102.762 31.6051 103.063 32.1676C103.364 32.7244 103.515 33.392 103.515 34.1705V43H100.072V41.1847H99.9695C99.7592 41.5938 99.478 41.9545 99.1257 42.267C98.7734 42.5739 98.3501 42.8153 97.8558 42.9915C97.3615 43.1619 96.7905 43.2472 96.1428 43.2472ZM97.1825 40.7415C97.7166 40.7415 98.1882 40.6364 98.5973 40.4261C99.0064 40.2102 99.3274 39.9205 99.5604 39.5568C99.7933 39.1932 99.9098 38.7812 99.9098 38.321V36.9318C99.7962 37.0057 99.6399 37.0739 99.4411 37.1364C99.2479 37.1932 99.0291 37.2472 98.7848 37.2983C98.5405 37.3437 98.2962 37.3864 98.0518 37.4261C97.8075 37.4602 97.5859 37.4915 97.3871 37.5199C96.9609 37.5824 96.5888 37.6818 96.2706 37.8182C95.9524 37.9545 95.7053 38.1392 95.5291 38.3722C95.353 38.5994 95.2649 38.8835 95.2649 39.2244C95.2649 39.7188 95.4439 40.0966 95.8018 40.358C96.1655 40.6136 96.6257 40.7415 97.1825 40.7415ZM106.332 43V29.9091H109.962V43H106.332ZM108.156 28.2216C107.616 28.2216 107.153 28.0426 106.766 27.6847C106.386 27.321 106.195 26.8864 106.195 26.3807C106.195 25.8807 106.386 25.4517 106.766 25.0938C107.153 24.7301 107.616 24.5483 108.156 24.5483C108.695 24.5483 109.156 24.7301 109.536 25.0938C109.923 25.4517 110.116 25.8807 110.116 26.3807C110.116 26.8864 109.923 27.321 109.536 27.6847C109.156 28.0426 108.695 28.2216 108.156 28.2216ZM116.501 35.4318V43H112.871V29.9091H116.331V32.2188H116.484C116.774 31.4574 117.26 30.8551 117.942 30.4119C118.624 29.9631 119.45 29.7386 120.422 29.7386C121.331 29.7386 122.124 29.9375 122.8 30.3352C123.476 30.733 124.001 31.3011 124.376 32.0398C124.751 32.7727 124.939 33.6477 124.939 34.6648V43H121.308V35.3125C121.314 34.5114 121.109 33.8864 120.695 33.4375C120.28 32.983 119.709 32.7557 118.982 32.7557C118.493 32.7557 118.061 32.8608 117.686 33.071C117.317 33.2812 117.027 33.5881 116.817 33.9915C116.612 34.3892 116.507 34.8693 116.501 35.4318ZM127.8 43V29.9091H131.431V43H127.8ZM129.624 28.2216C129.085 28.2216 128.621 28.0426 128.235 27.6847C127.854 27.321 127.664 26.8864 127.664 26.3807C127.664 25.8807 127.854 25.4517 128.235 25.0938C128.621 24.7301 129.085 24.5483 129.624 24.5483C130.164 24.5483 130.624 24.7301 131.005 25.0938C131.391 25.4517 131.585 25.8807 131.585 26.3807C131.585 26.8864 131.391 27.321 131.005 27.6847C130.624 28.0426 130.164 28.2216 129.624 28.2216ZM137.97 35.4318V43H134.339V29.9091H137.8V32.2188H137.953C138.243 31.4574 138.729 30.8551 139.411 30.4119C140.092 29.9631 140.919 29.7386 141.891 29.7386C142.8 29.7386 143.592 29.9375 144.268 30.3352C144.945 30.733 145.47 31.3011 145.845 32.0398C146.22 32.7727 146.408 33.6477 146.408 34.6648V43H142.777V35.3125C142.783 34.5114 142.578 33.8864 142.163 33.4375C141.749 32.983 141.178 32.7557 140.45 32.7557C139.962 32.7557 139.53 32.8608 139.155 33.071C138.786 33.2812 138.496 33.5881 138.286 33.9915C138.081 34.3892 137.976 34.8693 137.97 35.4318ZM155.167 48.1818C153.991 48.1818 152.982 48.0199 152.141 47.696C151.306 47.3778 150.641 46.9432 150.147 46.392C149.653 45.8409 149.332 45.2216 149.184 44.5341L152.542 44.0824C152.644 44.3438 152.806 44.5881 153.028 44.8153C153.249 45.0426 153.542 45.2244 153.906 45.3608C154.275 45.5028 154.724 45.5739 155.252 45.5739C156.042 45.5739 156.692 45.3807 157.204 44.9943C157.721 44.6136 157.979 43.9744 157.979 43.0767V40.6818H157.826C157.667 41.0455 157.428 41.3892 157.11 41.7131C156.792 42.0369 156.383 42.3011 155.883 42.5057C155.383 42.7102 154.786 42.8125 154.093 42.8125C153.11 42.8125 152.215 42.5852 151.408 42.1307C150.607 41.6705 149.968 40.9687 149.491 40.0256C149.019 39.0767 148.783 37.8778 148.783 36.429C148.783 34.946 149.025 33.7074 149.508 32.7131C149.991 31.7187 150.633 30.9744 151.434 30.4801C152.241 29.9858 153.124 29.7386 154.085 29.7386C154.817 29.7386 155.431 29.8636 155.925 30.1136C156.42 30.358 156.817 30.6648 157.119 31.0341C157.425 31.3977 157.661 31.7557 157.826 32.108H157.962V29.9091H161.567V43.1278C161.567 44.2415 161.295 45.1733 160.749 45.9233C160.204 46.6733 159.448 47.2358 158.482 47.6108C157.522 47.9915 156.417 48.1818 155.167 48.1818ZM155.244 40.0852C155.829 40.0852 156.323 39.9403 156.727 39.6506C157.136 39.3551 157.448 38.9347 157.664 38.3892C157.886 37.8381 157.996 37.179 157.996 36.4119C157.996 35.6449 157.888 34.9801 157.673 34.4176C157.457 33.8494 157.144 33.4091 156.735 33.0966C156.326 32.7841 155.829 32.6278 155.244 32.6278C154.647 32.6278 154.144 32.7898 153.735 33.1136C153.326 33.4318 153.016 33.875 152.806 34.4432C152.596 35.0114 152.491 35.6676 152.491 36.4119C152.491 37.1676 152.596 37.821 152.806 38.3722C153.022 38.9176 153.332 39.3409 153.735 39.642C154.144 39.9375 154.647 40.0852 155.244 40.0852Z" fill="#161616"/>
<path d="M20.8182 76.3636V88H19.4091V76.3636H20.8182ZM24.8026 82.75V88H23.4616V79.2727H24.7571V80.6364H24.8707C25.0753 80.1932 25.3859 79.8371 25.8026 79.5682C26.2192 79.2955 26.7571 79.1591 27.4162 79.1591C28.0071 79.1591 28.5241 79.2803 28.9673 79.5227C29.4105 79.7614 29.7552 80.125 30.0014 80.6136C30.2476 81.0985 30.3707 81.7121 30.3707 82.4545V88H29.0298V82.5455C29.0298 81.8598 28.8518 81.3258 28.4957 80.9432C28.1397 80.5568 27.651 80.3636 27.0298 80.3636C26.6018 80.3636 26.2192 80.4564 25.8821 80.642C25.5488 80.8277 25.2855 81.0985 25.0923 81.4545C24.8991 81.8106 24.8026 82.2424 24.8026 82.75ZM34.1619 82.75V88H32.821V79.2727H34.1165V80.6364H34.2301C34.4347 80.1932 34.7453 79.8371 35.1619 79.5682C35.5786 79.2955 36.1165 79.1591 36.7756 79.1591C37.3665 79.1591 37.8835 79.2803 38.3267 79.5227C38.7699 79.7614 39.1146 80.125 39.3608 80.6136C39.607 81.0985 39.7301 81.7121 39.7301 82.4545V88H38.3892V82.5455C38.3892 81.8598 38.2112 81.3258 37.8551 80.9432C37.4991 80.5568 37.0104 80.3636 36.3892 80.3636C35.9612 80.3636 35.5786 80.4564 35.2415 80.642C34.9081 80.8277 34.6449 81.0985 34.4517 81.4545C34.2585 81.8106 34.1619 82.2424 34.1619 82.75ZM45.7259 88.1818C44.938 88.1818 44.2467 87.9943 43.652 87.6193C43.0611 87.2443 42.599 86.7197 42.2656 86.0455C41.9361 85.3712 41.7713 84.5833 41.7713 83.6818C41.7713 82.7727 41.9361 81.9792 42.2656 81.3011C42.599 80.6231 43.0611 80.0966 43.652 79.7216C44.2467 79.3466 44.938 79.1591 45.7259 79.1591C46.5137 79.1591 47.2031 79.3466 47.794 79.7216C48.3887 80.0966 48.8509 80.6231 49.1804 81.3011C49.5137 81.9792 49.6804 82.7727 49.6804 83.6818C49.6804 84.5833 49.5137 85.3712 49.1804 86.0455C48.8509 86.7197 48.3887 87.2443 47.794 87.6193C47.2031 87.9943 46.5137 88.1818 45.7259 88.1818ZM45.7259 86.9773C46.3243 86.9773 46.8168 86.8239 47.2031 86.517C47.5895 86.2102 47.8755 85.8068 48.0611 85.3068C48.2467 84.8068 48.3395 84.2652 48.3395 83.6818C48.3395 83.0985 48.2467 82.5549 48.0611 82.0511C47.8755 81.5473 47.5895 81.1402 47.2031 80.8295C46.8168 80.5189 46.3243 80.3636 45.7259 80.3636C45.1274 80.3636 44.6349 80.5189 44.2486 80.8295C43.8622 81.1402 43.5762 81.5473 43.3906 82.0511C43.205 82.5549 43.1122 83.0985 43.1122 83.6818C43.1122 84.2652 43.205 84.8068 43.3906 85.3068C43.5762 85.8068 43.8622 86.2102 44.2486 86.517C44.6349 86.8239 45.1274 86.9773 45.7259 86.9773ZM58.5511 79.2727L55.3239 88H53.9602L50.733 79.2727H52.1875L54.5966 86.2273H54.6875L57.0966 79.2727H58.5511ZM62.6236 88.2045C62.0705 88.2045 61.5687 88.1004 61.1179 87.892C60.6671 87.6799 60.3092 87.375 60.044 86.9773C59.7789 86.5758 59.6463 86.0909 59.6463 85.5227C59.6463 85.0227 59.7448 84.6174 59.9418 84.3068C60.1387 83.9924 60.402 83.7462 60.7315 83.5682C61.0611 83.3902 61.4247 83.2576 61.8224 83.1705C62.224 83.0795 62.6274 83.0076 63.0327 82.9545C63.563 82.8864 63.9929 82.8352 64.3224 82.8011C64.6558 82.7633 64.8982 82.7008 65.0497 82.6136C65.205 82.5265 65.2827 82.375 65.2827 82.1591V82.1136C65.2827 81.553 65.1293 81.1174 64.8224 80.8068C64.5194 80.4962 64.0592 80.3409 63.4418 80.3409C62.8016 80.3409 62.2997 80.4811 61.9361 80.7614C61.5724 81.0417 61.3168 81.3409 61.169 81.6591L59.8963 81.2045C60.1236 80.6742 60.4266 80.2614 60.8054 79.9659C61.188 79.6667 61.6046 79.4583 62.0554 79.3409C62.5099 79.2197 62.9569 79.1591 63.3963 79.1591C63.6766 79.1591 63.9986 79.1932 64.3622 79.2614C64.7296 79.3258 65.0838 79.4602 65.4247 79.6648C65.7694 79.8693 66.0554 80.178 66.2827 80.5909C66.5099 81.0038 66.6236 81.5568 66.6236 82.25V88H65.2827V86.8182H65.2145C65.1236 87.0076 64.9721 87.2102 64.7599 87.4261C64.5478 87.642 64.2656 87.8258 63.9134 87.9773C63.5611 88.1288 63.1312 88.2045 62.6236 88.2045ZM62.8281 87C63.3584 87 63.8054 86.8958 64.169 86.6875C64.5365 86.4792 64.813 86.2102 64.9986 85.8807C65.188 85.5511 65.2827 85.2045 65.2827 84.8409V83.6136C65.2259 83.6818 65.1009 83.7443 64.9077 83.8011C64.7183 83.8542 64.4986 83.9015 64.2486 83.9432C64.0024 83.9811 63.7618 84.0152 63.527 84.0455C63.2959 84.072 63.1084 84.0947 62.9645 84.1136C62.616 84.1591 62.2902 84.233 61.9872 84.3352C61.688 84.4337 61.4455 84.5833 61.2599 84.7841C61.0781 84.9811 60.9872 85.25 60.9872 85.5909C60.9872 86.0568 61.1596 86.4091 61.5043 86.6477C61.8527 86.8826 62.294 87 62.8281 87ZM72.8665 79.2727V80.4091H68.3438V79.2727H72.8665ZM69.6619 77.1818H71.0028V85.5C71.0028 85.8788 71.0578 86.1629 71.1676 86.3523C71.2813 86.5379 71.4252 86.6629 71.5994 86.7273C71.7775 86.7879 71.965 86.8182 72.1619 86.8182C72.3097 86.8182 72.4309 86.8106 72.5256 86.7955C72.6203 86.7765 72.696 86.7614 72.7528 86.75L73.0256 87.9545C72.9347 87.9886 72.8078 88.0227 72.6449 88.0568C72.482 88.0947 72.2756 88.1136 72.0256 88.1136C71.6468 88.1136 71.2756 88.0322 70.9119 87.8693C70.5521 87.7064 70.2528 87.4583 70.0142 87.125C69.7794 86.7917 69.6619 86.3712 69.6619 85.8636V77.1818ZM74.8835 88V79.2727H76.2244V88H74.8835ZM75.5653 77.8182C75.304 77.8182 75.0786 77.7292 74.8892 77.5511C74.7036 77.3731 74.6108 77.1591 74.6108 76.9091C74.6108 76.6591 74.7036 76.4451 74.8892 76.267C75.0786 76.089 75.304 76 75.5653 76C75.8267 76 76.0502 76.089 76.2358 76.267C76.4252 76.4451 76.5199 76.6591 76.5199 76.9091C76.5199 77.1591 76.4252 77.3731 76.2358 77.5511C76.0502 77.7292 75.8267 77.8182 75.5653 77.8182ZM85.8168 79.2727L82.5895 88H81.2259L77.9986 79.2727H79.4531L81.8622 86.2273H81.9531L84.3622 79.2727H85.8168ZM90.9332 88.1818C90.0923 88.1818 89.367 87.9962 88.7571 87.625C88.151 87.25 87.6832 86.7273 87.3537 86.0568C87.0279 85.3826 86.8651 84.5985 86.8651 83.7045C86.8651 82.8106 87.0279 82.0227 87.3537 81.3409C87.6832 80.6553 88.1416 80.1212 88.7287 79.7386C89.3196 79.3523 90.009 79.1591 90.7969 79.1591C91.2514 79.1591 91.7003 79.2348 92.1435 79.3864C92.5866 79.5379 92.9901 79.7841 93.3537 80.125C93.7173 80.4621 94.0071 80.9091 94.223 81.4659C94.4389 82.0227 94.5469 82.7083 94.5469 83.5227V84.0909H87.8196V82.9318H93.1832C93.1832 82.4394 93.0848 82 92.8878 81.6136C92.6946 81.2273 92.4181 80.9223 92.0582 80.6989C91.7022 80.4754 91.2817 80.3636 90.7969 80.3636C90.2628 80.3636 89.8007 80.4962 89.4105 80.7614C89.0241 81.0227 88.7268 81.3636 88.5185 81.7841C88.3101 82.2045 88.206 82.6553 88.206 83.1364V83.9091C88.206 84.5682 88.3196 85.1269 88.5469 85.5852C88.7779 86.0398 89.098 86.3864 89.5071 86.625C89.9162 86.8598 90.3916 86.9773 90.9332 86.9773C91.2855 86.9773 91.6037 86.928 91.8878 86.8295C92.1757 86.7273 92.4238 86.5758 92.6321 86.375C92.8404 86.1705 93.0014 85.9167 93.1151 85.6136L94.4105 85.9773C94.2741 86.4167 94.045 86.803 93.723 87.1364C93.401 87.4659 93.0033 87.7235 92.5298 87.9091C92.0563 88.0909 91.5241 88.1818 90.9332 88.1818ZM107.268 81.2273L106.064 81.5682C105.988 81.3674 105.876 81.1723 105.729 80.983C105.585 80.7898 105.388 80.6307 105.138 80.5057C104.888 80.3807 104.568 80.3182 104.178 80.3182C103.643 80.3182 103.198 80.4413 102.842 80.6875C102.49 80.9299 102.314 81.2386 102.314 81.6136C102.314 81.947 102.435 82.2102 102.678 82.4034C102.92 82.5966 103.299 82.7576 103.814 82.8864L105.109 83.2045C105.89 83.3939 106.471 83.6837 106.854 84.0739C107.236 84.4602 107.428 84.9583 107.428 85.5682C107.428 86.0682 107.284 86.5152 106.996 86.9091C106.712 87.303 106.314 87.6136 105.803 87.8409C105.291 88.0682 104.696 88.1818 104.018 88.1818C103.128 88.1818 102.392 87.9886 101.808 87.6023C101.225 87.2159 100.856 86.6515 100.7 85.9091L101.973 85.5909C102.094 86.0606 102.323 86.4129 102.661 86.6477C103.001 86.8826 103.446 87 103.996 87C104.621 87 105.117 86.8674 105.484 86.6023C105.856 86.3333 106.041 86.0114 106.041 85.6364C106.041 85.3333 105.935 85.0795 105.723 84.875C105.511 84.6667 105.185 84.5114 104.746 84.4091L103.291 84.0682C102.492 83.8788 101.905 83.5852 101.53 83.1875C101.159 82.786 100.973 82.2841 100.973 81.6818C100.973 81.1894 101.111 80.7538 101.388 80.375C101.668 79.9962 102.049 79.6989 102.53 79.483C103.015 79.267 103.564 79.1591 104.178 79.1591C105.041 79.1591 105.719 79.3485 106.212 79.7273C106.708 80.1061 107.06 80.6061 107.268 81.2273ZM113.105 88.1818C112.264 88.1818 111.539 87.9962 110.929 87.625C110.323 87.25 109.855 86.7273 109.526 86.0568C109.2 85.3826 109.037 84.5985 109.037 83.7045C109.037 82.8106 109.2 82.0227 109.526 81.3409C109.855 80.6553 110.313 80.1212 110.901 79.7386C111.491 79.3523 112.181 79.1591 112.969 79.1591C113.423 79.1591 113.872 79.2348 114.315 79.3864C114.759 79.5379 115.162 79.7841 115.526 80.125C115.889 80.4621 116.179 80.9091 116.395 81.4659C116.611 82.0227 116.719 82.7083 116.719 83.5227V84.0909H109.991V82.9318H115.355C115.355 82.4394 115.257 82 115.06 81.6136C114.866 81.2273 114.59 80.9223 114.23 80.6989C113.874 80.4754 113.454 80.3636 112.969 80.3636C112.435 80.3636 111.973 80.4962 111.582 80.7614C111.196 81.0227 110.899 81.3636 110.69 81.7841C110.482 82.2045 110.378 82.6553 110.378 83.1364V83.9091C110.378 84.5682 110.491 85.1269 110.719 85.5852C110.95 86.0398 111.27 86.3864 111.679 86.625C112.088 86.8598 112.563 86.9773 113.105 86.9773C113.457 86.9773 113.776 86.928 114.06 86.8295C114.348 86.7273 114.596 86.5758 114.804 86.375C115.012 86.1705 115.173 85.9167 115.287 85.6136L116.582 85.9773C116.446 86.4167 116.217 86.803 115.895 87.1364C115.573 87.4659 115.175 87.7235 114.702 87.9091C114.228 88.0909 113.696 88.1818 113.105 88.1818ZM122.554 79.2727V80.4091H118.031V79.2727H122.554ZM119.349 77.1818H120.69V85.5C120.69 85.8788 120.745 86.1629 120.855 86.3523C120.969 86.5379 121.113 86.6629 121.287 86.7273C121.465 86.7879 121.652 86.8182 121.849 86.8182C121.997 86.8182 122.118 86.8106 122.213 86.7955C122.308 86.7765 122.384 86.7614 122.44 86.75L122.713 87.9545C122.622 87.9886 122.495 88.0227 122.332 88.0568C122.17 88.0947 121.963 88.1136 121.713 88.1136C121.334 88.1136 120.963 88.0322 120.599 87.8693C120.24 87.7064 119.94 87.4583 119.702 87.125C119.467 86.7917 119.349 86.3712 119.349 85.8636V77.1818ZM134.571 84.4318V79.2727H135.912V88H134.571V86.5227H134.48C134.276 86.9659 133.957 87.3428 133.526 87.6534C133.094 87.9602 132.548 88.1136 131.889 88.1136C131.344 88.1136 130.859 87.9943 130.435 87.7557C130.01 87.5133 129.677 87.1496 129.435 86.6648C129.192 86.1761 129.071 85.5606 129.071 84.8182V79.2727H130.412V84.7273C130.412 85.3636 130.59 85.8712 130.946 86.25C131.306 86.6288 131.764 86.8182 132.321 86.8182C132.654 86.8182 132.993 86.733 133.338 86.5625C133.687 86.392 133.978 86.1307 134.213 85.7784C134.452 85.4261 134.571 84.9773 134.571 84.4318ZM138.368 91.2727V79.2727H139.663V80.6591H139.822C139.921 80.5076 140.057 80.3144 140.232 80.0795C140.41 79.8409 140.663 79.6288 140.993 79.4432C141.326 79.2538 141.777 79.1591 142.345 79.1591C143.08 79.1591 143.728 79.3428 144.288 79.7102C144.849 80.0777 145.286 80.5985 145.601 81.2727C145.915 81.947 146.072 82.7424 146.072 83.6591C146.072 84.5833 145.915 85.3845 145.601 86.0625C145.286 86.7367 144.851 87.2595 144.294 87.6307C143.737 87.9981 143.095 88.1818 142.368 88.1818C141.807 88.1818 141.358 88.089 141.021 87.9034C140.684 87.714 140.425 87.5 140.243 87.2614C140.061 87.0189 139.921 86.8182 139.822 86.6591H139.709V91.2727H138.368ZM139.686 83.6364C139.686 84.2955 139.783 84.8769 139.976 85.3807C140.169 85.8807 140.451 86.2727 140.822 86.5568C141.194 86.8371 141.648 86.9773 142.186 86.9773C142.747 86.9773 143.214 86.8295 143.589 86.5341C143.968 86.2348 144.252 85.8333 144.442 85.3295C144.635 84.822 144.732 84.2576 144.732 83.6364C144.732 83.0227 144.637 82.4697 144.447 81.9773C144.262 81.4811 143.98 81.089 143.601 80.8011C143.226 80.5095 142.754 80.3636 142.186 80.3636C141.641 80.3636 141.182 80.5019 140.811 80.7784C140.44 81.0511 140.16 81.4337 139.97 81.9261C139.781 82.4148 139.686 82.9848 139.686 83.6364ZM156.504 79.2727V80.4091H151.8V79.2727H156.504ZM153.209 88V78.0682C153.209 77.5682 153.326 77.1515 153.561 76.8182C153.796 76.4848 154.101 76.2348 154.476 76.0682C154.851 75.9015 155.247 75.8182 155.663 75.8182C155.993 75.8182 156.262 75.8447 156.47 75.8977C156.679 75.9508 156.834 76 156.936 76.0455L156.55 77.2045C156.482 77.1818 156.387 77.1534 156.266 77.1193C156.148 77.0852 155.993 77.0682 155.8 77.0682C155.357 77.0682 155.036 77.1799 154.839 77.4034C154.646 77.6269 154.55 77.9545 154.55 78.3864V88H153.209ZM161.57 88.1818C160.782 88.1818 160.09 87.9943 159.496 87.6193C158.905 87.2443 158.443 86.7197 158.109 86.0455C157.78 85.3712 157.615 84.5833 157.615 83.6818C157.615 82.7727 157.78 81.9792 158.109 81.3011C158.443 80.6231 158.905 80.0966 159.496 79.7216C160.09 79.3466 160.782 79.1591 161.57 79.1591C162.357 79.1591 163.047 79.3466 163.638 79.7216C164.232 80.0966 164.695 80.6231 165.024 81.3011C165.357 81.9792 165.524 82.7727 165.524 83.6818C165.524 84.5833 165.357 85.3712 165.024 86.0455C164.695 86.7197 164.232 87.2443 163.638 87.6193C163.047 87.9943 162.357 88.1818 161.57 88.1818ZM161.57 86.9773C162.168 86.9773 162.661 86.8239 163.047 86.517C163.433 86.2102 163.719 85.8068 163.905 85.3068C164.09 84.8068 164.183 84.2652 164.183 83.6818C164.183 83.0985 164.09 82.5549 163.905 82.0511C163.719 81.5473 163.433 81.1402 163.047 80.8295C162.661 80.5189 162.168 80.3636 161.57 80.3636C160.971 80.3636 160.479 80.5189 160.092 80.8295C159.706 81.1402 159.42 81.5473 159.234 82.0511C159.049 82.5549 158.956 83.0985 158.956 83.6818C158.956 84.2652 159.049 84.8068 159.234 85.3068C159.42 85.8068 159.706 86.2102 160.092 86.517C160.479 86.8239 160.971 86.9773 161.57 86.9773ZM167.571 88V79.2727H168.866V80.5909H168.957C169.116 80.1591 169.404 79.8087 169.821 79.5398C170.238 79.2708 170.707 79.1364 171.23 79.1364C171.329 79.1364 171.452 79.1383 171.599 79.142C171.747 79.1458 171.859 79.1515 171.935 79.1591V80.5227C171.889 80.5114 171.785 80.4943 171.622 80.4716C171.463 80.4451 171.295 80.4318 171.116 80.4318C170.692 80.4318 170.313 80.5208 169.98 80.6989C169.651 80.8731 169.389 81.1155 169.196 81.4261C169.007 81.733 168.912 82.0833 168.912 82.4773V88H167.571ZM181.82 79.2727V80.4091H177.297V79.2727H181.82ZM178.615 77.1818H179.956V85.5C179.956 85.8788 180.011 86.1629 180.121 86.3523C180.234 86.5379 180.378 86.6629 180.553 86.7273C180.731 86.7879 180.918 86.8182 181.115 86.8182C181.263 86.8182 181.384 86.8106 181.479 86.7955C181.573 86.7765 181.649 86.7614 181.706 86.75L181.979 87.9545C181.888 87.9886 181.761 88.0227 181.598 88.0568C181.435 88.0947 181.229 88.1136 180.979 88.1136C180.6 88.1136 180.229 88.0322 179.865 87.8693C179.505 87.7064 179.206 87.4583 178.967 87.125C178.732 86.7917 178.615 86.3712 178.615 85.8636V77.1818ZM185.365 82.75V88H184.024V76.3636H185.365V80.6364H185.479C185.683 80.1856 185.99 79.8277 186.399 79.5625C186.812 79.2936 187.361 79.1591 188.047 79.1591C188.642 79.1591 189.162 79.2784 189.609 79.517C190.056 79.7519 190.403 80.1136 190.649 80.6023C190.899 81.0871 191.024 81.7045 191.024 82.4545V88H189.683V82.5455C189.683 81.8523 189.503 81.3163 189.143 80.9375C188.787 80.5549 188.293 80.3636 187.661 80.3636C187.221 80.3636 186.827 80.4564 186.479 80.642C186.134 80.8277 185.861 81.0985 185.661 81.4545C185.464 81.8106 185.365 82.2424 185.365 82.75ZM197.136 88.1818C196.295 88.1818 195.57 87.9962 194.96 87.625C194.354 87.25 193.886 86.7273 193.557 86.0568C193.231 85.3826 193.068 84.5985 193.068 83.7045C193.068 82.8106 193.231 82.0227 193.557 81.3409C193.886 80.6553 194.345 80.1212 194.932 79.7386C195.523 79.3523 196.212 79.1591 197 79.1591C197.455 79.1591 197.903 79.2348 198.347 79.3864C198.79 79.5379 199.193 79.7841 199.557 80.125C199.92 80.4621 200.21 80.9091 200.426 81.4659C200.642 82.0227 200.75 82.7083 200.75 83.5227V84.0909H194.023V82.9318H199.386C199.386 82.4394 199.288 82 199.091 81.6136C198.898 81.2273 198.621 80.9223 198.261 80.6989C197.905 80.4754 197.485 80.3636 197 80.3636C196.466 80.3636 196.004 80.4962 195.614 80.7614C195.227 81.0227 194.93 81.3636 194.722 81.7841C194.513 82.2045 194.409 82.6553 194.409 83.1364V83.9091C194.409 84.5682 194.523 85.1269 194.75 85.5852C194.981 86.0398 195.301 86.3864 195.71 86.625C196.119 86.8598 196.595 86.9773 197.136 86.9773C197.489 86.9773 197.807 86.928 198.091 86.8295C198.379 86.7273 198.627 86.5758 198.835 86.375C199.044 86.1705 199.205 85.9167 199.318 85.6136L200.614 85.9773C200.477 86.4167 200.248 86.803 199.926 87.1364C199.604 87.4659 199.206 87.7235 198.733 87.9091C198.259 88.0909 197.727 88.1818 197.136 88.1818ZM207.29 88V79.2727H208.585V80.6364H208.699C208.881 80.1705 209.174 79.8087 209.58 79.5511C209.985 79.2898 210.472 79.1591 211.04 79.1591C211.616 79.1591 212.095 79.2898 212.477 79.5511C212.864 79.8087 213.165 80.1705 213.381 80.6364H213.472C213.695 80.1856 214.03 79.8277 214.477 79.5625C214.924 79.2936 215.46 79.1591 216.085 79.1591C216.866 79.1591 217.504 79.4034 218 79.892C218.496 80.3769 218.744 81.1326 218.744 82.1591V88H217.403V82.1591C217.403 81.5152 217.227 81.0549 216.875 80.7784C216.523 80.5019 216.108 80.3636 215.631 80.3636C215.017 80.3636 214.542 80.5492 214.205 80.9205C213.867 81.2879 213.699 81.7538 213.699 82.3182V88H212.335V82.0227C212.335 81.5265 212.174 81.1269 211.852 80.8239C211.53 80.517 211.116 80.3636 210.608 80.3636C210.259 80.3636 209.934 80.4564 209.631 80.642C209.331 80.8277 209.089 81.0852 208.903 81.4148C208.722 81.7405 208.631 82.1174 208.631 82.5455V88H207.29ZM223.764 88.2045C223.211 88.2045 222.709 88.1004 222.259 87.892C221.808 87.6799 221.45 87.375 221.185 86.9773C220.92 86.5758 220.787 86.0909 220.787 85.5227C220.787 85.0227 220.885 84.6174 221.082 84.3068C221.279 83.9924 221.543 83.7462 221.872 83.5682C222.202 83.3902 222.565 83.2576 222.963 83.1705C223.365 83.0795 223.768 83.0076 224.173 82.9545C224.704 82.8864 225.134 82.8352 225.463 82.8011C225.796 82.7633 226.039 82.7008 226.19 82.6136C226.346 82.5265 226.423 82.375 226.423 82.1591V82.1136C226.423 81.553 226.27 81.1174 225.963 80.8068C225.66 80.4962 225.2 80.3409 224.582 80.3409C223.942 80.3409 223.44 80.4811 223.077 80.7614C222.713 81.0417 222.457 81.3409 222.31 81.6591L221.037 81.2045C221.264 80.6742 221.567 80.2614 221.946 79.9659C222.329 79.6667 222.745 79.4583 223.196 79.3409C223.651 79.2197 224.098 79.1591 224.537 79.1591C224.817 79.1591 225.139 79.1932 225.503 79.2614C225.87 79.3258 226.224 79.4602 226.565 79.6648C226.91 79.8693 227.196 80.178 227.423 80.5909C227.651 81.0038 227.764 81.5568 227.764 82.25V88H226.423V86.8182H226.355C226.264 87.0076 226.113 87.2102 225.901 87.4261C225.688 87.642 225.406 87.8258 225.054 87.9773C224.702 88.1288 224.272 88.2045 223.764 88.2045ZM223.969 87C224.499 87 224.946 86.8958 225.31 86.6875C225.677 86.4792 225.954 86.2102 226.139 85.8807C226.329 85.5511 226.423 85.2045 226.423 84.8409V83.6136C226.366 83.6818 226.241 83.7443 226.048 83.8011C225.859 83.8542 225.639 83.9015 225.389 83.9432C225.143 83.9811 224.902 84.0152 224.668 84.0455C224.437 84.072 224.249 84.0947 224.105 84.1136C223.757 84.1591 223.431 84.233 223.128 84.3352C222.829 84.4337 222.586 84.5833 222.401 84.7841C222.219 84.9811 222.128 85.25 222.128 85.5909C222.128 86.0568 222.3 86.4091 222.645 86.6477C222.993 86.8826 223.435 87 223.969 87ZM233.757 88.1818C232.939 88.1818 232.234 87.9886 231.643 87.6023C231.053 87.2159 230.598 86.6837 230.28 86.0057C229.962 85.3277 229.803 84.553 229.803 83.6818C229.803 82.7955 229.965 82.0133 230.291 81.3352C230.621 80.6534 231.079 80.1212 231.666 79.7386C232.257 79.3523 232.946 79.1591 233.734 79.1591C234.348 79.1591 234.901 79.2727 235.393 79.5C235.886 79.7273 236.289 80.0455 236.604 80.4545C236.918 80.8636 237.113 81.3409 237.189 81.8864H235.848C235.746 81.4886 235.518 81.1364 235.166 80.8295C234.818 80.5189 234.348 80.3636 233.757 80.3636C233.234 80.3636 232.776 80.5 232.382 80.7727C231.992 81.0417 231.687 81.4223 231.467 81.9148C231.251 82.4034 231.143 82.9773 231.143 83.6364C231.143 84.3106 231.25 84.8977 231.462 85.3977C231.678 85.8977 231.981 86.286 232.371 86.5625C232.765 86.839 233.227 86.9773 233.757 86.9773C234.106 86.9773 234.422 86.9167 234.706 86.7955C234.99 86.6742 235.231 86.5 235.428 86.2727C235.625 86.0455 235.765 85.7727 235.848 85.4545H237.189C237.113 85.9697 236.926 86.4337 236.626 86.8466C236.331 87.2557 235.939 87.5814 235.45 87.8239C234.965 88.0625 234.401 88.1818 233.757 88.1818ZM240.49 82.75V88H239.149V76.3636H240.49V80.6364H240.604C240.808 80.1856 241.115 79.8277 241.524 79.5625C241.937 79.2936 242.486 79.1591 243.172 79.1591C243.767 79.1591 244.287 79.2784 244.734 79.517C245.181 79.7519 245.528 80.1136 245.774 80.6023C246.024 81.0871 246.149 81.7045 246.149 82.4545V88H244.808V82.5455C244.808 81.8523 244.628 81.3163 244.268 80.9375C243.912 80.5549 243.418 80.3636 242.786 80.3636C242.346 80.3636 241.952 80.4564 241.604 80.642C241.259 80.8277 240.986 81.0985 240.786 81.4545C240.589 81.8106 240.49 82.2424 240.49 82.75ZM248.602 88V79.2727H249.943V88H248.602ZM249.284 77.8182C249.023 77.8182 248.797 77.7292 248.608 77.5511C248.422 77.3731 248.33 77.1591 248.33 76.9091C248.33 76.6591 248.422 76.4451 248.608 76.267C248.797 76.089 249.023 76 249.284 76C249.545 76 249.769 76.089 249.955 76.267C250.144 76.4451 250.239 76.6591 250.239 76.9091C250.239 77.1591 250.144 77.3731 249.955 77.5511C249.769 77.7292 249.545 77.8182 249.284 77.8182ZM253.74 82.75V88H252.399V79.2727H253.695V80.6364H253.808C254.013 80.1932 254.323 79.8371 254.74 79.5682C255.157 79.2955 255.695 79.1591 256.354 79.1591C256.945 79.1591 257.462 79.2803 257.905 79.5227C258.348 79.7614 258.693 80.125 258.939 80.6136C259.185 81.0985 259.308 81.7121 259.308 82.4545V88H257.967V82.5455C257.967 81.8598 257.789 81.3258 257.433 80.9432C257.077 80.5568 256.589 80.3636 255.967 80.3636C255.539 80.3636 255.157 80.4564 254.82 80.642C254.486 80.8277 254.223 81.0985 254.03 81.4545C253.837 81.8106 253.74 82.2424 253.74 82.75ZM265.418 88.1818C264.577 88.1818 263.851 87.9962 263.241 87.625C262.635 87.25 262.168 86.7273 261.838 86.0568C261.512 85.3826 261.349 84.5985 261.349 83.7045C261.349 82.8106 261.512 82.0227 261.838 81.3409C262.168 80.6553 262.626 80.1212 263.213 79.7386C263.804 79.3523 264.493 79.1591 265.281 79.1591C265.736 79.1591 266.185 79.2348 266.628 79.3864C267.071 79.5379 267.474 79.7841 267.838 80.125C268.202 80.4621 268.491 80.9091 268.707 81.4659C268.923 82.0227 269.031 82.7083 269.031 83.5227V84.0909H262.304V82.9318H267.668C267.668 82.4394 267.569 82 267.372 81.6136C267.179 81.2273 266.902 80.9223 266.543 80.6989C266.187 80.4754 265.766 80.3636 265.281 80.3636C264.747 80.3636 264.285 80.4962 263.895 80.7614C263.509 81.0227 263.211 81.3636 263.003 81.7841C262.795 82.2045 262.69 82.6553 262.69 83.1364V83.9091C262.69 84.5682 262.804 85.1269 263.031 85.5852C263.262 86.0398 263.582 86.3864 263.991 86.625C264.401 86.8598 264.876 86.9773 265.418 86.9773C265.77 86.9773 266.088 86.928 266.372 86.8295C266.66 86.7273 266.908 86.5758 267.116 86.375C267.325 86.1705 267.486 85.9167 267.599 85.6136L268.895 85.9773C268.759 86.4167 268.529 86.803 268.207 87.1364C267.885 87.4659 267.488 87.7235 267.014 87.9091C266.541 88.0909 266.009 88.1818 265.418 88.1818ZM23 120H19.4091V108.364H23.1591C24.2879 108.364 25.2538 108.597 26.0568 109.062C26.8598 109.525 27.4754 110.189 27.9034 111.057C28.3314 111.92 28.5455 112.955 28.5455 114.159C28.5455 115.371 28.3295 116.415 27.8977 117.29C27.4659 118.161 26.8371 118.831 26.0114 119.301C25.1856 119.767 24.1818 120 23 120ZM20.8182 118.75H22.9091C23.8712 118.75 24.6686 118.564 25.3011 118.193C25.9337 117.822 26.4053 117.294 26.7159 116.608C27.0265 115.922 27.1818 115.106 27.1818 114.159C27.1818 113.22 27.0284 112.411 26.7216 111.733C26.4148 111.051 25.9564 110.528 25.3466 110.165C24.7367 109.797 23.9773 109.614 23.0682 109.614H20.8182V118.75ZM30.7273 120V111.273H32.0227V112.591H32.1136C32.2727 112.159 32.5606 111.809 32.9773 111.54C33.3939 111.271 33.8636 111.136 34.3864 111.136C34.4848 111.136 34.608 111.138 34.7557 111.142C34.9034 111.146 35.0152 111.152 35.0909 111.159V112.523C35.0455 112.511 34.9413 112.494 34.7784 112.472C34.6193 112.445 34.4508 112.432 34.2727 112.432C33.8485 112.432 33.4697 112.521 33.1364 112.699C32.8068 112.873 32.5455 113.116 32.3523 113.426C32.1629 113.733 32.0682 114.083 32.0682 114.477V120H30.7273ZM39.2486 120.205C38.6955 120.205 38.1937 120.1 37.7429 119.892C37.2921 119.68 36.9342 119.375 36.669 118.977C36.4039 118.576 36.2713 118.091 36.2713 117.523C36.2713 117.023 36.3698 116.617 36.5668 116.307C36.7637 115.992 37.027 115.746 37.3565 115.568C37.6861 115.39 38.0497 115.258 38.4474 115.17C38.849 115.08 39.2524 115.008 39.6577 114.955C40.188 114.886 40.6179 114.835 40.9474 114.801C41.2808 114.763 41.5232 114.701 41.6747 114.614C41.83 114.527 41.9077 114.375 41.9077 114.159V114.114C41.9077 113.553 41.7543 113.117 41.4474 112.807C41.1444 112.496 40.6842 112.341 40.0668 112.341C39.4266 112.341 38.9247 112.481 38.5611 112.761C38.1974 113.042 37.9418 113.341 37.794 113.659L36.5213 113.205C36.7486 112.674 37.0516 112.261 37.4304 111.966C37.813 111.667 38.2296 111.458 38.6804 111.341C39.1349 111.22 39.5819 111.159 40.0213 111.159C40.3016 111.159 40.6236 111.193 40.9872 111.261C41.3546 111.326 41.7088 111.46 42.0497 111.665C42.3944 111.869 42.6804 112.178 42.9077 112.591C43.1349 113.004 43.2486 113.557 43.2486 114.25V120H41.9077V118.818H41.8395C41.7486 119.008 41.5971 119.21 41.3849 119.426C41.1728 119.642 40.8906 119.826 40.5384 119.977C40.1861 120.129 39.7562 120.205 39.2486 120.205ZM39.4531 119C39.9834 119 40.4304 118.896 40.794 118.688C41.1615 118.479 41.438 118.21 41.6236 117.881C41.813 117.551 41.9077 117.205 41.9077 116.841V115.614C41.8509 115.682 41.7259 115.744 41.5327 115.801C41.3433 115.854 41.1236 115.902 40.8736 115.943C40.6274 115.981 40.3868 116.015 40.152 116.045C39.9209 116.072 39.7334 116.095 39.5895 116.114C39.241 116.159 38.9152 116.233 38.6122 116.335C38.313 116.434 38.0705 116.583 37.8849 116.784C37.7031 116.981 37.6122 117.25 37.6122 117.591C37.6122 118.057 37.7846 118.409 38.1293 118.648C38.4777 118.883 38.919 119 39.4531 119ZM47.6733 120L45.0142 111.273H46.4233L48.3097 117.955H48.4006L50.2642 111.273H51.696L53.5369 117.932H53.6278L55.5142 111.273H56.9233L54.2642 120H52.946L51.0369 113.295H50.9006L48.9915 120H47.6733ZM63.196 123.273V111.273H64.4915V112.659H64.6506C64.7491 112.508 64.8854 112.314 65.0597 112.08C65.2377 111.841 65.4915 111.629 65.821 111.443C66.1544 111.254 66.6051 111.159 67.1733 111.159C67.9081 111.159 68.5559 111.343 69.1165 111.71C69.6771 112.078 70.1146 112.598 70.429 113.273C70.7434 113.947 70.9006 114.742 70.9006 115.659C70.9006 116.583 70.7434 117.384 70.429 118.062C70.1146 118.737 69.679 119.259 69.1222 119.631C68.5653 119.998 67.9233 120.182 67.196 120.182C66.6354 120.182 66.1866 120.089 65.8494 119.903C65.5123 119.714 65.2528 119.5 65.071 119.261C64.8892 119.019 64.7491 118.818 64.6506 118.659H64.5369V123.273H63.196ZM64.5142 115.636C64.5142 116.295 64.6108 116.877 64.804 117.381C64.9972 117.881 65.2794 118.273 65.6506 118.557C66.0218 118.837 66.4763 118.977 67.0142 118.977C67.5748 118.977 68.0426 118.83 68.4176 118.534C68.7964 118.235 69.0805 117.833 69.2699 117.33C69.4631 116.822 69.5597 116.258 69.5597 115.636C69.5597 115.023 69.465 114.47 69.2756 113.977C69.09 113.481 68.8078 113.089 68.429 112.801C68.054 112.509 67.5824 112.364 67.0142 112.364C66.4688 112.364 66.0104 112.502 65.6392 112.778C65.268 113.051 64.9877 113.434 64.7983 113.926C64.6089 114.415 64.5142 114.985 64.5142 115.636ZM74.2869 108.364V120H72.946V108.364H74.2869ZM79.3111 120.205C78.758 120.205 78.2562 120.1 77.8054 119.892C77.3546 119.68 76.9967 119.375 76.7315 118.977C76.4664 118.576 76.3338 118.091 76.3338 117.523C76.3338 117.023 76.4323 116.617 76.6293 116.307C76.8262 115.992 77.0895 115.746 77.419 115.568C77.7486 115.39 78.1122 115.258 78.5099 115.17C78.9115 115.08 79.3149 115.008 79.7202 114.955C80.2505 114.886 80.6804 114.835 81.0099 114.801C81.3433 114.763 81.5857 114.701 81.7372 114.614C81.8925 114.527 81.9702 114.375 81.9702 114.159V114.114C81.9702 113.553 81.8168 113.117 81.5099 112.807C81.2069 112.496 80.7467 112.341 80.1293 112.341C79.4891 112.341 78.9872 112.481 78.6236 112.761C78.2599 113.042 78.0043 113.341 77.8565 113.659L76.5838 113.205C76.8111 112.674 77.1141 112.261 77.4929 111.966C77.8755 111.667 78.2921 111.458 78.7429 111.341C79.1974 111.22 79.6444 111.159 80.0838 111.159C80.3641 111.159 80.6861 111.193 81.0497 111.261C81.4171 111.326 81.7713 111.46 82.1122 111.665C82.4569 111.869 82.7429 112.178 82.9702 112.591C83.1974 113.004 83.3111 113.557 83.3111 114.25V120H81.9702V118.818H81.902C81.8111 119.008 81.6596 119.21 81.4474 119.426C81.2353 119.642 80.9531 119.826 80.6009 119.977C80.2486 120.129 79.8187 120.205 79.3111 120.205ZM79.5156 119C80.0459 119 80.4929 118.896 80.8565 118.688C81.224 118.479 81.5005 118.21 81.6861 117.881C81.8755 117.551 81.9702 117.205 81.9702 116.841V115.614C81.9134 115.682 81.7884 115.744 81.5952 115.801C81.4058 115.854 81.1861 115.902 80.9361 115.943C80.6899 115.981 80.4493 116.015 80.2145 116.045C79.9834 116.072 79.7959 116.095 79.652 116.114C79.3035 116.159 78.9777 116.233 78.6747 116.335C78.3755 116.434 78.133 116.583 77.9474 116.784C77.7656 116.981 77.6747 117.25 77.6747 117.591C77.6747 118.057 77.8471 118.409 78.1918 118.648C78.5402 118.883 78.9815 119 79.5156 119ZM86.3097 123.273C86.0824 123.273 85.8797 123.254 85.7017 123.216C85.5237 123.182 85.4006 123.148 85.3324 123.114L85.6733 121.932C85.9991 122.015 86.2869 122.045 86.5369 122.023C86.7869 122 87.0085 121.888 87.2017 121.688C87.3987 121.491 87.5786 121.17 87.7415 120.727L87.9915 120.045L84.7642 111.273H86.2188L88.6278 118.227H88.7188L91.1278 111.273H92.5824L88.8778 121.273C88.7112 121.723 88.5047 122.097 88.2585 122.392C88.0123 122.691 87.7263 122.913 87.4006 123.057C87.0786 123.201 86.715 123.273 86.3097 123.273ZM97.6989 120.182C96.858 120.182 96.1326 119.996 95.5227 119.625C94.9167 119.25 94.4489 118.727 94.1193 118.057C93.7936 117.383 93.6307 116.598 93.6307 115.705C93.6307 114.811 93.7936 114.023 94.1193 113.341C94.4489 112.655 94.9072 112.121 95.4943 111.739C96.0852 111.352 96.7746 111.159 97.5625 111.159C98.017 111.159 98.4659 111.235 98.9091 111.386C99.3523 111.538 99.7557 111.784 100.119 112.125C100.483 112.462 100.773 112.909 100.989 113.466C101.205 114.023 101.312 114.708 101.312 115.523V116.091H94.5852V114.932H99.9489C99.9489 114.439 99.8504 114 99.6534 113.614C99.4602 113.227 99.1837 112.922 98.8239 112.699C98.4678 112.475 98.0473 112.364 97.5625 112.364C97.0284 112.364 96.5663 112.496 96.1761 112.761C95.7898 113.023 95.4924 113.364 95.2841 113.784C95.0758 114.205 94.9716 114.655 94.9716 115.136V115.909C94.9716 116.568 95.0852 117.127 95.3125 117.585C95.5436 118.04 95.8636 118.386 96.2727 118.625C96.6818 118.86 97.1572 118.977 97.6989 118.977C98.0511 118.977 98.3693 118.928 98.6534 118.83C98.9413 118.727 99.1894 118.576 99.3977 118.375C99.6061 118.17 99.767 117.917 99.8807 117.614L101.176 117.977C101.04 118.417 100.811 118.803 100.489 119.136C100.167 119.466 99.7689 119.723 99.2955 119.909C98.822 120.091 98.2898 120.182 97.6989 120.182ZM103.352 120V111.273H104.648V112.591H104.739C104.898 112.159 105.186 111.809 105.602 111.54C106.019 111.271 106.489 111.136 107.011 111.136C107.11 111.136 107.233 111.138 107.381 111.142C107.528 111.146 107.64 111.152 107.716 111.159V112.523C107.67 112.511 107.566 112.494 107.403 112.472C107.244 112.445 107.076 112.432 106.898 112.432C106.473 112.432 106.095 112.521 105.761 112.699C105.432 112.873 105.17 113.116 104.977 113.426C104.788 113.733 104.693 114.083 104.693 114.477V120H103.352ZM115.487 113.227L114.283 113.568C114.207 113.367 114.095 113.172 113.947 112.983C113.804 112.79 113.607 112.631 113.357 112.506C113.107 112.381 112.786 112.318 112.396 112.318C111.862 112.318 111.417 112.441 111.061 112.688C110.709 112.93 110.533 113.239 110.533 113.614C110.533 113.947 110.654 114.21 110.896 114.403C111.139 114.597 111.518 114.758 112.033 114.886L113.328 115.205C114.108 115.394 114.69 115.684 115.072 116.074C115.455 116.46 115.646 116.958 115.646 117.568C115.646 118.068 115.502 118.515 115.214 118.909C114.93 119.303 114.533 119.614 114.021 119.841C113.51 120.068 112.915 120.182 112.237 120.182C111.347 120.182 110.61 119.989 110.027 119.602C109.444 119.216 109.074 118.652 108.919 117.909L110.192 117.591C110.313 118.061 110.542 118.413 110.879 118.648C111.22 118.883 111.665 119 112.214 119C112.839 119 113.336 118.867 113.703 118.602C114.074 118.333 114.26 118.011 114.26 117.636C114.26 117.333 114.154 117.08 113.942 116.875C113.73 116.667 113.404 116.511 112.964 116.409L111.51 116.068C110.711 115.879 110.124 115.585 109.749 115.188C109.377 114.786 109.192 114.284 109.192 113.682C109.192 113.189 109.33 112.754 109.607 112.375C109.887 111.996 110.268 111.699 110.749 111.483C111.233 111.267 111.783 111.159 112.396 111.159C113.26 111.159 113.938 111.348 114.43 111.727C114.927 112.106 115.279 112.606 115.487 113.227ZM118.847 108.364V109.386C118.847 109.697 118.79 110.028 118.676 110.381C118.566 110.729 118.403 111.068 118.188 111.398C117.975 111.723 117.718 112.008 117.415 112.25L116.688 111.659C116.926 111.318 117.133 110.964 117.307 110.597C117.485 110.225 117.574 109.83 117.574 109.409V108.364H118.847ZM127.686 120.205C127.133 120.205 126.631 120.1 126.18 119.892C125.73 119.68 125.372 119.375 125.107 118.977C124.841 118.576 124.709 118.091 124.709 117.523C124.709 117.023 124.807 116.617 125.004 116.307C125.201 115.992 125.464 115.746 125.794 115.568C126.124 115.39 126.487 115.258 126.885 115.17C127.286 115.08 127.69 115.008 128.095 114.955C128.625 114.886 129.055 114.835 129.385 114.801C129.718 114.763 129.961 114.701 130.112 114.614C130.268 114.527 130.345 114.375 130.345 114.159V114.114C130.345 113.553 130.192 113.117 129.885 112.807C129.582 112.496 129.122 112.341 128.504 112.341C127.864 112.341 127.362 112.481 126.999 112.761C126.635 113.042 126.379 113.341 126.232 113.659L124.959 113.205C125.186 112.674 125.489 112.261 125.868 111.966C126.25 111.667 126.667 111.458 127.118 111.341C127.572 111.22 128.019 111.159 128.459 111.159C128.739 111.159 129.061 111.193 129.425 111.261C129.792 111.326 130.146 111.46 130.487 111.665C130.832 111.869 131.118 112.178 131.345 112.591C131.572 113.004 131.686 113.557 131.686 114.25V120H130.345V118.818H130.277C130.186 119.008 130.035 119.21 129.822 119.426C129.61 119.642 129.328 119.826 128.976 119.977C128.624 120.129 128.194 120.205 127.686 120.205ZM127.891 119C128.421 119 128.868 118.896 129.232 118.688C129.599 118.479 129.875 118.21 130.061 117.881C130.25 117.551 130.345 117.205 130.345 116.841V115.614C130.288 115.682 130.163 115.744 129.97 115.801C129.781 115.854 129.561 115.902 129.311 115.943C129.065 115.981 128.824 116.015 128.589 116.045C128.358 116.072 128.171 116.095 128.027 116.114C127.679 116.159 127.353 116.233 127.05 116.335C126.75 116.434 126.508 116.583 126.322 116.784C126.141 116.981 126.05 117.25 126.05 117.591C126.05 118.057 126.222 118.409 126.567 118.648C126.915 118.883 127.357 119 127.891 119ZM137.929 111.273V112.409H133.406V111.273H137.929ZM134.724 109.182H136.065V117.5C136.065 117.879 136.12 118.163 136.23 118.352C136.344 118.538 136.488 118.663 136.662 118.727C136.84 118.788 137.027 118.818 137.224 118.818C137.372 118.818 137.493 118.811 137.588 118.795C137.683 118.777 137.759 118.761 137.815 118.75L138.088 119.955C137.997 119.989 137.87 120.023 137.707 120.057C137.545 120.095 137.338 120.114 137.088 120.114C136.709 120.114 136.338 120.032 135.974 119.869C135.615 119.706 135.315 119.458 135.077 119.125C134.842 118.792 134.724 118.371 134.724 117.864V109.182ZM143.741 111.273V112.409H139.219V111.273H143.741ZM140.537 109.182H141.878V117.5C141.878 117.879 141.933 118.163 142.043 118.352C142.156 118.538 142.3 118.663 142.474 118.727C142.652 118.788 142.84 118.818 143.037 118.818C143.185 118.818 143.306 118.811 143.401 118.795C143.495 118.777 143.571 118.761 143.628 118.75L143.901 119.955C143.81 119.989 143.683 120.023 143.52 120.057C143.357 120.095 143.151 120.114 142.901 120.114C142.522 120.114 142.151 120.032 141.787 119.869C141.427 119.706 141.128 119.458 140.889 119.125C140.654 118.792 140.537 118.371 140.537 117.864V109.182ZM149.324 120.182C148.483 120.182 147.758 119.996 147.148 119.625C146.542 119.25 146.074 118.727 145.744 118.057C145.419 117.383 145.256 116.598 145.256 115.705C145.256 114.811 145.419 114.023 145.744 113.341C146.074 112.655 146.532 112.121 147.119 111.739C147.71 111.352 148.4 111.159 149.188 111.159C149.642 111.159 150.091 111.235 150.534 111.386C150.977 111.538 151.381 111.784 151.744 112.125C152.108 112.462 152.398 112.909 152.614 113.466C152.83 114.023 152.938 114.708 152.938 115.523V116.091H146.21V114.932H151.574C151.574 114.439 151.475 114 151.278 113.614C151.085 113.227 150.809 112.922 150.449 112.699C150.093 112.475 149.672 112.364 149.188 112.364C148.653 112.364 148.191 112.496 147.801 112.761C147.415 113.023 147.117 113.364 146.909 113.784C146.701 114.205 146.597 114.655 146.597 115.136V115.909C146.597 116.568 146.71 117.127 146.938 117.585C147.169 118.04 147.489 118.386 147.898 118.625C148.307 118.86 148.782 118.977 149.324 118.977C149.676 118.977 149.994 118.928 150.278 118.83C150.566 118.727 150.814 118.576 151.023 118.375C151.231 118.17 151.392 117.917 151.506 117.614L152.801 117.977C152.665 118.417 152.436 118.803 152.114 119.136C151.792 119.466 151.394 119.723 150.92 119.909C150.447 120.091 149.915 120.182 149.324 120.182ZM156.318 114.75V120H154.977V111.273H156.273V112.636H156.386C156.591 112.193 156.902 111.837 157.318 111.568C157.735 111.295 158.273 111.159 158.932 111.159C159.523 111.159 160.04 111.28 160.483 111.523C160.926 111.761 161.271 112.125 161.517 112.614C161.763 113.098 161.886 113.712 161.886 114.455V120H160.545V114.545C160.545 113.86 160.367 113.326 160.011 112.943C159.655 112.557 159.167 112.364 158.545 112.364C158.117 112.364 157.735 112.456 157.398 112.642C157.064 112.828 156.801 113.098 156.608 113.455C156.415 113.811 156.318 114.242 156.318 114.75ZM168.132 111.273V112.409H163.609V111.273H168.132ZM164.928 109.182H166.268V117.5C166.268 117.879 166.323 118.163 166.433 118.352C166.547 118.538 166.691 118.663 166.865 118.727C167.043 118.788 167.231 118.818 167.428 118.818C167.575 118.818 167.696 118.811 167.791 118.795C167.886 118.777 167.962 118.761 168.018 118.75L168.291 119.955C168.2 119.989 168.073 120.023 167.911 120.057C167.748 120.095 167.541 120.114 167.291 120.114C166.912 120.114 166.541 120.032 166.178 119.869C165.818 119.706 165.518 119.458 165.28 119.125C165.045 118.792 164.928 118.371 164.928 117.864V109.182ZM170.149 120V111.273H171.49V120H170.149ZM170.831 109.818C170.57 109.818 170.344 109.729 170.155 109.551C169.969 109.373 169.876 109.159 169.876 108.909C169.876 108.659 169.969 108.445 170.155 108.267C170.344 108.089 170.57 108 170.831 108C171.092 108 171.316 108.089 171.501 108.267C171.691 108.445 171.786 108.659 171.786 108.909C171.786 109.159 171.691 109.373 171.501 109.551C171.316 109.729 171.092 109.818 170.831 109.818ZM177.491 120.182C176.704 120.182 176.012 119.994 175.418 119.619C174.827 119.244 174.365 118.72 174.031 118.045C173.702 117.371 173.537 116.583 173.537 115.682C173.537 114.773 173.702 113.979 174.031 113.301C174.365 112.623 174.827 112.097 175.418 111.722C176.012 111.347 176.704 111.159 177.491 111.159C178.279 111.159 178.969 111.347 179.56 111.722C180.154 112.097 180.616 112.623 180.946 113.301C181.279 113.979 181.446 114.773 181.446 115.682C181.446 116.583 181.279 117.371 180.946 118.045C180.616 118.72 180.154 119.244 179.56 119.619C178.969 119.994 178.279 120.182 177.491 120.182ZM177.491 118.977C178.09 118.977 178.582 118.824 178.969 118.517C179.355 118.21 179.641 117.807 179.827 117.307C180.012 116.807 180.105 116.265 180.105 115.682C180.105 115.098 180.012 114.555 179.827 114.051C179.641 113.547 179.355 113.14 178.969 112.83C178.582 112.519 178.09 112.364 177.491 112.364C176.893 112.364 176.401 112.519 176.014 112.83C175.628 113.14 175.342 113.547 175.156 114.051C174.971 114.555 174.878 115.098 174.878 115.682C174.878 116.265 174.971 116.807 175.156 117.307C175.342 117.807 175.628 118.21 176.014 118.517C176.401 118.824 176.893 118.977 177.491 118.977ZM184.834 114.75V120H183.493V111.273H184.788V112.636H184.902C185.107 112.193 185.417 111.837 185.834 111.568C186.25 111.295 186.788 111.159 187.447 111.159C188.038 111.159 188.555 111.28 188.999 111.523C189.442 111.761 189.786 112.125 190.033 112.614C190.279 113.098 190.402 113.712 190.402 114.455V120H189.061V114.545C189.061 113.86 188.883 113.326 188.527 112.943C188.171 112.557 187.682 112.364 187.061 112.364C186.633 112.364 186.25 112.456 185.913 112.642C185.58 112.828 185.317 113.098 185.124 113.455C184.93 113.811 184.834 114.242 184.834 114.75Z" fill="#555555"/>
<path d="M317.883 53.3125C314.979 53.3125 312.733 52.4987 311.145 50.8711C309.569 49.2435 308.781 46.8997 308.781 43.8398V28.332C308.781 25.1029 309.53 22.6289 311.027 20.9102C312.538 19.1784 314.823 18.3125 317.883 18.3125C320.956 18.3125 323.241 19.1784 324.738 20.9102C326.236 22.6289 326.984 25.1029 326.984 28.332V43.8398C326.984 46.8997 326.197 49.2435 324.621 50.8711C323.046 52.4987 320.799 53.3125 317.883 53.3125ZM317.883 46.9844C318.417 46.9844 318.833 46.7435 319.133 46.2617C319.432 45.7799 319.582 45.2396 319.582 44.6406V27.668C319.582 26.8607 319.491 26.1576 319.309 25.5586C319.139 24.9466 318.664 24.6406 317.883 24.6406C317.102 24.6406 316.62 24.9466 316.438 25.5586C316.268 26.1576 316.184 26.8607 316.184 27.668V44.6406C316.184 45.2396 316.333 45.7799 316.633 46.2617C316.945 46.7435 317.362 46.9844 317.883 46.9844ZM337.219 53.3906C334.185 53.3906 331.978 52.5898 330.598 50.9883C329.217 49.3867 328.527 46.9714 328.527 43.7422V40.1484H335.578V43.7617C335.578 44.6732 335.689 45.4479 335.91 46.0859C336.145 46.7109 336.659 47.0234 337.453 47.0234C338.26 47.0234 338.775 46.6849 338.996 46.0078C339.217 45.3177 339.328 44.1979 339.328 42.6484V41.7891C339.328 40.6042 339.126 39.569 338.723 38.6836C338.332 37.7982 337.557 37.3555 336.398 37.3555C336.255 37.3555 336.125 37.362 336.008 37.375C335.904 37.375 335.812 37.3815 335.734 37.3945V31.2227C336.919 31.2227 337.824 30.9622 338.449 30.4414C339.074 29.9076 339.387 29.0221 339.387 27.7852C339.387 25.8451 338.827 24.875 337.707 24.875C336.978 24.875 336.483 25.1615 336.223 25.7344C335.975 26.2943 335.852 27.0104 335.852 27.8828V28.918H328.742C328.729 28.7617 328.716 28.5729 328.703 28.3516C328.703 28.1302 328.703 27.9154 328.703 27.707C328.703 24.556 329.439 22.2448 330.91 20.7734C332.382 19.3021 334.634 18.5664 337.668 18.5664C343.527 18.5664 346.457 21.6133 346.457 27.707C346.457 29.3997 346.229 30.7995 345.773 31.9062C345.318 33 344.471 33.7682 343.234 34.2109C344.211 34.6797 344.934 35.2786 345.402 36.0078C345.871 36.737 346.177 37.6419 346.32 38.7227C346.464 39.8034 346.535 41.112 346.535 42.6484C346.535 46.0859 345.812 48.7357 344.367 50.5977C342.935 52.4596 340.552 53.3906 337.219 53.3906Z" fill="url(#paint0_linear_94_49)"/>
<defs>
<linearGradient id="paint0_linear_94_49" x1="328" y1="11" x2="328" y2="62" gradientUnits="userSpaceOnUse">
<stop stop-color="#8E8883"/>
<stop offset="0.869792" stop-color="#8E8883" stop-opacity="0"/>
</linearGradient>
</defs>
</svg>
