<svg width="60" height="60" viewBox="0 0 60 60" fill="none" xmlns="http://www.w3.org/2000/svg">
<circle cx="30" cy="30" r="30" fill="#2965FF" fill-opacity="0.2"/>
<path d="M29.2067 25.7874C26.4523 25.7874 24.2046 28.0352 24.2046 30.7896C24.2046 33.5439 26.4523 35.7917 29.2067 35.7917C31.9611 35.7917 34.2088 33.5439 34.2088 30.7896C34.2088 28.0352 31.9611 25.7874 29.2067 25.7874ZM44.2093 30.7896C44.2093 28.7182 44.2281 26.6655 44.1118 24.5979C43.9954 22.1962 43.4476 20.0648 41.6914 18.3086C39.9314 16.5487 37.8038 16.0046 35.4021 15.8882C33.3307 15.7719 31.2781 15.7907 29.2105 15.7907C27.1391 15.7907 25.0864 15.7719 23.0188 15.8882C20.6171 16.0046 18.4857 16.5524 16.7295 18.3086C14.9696 20.0686 14.4255 22.1962 14.3091 24.5979C14.1928 26.6693 14.2116 28.7219 14.2116 30.7896C14.2116 32.8572 14.1928 34.9136 14.3091 36.9812C14.4255 39.3829 14.9733 41.5143 16.7295 43.2705C18.4895 45.0304 20.6171 45.5745 23.0188 45.6909C25.0902 45.8072 27.1428 45.7884 29.2105 45.7884C31.2819 45.7884 33.3345 45.8072 35.4021 45.6909C37.8038 45.5745 39.9352 45.0267 41.6914 43.2705C43.4513 41.5105 43.9954 39.3829 44.1118 36.9812C44.2319 34.9136 44.2093 32.861 44.2093 30.7896ZM29.2067 38.486C24.9476 38.486 21.5102 35.0487 21.5102 30.7896C21.5102 26.5304 24.9476 23.0931 29.2067 23.0931C33.4658 23.0931 36.9032 26.5304 36.9032 30.7896C36.9032 35.0487 33.4658 38.486 29.2067 38.486ZM37.2184 24.5754C36.2239 24.5754 35.4209 23.7723 35.4209 22.7779C35.4209 21.7835 36.2239 20.9804 37.2184 20.9804C38.2128 20.9804 39.0158 21.7835 39.0158 22.7779C39.0161 23.014 38.9698 23.2479 38.8796 23.4661C38.7894 23.6843 38.657 23.8826 38.49 24.0495C38.3231 24.2165 38.1248 24.3489 37.9066 24.4391C37.6884 24.5294 37.4545 24.5756 37.2184 24.5754Z" fill="#2965FF"/>
</svg>
