<svg width="60" height="60" viewBox="0 0 60 60" fill="none" xmlns="http://www.w3.org/2000/svg">
<circle cx="30" cy="30" r="30" fill="#2965FF" fill-opacity="0.2"/>
<path d="M30 16.7292C22.6701 16.7292 16.7292 22.6712 16.7292 30C16.7292 37.3288 22.6701 43.2708 30 43.2708C37.3299 43.2708 43.2708 37.3288 43.2708 30C43.2708 22.6712 37.3299 16.7292 30 16.7292ZM33.1778 29.0135C32.9757 28.5512 32.7672 28.089 32.5484 27.6301C34.8526 26.5943 36.7416 25.2209 38.193 23.4998C39.4321 25.059 40.2292 26.9788 40.4141 29.0736C37.8123 28.6771 35.3992 28.6568 33.1778 29.0135ZM31.2639 25.146C30.2499 23.3106 29.1051 21.5171 27.8281 19.7709C28.5308 19.619 29.2557 19.5317 30 19.5317C32.3031 19.5317 34.4299 20.2879 36.1613 21.5548C34.9475 23.0415 33.3172 24.2419 31.2639 25.146ZM25.0769 20.7756C26.3836 22.5017 27.5527 24.2762 28.5821 26.0931C26.1342 26.7732 23.2461 27.1364 19.9302 27.1819C20.7055 24.4135 22.589 22.1075 25.0769 20.7756ZM21.7297 36.4068C20.3545 34.6362 19.5333 32.4162 19.5318 30.0068L19.5325 29.9926C23.5118 29.9687 26.9763 29.51 29.9124 28.6178C30.0828 28.9696 30.2482 29.3226 30.4089 29.677C26.9185 30.839 24.0197 33.0918 21.7297 36.4068ZM33.5483 39.8382C30.1522 41.0681 26.5328 40.4516 23.7724 38.3974C25.8031 35.2965 28.3531 33.2586 31.4772 32.2652C32.404 34.7258 33.0943 37.2531 33.5483 39.8382ZM40.2837 31.8892C39.7913 34.5784 38.2766 36.913 36.1481 38.4651C35.6955 36.155 35.062 33.8923 34.2524 31.6794C36.0881 31.4588 38.0959 31.5302 40.2837 31.8892Z" fill="#2965FF" stroke="#2965FF" stroke-width="0.541667"/>
</svg>
