<svg width="193" height="98" viewBox="0 0 193 98" fill="none" xmlns="http://www.w3.org/2000/svg">
<g opacity="0.9">
<path fill-rule="evenodd" clip-rule="evenodd" d="M25.4857 11.0841C26.9321 9.80005 28.4657 8.60094 30.0826 7.49655C30.7759 6.41524 31.9329 4.90031 33.7218 3.49948C36.8643 0.948425 42.1374 -1.21071 47.2324 0.777404C47.2823 0.777404 45.2728 2.66575 42.3013 4.46859C39.5306 6.14781 35.958 7.75092 30.8512 8.69964C29.2886 9.76911 27.8063 10.93 26.4081 12.1729C28.9295 12.1652 31.4496 13.1738 33.5793 14.9578V14.965C34.1922 15.4709 34.7979 15.9911 35.3893 16.5184C34.7337 16.7607 34.0782 17.0315 33.4297 17.3165C30.672 18.5136 27.0877 18.3569 23.2041 16.9317C22.8452 16.7966 22.4862 16.6639 22.1258 16.5353C21.4796 17.2894 20.8586 18.0639 20.2634 18.8575C22.6715 18.392 25.2747 18.9023 27.6658 20.2238H27.6729C28.3641 20.6015 29.0482 20.9863 29.7251 21.3853C29.1479 21.7416 28.5779 22.1193 28.022 22.5112C25.642 24.1715 22.1432 24.6917 18.1029 24.0504C17.7331 23.9874 17.3608 23.9268 16.9875 23.8702C16.5064 24.721 16.0515 25.5874 15.6232 26.4681C17.8728 25.5622 20.495 25.5644 23.0695 26.3877L23.0623 26.3806C23.8106 26.6158 24.5445 26.8652 25.2785 27.1217C24.7939 27.5778 24.3165 28.0481 23.8533 28.5326C21.8723 30.592 18.5588 31.7677 14.4899 31.9174C14.1139 31.9301 13.7379 31.9452 13.3618 31.9629C13.0487 32.881 12.7626 33.8102 12.504 34.7493C14.5463 33.4209 17.1151 32.9131 19.7907 33.2214H19.7835C20.5531 33.3069 21.3227 33.4067 22.0852 33.5135C21.7004 34.048 21.3227 34.5895 20.9593 35.1525C19.3987 37.5254 16.3631 39.3211 12.394 40.2617C12.0216 40.3473 11.6517 40.4355 11.2813 40.5278C11.1377 41.4871 11.0219 42.4534 10.9343 43.4255C12.7088 41.7293 15.1409 40.7332 17.8238 40.5112L17.8167 40.504C18.5863 40.4399 19.3558 40.3829 20.1254 40.3401C19.8404 40.9387 19.5696 41.5444 19.3131 42.1643C18.2086 44.7938 15.5293 47.1453 11.7953 48.8484C11.4472 49.0055 11.0991 49.1651 10.7525 49.3272C10.7796 50.2933 10.8346 51.2626 10.9179 52.2338C12.3685 50.22 14.5833 48.767 17.176 48.0218V48.0289C17.9171 47.8152 18.6653 47.6085 19.4135 47.4161C19.2354 48.0574 19.0715 48.7059 18.929 49.3615C18.2948 52.1548 16.0715 54.998 12.701 57.4137C12.388 57.6336 12.075 57.856 11.7635 58.0825C11.9598 59.0445 12.1823 59.9935 12.4304 60.9289C13.4993 58.65 15.4219 56.7787 17.8466 55.5324V55.5396C18.5449 55.1761 19.2432 54.827 19.9416 54.4921C19.8774 55.1548 19.8347 55.8246 19.8062 56.5016C19.6708 59.3804 17.9891 62.6227 15.1102 65.6796C14.8373 65.9656 14.5643 66.2568 14.293 66.5501C14.66 67.4648 15.0536 68.3631 15.4732 69.2444C16.1023 66.7706 17.6611 64.5295 19.8272 62.8151L19.8201 62.8222C20.4401 62.3305 21.0671 61.846 21.6942 61.3757C21.7512 62.0455 21.8296 62.7153 21.9222 63.3923C22.307 66.2711 21.2667 69.8198 19.0078 73.4184C18.7922 73.7546 18.5793 74.0934 18.369 74.4348C18.9098 75.271 19.4768 76.0873 20.0693 76.883C20.2043 74.2972 21.3182 71.765 23.1259 69.6415V69.6487C23.639 69.0358 24.1592 68.4373 24.6936 67.8458C24.8789 68.5014 25.0855 69.1499 25.3064 69.8054C26.2399 72.5916 25.9264 76.3327 24.4228 80.3517L24.4227 80.3521L24.4225 80.3527C24.2814 80.7289 24.1403 81.1051 24.0023 81.4828C24.7103 82.206 25.4432 82.9059 26.2004 83.5818C25.7899 80.9825 26.3778 78.2557 27.7367 75.7912L27.7296 75.7841C28.1215 75.0786 28.5205 74.3803 28.9267 73.6891C29.2402 74.3019 29.5823 74.9147 29.9386 75.5204C31.4492 78.1142 31.9481 81.9123 31.3281 86.2163C31.2639 86.6185 31.2049 87.0208 31.151 87.4245C32.034 88.0183 32.9412 88.5845 33.8718 89.122C32.8571 86.601 32.8446 83.7658 33.6719 81.043V81.0501C33.907 80.2734 34.1565 79.4967 34.413 78.7271C34.869 79.2829 35.3465 79.8245 35.8453 80.3661C37.9545 82.6677 39.3583 86.3731 39.7502 90.7983C39.7847 91.216 39.8217 91.6336 39.863 92.0513C42.0001 92.9221 44.2313 93.6593 46.5485 94.2543C46.9333 94.354 47.1613 94.7388 47.0615 95.1236C46.976 95.4443 46.691 95.6581 46.3703 95.6581C46.3133 95.6581 46.2492 95.6581 46.1922 95.6367C43.8396 95.0329 41.5732 94.2867 39.4008 93.4066C39.0991 93.6971 38.7941 93.9856 38.489 94.2686C35.3536 97.2401 30.5365 98.0595 26.3394 96.1712C25.3703 95.7365 24.4154 95.2804 23.4819 94.803C24.1803 94.3612 24.8715 93.9123 25.5556 93.4491C27.9638 91.8415 30.6045 90.8341 33.2423 90.4126C32.2744 89.8567 31.3308 89.2708 30.4126 88.6558C30.072 88.8781 29.7287 89.0971 29.3828 89.3161C25.8198 91.6106 21.1381 91.5465 17.561 88.974C16.7415 88.3897 15.9292 87.7769 15.1382 87.1427C15.9006 86.8505 16.6489 86.5441 17.3971 86.2234C20.0195 85.1225 22.7331 84.639 25.3004 84.7029C24.5154 84.0046 23.7555 83.2813 23.0217 82.5338C22.6561 82.6836 22.2889 82.8314 21.9217 82.974C18.0523 84.5274 13.6058 83.6082 10.67 80.4586C9.98587 79.7389 9.33029 78.9978 8.68896 78.2353C9.47993 78.0928 10.2709 77.936 11.0547 77.7721C13.793 77.1999 16.4993 77.2387 18.9398 77.7692C18.3329 76.9551 17.7519 76.12 17.1977 75.2647C16.8211 75.3392 16.4429 75.4098 16.0648 75.4777C12.0102 76.2544 7.89145 74.53 5.62543 70.9172C5.10524 70.0906 4.5993 69.2426 4.11475 68.3804C4.91997 68.3875 5.71806 68.3875 6.51616 68.3804C9.29319 68.3558 11.9219 68.9086 14.1922 69.8836C13.7633 68.9826 13.3606 68.0643 12.985 67.1294C12.6089 67.1309 12.2313 67.1275 11.8537 67.1191C7.75637 67.0906 4.05093 64.625 2.47612 60.663C2.10558 59.7581 1.76353 58.8317 1.44287 57.8982L1.4433 57.8983C2.227 58.0622 3.0107 58.226 3.7944 58.3685C6.5285 58.8858 9.01249 59.9405 11.0624 61.335C10.8072 60.3741 10.5782 59.3993 10.3761 58.4111C9.99907 58.3364 9.62201 58.2575 9.24494 58.1761C5.23309 57.3495 2.03358 54.2213 1.17848 50.0313C0.971832 49.0693 0.800812 48.1002 0.644043 47.1168C1.38513 47.4375 2.12622 47.7439 2.87443 48.0432C5.47635 49.0913 7.7315 50.6143 9.5014 52.3813C9.41453 51.3737 9.35734 50.3681 9.32932 49.3658C8.97503 49.2202 8.62027 49.0724 8.26802 48.9197C4.46282 47.3235 1.86189 43.6251 1.74787 39.3354C1.71937 38.3449 1.71224 37.3544 1.73362 36.3568C2.41058 36.82 3.08041 37.2689 3.76449 37.7107C6.1339 39.2493 8.08873 41.1918 9.51879 43.2721C9.60944 42.2714 9.72921 41.2767 9.87756 40.2892C9.55473 40.0774 9.23441 39.8621 8.91662 39.6418C5.46058 37.3259 3.54373 33.1715 4.19931 28.9031C4.34895 27.9269 4.51997 26.9435 4.71949 25.9601C5.29669 26.5516 5.88101 27.1288 6.47245 27.6989C8.53086 29.6833 10.1042 31.9929 11.1419 34.3326C11.409 33.3652 11.7046 32.408 12.028 31.4622C11.7449 31.1853 11.4629 30.9042 11.1836 30.6205C8.20495 27.649 7.06481 23.1597 8.51136 19.0552C8.83915 18.1146 9.19544 17.1669 9.58024 16.2334C10.0363 16.9317 10.4995 17.6229 10.9769 18.2999C12.6371 20.6848 13.7587 23.3013 14.3465 25.8357C14.7927 24.9184 15.267 24.016 15.7689 23.1302C15.5375 22.7935 15.3095 22.4542 15.0815 22.1122C12.7015 18.5778 12.4307 13.8961 14.6967 10.0909C15.2098 9.21438 15.7585 8.35216 16.3357 7.48993C16.6492 8.27377 16.9699 9.05049 17.3048 9.82008C18.4662 12.5281 19.043 15.3551 19.1248 17.9993C19.7472 17.1694 20.3969 16.3597 21.0735 15.5717C20.91 15.1893 20.7503 14.8041 20.596 14.4163C18.95 10.4329 19.6412 5.72274 22.7481 2.35222C23.4535 1.5755 24.2017 0.813034 24.9713 0.0648194C25.1067 0.912795 25.2635 1.74652 25.4274 2.58024C25.9977 5.50645 25.964 8.43806 25.4857 11.0841ZM166.884 12.173C164.361 12.1639 161.839 13.1726 159.708 14.9578V14.965C159.095 15.4709 158.489 15.9911 157.898 16.5184C158.554 16.7607 159.209 17.0315 159.858 17.3165C162.615 18.5136 166.2 18.3569 170.083 16.9317C170.443 16.7963 170.803 16.6633 171.164 16.5344C171.81 17.2889 172.431 18.0639 173.027 18.8579C170.618 18.3917 168.014 18.9019 165.622 20.2238H165.615C164.924 20.6015 164.24 20.9863 163.563 21.3853C164.14 21.7416 164.71 22.1193 165.266 22.5112C167.646 24.1715 171.145 24.6917 175.185 24.0504C175.555 23.9873 175.928 23.9267 176.301 23.8701C176.782 24.7208 177.237 25.5872 177.665 26.4679C175.416 25.5622 172.794 25.5644 170.219 26.3877L170.226 26.3806C169.478 26.6158 168.744 26.8652 168.01 27.1217C168.495 27.5778 168.972 28.0481 169.435 28.5326C171.416 30.592 174.73 31.7677 178.799 31.9174C179.174 31.9301 179.55 31.9452 179.926 31.9629C180.239 32.8811 180.525 33.8106 180.784 34.7499C178.741 33.421 176.172 32.9131 173.496 33.2214H173.503C172.734 33.3069 171.964 33.4067 171.202 33.5135C171.586 34.048 171.964 34.5895 172.328 35.1525C173.888 37.5254 176.924 39.3211 180.893 40.2617C181.265 40.3474 181.635 40.4356 182.006 40.528C182.15 41.4873 182.265 42.4536 182.353 43.4257C180.578 41.7293 178.146 40.7332 175.463 40.5112L175.47 40.504C174.701 40.4399 173.931 40.3829 173.162 40.3401C173.447 40.9387 173.717 41.5444 173.974 42.1643C175.078 44.7938 177.758 47.1453 181.492 48.8484C181.84 49.0055 182.188 49.1651 182.535 49.3272C182.508 50.293 182.453 51.2618 182.369 52.2326C180.919 50.2195 178.704 48.7668 176.112 48.0218V48.0289C175.371 47.8152 174.623 47.6085 173.875 47.4161C174.053 48.0574 174.217 48.7059 174.359 49.3615C174.993 52.1548 177.217 54.998 180.587 57.4137C180.9 57.6335 181.213 57.8559 181.524 58.0823C181.328 59.0443 181.106 59.9933 180.858 60.9286C179.789 58.6499 177.867 56.7787 175.442 55.5324V55.5396C174.744 55.1761 174.046 54.827 173.347 54.4921C173.411 55.1548 173.454 55.8246 173.483 56.5016C173.625 59.3804 175.3 62.6227 178.178 65.6796C178.452 65.9659 178.725 66.2573 178.996 66.5509C178.63 67.4657 178.236 68.3641 177.816 69.2455C177.187 66.7713 175.628 64.5297 173.462 62.8151L173.469 62.8222C172.849 62.3305 172.222 61.846 171.595 61.3757C171.538 62.0455 171.46 62.7153 171.367 63.3923C170.982 66.2711 172.023 69.8198 174.281 73.4184C174.497 73.7548 174.71 74.0939 174.921 74.4356C174.379 75.2729 173.811 76.0902 173.218 76.8868C173.084 74.2997 171.97 71.766 170.161 69.6415V69.6487C169.648 69.0358 169.128 68.4373 168.594 67.8458C168.408 68.5014 168.202 69.1499 167.981 69.8054C167.047 72.5916 167.361 76.3327 168.864 80.3517C169.006 80.7288 169.147 81.106 169.286 81.4847C168.577 82.2078 167.844 82.9076 167.087 83.5834C167.498 80.9836 166.91 78.2562 165.551 75.7912L165.558 75.7841C165.166 75.0786 164.767 74.3803 164.361 73.6891C164.048 74.3019 163.706 74.9147 163.349 75.5204C161.839 78.1142 161.34 81.9123 161.96 86.2163C162.024 86.6187 162.083 87.0211 162.137 87.425C161.257 88.0167 160.353 88.581 159.425 89.1168C160.438 86.5971 160.45 83.7639 159.623 81.043V81.0501C159.388 80.2734 159.139 79.4967 158.882 78.7271C158.426 79.2829 157.949 79.8245 157.45 80.3661C155.34 82.6677 153.937 86.3731 153.545 90.7983C153.51 91.2149 153.473 91.6315 153.432 92.0481C151.293 92.9203 149.059 93.6586 146.739 94.2543C146.361 94.354 146.126 94.7388 146.226 95.1236C146.311 95.4443 146.596 95.6581 146.917 95.6581H146.924C146.981 95.6581 147.045 95.6509 147.102 95.6367C149.454 95.0327 151.721 94.2863 153.893 93.4058C154.195 93.6966 154.501 93.9854 154.806 94.2686C157.941 97.2401 162.758 98.0595 166.956 96.1712C167.925 95.7365 168.88 95.2804 169.813 94.803C169.115 94.3612 168.424 93.9123 167.739 93.4491C165.33 91.841 162.689 90.8333 160.05 90.4121C161.017 89.8567 161.959 89.2713 162.877 88.6569C163.217 88.8788 163.56 89.0975 163.905 89.3161C167.468 91.6106 172.15 91.5465 175.727 88.974C176.546 88.3897 177.359 87.7769 178.15 87.1427C177.387 86.8505 176.639 86.5441 175.891 86.2234C173.27 85.123 170.557 84.6394 167.991 84.7028C168.776 84.0049 169.535 83.2821 170.269 82.535C170.633 82.6845 170.999 82.8318 171.366 82.974C175.235 84.5274 179.681 83.6082 182.617 80.4586C183.301 79.7389 183.957 78.9978 184.598 78.2353C183.807 78.0928 183.016 77.936 182.232 77.7721C179.496 77.2003 176.792 77.2386 174.353 77.7679C174.96 76.9544 175.54 76.1199 176.094 75.2653C176.47 75.3396 176.847 75.4099 177.224 75.4777C181.279 76.2544 185.398 74.53 187.664 70.9172C188.184 70.0906 188.69 69.2426 189.175 68.3804C188.369 68.3875 187.571 68.3875 186.773 68.3804C183.998 68.3558 181.371 68.9078 179.102 69.8814C179.531 68.9811 179.933 68.0635 180.309 67.1294C180.683 67.1309 181.059 67.1274 181.435 67.1191C185.532 67.0906 189.238 64.625 190.813 60.663C191.183 59.7581 191.525 58.8317 191.846 57.8982L191.845 57.8983C191.062 58.0622 190.278 58.226 189.494 58.3685C186.763 58.8852 184.282 59.9383 182.233 61.3305C182.488 60.3707 182.716 59.3969 182.918 58.4098C183.293 58.3355 183.668 58.2571 184.043 58.1761C188.055 57.3495 191.254 54.2213 192.11 50.0313C192.316 49.0693 192.487 48.1002 192.644 47.1168C191.903 47.4375 191.162 47.7439 190.414 48.0432C187.815 49.09 185.562 50.6105 183.793 52.3746C183.88 51.3683 183.937 50.364 183.965 49.363C184.317 49.2182 184.669 49.0714 185.019 48.9197C188.824 47.3235 191.425 43.6251 191.539 39.3354C191.568 38.3449 191.575 37.3544 191.553 36.3568C190.876 36.82 190.207 37.2689 189.523 37.7107C187.156 39.2473 185.203 41.1868 183.774 43.264C183.683 42.2648 183.563 41.2715 183.415 40.2855C183.736 40.0749 184.054 39.8608 184.37 39.6418C187.826 37.3259 189.743 33.1715 189.088 28.9031C188.938 27.9269 188.767 26.9435 188.567 25.9601C187.99 26.5516 187.406 27.1288 186.814 27.6989C184.758 29.6812 183.186 31.9879 182.148 34.3251C181.881 33.3594 181.586 32.4039 181.263 31.4599C181.545 31.1837 181.827 30.9034 182.105 30.6205C185.084 27.649 186.224 23.1597 184.777 19.0552C184.45 18.1146 184.093 17.1669 183.708 16.2334C183.252 16.9317 182.789 17.6229 182.312 18.2999C180.652 20.6837 179.531 23.2988 178.943 25.8321C178.497 24.9151 178.023 24.0132 177.521 23.1277C177.752 22.7919 177.979 22.4534 178.207 22.1122C180.587 18.5778 180.857 13.8961 178.591 10.0909C178.078 9.21438 177.53 8.35216 176.952 7.48993C176.639 8.27377 176.318 9.05049 175.983 9.82008C174.822 12.5267 174.246 15.3523 174.163 17.9954C173.541 17.1657 172.892 16.3562 172.215 15.5685C172.378 15.1871 172.537 14.8031 172.691 14.4163C174.337 10.4329 173.646 5.72274 170.539 2.35222C169.834 1.5755 169.086 0.813034 168.316 0.0648194C168.181 0.912795 168.024 1.74652 167.86 2.58024C167.29 5.50444 167.323 8.43403 167.801 11.0787C166.353 9.79354 164.818 8.59355 163.2 7.48851C162.506 6.40774 161.35 4.89684 159.566 3.49948C156.423 0.948425 151.15 -1.21071 146.055 0.777404C146.005 0.777404 148.015 2.66575 150.986 4.46859C153.759 6.1488 157.334 7.75281 162.445 8.70132C164.006 9.77032 165.487 10.9307 166.884 12.173ZM149.435 53.7695C149.435 54.529 149.323 55.2204 149.099 55.8436C148.875 56.4668 148.515 57.0218 148.018 57.5087C147.531 57.9956 146.889 58.4094 146.09 58.7502C145.301 59.0813 144.337 59.3345 143.198 59.5098C142.069 59.685 140.744 59.7727 139.225 59.7727C137.696 59.7727 136.367 59.685 135.238 59.5098C134.108 59.3345 133.154 59.0813 132.375 58.7502C131.596 58.4094 130.963 57.9956 130.476 57.5087C129.989 57.0218 129.639 56.4668 129.424 55.8436C129.21 55.2204 129.103 54.529 129.103 53.7695C129.103 53.0002 129.22 52.3089 129.454 51.6954C129.697 51.082 130.072 50.5464 130.578 50.0887C131.094 49.6213 131.752 49.2367 132.55 48.9348C133.349 48.6232 134.298 48.3895 135.398 48.2337C136.508 48.0779 137.784 48 139.225 48C141.027 48 142.575 48.1217 143.87 48.3652C145.165 48.5989 146.222 48.9592 147.039 49.446C147.857 49.9329 148.461 50.5367 148.851 51.2572C149.24 51.9681 149.435 52.8055 149.435 53.7695ZM139.24 56.238C139.99 56.238 140.622 56.1844 141.139 56.0773C141.655 55.9702 142.068 55.8144 142.38 55.6099C142.692 55.3957 142.916 55.1376 143.052 54.8358C143.198 54.5242 143.271 54.1687 143.271 53.7695C143.271 53.3703 143.198 53.0246 143.052 52.7325C142.916 52.4306 142.687 52.1774 142.366 51.9729C142.054 51.7684 141.64 51.6175 141.124 51.5201C140.618 51.4228 139.99 51.3741 139.24 51.3741C138.49 51.3741 137.857 51.4228 137.341 51.5201C136.825 51.6175 136.406 51.7684 136.085 51.9729C135.773 52.1774 135.549 52.4306 135.413 52.7325C135.277 53.0246 135.208 53.3703 135.208 53.7695C135.208 54.1687 135.277 54.5242 135.413 54.8358C135.549 55.1376 135.773 55.3957 136.085 55.6099C136.406 55.8144 136.825 55.9702 137.341 56.0773C137.857 56.1844 138.49 56.238 139.24 56.238ZM108.435 56.9537C108.425 57.8203 108.42 58.6236 108.42 59.3637H113.533C113.523 59.2274 113.513 59.0472 113.503 58.8233C113.503 58.5896 113.499 58.3218 113.489 58.0199C113.489 57.7083 113.484 57.3578 113.474 56.9683C113.474 56.5788 113.469 56.1552 113.46 55.6975C113.45 55.2593 113.435 54.8406 113.416 54.4414C113.396 54.0324 113.372 53.6234 113.343 53.2145L113.341 53.1738C113.339 53.1436 113.337 53.1132 113.336 53.0828L113.372 53.0729C113.563 53.3148 113.768 53.5568 113.985 53.7987L114.456 54.2856L114.818 54.6605C115.188 54.9429 115.597 55.2593 116.045 55.6099C116.503 55.9507 116.965 56.3012 117.432 56.6615C117.91 57.0218 118.362 57.3724 118.791 57.7132C119.219 58.054 119.589 58.3705 119.901 58.6626C120.222 58.945 120.456 59.1787 120.602 59.3637H126.941C126.922 58.6431 126.907 57.8544 126.897 56.9975V53.8717V52.2212V50.7606C126.907 50.3029 126.917 49.8794 126.927 49.4899C126.936 49.0906 126.951 48.7303 126.97 48.409H121.902C121.912 48.5453 121.921 48.7157 121.931 48.9202C121.941 49.1247 121.951 49.3584 121.96 49.6213C121.97 49.8745 121.975 50.1471 121.975 50.4393C121.985 50.7314 121.994 51.0381 122.004 51.3595C122.014 51.6808 122.019 52.0119 122.019 52.3527C122.019 52.6253 122.024 52.9321 122.033 53.2729C122.053 53.6137 122.077 53.974 122.106 54.3537L122.111 54.4166L122.077 54.4343C121.917 54.2217 121.742 54.0244 121.551 53.8425L120.909 53.1998C120.636 52.9954 120.315 52.7519 119.945 52.4695C119.584 52.1774 119.2 51.8707 118.791 51.5493C118.392 51.2183 117.992 50.8921 117.593 50.5707C117.204 50.2494 116.838 49.9427 116.498 49.6505C116.157 49.3584 115.87 49.1052 115.636 48.891C115.412 48.6768 115.266 48.5161 115.198 48.409H108.42C108.44 48.9153 108.45 49.446 108.45 50.0011C108.459 50.5464 108.464 51.1355 108.464 51.7684V53.8863C108.464 55.0548 108.454 56.0773 108.435 56.9537ZM105.547 59.3637H99.5435C99.5629 58.9352 99.5727 58.5165 99.5727 58.1075C99.5824 57.6986 99.5873 57.2799 99.5873 56.8514C99.597 56.423 99.6019 55.9702 99.6019 55.493V53.8863V52.2943C99.6019 51.8074 99.597 51.3497 99.5873 50.9213C99.5873 50.4928 99.5824 50.0741 99.5727 49.6651C99.5727 49.2562 99.5629 48.8374 99.5435 48.409H105.547C105.537 48.8277 105.527 49.2416 105.517 49.6505C105.517 50.0595 105.513 50.4782 105.503 50.9067V52.265V53.8717V55.4638C105.513 55.9507 105.517 56.4084 105.517 56.8368C105.527 57.2653 105.532 57.684 105.532 58.0929C105.542 58.5019 105.547 58.9255 105.547 59.3637ZM89.8877 56.7492C89.4592 56.7784 88.8944 56.793 88.1933 56.793C87.3267 56.793 86.6499 56.7638 86.1631 56.7053C85.6859 56.6372 85.35 56.5349 85.1552 56.3986C84.9605 56.2525 84.8631 56.0724 84.8631 55.8582V55.7851V55.7267C84.6294 55.7365 84.3568 55.7462 84.0452 55.7559H83.0665C82.4628 55.7559 81.8542 55.7413 81.2408 55.7121C80.6273 55.6829 80.0869 55.6537 79.6195 55.6245L79.5902 55.9166L79.561 56.1795V56.4424C79.561 56.9098 79.6487 57.3237 79.8239 57.684C79.9992 58.0443 80.2914 58.3559 80.7003 58.6188C81.1093 58.8719 81.6595 59.0813 82.3508 59.2468C83.0422 59.4026 83.8942 59.5195 84.9069 59.5974C85.9196 59.6753 87.1222 59.7142 88.5147 59.7142C89.8682 59.7142 91.0367 59.6704 92.0202 59.5828C93.0134 59.4951 93.8508 59.3588 94.5324 59.1738C95.2141 58.979 95.7545 58.7356 96.1537 58.4435C96.5627 58.1416 96.8548 57.7862 97.0301 57.3772C97.2151 56.9585 97.3076 56.4862 97.3076 55.9604C97.3076 55.3275 97.1908 54.7968 96.9571 54.3683C96.7234 53.9302 96.329 53.5747 95.774 53.3021C95.2287 53.0294 94.4838 52.8249 93.5392 52.6886C92.5947 52.5426 91.4116 52.4403 89.9899 52.3819C89.133 52.3429 88.4222 52.304 87.8574 52.265C87.2926 52.2164 86.8447 52.1677 86.5136 52.119C86.1825 52.0703 85.9342 52.0167 85.7687 51.9583C85.6129 51.8901 85.5107 51.822 85.462 51.7538C85.423 51.6759 85.4035 51.5883 85.4035 51.4909C85.4035 51.3935 85.4376 51.3059 85.5058 51.228C85.5837 51.1501 85.7297 51.0868 85.944 51.0381C86.1582 50.9894 86.4698 50.9505 86.8788 50.9213C87.2877 50.8921 87.8184 50.8774 88.4708 50.8774C89.1817 50.8774 89.7562 50.8921 90.1944 50.9213C90.6326 50.9505 90.9636 51.004 91.1876 51.0819C91.4213 51.1501 91.5771 51.2426 91.655 51.3595C91.7329 51.4763 91.7719 51.6175 91.7719 51.783V51.8999V52.0167C92.0056 51.9973 92.2977 51.9875 92.6482 51.9875C93.0085 51.9778 93.3883 51.9729 93.7875 51.9729C94.1673 51.9729 94.5519 51.9778 94.9414 51.9875C95.3407 51.9973 95.7156 52.0119 96.0661 52.0313C96.4264 52.0411 96.7331 52.0557 96.9863 52.0752C96.996 51.9875 97.0009 51.9096 97.0009 51.8415V51.6078V51.3887C97.0009 50.8921 96.9133 50.4587 96.738 50.0887C96.5724 49.709 96.2901 49.3925 95.8908 49.1393C95.5013 48.8764 94.9706 48.667 94.2987 48.5112C93.6366 48.3554 92.804 48.2435 91.8011 48.1753C90.7981 48.0974 89.6053 48.0584 88.2225 48.0584C86.6548 48.0584 85.3208 48.1315 84.2204 48.2775C83.1201 48.4236 82.2291 48.6476 81.5475 48.9494C80.8659 49.2513 80.3644 49.6408 80.043 50.1179C79.7314 50.5853 79.5756 51.1501 79.5756 51.8122C79.5756 52.2602 79.6438 52.6643 79.7801 53.0246C79.9165 53.3849 80.1453 53.6965 80.4666 53.9594C80.788 54.2125 81.2359 54.4268 81.8104 54.602C82.3946 54.7773 83.125 54.9185 84.0013 55.0256C84.8875 55.1327 85.9537 55.2058 87.2001 55.2447C87.9986 55.2642 88.6559 55.2934 89.172 55.3324C89.688 55.3713 90.0921 55.4151 90.3843 55.4638C90.6861 55.5125 90.9101 55.5709 91.0562 55.6391C91.2022 55.7072 91.2947 55.7851 91.3337 55.8728C91.3824 55.9507 91.4067 56.0383 91.4067 56.1357C91.4067 56.2428 91.3678 56.3353 91.2899 56.4132C91.212 56.4911 91.0659 56.5593 90.8517 56.6177C90.6374 56.6761 90.3161 56.7199 89.8877 56.7492ZM64.6449 58.3997C64.7568 58.1059 64.8838 57.7896 65.0258 57.4506C65.113 57.4504 65.2002 57.4503 65.2876 57.4503C65.8329 57.4405 66.3539 57.4357 66.8505 57.4357H68.165H69.4942C69.9908 57.4357 70.5069 57.4405 71.0425 57.4503C71.1398 57.4503 71.2372 57.4504 71.3345 57.4507L71.3784 57.5671C71.5245 57.9566 71.6462 58.3072 71.7436 58.6188C71.8507 58.9206 71.9188 59.1689 71.9481 59.3637H79.0175C78.7643 58.9547 78.4819 58.4873 78.1703 57.9615C77.8685 57.4259 77.552 56.8563 77.2209 56.2526C76.8898 55.6488 76.5539 55.0354 76.2131 54.4122C75.882 53.7792 75.5607 53.1609 75.2491 52.5572C74.9472 51.9534 74.66 51.3838 74.3873 50.8482C74.1244 50.3127 73.8956 49.8355 73.7008 49.4168C73.5061 48.9981 73.3551 48.6622 73.248 48.409H63.4764C63.3791 48.6622 63.233 48.9981 63.0382 49.4168C62.8532 49.8355 62.6293 50.3127 62.3664 50.8482C62.1034 51.3838 61.8162 51.9583 61.5046 52.5718C61.2027 53.1755 60.8911 53.7938 60.5698 54.4268C60.2485 55.05 59.9271 55.6634 59.6058 56.2672C59.2844 56.8611 58.9728 57.4259 58.671 57.9615C58.3691 58.497 58.0965 58.9644 57.853 59.3637H64.3236C64.3918 59.1202 64.4989 58.7989 64.6449 58.3997ZM66.1914 54.8124C66.3887 54.8146 66.5841 54.8176 66.7775 54.8211H68.1796H69.5234C69.7656 54.8166 70.0098 54.8131 70.2563 54.8106C70.0696 54.3865 69.8788 53.9665 69.6841 53.5504C69.4699 53.0927 69.2605 52.6545 69.056 52.2358C68.8515 51.8561 68.6714 51.5007 68.5156 51.1696C68.402 50.912 68.3001 50.675 68.21 50.4587C68.1159 50.6711 68.0132 50.9032 67.9021 51.155C67.7561 51.486 67.5808 51.8512 67.3763 52.2504C67.1426 52.7568 66.8992 53.2826 66.646 53.8279C66.4944 54.1543 66.3429 54.4825 66.1914 54.8124ZM51.2256 52.9808V53.0538C51.508 53.044 51.8147 53.0392 52.1458 53.0392C52.4769 53.0294 52.8128 53.0246 53.1536 53.0246H54.1615H55.5929C56.0798 53.0246 56.5618 53.0343 57.0389 53.0538C57.0584 52.9467 57.0681 52.8444 57.0681 52.7471C57.0778 52.6399 57.0827 52.5328 57.0827 52.4257C57.0925 52.3186 57.0973 52.2212 57.0973 52.1336C57.0973 51.4812 56.9707 50.9213 56.7176 50.4539C56.4644 49.9865 56.0798 49.6067 55.5637 49.3146C55.0573 49.0127 54.4146 48.779 53.6356 48.6135C52.8664 48.4382 51.9657 48.3165 50.9335 48.2483C49.911 48.1802 48.7572 48.1461 47.4718 48.1461C46.167 48.1461 44.9887 48.2045 43.9371 48.3214C42.8854 48.4382 41.9604 48.6281 41.1619 48.891C40.3634 49.1539 39.6964 49.4996 39.1608 49.928C38.6253 50.3565 38.2212 50.8823 37.9485 51.5055C37.6759 52.1287 37.5396 52.859 37.5396 53.6965C37.5396 54.5436 37.6515 55.2934 37.8755 55.9458C38.0995 56.5885 38.4549 57.1435 38.9417 57.6109C39.4286 58.0783 40.0567 58.463 40.826 58.7648C41.605 59.057 42.5446 59.2712 43.645 59.4075C44.7453 59.5536 46.0307 59.6266 47.501 59.6266C48.9714 59.6266 50.247 59.5682 51.3279 59.4513C52.4087 59.3345 53.3192 59.1543 54.0592 58.9109C54.809 58.6675 55.4079 58.3656 55.8558 58.0053C56.3134 57.645 56.6397 57.2166 56.8344 56.72C57.0389 56.2233 57.1411 55.6586 57.1411 55.0256C57.1411 54.9477 57.1363 54.8747 57.1265 54.8065C57.1265 54.7286 57.1217 54.6507 57.1119 54.5728V54.3245L55.6513 54.3537H54.1907H53.1828H52.1458C51.8147 54.344 51.508 54.3343 51.2256 54.3245V54.4852V54.6313C51.2256 54.9234 51.1136 55.1766 50.8897 55.3908C50.6657 55.5953 50.2957 55.7511 49.7796 55.8582C49.2635 55.9653 48.5575 56.0189 47.6617 56.0189C47.0969 56.0189 46.5954 55.9896 46.1572 55.9312C45.7191 55.8631 45.3393 55.7657 45.018 55.6391C44.7064 55.5125 44.4483 55.3567 44.2438 55.1717C44.0393 54.9769 43.8884 54.7627 43.791 54.529C43.6936 54.2856 43.645 54.0129 43.645 53.7111C43.645 53.38 43.6888 53.0927 43.7764 52.8493C43.8738 52.5961 44.0199 52.3868 44.2146 52.2212C44.4094 52.046 44.6577 51.9048 44.9595 51.7976C45.2614 51.6905 45.6265 51.6126 46.055 51.5639C46.4932 51.5153 46.9898 51.4812 47.5448 51.4617C48.4115 51.4617 49.1126 51.5104 49.6481 51.6078C50.1837 51.6954 50.5781 51.8415 50.8312 52.046C51.0942 52.2504 51.2256 52.5182 51.2256 52.8493V52.9223V52.9808ZM135.564 39.8582V38.8796H136.908C137.628 38.8796 138.373 38.8844 139.143 38.8942C139.922 38.8942 140.686 38.899 141.436 38.9088C142.195 38.9185 142.906 38.9283 143.568 38.938C144.24 38.938 144.815 38.9429 145.292 38.9526V38.1785C145.292 37.8669 145.297 37.5601 145.306 37.2583C145.316 36.9564 145.321 36.7081 145.321 36.5134C144.824 36.5231 144.24 36.5328 143.568 36.5426C142.906 36.5523 142.195 36.562 141.436 36.5718H139.157H136.922H135.564V35.8707V35.155H136.543C137.215 35.155 137.935 35.1598 138.704 35.1696H141.056C141.854 35.1696 142.633 35.1744 143.393 35.1842H145.482C145.472 35.0186 145.462 34.8093 145.452 34.5561V33.7966V33.0517C145.462 32.7985 145.472 32.5843 145.482 32.409H129.502C129.532 32.7888 129.546 33.1783 129.546 33.5775C129.556 33.9767 129.561 34.4003 129.561 34.8482C129.571 35.2962 129.575 35.7684 129.575 36.265C129.585 36.7617 129.59 37.3021 129.59 37.8863C129.59 38.6653 129.585 39.3762 129.575 40.0189C129.575 40.6518 129.571 41.2409 129.561 41.7862C129.551 42.3315 129.532 42.8573 129.502 43.3637H145.482C145.472 43.1592 145.462 42.9255 145.452 42.6626V41.8738V41.0267C145.462 40.7443 145.472 40.5057 145.482 40.311C144.907 40.311 144.25 40.3158 143.51 40.3256H141.187C140.379 40.3256 139.576 40.3305 138.777 40.3402H136.572H135.564V39.8582ZM108.148 40.9537C108.138 41.8203 108.133 42.6236 108.133 43.3637H113.245C113.236 43.2274 113.226 43.0472 113.216 42.8233C113.216 42.5896 113.211 42.3218 113.202 42.0199C113.202 41.7083 113.197 41.3578 113.187 40.9683C113.187 40.5788 113.182 40.1552 113.172 39.6975C113.163 39.2593 113.148 38.8406 113.129 38.4414C113.109 38.0324 113.085 37.6234 113.056 37.2145C113.054 37.1707 113.051 37.1269 113.049 37.0828L113.085 37.0729C113.276 37.3148 113.481 37.5568 113.698 37.7987C113.971 38.0811 114.248 38.3683 114.531 38.6605C114.901 38.9429 115.31 39.2593 115.758 39.6099C116.215 39.9507 116.678 40.3012 117.145 40.6615C117.622 41.0218 118.075 41.3724 118.504 41.7132C118.932 42.054 119.302 42.3705 119.614 42.6626C119.935 42.945 120.169 43.1787 120.315 43.3637H126.654C126.635 42.6431 126.62 41.8544 126.61 40.9975V37.8717V36.2212V34.7606C126.62 34.3029 126.63 33.8794 126.639 33.4899C126.649 33.0906 126.664 32.7303 126.683 32.409H121.615C121.625 32.5453 121.634 32.7157 121.644 32.9202C121.654 33.1247 121.664 33.3584 121.673 33.6213C121.683 33.8745 121.688 34.1471 121.688 34.4393C121.698 34.7314 121.707 35.0381 121.717 35.3595C121.727 35.6808 121.732 36.0119 121.732 36.3527C121.732 36.6253 121.737 36.9321 121.746 37.2729C121.766 37.6137 121.79 37.974 121.819 38.3537L121.824 38.4166L121.79 38.4343C121.63 38.2216 121.455 38.0244 121.264 37.8425L120.622 37.1998C120.349 36.9954 120.028 36.7519 119.658 36.4695C119.297 36.1774 118.913 35.8707 118.504 35.5493C118.104 35.2183 117.705 34.8921 117.306 34.5707C116.917 34.2494 116.551 33.9427 116.211 33.6505C115.87 33.3584 115.582 33.1052 115.349 32.891C115.125 32.6768 114.979 32.5161 114.911 32.409H108.133C108.153 32.9153 108.163 33.446 108.163 34.0011C108.172 34.5464 108.177 35.1355 108.177 35.7684V37.8863C108.177 39.0548 108.167 40.0773 108.148 40.9537ZM105.26 43.3637H99.2563C99.2758 42.9352 99.2856 42.5165 99.2856 42.1075C99.2953 41.6986 99.3002 41.2799 99.3002 40.8514C99.3099 40.423 99.3148 39.9702 99.3148 39.493V37.8863V36.2943C99.3148 35.8074 99.3099 35.3497 99.3002 34.9213C99.3002 34.4928 99.2953 34.0741 99.2856 33.6651C99.2856 33.2562 99.2758 32.8374 99.2563 32.409H105.26C105.25 32.8277 105.24 33.2416 105.23 33.6505C105.23 34.0595 105.225 34.4782 105.216 34.9067V36.265V37.8717V39.4638C105.225 39.9507 105.23 40.4084 105.23 40.8368C105.24 41.2653 105.245 41.684 105.245 42.0929C105.255 42.5019 105.26 42.9255 105.26 43.3637ZM84.6167 43.3637H97.6017L97.5854 42.8156L97.5724 42.3851V41.3918V40.4132C97.5822 40.0724 97.5919 39.7413 97.6017 39.42C96.9395 39.4395 96.2579 39.4541 95.5568 39.4638C94.8557 39.4736 94.1643 39.4784 93.4827 39.4784H91.5401H90.7075V38.9672V38.0032V36.5864C90.7172 36.1092 90.7221 35.6565 90.7221 35.228C90.7318 34.7996 90.7416 34.4052 90.7513 34.0449C90.7611 33.6749 90.7659 33.3535 90.7659 33.0809C90.7757 32.7985 90.7854 32.5745 90.7951 32.409H84.6167C84.6362 32.7595 84.6508 33.2123 84.6605 33.7674C84.6703 34.3127 84.6751 34.9359 84.6751 35.637C84.6849 36.3283 84.6897 37.0781 84.6897 37.8863C84.6897 38.4706 84.6849 39.0354 84.6751 39.5807C84.6751 40.126 84.6703 40.6372 84.6605 41.1143C84.6508 41.5915 84.641 42.0199 84.6313 42.3997C84.6216 42.7794 84.6167 43.1008 84.6167 43.3637ZM63.3198 43.3637C63.3198 42.6236 63.3247 41.8203 63.3344 40.9537C63.3539 40.0773 63.3636 39.0548 63.3636 37.8863V35.7684C63.3636 35.1355 63.3588 34.5464 63.349 34.0011C63.349 33.446 63.3393 32.9153 63.3198 32.409H70.0971C70.1653 32.5161 70.3113 32.6768 70.5353 32.891C70.769 33.1052 71.0563 33.3584 71.3971 33.6505C71.7379 33.9427 72.1031 34.2494 72.4926 34.5707C72.8918 34.8921 73.291 35.2183 73.6903 35.5493C74.0992 35.8707 74.4839 36.1774 74.8442 36.4695C75.2142 36.7519 75.5355 36.9954 75.8082 37.1998L76.4508 37.8425C76.6414 38.0244 76.8165 38.2216 76.9762 38.4343L77.0108 38.4166L77.0059 38.3537C76.9767 37.974 76.9523 37.6137 76.9328 37.2729C76.9231 36.9321 76.9182 36.6253 76.9182 36.3527C76.9182 36.0119 76.9134 35.6808 76.9036 35.3595C76.8939 35.0381 76.8842 34.7314 76.8744 34.4393C76.8744 34.1471 76.8696 33.8745 76.8598 33.6213C76.8501 33.3584 76.8403 33.1247 76.8306 32.9202C76.8209 32.7157 76.8111 32.5453 76.8014 32.409H81.8698C81.8503 32.7303 81.8357 33.0906 81.8259 33.4899C81.8162 33.8794 81.8065 34.3029 81.7967 34.7606V36.2212V37.8717V40.9975C81.8065 41.8544 81.8211 42.6431 81.8405 43.3637H75.5014C75.3554 43.1787 75.1217 42.945 74.8003 42.6626C74.4887 42.3705 74.1187 42.054 73.6903 41.7132C73.2618 41.3724 72.809 41.0218 72.3319 40.6615C71.8645 40.3012 71.4019 39.9507 70.9443 39.6099C70.4964 39.2593 70.0874 38.9429 69.7174 38.6605C69.435 38.3683 69.1575 38.0811 68.8848 37.7987C68.6671 37.5568 68.4627 37.3148 68.2717 37.0729L68.235 37.0828C68.2377 37.1269 68.24 37.1707 68.2421 37.2145C68.2713 37.6234 68.2957 38.0324 68.3152 38.4414C68.3346 38.8406 68.3492 39.2593 68.359 39.6975C68.3687 40.1552 68.3736 40.5788 68.3736 40.9683C68.3833 41.3578 68.3882 41.7083 68.3882 42.0199C68.3979 42.3218 68.4028 42.5896 68.4028 42.8233C68.4125 43.0472 68.4223 43.2274 68.432 43.3637H63.3198ZM60.8011 39.8436C61.0251 39.2204 61.1371 38.529 61.1371 37.7695C61.1371 36.8055 60.9423 35.968 60.5528 35.2572C60.1633 34.5366 59.5596 33.9329 58.7417 33.446C57.9237 32.9591 56.8672 32.5989 55.5721 32.3652C54.277 32.1217 52.7287 32 50.9273 32C49.4862 32 48.2105 32.0779 47.1005 32.2337C46.0001 32.3895 45.0507 32.6232 44.2523 32.9348C43.4538 33.2367 42.7965 33.6213 42.2804 34.0887C41.7741 34.5464 41.3992 35.0819 41.1557 35.6954C40.922 36.3088 40.8052 37.0002 40.8052 37.7695C40.8052 38.529 40.9123 39.2204 41.1265 39.8436C41.3407 40.4668 41.6913 41.0218 42.1782 41.5087C42.665 41.9955 43.298 42.4094 44.077 42.7502C44.856 43.0813 45.8102 43.3344 46.9398 43.5097C48.0694 43.685 49.3985 43.7726 50.9273 43.7726C52.4464 43.7726 53.7707 43.685 54.9002 43.5097C56.0395 43.3344 57.0035 43.0813 57.7922 42.7502C58.5907 42.4094 59.2334 41.9955 59.7203 41.5087C60.2169 41.0218 60.5772 40.4668 60.8011 39.8436ZM52.8407 40.0773C52.3246 40.1844 51.6917 40.2379 50.9419 40.2379C50.1921 40.2379 49.5592 40.1844 49.0431 40.0773C48.527 39.9701 48.1083 39.8143 47.787 39.6099C47.4754 39.3956 47.2514 39.1376 47.1151 38.8357C46.9788 38.5241 46.9106 38.1687 46.9106 37.7695C46.9106 37.3702 46.9788 37.0246 47.1151 36.7324C47.2514 36.4306 47.4754 36.1774 47.787 35.9729C48.1083 35.7684 48.527 35.6175 49.0431 35.5201C49.5592 35.4227 50.1921 35.374 50.9419 35.374C51.6917 35.374 52.3198 35.4227 52.8261 35.5201C53.3422 35.6175 53.7561 35.7684 54.0676 35.9729C54.389 36.1774 54.6178 36.4306 54.7541 36.7324C54.9002 37.0246 54.9732 37.3702 54.9732 37.7695C54.9732 38.1687 54.9002 38.5241 54.7541 38.8357C54.6178 39.1376 54.3939 39.3956 54.0823 39.6099C53.7707 39.8143 53.3568 39.9701 52.8407 40.0773ZM125.612 75.0069V66.7738H129.041C129.664 66.7738 130.195 66.8803 130.633 67.0933C131.074 67.3025 131.408 67.603 131.637 67.9948C131.869 68.3866 131.985 68.8525 131.985 69.3926V69.4041C131.985 69.9328 131.853 70.4082 131.591 70.8304C131.332 71.2488 130.967 71.5512 130.496 71.7376L132.23 75.0069H130.279L128.744 71.9944H128.704H128.664H127.335V75.0069H125.612ZM127.335 70.7392H128.852C129.282 70.7392 129.617 70.625 129.857 70.3968C130.1 70.1648 130.222 69.8453 130.222 69.4383V69.4269C130.222 69.0275 130.098 68.7099 129.851 68.474C129.604 68.2382 129.263 68.1203 128.83 68.1203H127.335V70.7392ZM119.325 66.7738L116.466 75.007H118.275L118.885 73.01H121.791L122.4 75.007H124.214L121.35 66.7738H120.791H120.392H119.325ZM120.392 68.417H120.289L119.279 71.7205H121.398L120.392 68.417ZM109.784 75.0069V66.7738H115.239V68.1945H111.508V70.18H115.028V71.5037H111.508V73.5862H115.239V75.0069H109.784ZM103.788 71.9316V75.007H105.512V71.9316L108.381 66.7738H106.516L104.707 70.2371H104.604L102.79 66.7738H100.924L103.788 71.9316ZM91.2307 75.0069V66.7738H96.6853V68.1945H92.9538V70.18H96.4742V71.5037H92.9538V73.5862H96.6853V75.0069H91.2307ZM82.0784 66.7738V75.0069H83.8015V71.5379H87.5101V75.0069H89.2332V66.7738H87.5101V70.1172H83.8015V66.7738H82.0784ZM76.3614 75.0069V68.1945H73.8909V66.7738H80.555V68.1945H78.0845V75.0069H76.3614ZM64.3687 66.7738V75.007H66.0918V71.7662H69.4409V70.4026H66.0918V68.1945H69.7604V66.7738H64.3687ZM58.7715 75.2181C57.9575 75.2181 57.2538 75.0431 56.6605 74.6931C56.0671 74.3394 55.6087 73.8392 55.2854 73.1926C54.9659 72.546 54.8062 71.7795 54.8062 70.8932V70.8818C54.8062 69.9918 54.9678 69.2253 55.2911 68.5825C55.6182 67.9359 56.0785 67.4376 56.6719 67.0876C57.2653 66.7377 57.9651 66.5627 58.7715 66.5627C59.5817 66.5627 60.2816 66.7377 60.8712 67.0876C61.4645 67.4376 61.9229 67.9359 62.2462 68.5825C62.5695 69.2291 62.7312 69.9956 62.7312 70.8818V70.8932C62.7312 71.7795 62.5695 72.546 62.2462 73.1926C61.9267 73.8392 61.4703 74.3394 60.8769 74.6931C60.2835 75.0431 59.5817 75.2181 58.7715 75.2181ZM58.7715 73.7574C59.2166 73.7574 59.6045 73.6395 59.9355 73.4037C60.2664 73.1679 60.5212 72.835 60.7 72.4052C60.8826 71.9754 60.9739 71.4714 60.9739 70.8932V70.8818C60.9739 70.2999 60.8826 69.7959 60.7 69.3699C60.5212 68.94 60.2664 68.6091 59.9355 68.3771C59.6045 68.1413 59.2166 68.0233 58.7715 68.0233C58.3265 68.0233 57.9385 68.1413 57.6076 68.3771C57.2767 68.6091 57.0199 68.94 56.8373 69.3699C56.6548 69.7959 56.5635 70.2999 56.5635 70.8818V70.8932C56.5635 71.4714 56.6529 71.9754 56.8316 72.4052C57.0142 72.835 57.2691 73.1679 57.5962 73.4037C57.9271 73.6395 58.3189 73.7574 58.7715 73.7574ZM109.265 90.8106H110.8C111.184 90.3427 111.5 89.8273 111.747 89.2644C111.998 88.7052 112.184 88.1043 112.306 87.4614C112.428 86.8186 112.489 86.1396 112.489 85.4245C112.489 84.698 112.428 84.0153 112.306 83.3762C112.184 82.7334 111.998 82.1324 111.747 81.5733C111.5 81.0141 111.184 80.5044 110.8 80.0442H109.265C109.478 80.3104 109.676 80.6452 109.858 81.0484C110.045 81.4478 110.205 81.889 110.338 82.3721C110.475 82.8513 110.581 83.3515 110.657 83.8726C110.733 84.3937 110.771 84.911 110.771 85.4245C110.771 85.9342 110.733 86.4496 110.657 86.9707C110.581 87.4919 110.475 87.9939 110.338 88.477C110.205 88.9601 110.045 89.4013 109.858 89.8007C109.676 90.2001 109.478 90.5367 109.265 90.8106ZM104.843 88.9107C104.223 88.9107 103.679 88.808 103.211 88.6026C102.747 88.3934 102.38 88.1043 102.11 87.7353C101.84 87.3626 101.684 86.9308 101.642 86.4402L101.636 86.366H103.285L103.291 86.4288C103.317 86.6418 103.395 86.8319 103.525 86.9993C103.658 87.1629 103.836 87.2922 104.061 87.3873C104.285 87.4786 104.546 87.5242 104.843 87.5242C105.135 87.5242 105.39 87.4748 105.607 87.3759C105.828 87.2732 105.997 87.1324 106.115 86.9537C106.237 86.7749 106.297 86.5695 106.297 86.3375V86.3261C106.297 85.9305 106.157 85.6281 105.875 85.4189C105.598 85.2097 105.21 85.1051 104.711 85.1051H103.77V83.8784H104.688C104.978 83.8784 105.229 83.8308 105.442 83.7357C105.655 83.6406 105.82 83.5094 105.938 83.342C106.056 83.1709 106.115 82.975 106.115 82.7544V82.743C106.115 82.5147 106.064 82.3188 105.961 82.1553C105.862 81.9879 105.715 81.8605 105.522 81.773C105.331 81.6817 105.101 81.6361 104.831 81.6361C104.561 81.6361 104.323 81.6817 104.118 81.773C103.913 81.8643 103.749 81.9955 103.627 82.1667C103.506 82.3341 103.433 82.5319 103.41 82.7601L103.405 82.8114H101.819L101.824 82.743C101.866 82.2485 102.014 81.8206 102.269 81.4592C102.528 81.0941 102.874 80.8126 103.308 80.6148C103.745 80.4132 104.253 80.3124 104.831 80.3124C105.421 80.3124 105.934 80.4056 106.372 80.592C106.809 80.7745 107.146 81.0313 107.382 81.3622C107.621 81.6893 107.741 82.0735 107.741 82.5147V82.5261C107.741 82.8685 107.665 83.169 107.513 83.4276C107.361 83.6863 107.155 83.8993 106.897 84.0667C106.638 84.234 106.347 84.3519 106.024 84.4204V84.4546C106.636 84.5117 107.127 84.7095 107.496 85.048C107.865 85.3865 108.049 85.8354 108.049 86.3945V86.4059C108.049 86.9042 107.914 87.3416 107.644 87.7182C107.378 88.0948 107.005 88.3877 106.526 88.5969C106.046 88.8061 105.485 88.9107 104.843 88.9107ZM94.2477 87.5698V88.7281H100.187V87.3416H96.5584V87.2124L98.0818 85.7897C98.5839 85.3256 98.9795 84.9205 99.2686 84.5744C99.5576 84.2283 99.763 83.9069 99.8848 83.6102C100.006 83.3097 100.067 83.0035 100.067 82.6916V82.6745C100.067 82.199 99.9437 81.7825 99.6965 81.4249C99.453 81.0674 99.1145 80.7878 98.6809 80.5862C98.2511 80.3846 97.7528 80.2838 97.186 80.2838C96.585 80.2838 96.0563 80.396 95.5999 80.6205C95.1472 80.8449 94.7916 81.1568 94.5329 81.5562C94.2781 81.9556 94.1507 82.4177 94.1507 82.9426L94.1564 82.9711H95.7482V82.9426C95.7482 82.6802 95.8053 82.4519 95.9194 82.2579C96.0335 82.0602 96.1933 81.9061 96.3987 81.7958C96.6041 81.6817 96.8399 81.6246 97.1061 81.6246C97.3686 81.6246 97.5949 81.676 97.7851 81.7787C97.9753 81.8776 98.1198 82.0164 98.2187 82.1952C98.3214 82.374 98.3728 82.5813 98.3728 82.8171V82.8342C98.3728 83.0282 98.3309 83.2165 98.2473 83.3991C98.1636 83.5778 98.0152 83.7889 97.8022 84.0324C97.5892 84.272 97.2887 84.5782 96.9007 84.951L94.2477 87.5698ZM89.4151 88.9392C88.738 88.9392 88.1541 88.7642 87.6635 88.4143C87.1766 88.0605 86.8019 87.5603 86.5395 86.9137C86.277 86.2671 86.1458 85.5006 86.1458 84.6143V84.6029C86.1458 83.7129 86.277 82.9464 86.5395 82.3036C86.8019 81.657 87.1766 81.1587 87.6635 80.8087C88.1541 80.4588 88.738 80.2838 89.4151 80.2838C90.0959 80.2838 90.6798 80.4588 91.1667 80.8087C91.6536 81.1587 92.0282 81.657 92.2907 82.3036C92.5531 82.9464 92.6844 83.7129 92.6844 84.6029V84.6143C92.6844 85.5006 92.5531 86.2671 92.2907 86.9137C92.0282 87.5603 91.6536 88.0605 91.1667 88.4143C90.6798 88.7642 90.0959 88.9392 89.4151 88.9392ZM89.4151 87.5755C89.7422 87.5755 90.018 87.4576 90.2424 87.2218C90.4706 86.986 90.6437 86.6474 90.7616 86.2062C90.8833 85.765 90.9442 85.2344 90.9442 84.6143V84.6029C90.9442 83.9791 90.8833 83.4485 90.7616 83.0111C90.6437 82.5699 90.4706 82.2332 90.2424 82.0012C90.018 81.7654 89.7422 81.6475 89.4151 81.6475C89.0918 81.6475 88.816 81.7654 88.5878 82.0012C88.3633 82.2332 88.1903 82.5699 88.0686 83.0111C87.9506 83.4485 87.8917 83.9791 87.8917 84.6029V84.6143C87.8917 85.2344 87.9506 85.765 88.0686 86.2062C88.1903 86.6474 88.3633 86.986 88.5878 87.2218C88.816 87.4576 89.0918 87.5755 89.4151 87.5755ZM78.7291 87.5698V88.7281H84.6686V87.3416H81.0399V87.2124L82.5632 85.7897C83.0653 85.3256 83.4609 84.9205 83.75 84.5744C84.0391 84.2283 84.2445 83.9069 84.3662 83.6102C84.4879 83.3097 84.5488 83.0035 84.5488 82.6916V82.6745C84.5488 82.199 84.4252 81.7825 84.1779 81.4249C83.9345 81.0674 83.596 80.7878 83.1623 80.5862C82.7325 80.3846 82.2342 80.2838 81.6675 80.2838C81.0665 80.2838 80.5378 80.396 80.0813 80.6205C79.6287 80.8449 79.273 81.1568 79.0144 81.5562C78.7595 81.9556 78.6321 82.4177 78.6321 82.9426L78.6378 82.9711H80.2297V82.9426C80.2297 82.6802 80.2867 82.4519 80.4008 82.2579C80.5149 82.0602 80.6747 81.9061 80.8801 81.7958C81.0855 81.6817 81.3213 81.6246 81.5876 81.6246C81.8501 81.6246 82.0764 81.676 82.2666 81.7787C82.4567 81.8776 82.6013 82.0164 82.7002 82.1952C82.8029 82.374 82.8542 82.5813 82.8542 82.8171V82.8342C82.8542 83.0282 82.8124 83.2165 82.7287 83.3991C82.645 83.5778 82.4967 83.7889 82.2837 84.0324C82.0707 84.272 81.7702 84.5782 81.3822 84.951L78.7291 87.5698ZM75.8532 90.8106C75.4691 90.3389 75.1515 89.8235 74.9004 89.2644C74.6494 88.7052 74.463 88.1043 74.3413 87.4614C74.2196 86.8186 74.1587 86.1396 74.1587 85.4245C74.1587 84.698 74.2196 84.0153 74.3413 83.3762C74.463 82.7334 74.6494 82.1324 74.9004 81.5733C75.1515 81.0141 75.4691 80.5044 75.8532 80.0442H77.3823C77.1693 80.3104 76.9715 80.6452 76.789 81.0484C76.6064 81.4478 76.4466 81.889 76.3097 82.3721C76.1728 82.8513 76.0663 83.3515 75.9902 83.8726C75.9141 84.3937 75.8761 84.911 75.8761 85.4245C75.8761 85.9342 75.9141 86.4496 75.9902 86.9707C76.0663 87.4919 76.1728 87.9939 76.3097 88.477C76.4466 88.9601 76.6064 89.4013 76.789 89.8007C76.9715 90.2001 77.1693 90.5367 77.3823 90.8106H75.8532ZM123.747 16.3079L120.888 24.541H122.697L123.307 22.5441H126.213L126.822 24.541H128.636L125.772 16.3079H125.213H124.814H123.747ZM124.814 17.9511H124.711L123.701 21.2546H125.82L124.814 17.9511ZM117.755 24.5411V16.3079H119.478V24.5411H117.755ZM111.098 24.4555C111.581 24.6533 112.149 24.7522 112.803 24.7522C113.488 24.7522 114.078 24.6438 114.572 24.4269C115.071 24.2063 115.453 23.8982 115.719 23.5026C115.989 23.1032 116.124 22.6316 116.124 22.0877V22.082C116.124 21.6521 116.037 21.2851 115.862 20.9808C115.687 20.6765 115.415 20.4235 115.046 20.2219C114.681 20.0203 114.207 19.8606 113.625 19.7427L112.752 19.5658C112.269 19.4669 111.919 19.3338 111.702 19.1664C111.489 18.9952 111.383 18.7765 111.383 18.5103V18.5046C111.383 18.2992 111.442 18.1223 111.56 17.9739C111.678 17.8218 111.843 17.7039 112.056 17.6202C112.269 17.5365 112.516 17.4947 112.798 17.4947C113.087 17.4947 113.34 17.5384 113.557 17.6259C113.777 17.7096 113.952 17.8256 114.082 17.9739C114.215 18.1223 114.298 18.2954 114.333 18.4932L114.344 18.5616H115.964L115.959 18.4874C115.924 18.0272 115.778 17.6183 115.519 17.2607C115.261 16.8994 114.901 16.616 114.441 16.4106C113.985 16.2014 113.437 16.0968 112.798 16.0968C112.189 16.0968 111.649 16.2033 111.177 16.4163C110.706 16.6255 110.335 16.9203 110.065 17.3007C109.795 17.6811 109.66 18.1261 109.66 18.6358V18.6415C109.66 19.2653 109.854 19.7769 110.242 20.1763C110.63 20.5757 111.252 20.8629 112.107 21.0378L112.975 21.2147C113.488 21.3212 113.853 21.4562 114.07 21.6198C114.291 21.7834 114.401 22.0002 114.401 22.2702V22.2759C114.401 22.4851 114.334 22.6715 114.201 22.8351C114.072 22.9948 113.891 23.1204 113.659 23.2117C113.427 23.3029 113.157 23.3486 112.849 23.3486C112.53 23.3486 112.246 23.3048 111.999 23.2174C111.752 23.1299 111.554 23.0101 111.406 22.8579C111.261 22.702 111.177 22.5213 111.155 22.3159L111.149 22.2588H109.489L109.494 22.3501C109.528 22.837 109.683 23.2611 109.956 23.6225C110.234 23.98 110.614 24.2577 111.098 24.4555ZM100.713 24.541L103.572 16.3079H104.639H105.038H105.597L108.461 24.541H106.647L106.038 22.5441H103.132L102.522 24.541H100.713ZM104.536 17.9511H104.639L105.645 21.2546H103.526L104.536 17.9511ZM92.0004 16.3079L89.1419 24.5411H90.9505L91.5609 22.5441H94.4671L95.0757 24.5411H96.89L94.0258 16.3079H93.4667H93.0673H92.0004ZM93.0673 17.9511H92.9646L91.955 21.2547H94.0741L93.0673 17.9511ZM79.1292 24.5411V16.3079H81.1033L83.3798 22.333H83.4825L85.7533 16.3079H87.7275V24.5411H86.1927V18.9382H86.0801L83.9675 24.5411H82.8891L80.7806 18.9382H80.664V24.5411H79.1292ZM72.1736 24.4555C72.6605 24.6533 73.2102 24.7522 73.8225 24.7522C74.3817 24.7522 74.8857 24.6704 75.3345 24.5068C75.7872 24.3395 76.1732 24.1017 76.4928 23.7936C76.8123 23.4817 77.0557 23.1071 77.2231 22.6696C77.3904 22.2322 77.4741 21.7415 77.4741 21.1976V20.1535H74.0165V21.4087H75.7967L75.791 21.5627C75.7796 21.9089 75.6921 22.2113 75.5285 22.4699C75.365 22.7286 75.1386 22.9302 74.8495 23.0747C74.5605 23.2193 74.2276 23.2915 73.8511 23.2915C73.5126 23.2915 73.2064 23.225 72.9325 23.0918C72.6586 22.9587 72.4247 22.7666 72.2307 22.5156C72.0367 22.2645 71.8884 21.9621 71.7857 21.6084C71.683 21.2508 71.6316 20.8496 71.6316 20.4045V20.3931C71.6316 19.8111 71.7191 19.309 71.8941 18.8868C72.069 18.4608 72.3163 18.1337 72.6358 17.9055C72.9591 17.6735 73.3414 17.5574 73.7826 17.5574C74.2657 17.5574 74.6746 17.6715 75.0093 17.8998C75.344 18.128 75.5685 18.4475 75.6826 18.8583L75.694 18.9154H77.4056L77.3942 18.8583C77.3144 18.3106 77.1109 17.8294 76.7837 17.4148C76.4604 17.0002 76.042 16.6769 75.5285 16.4449C75.015 16.2128 74.433 16.0968 73.7826 16.0968C72.9876 16.0968 72.2973 16.2737 71.7115 16.6274C71.1257 16.9774 70.6731 17.4757 70.3536 18.1223C70.034 18.7651 69.8743 19.5278 69.8743 20.4102V20.4216C69.8743 21.0911 69.9656 21.694 70.1482 22.2303C70.3307 22.7628 70.5913 23.2174 70.9298 23.5939C71.2722 23.9667 71.6868 24.2539 72.1736 24.4555ZM66.5198 24.5411V16.3079H68.2429V24.5411H66.5198ZM59.8614 24.4555C60.3445 24.6532 60.9131 24.7521 61.5674 24.7521C62.252 24.7521 62.8416 24.6437 63.3361 24.4269C63.8344 24.2063 64.2167 23.8982 64.4829 23.5026C64.753 23.1032 64.888 22.6316 64.888 22.0876V22.0819C64.888 21.6521 64.8005 21.2851 64.6256 20.9808C64.4506 20.6765 64.1786 20.4235 63.8097 20.2219C63.4445 20.0203 62.9709 19.8606 62.389 19.7427L61.516 19.5658C61.033 19.4669 60.683 19.3338 60.4662 19.1664C60.2532 18.9952 60.1467 18.7765 60.1467 18.5103V18.5046C60.1467 18.2992 60.2056 18.1223 60.3236 17.9739C60.4415 17.8218 60.6069 17.7039 60.8199 17.6202C61.033 17.5365 61.2802 17.4947 61.5617 17.4947C61.8508 17.4947 62.1037 17.5384 62.3205 17.6259C62.5411 17.7096 62.7161 17.8256 62.8454 17.9739C62.9786 18.1223 63.0622 18.2953 63.0965 18.4931L63.1079 18.5616H64.7283L64.7226 18.4874C64.6883 18.0272 64.5419 17.6183 64.2832 17.2607C64.0246 16.8994 63.6651 16.616 63.2049 16.4106C62.7484 16.2014 62.2007 16.0968 61.5617 16.0968C60.9531 16.0968 60.4129 16.2033 59.9413 16.4163C59.4696 16.6255 59.0988 16.9203 58.8287 17.3007C58.5586 17.681 58.4236 18.1261 58.4236 18.6358V18.6415C58.4236 19.2653 58.6176 19.7769 59.0056 20.1763C59.3936 20.5757 60.0155 20.8629 60.8713 21.0378L61.7385 21.2147C62.252 21.3212 62.6172 21.4562 62.834 21.6198C63.0546 21.7833 63.1649 22.0002 63.1649 22.2702V22.2759C63.1649 22.4851 63.0984 22.6715 62.9652 22.8351C62.8359 22.9948 62.6552 23.1204 62.4232 23.2116C62.1912 23.3029 61.9211 23.3486 61.613 23.3486C61.2935 23.3486 61.0101 23.3048 60.7629 23.2174C60.5156 23.1299 60.3179 23.01 60.1695 22.8579C60.025 22.7019 59.9413 22.5213 59.9185 22.3159L59.9128 22.2588H58.2524L58.2581 22.3501C58.2924 22.837 58.4464 23.2611 58.7203 23.6224C58.998 23.98 59.3783 24.2577 59.8614 24.4555Z" fill="#B1936D"/>
<path fill-rule="evenodd" clip-rule="evenodd" d="M25.4857 11.0841C26.9321 9.80005 28.4657 8.60094 30.0826 7.49655C30.7759 6.41524 31.9329 4.90031 33.7218 3.49948C36.8643 0.948425 42.1374 -1.21071 47.2324 0.777404C47.2823 0.777404 45.2728 2.66575 42.3013 4.46859C39.5306 6.14781 35.958 7.75092 30.8512 8.69964C29.2886 9.76911 27.8063 10.93 26.4081 12.1729C28.9295 12.1652 31.4496 13.1738 33.5793 14.9578V14.965C34.1922 15.4709 34.7979 15.9911 35.3893 16.5184C34.7337 16.7607 34.0782 17.0315 33.4297 17.3165C30.672 18.5136 27.0877 18.3569 23.2041 16.9317C22.8452 16.7966 22.4862 16.6639 22.1258 16.5353C21.4796 17.2894 20.8586 18.0639 20.2634 18.8575C22.6715 18.392 25.2747 18.9023 27.6658 20.2238H27.6729C28.3641 20.6015 29.0482 20.9863 29.7251 21.3853C29.1479 21.7416 28.5779 22.1193 28.022 22.5112C25.642 24.1715 22.1432 24.6917 18.1029 24.0504C17.7331 23.9874 17.3608 23.9268 16.9875 23.8702C16.5064 24.721 16.0515 25.5874 15.6232 26.4681C17.8728 25.5622 20.495 25.5644 23.0695 26.3877L23.0623 26.3806C23.8106 26.6158 24.5445 26.8652 25.2785 27.1217C24.7939 27.5778 24.3165 28.0481 23.8533 28.5326C21.8723 30.592 18.5588 31.7677 14.4899 31.9174C14.1139 31.9301 13.7379 31.9452 13.3618 31.9629C13.0487 32.881 12.7626 33.8102 12.504 34.7493C14.5463 33.4209 17.1151 32.9131 19.7907 33.2214H19.7835C20.5531 33.3069 21.3227 33.4067 22.0852 33.5135C21.7004 34.048 21.3227 34.5895 20.9593 35.1525C19.3987 37.5254 16.3631 39.3211 12.394 40.2617C12.0216 40.3473 11.6517 40.4355 11.2813 40.5278C11.1377 41.4871 11.0219 42.4534 10.9343 43.4255C12.7088 41.7293 15.1409 40.7332 17.8238 40.5112L17.8167 40.504C18.5863 40.4399 19.3558 40.3829 20.1254 40.3401C19.8404 40.9387 19.5696 41.5444 19.3131 42.1643C18.2086 44.7938 15.5293 47.1453 11.7953 48.8484C11.4472 49.0055 11.0991 49.1651 10.7525 49.3272C10.7796 50.2933 10.8346 51.2626 10.9179 52.2338C12.3685 50.22 14.5833 48.767 17.176 48.0218V48.0289C17.9171 47.8152 18.6653 47.6085 19.4135 47.4161C19.2354 48.0574 19.0715 48.7059 18.929 49.3615C18.2948 52.1548 16.0715 54.998 12.701 57.4137C12.388 57.6336 12.075 57.856 11.7635 58.0825C11.9598 59.0445 12.1823 59.9935 12.4304 60.9289C13.4993 58.65 15.4219 56.7787 17.8466 55.5324V55.5396C18.5449 55.1761 19.2432 54.827 19.9416 54.4921C19.8774 55.1548 19.8347 55.8246 19.8062 56.5016C19.6708 59.3804 17.9891 62.6227 15.1102 65.6796C14.8373 65.9656 14.5643 66.2568 14.293 66.5501C14.66 67.4648 15.0536 68.3631 15.4732 69.2444C16.1023 66.7706 17.6611 64.5295 19.8272 62.8151L19.8201 62.8222C20.4401 62.3305 21.0671 61.846 21.6942 61.3757C21.7512 62.0455 21.8296 62.7153 21.9222 63.3923C22.307 66.2711 21.2667 69.8198 19.0078 73.4184C18.7922 73.7546 18.5793 74.0934 18.369 74.4348C18.9098 75.271 19.4768 76.0873 20.0693 76.883C20.2043 74.2972 21.3182 71.765 23.1259 69.6415V69.6487C23.639 69.0358 24.1592 68.4373 24.6936 67.8458C24.8789 68.5014 25.0855 69.1499 25.3064 69.8054C26.2399 72.5916 25.9264 76.3327 24.4228 80.3517L24.4227 80.3521L24.4225 80.3527C24.2814 80.7289 24.1403 81.1051 24.0023 81.4828C24.7103 82.206 25.4432 82.9059 26.2004 83.5818C25.7899 80.9825 26.3778 78.2557 27.7367 75.7912L27.7296 75.7841C28.1215 75.0786 28.5205 74.3803 28.9267 73.6891C29.2402 74.3019 29.5823 74.9147 29.9386 75.5204C31.4492 78.1142 31.9481 81.9123 31.3281 86.2163C31.2639 86.6185 31.2049 87.0208 31.151 87.4245C32.034 88.0183 32.9412 88.5845 33.8718 89.122C32.8571 86.601 32.8446 83.7658 33.6719 81.043V81.0501C33.907 80.2734 34.1565 79.4967 34.413 78.7271C34.869 79.2829 35.3465 79.8245 35.8453 80.3661C37.9545 82.6677 39.3583 86.3731 39.7502 90.7983C39.7847 91.216 39.8217 91.6336 39.863 92.0513C42.0001 92.9221 44.2313 93.6593 46.5485 94.2543C46.9333 94.354 47.1613 94.7388 47.0615 95.1236C46.976 95.4443 46.691 95.6581 46.3703 95.6581C46.3133 95.6581 46.2492 95.6581 46.1922 95.6367C43.8396 95.0329 41.5732 94.2867 39.4008 93.4066C39.0991 93.6971 38.7941 93.9856 38.489 94.2686C35.3536 97.2401 30.5365 98.0595 26.3394 96.1712C25.3703 95.7365 24.4154 95.2804 23.4819 94.803C24.1803 94.3612 24.8715 93.9123 25.5556 93.4491C27.9638 91.8415 30.6045 90.8341 33.2423 90.4126C32.2744 89.8567 31.3308 89.2708 30.4126 88.6558C30.072 88.8781 29.7287 89.0971 29.3828 89.3161C25.8198 91.6106 21.1381 91.5465 17.561 88.974C16.7415 88.3897 15.9292 87.7769 15.1382 87.1427C15.9006 86.8505 16.6489 86.5441 17.3971 86.2234C20.0195 85.1225 22.7331 84.639 25.3004 84.7029C24.5154 84.0046 23.7555 83.2813 23.0217 82.5338C22.6561 82.6836 22.2889 82.8314 21.9217 82.974C18.0523 84.5274 13.6058 83.6082 10.67 80.4586C9.98587 79.7389 9.33029 78.9978 8.68896 78.2353C9.47993 78.0928 10.2709 77.936 11.0547 77.7721C13.793 77.1999 16.4993 77.2387 18.9398 77.7692C18.3329 76.9551 17.7519 76.12 17.1977 75.2647C16.8211 75.3392 16.4429 75.4098 16.0648 75.4777C12.0102 76.2544 7.89145 74.53 5.62543 70.9172C5.10524 70.0906 4.5993 69.2426 4.11475 68.3804C4.91997 68.3875 5.71806 68.3875 6.51616 68.3804C9.29319 68.3558 11.9219 68.9086 14.1922 69.8836C13.7633 68.9826 13.3606 68.0643 12.985 67.1294C12.6089 67.1309 12.2313 67.1275 11.8537 67.1191C7.75637 67.0906 4.05093 64.625 2.47612 60.663C2.10558 59.7581 1.76353 58.8317 1.44287 57.8982L1.4433 57.8983C2.227 58.0622 3.0107 58.226 3.7944 58.3685C6.5285 58.8858 9.01249 59.9405 11.0624 61.335C10.8072 60.3741 10.5782 59.3993 10.3761 58.4111C9.99907 58.3364 9.62201 58.2575 9.24494 58.1761C5.23309 57.3495 2.03358 54.2213 1.17848 50.0313C0.971832 49.0693 0.800812 48.1002 0.644043 47.1168C1.38513 47.4375 2.12622 47.7439 2.87443 48.0432C5.47635 49.0913 7.7315 50.6143 9.5014 52.3813C9.41453 51.3737 9.35734 50.3681 9.32932 49.3658C8.97503 49.2202 8.62027 49.0724 8.26802 48.9197C4.46282 47.3235 1.86189 43.6251 1.74787 39.3354C1.71937 38.3449 1.71224 37.3544 1.73362 36.3568C2.41058 36.82 3.08041 37.2689 3.76449 37.7107C6.1339 39.2493 8.08873 41.1918 9.51879 43.2721C9.60944 42.2714 9.72921 41.2767 9.87756 40.2892C9.55473 40.0774 9.23441 39.8621 8.91662 39.6418C5.46058 37.3259 3.54373 33.1715 4.19931 28.9031C4.34895 27.9269 4.51997 26.9435 4.71949 25.9601C5.29669 26.5516 5.88101 27.1288 6.47245 27.6989C8.53086 29.6833 10.1042 31.9929 11.1419 34.3326C11.409 33.3652 11.7046 32.408 12.028 31.4622C11.7449 31.1853 11.4629 30.9042 11.1836 30.6205C8.20495 27.649 7.06481 23.1597 8.51136 19.0552C8.83915 18.1146 9.19544 17.1669 9.58024 16.2334C10.0363 16.9317 10.4995 17.6229 10.9769 18.2999C12.6371 20.6848 13.7587 23.3013 14.3465 25.8357C14.7927 24.9184 15.267 24.016 15.7689 23.1302C15.5375 22.7935 15.3095 22.4542 15.0815 22.1122C12.7015 18.5778 12.4307 13.8961 14.6967 10.0909C15.2098 9.21438 15.7585 8.35216 16.3357 7.48993C16.6492 8.27377 16.9699 9.05049 17.3048 9.82008C18.4662 12.5281 19.043 15.3551 19.1248 17.9993C19.7472 17.1694 20.3969 16.3597 21.0735 15.5717C20.91 15.1893 20.7503 14.8041 20.596 14.4163C18.95 10.4329 19.6412 5.72274 22.7481 2.35222C23.4535 1.5755 24.2017 0.813034 24.9713 0.0648194C25.1067 0.912795 25.2635 1.74652 25.4274 2.58024C25.9977 5.50645 25.964 8.43806 25.4857 11.0841ZM166.884 12.173C164.361 12.1639 161.839 13.1726 159.708 14.9578V14.965C159.095 15.4709 158.489 15.9911 157.898 16.5184C158.554 16.7607 159.209 17.0315 159.858 17.3165C162.615 18.5136 166.2 18.3569 170.083 16.9317C170.443 16.7963 170.803 16.6633 171.164 16.5344C171.81 17.2889 172.431 18.0639 173.027 18.8579C170.618 18.3917 168.014 18.9019 165.622 20.2238H165.615C164.924 20.6015 164.24 20.9863 163.563 21.3853C164.14 21.7416 164.71 22.1193 165.266 22.5112C167.646 24.1715 171.145 24.6917 175.185 24.0504C175.555 23.9873 175.928 23.9267 176.301 23.8701C176.782 24.7208 177.237 25.5872 177.665 26.4679C175.416 25.5622 172.794 25.5644 170.219 26.3877L170.226 26.3806C169.478 26.6158 168.744 26.8652 168.01 27.1217C168.495 27.5778 168.972 28.0481 169.435 28.5326C171.416 30.592 174.73 31.7677 178.799 31.9174C179.174 31.9301 179.55 31.9452 179.926 31.9629C180.239 32.8811 180.525 33.8106 180.784 34.7499C178.741 33.421 176.172 32.9131 173.496 33.2214H173.503C172.734 33.3069 171.964 33.4067 171.202 33.5135C171.586 34.048 171.964 34.5895 172.328 35.1525C173.888 37.5254 176.924 39.3211 180.893 40.2617C181.265 40.3474 181.635 40.4356 182.006 40.528C182.15 41.4873 182.265 42.4536 182.353 43.4257C180.578 41.7293 178.146 40.7332 175.463 40.5112L175.47 40.504C174.701 40.4399 173.931 40.3829 173.162 40.3401C173.447 40.9387 173.717 41.5444 173.974 42.1643C175.078 44.7938 177.758 47.1453 181.492 48.8484C181.84 49.0055 182.188 49.1651 182.535 49.3272C182.508 50.293 182.453 51.2618 182.369 52.2326C180.919 50.2195 178.704 48.7668 176.112 48.0218V48.0289C175.371 47.8152 174.623 47.6085 173.875 47.4161C174.053 48.0574 174.217 48.7059 174.359 49.3615C174.993 52.1548 177.217 54.998 180.587 57.4137C180.9 57.6335 181.213 57.8559 181.524 58.0823C181.328 59.0443 181.106 59.9933 180.858 60.9286C179.789 58.6499 177.867 56.7787 175.442 55.5324V55.5396C174.744 55.1761 174.046 54.827 173.347 54.4921C173.411 55.1548 173.454 55.8246 173.483 56.5016C173.625 59.3804 175.3 62.6227 178.178 65.6796C178.452 65.9659 178.725 66.2573 178.996 66.5509C178.63 67.4657 178.236 68.3641 177.816 69.2455C177.187 66.7713 175.628 64.5297 173.462 62.8151L173.469 62.8222C172.849 62.3305 172.222 61.846 171.595 61.3757C171.538 62.0455 171.46 62.7153 171.367 63.3923C170.982 66.2711 172.023 69.8198 174.281 73.4184C174.497 73.7548 174.71 74.0939 174.921 74.4356C174.379 75.2729 173.811 76.0902 173.218 76.8868C173.084 74.2997 171.97 71.766 170.161 69.6415V69.6487C169.648 69.0358 169.128 68.4373 168.594 67.8458C168.408 68.5014 168.202 69.1499 167.981 69.8054C167.047 72.5916 167.361 76.3327 168.864 80.3517C169.006 80.7288 169.147 81.106 169.286 81.4847C168.577 82.2078 167.844 82.9076 167.087 83.5834C167.498 80.9836 166.91 78.2562 165.551 75.7912L165.558 75.7841C165.166 75.0786 164.767 74.3803 164.361 73.6891C164.048 74.3019 163.706 74.9147 163.349 75.5204C161.839 78.1142 161.34 81.9123 161.96 86.2163C162.024 86.6187 162.083 87.0211 162.137 87.425C161.257 88.0167 160.353 88.581 159.425 89.1168C160.438 86.5971 160.45 83.7639 159.623 81.043V81.0501C159.388 80.2734 159.139 79.4967 158.882 78.7271C158.426 79.2829 157.949 79.8245 157.45 80.3661C155.34 82.6677 153.937 86.3731 153.545 90.7983C153.51 91.2149 153.473 91.6315 153.432 92.0481C151.293 92.9203 149.059 93.6586 146.739 94.2543C146.361 94.354 146.126 94.7388 146.226 95.1236C146.311 95.4443 146.596 95.6581 146.917 95.6581H146.924C146.981 95.6581 147.045 95.6509 147.102 95.6367C149.454 95.0327 151.721 94.2863 153.893 93.4058C154.195 93.6966 154.501 93.9854 154.806 94.2686C157.941 97.2401 162.758 98.0595 166.956 96.1712C167.925 95.7365 168.88 95.2804 169.813 94.803C169.115 94.3612 168.424 93.9123 167.739 93.4491C165.33 91.841 162.689 90.8333 160.05 90.4121C161.017 89.8567 161.959 89.2713 162.877 88.6569C163.217 88.8788 163.56 89.0975 163.905 89.3161C167.468 91.6106 172.15 91.5465 175.727 88.974C176.546 88.3897 177.359 87.7769 178.15 87.1427C177.387 86.8505 176.639 86.5441 175.891 86.2234C173.27 85.123 170.557 84.6394 167.991 84.7028C168.776 84.0049 169.535 83.2821 170.269 82.535C170.633 82.6845 170.999 82.8318 171.366 82.974C175.235 84.5274 179.681 83.6082 182.617 80.4586C183.301 79.7389 183.957 78.9978 184.598 78.2353C183.807 78.0928 183.016 77.936 182.232 77.7721C179.496 77.2003 176.792 77.2386 174.353 77.7679C174.96 76.9544 175.54 76.1199 176.094 75.2653C176.47 75.3396 176.847 75.4099 177.224 75.4777C181.279 76.2544 185.398 74.53 187.664 70.9172C188.184 70.0906 188.69 69.2426 189.175 68.3804C188.369 68.3875 187.571 68.3875 186.773 68.3804C183.998 68.3558 181.371 68.9078 179.102 69.8814C179.531 68.9811 179.933 68.0635 180.309 67.1294C180.683 67.1309 181.059 67.1274 181.435 67.1191C185.532 67.0906 189.238 64.625 190.813 60.663C191.183 59.7581 191.525 58.8317 191.846 57.8982L191.845 57.8983C191.062 58.0622 190.278 58.226 189.494 58.3685C186.763 58.8852 184.282 59.9383 182.233 61.3305C182.488 60.3707 182.716 59.3969 182.918 58.4098C183.293 58.3355 183.668 58.2571 184.043 58.1761C188.055 57.3495 191.254 54.2213 192.11 50.0313C192.316 49.0693 192.487 48.1002 192.644 47.1168C191.903 47.4375 191.162 47.7439 190.414 48.0432C187.815 49.09 185.562 50.6105 183.793 52.3746C183.88 51.3683 183.937 50.364 183.965 49.363C184.317 49.2182 184.669 49.0714 185.019 48.9197C188.824 47.3235 191.425 43.6251 191.539 39.3354C191.568 38.3449 191.575 37.3544 191.553 36.3568C190.876 36.82 190.207 37.2689 189.523 37.7107C187.156 39.2473 185.203 41.1868 183.774 43.264C183.683 42.2648 183.563 41.2715 183.415 40.2855C183.736 40.0749 184.054 39.8608 184.37 39.6418C187.826 37.3259 189.743 33.1715 189.088 28.9031C188.938 27.9269 188.767 26.9435 188.567 25.9601C187.99 26.5516 187.406 27.1288 186.814 27.6989C184.758 29.6812 183.186 31.9879 182.148 34.3251C181.881 33.3594 181.586 32.4039 181.263 31.4599C181.545 31.1837 181.827 30.9034 182.105 30.6205C185.084 27.649 186.224 23.1597 184.777 19.0552C184.45 18.1146 184.093 17.1669 183.708 16.2334C183.252 16.9317 182.789 17.6229 182.312 18.2999C180.652 20.6837 179.531 23.2988 178.943 25.8321C178.497 24.9151 178.023 24.0132 177.521 23.1277C177.752 22.7919 177.979 22.4534 178.207 22.1122C180.587 18.5778 180.857 13.8961 178.591 10.0909C178.078 9.21438 177.53 8.35216 176.952 7.48993C176.639 8.27377 176.318 9.05049 175.983 9.82008C174.822 12.5267 174.246 15.3523 174.163 17.9954C173.541 17.1657 172.892 16.3562 172.215 15.5685C172.378 15.1871 172.537 14.8031 172.691 14.4163C174.337 10.4329 173.646 5.72274 170.539 2.35222C169.834 1.5755 169.086 0.813034 168.316 0.0648194C168.181 0.912795 168.024 1.74652 167.86 2.58024C167.29 5.50444 167.323 8.43403 167.801 11.0787C166.353 9.79354 164.818 8.59355 163.2 7.48851C162.506 6.40774 161.35 4.89684 159.566 3.49948C156.423 0.948425 151.15 -1.21071 146.055 0.777404C146.005 0.777404 148.015 2.66575 150.986 4.46859C153.759 6.1488 157.334 7.75281 162.445 8.70132C164.006 9.77032 165.487 10.9307 166.884 12.173ZM149.435 53.7695C149.435 54.529 149.323 55.2204 149.099 55.8436C148.875 56.4668 148.515 57.0218 148.018 57.5087C147.531 57.9956 146.889 58.4094 146.09 58.7502C145.301 59.0813 144.337 59.3345 143.198 59.5098C142.069 59.685 140.744 59.7727 139.225 59.7727C137.696 59.7727 136.367 59.685 135.238 59.5098C134.108 59.3345 133.154 59.0813 132.375 58.7502C131.596 58.4094 130.963 57.9956 130.476 57.5087C129.989 57.0218 129.639 56.4668 129.424 55.8436C129.21 55.2204 129.103 54.529 129.103 53.7695C129.103 53.0002 129.22 52.3089 129.454 51.6954C129.697 51.082 130.072 50.5464 130.578 50.0887C131.094 49.6213 131.752 49.2367 132.55 48.9348C133.349 48.6232 134.298 48.3895 135.398 48.2337C136.508 48.0779 137.784 48 139.225 48C141.027 48 142.575 48.1217 143.87 48.3652C145.165 48.5989 146.222 48.9592 147.039 49.446C147.857 49.9329 148.461 50.5367 148.851 51.2572C149.24 51.9681 149.435 52.8055 149.435 53.7695ZM139.24 56.238C139.99 56.238 140.622 56.1844 141.139 56.0773C141.655 55.9702 142.068 55.8144 142.38 55.6099C142.692 55.3957 142.916 55.1376 143.052 54.8358C143.198 54.5242 143.271 54.1687 143.271 53.7695C143.271 53.3703 143.198 53.0246 143.052 52.7325C142.916 52.4306 142.687 52.1774 142.366 51.9729C142.054 51.7684 141.64 51.6175 141.124 51.5201C140.618 51.4228 139.99 51.3741 139.24 51.3741C138.49 51.3741 137.857 51.4228 137.341 51.5201C136.825 51.6175 136.406 51.7684 136.085 51.9729C135.773 52.1774 135.549 52.4306 135.413 52.7325C135.277 53.0246 135.208 53.3703 135.208 53.7695C135.208 54.1687 135.277 54.5242 135.413 54.8358C135.549 55.1376 135.773 55.3957 136.085 55.6099C136.406 55.8144 136.825 55.9702 137.341 56.0773C137.857 56.1844 138.49 56.238 139.24 56.238ZM108.435 56.9537C108.425 57.8203 108.42 58.6236 108.42 59.3637H113.533C113.523 59.2274 113.513 59.0472 113.503 58.8233C113.503 58.5896 113.499 58.3218 113.489 58.0199C113.489 57.7083 113.484 57.3578 113.474 56.9683C113.474 56.5788 113.469 56.1552 113.46 55.6975C113.45 55.2593 113.435 54.8406 113.416 54.4414C113.396 54.0324 113.372 53.6234 113.343 53.2145L113.341 53.1738C113.339 53.1436 113.337 53.1132 113.336 53.0828L113.372 53.0729C113.563 53.3148 113.768 53.5568 113.985 53.7987L114.456 54.2856L114.818 54.6605C115.188 54.9429 115.597 55.2593 116.045 55.6099C116.503 55.9507 116.965 56.3012 117.432 56.6615C117.91 57.0218 118.362 57.3724 118.791 57.7132C119.219 58.054 119.589 58.3705 119.901 58.6626C120.222 58.945 120.456 59.1787 120.602 59.3637H126.941C126.922 58.6431 126.907 57.8544 126.897 56.9975V53.8717V52.2212V50.7606C126.907 50.3029 126.917 49.8794 126.927 49.4899C126.936 49.0906 126.951 48.7303 126.97 48.409H121.902C121.912 48.5453 121.921 48.7157 121.931 48.9202C121.941 49.1247 121.951 49.3584 121.96 49.6213C121.97 49.8745 121.975 50.1471 121.975 50.4393C121.985 50.7314 121.994 51.0381 122.004 51.3595C122.014 51.6808 122.019 52.0119 122.019 52.3527C122.019 52.6253 122.024 52.9321 122.033 53.2729C122.053 53.6137 122.077 53.974 122.106 54.3537L122.111 54.4166L122.077 54.4343C121.917 54.2217 121.742 54.0244 121.551 53.8425L120.909 53.1998C120.636 52.9954 120.315 52.7519 119.945 52.4695C119.584 52.1774 119.2 51.8707 118.791 51.5493C118.392 51.2183 117.992 50.8921 117.593 50.5707C117.204 50.2494 116.838 49.9427 116.498 49.6505C116.157 49.3584 115.87 49.1052 115.636 48.891C115.412 48.6768 115.266 48.5161 115.198 48.409H108.42C108.44 48.9153 108.45 49.446 108.45 50.0011C108.459 50.5464 108.464 51.1355 108.464 51.7684V53.8863C108.464 55.0548 108.454 56.0773 108.435 56.9537ZM105.547 59.3637H99.5435C99.5629 58.9352 99.5727 58.5165 99.5727 58.1075C99.5824 57.6986 99.5873 57.2799 99.5873 56.8514C99.597 56.423 99.6019 55.9702 99.6019 55.493V53.8863V52.2943C99.6019 51.8074 99.597 51.3497 99.5873 50.9213C99.5873 50.4928 99.5824 50.0741 99.5727 49.6651C99.5727 49.2562 99.5629 48.8374 99.5435 48.409H105.547C105.537 48.8277 105.527 49.2416 105.517 49.6505C105.517 50.0595 105.513 50.4782 105.503 50.9067V52.265V53.8717V55.4638C105.513 55.9507 105.517 56.4084 105.517 56.8368C105.527 57.2653 105.532 57.684 105.532 58.0929C105.542 58.5019 105.547 58.9255 105.547 59.3637ZM89.8877 56.7492C89.4592 56.7784 88.8944 56.793 88.1933 56.793C87.3267 56.793 86.6499 56.7638 86.1631 56.7053C85.6859 56.6372 85.35 56.5349 85.1552 56.3986C84.9605 56.2525 84.8631 56.0724 84.8631 55.8582V55.7851V55.7267C84.6294 55.7365 84.3568 55.7462 84.0452 55.7559H83.0665C82.4628 55.7559 81.8542 55.7413 81.2408 55.7121C80.6273 55.6829 80.0869 55.6537 79.6195 55.6245L79.5902 55.9166L79.561 56.1795V56.4424C79.561 56.9098 79.6487 57.3237 79.8239 57.684C79.9992 58.0443 80.2914 58.3559 80.7003 58.6188C81.1093 58.8719 81.6595 59.0813 82.3508 59.2468C83.0422 59.4026 83.8942 59.5195 84.9069 59.5974C85.9196 59.6753 87.1222 59.7142 88.5147 59.7142C89.8682 59.7142 91.0367 59.6704 92.0202 59.5828C93.0134 59.4951 93.8508 59.3588 94.5324 59.1738C95.2141 58.979 95.7545 58.7356 96.1537 58.4435C96.5627 58.1416 96.8548 57.7862 97.0301 57.3772C97.2151 56.9585 97.3076 56.4862 97.3076 55.9604C97.3076 55.3275 97.1908 54.7968 96.9571 54.3683C96.7234 53.9302 96.329 53.5747 95.774 53.3021C95.2287 53.0294 94.4838 52.8249 93.5392 52.6886C92.5947 52.5426 91.4116 52.4403 89.9899 52.3819C89.133 52.3429 88.4222 52.304 87.8574 52.265C87.2926 52.2164 86.8447 52.1677 86.5136 52.119C86.1825 52.0703 85.9342 52.0167 85.7687 51.9583C85.6129 51.8901 85.5107 51.822 85.462 51.7538C85.423 51.6759 85.4035 51.5883 85.4035 51.4909C85.4035 51.3935 85.4376 51.3059 85.5058 51.228C85.5837 51.1501 85.7297 51.0868 85.944 51.0381C86.1582 50.9894 86.4698 50.9505 86.8788 50.9213C87.2877 50.8921 87.8184 50.8774 88.4708 50.8774C89.1817 50.8774 89.7562 50.8921 90.1944 50.9213C90.6326 50.9505 90.9636 51.004 91.1876 51.0819C91.4213 51.1501 91.5771 51.2426 91.655 51.3595C91.7329 51.4763 91.7719 51.6175 91.7719 51.783V51.8999V52.0167C92.0056 51.9973 92.2977 51.9875 92.6482 51.9875C93.0085 51.9778 93.3883 51.9729 93.7875 51.9729C94.1673 51.9729 94.5519 51.9778 94.9414 51.9875C95.3407 51.9973 95.7156 52.0119 96.0661 52.0313C96.4264 52.0411 96.7331 52.0557 96.9863 52.0752C96.996 51.9875 97.0009 51.9096 97.0009 51.8415V51.6078V51.3887C97.0009 50.8921 96.9133 50.4587 96.738 50.0887C96.5724 49.709 96.2901 49.3925 95.8908 49.1393C95.5013 48.8764 94.9706 48.667 94.2987 48.5112C93.6366 48.3554 92.804 48.2435 91.8011 48.1753C90.7981 48.0974 89.6053 48.0584 88.2225 48.0584C86.6548 48.0584 85.3208 48.1315 84.2204 48.2775C83.1201 48.4236 82.2291 48.6476 81.5475 48.9494C80.8659 49.2513 80.3644 49.6408 80.043 50.1179C79.7314 50.5853 79.5756 51.1501 79.5756 51.8122C79.5756 52.2602 79.6438 52.6643 79.7801 53.0246C79.9165 53.3849 80.1453 53.6965 80.4666 53.9594C80.788 54.2125 81.2359 54.4268 81.8104 54.602C82.3946 54.7773 83.125 54.9185 84.0013 55.0256C84.8875 55.1327 85.9537 55.2058 87.2001 55.2447C87.9986 55.2642 88.6559 55.2934 89.172 55.3324C89.688 55.3713 90.0921 55.4151 90.3843 55.4638C90.6861 55.5125 90.9101 55.5709 91.0562 55.6391C91.2022 55.7072 91.2947 55.7851 91.3337 55.8728C91.3824 55.9507 91.4067 56.0383 91.4067 56.1357C91.4067 56.2428 91.3678 56.3353 91.2899 56.4132C91.212 56.4911 91.0659 56.5593 90.8517 56.6177C90.6374 56.6761 90.3161 56.7199 89.8877 56.7492ZM64.6449 58.3997C64.7568 58.1059 64.8838 57.7896 65.0258 57.4506C65.113 57.4504 65.2002 57.4503 65.2876 57.4503C65.8329 57.4405 66.3539 57.4357 66.8505 57.4357H68.165H69.4942C69.9908 57.4357 70.5069 57.4405 71.0425 57.4503C71.1398 57.4503 71.2372 57.4504 71.3345 57.4507L71.3784 57.5671C71.5245 57.9566 71.6462 58.3072 71.7436 58.6188C71.8507 58.9206 71.9188 59.1689 71.9481 59.3637H79.0175C78.7643 58.9547 78.4819 58.4873 78.1703 57.9615C77.8685 57.4259 77.552 56.8563 77.2209 56.2526C76.8898 55.6488 76.5539 55.0354 76.2131 54.4122C75.882 53.7792 75.5607 53.1609 75.2491 52.5572C74.9472 51.9534 74.66 51.3838 74.3873 50.8482C74.1244 50.3127 73.8956 49.8355 73.7008 49.4168C73.5061 48.9981 73.3551 48.6622 73.248 48.409H63.4764C63.3791 48.6622 63.233 48.9981 63.0382 49.4168C62.8532 49.8355 62.6293 50.3127 62.3664 50.8482C62.1034 51.3838 61.8162 51.9583 61.5046 52.5718C61.2027 53.1755 60.8911 53.7938 60.5698 54.4268C60.2485 55.05 59.9271 55.6634 59.6058 56.2672C59.2844 56.8611 58.9728 57.4259 58.671 57.9615C58.3691 58.497 58.0965 58.9644 57.853 59.3637H64.3236C64.3918 59.1202 64.4989 58.7989 64.6449 58.3997ZM66.1914 54.8124C66.3887 54.8146 66.5841 54.8176 66.7775 54.8211H68.1796H69.5234C69.7656 54.8166 70.0098 54.8131 70.2563 54.8106C70.0696 54.3865 69.8788 53.9665 69.6841 53.5504C69.4699 53.0927 69.2605 52.6545 69.056 52.2358C68.8515 51.8561 68.6714 51.5007 68.5156 51.1696C68.402 50.912 68.3001 50.675 68.21 50.4587C68.1159 50.6711 68.0132 50.9032 67.9021 51.155C67.7561 51.486 67.5808 51.8512 67.3763 52.2504C67.1426 52.7568 66.8992 53.2826 66.646 53.8279C66.4944 54.1543 66.3429 54.4825 66.1914 54.8124ZM51.2256 52.9808V53.0538C51.508 53.044 51.8147 53.0392 52.1458 53.0392C52.4769 53.0294 52.8128 53.0246 53.1536 53.0246H54.1615H55.5929C56.0798 53.0246 56.5618 53.0343 57.0389 53.0538C57.0584 52.9467 57.0681 52.8444 57.0681 52.7471C57.0778 52.6399 57.0827 52.5328 57.0827 52.4257C57.0925 52.3186 57.0973 52.2212 57.0973 52.1336C57.0973 51.4812 56.9707 50.9213 56.7176 50.4539C56.4644 49.9865 56.0798 49.6067 55.5637 49.3146C55.0573 49.0127 54.4146 48.779 53.6356 48.6135C52.8664 48.4382 51.9657 48.3165 50.9335 48.2483C49.911 48.1802 48.7572 48.1461 47.4718 48.1461C46.167 48.1461 44.9887 48.2045 43.9371 48.3214C42.8854 48.4382 41.9604 48.6281 41.1619 48.891C40.3634 49.1539 39.6964 49.4996 39.1608 49.928C38.6253 50.3565 38.2212 50.8823 37.9485 51.5055C37.6759 52.1287 37.5396 52.859 37.5396 53.6965C37.5396 54.5436 37.6515 55.2934 37.8755 55.9458C38.0995 56.5885 38.4549 57.1435 38.9417 57.6109C39.4286 58.0783 40.0567 58.463 40.826 58.7648C41.605 59.057 42.5446 59.2712 43.645 59.4075C44.7453 59.5536 46.0307 59.6266 47.501 59.6266C48.9714 59.6266 50.247 59.5682 51.3279 59.4513C52.4087 59.3345 53.3192 59.1543 54.0592 58.9109C54.809 58.6675 55.4079 58.3656 55.8558 58.0053C56.3134 57.645 56.6397 57.2166 56.8344 56.72C57.0389 56.2233 57.1411 55.6586 57.1411 55.0256C57.1411 54.9477 57.1363 54.8747 57.1265 54.8065C57.1265 54.7286 57.1217 54.6507 57.1119 54.5728V54.3245L55.6513 54.3537H54.1907H53.1828H52.1458C51.8147 54.344 51.508 54.3343 51.2256 54.3245V54.4852V54.6313C51.2256 54.9234 51.1136 55.1766 50.8897 55.3908C50.6657 55.5953 50.2957 55.7511 49.7796 55.8582C49.2635 55.9653 48.5575 56.0189 47.6617 56.0189C47.0969 56.0189 46.5954 55.9896 46.1572 55.9312C45.7191 55.8631 45.3393 55.7657 45.018 55.6391C44.7064 55.5125 44.4483 55.3567 44.2438 55.1717C44.0393 54.9769 43.8884 54.7627 43.791 54.529C43.6936 54.2856 43.645 54.0129 43.645 53.7111C43.645 53.38 43.6888 53.0927 43.7764 52.8493C43.8738 52.5961 44.0199 52.3868 44.2146 52.2212C44.4094 52.046 44.6577 51.9048 44.9595 51.7976C45.2614 51.6905 45.6265 51.6126 46.055 51.5639C46.4932 51.5153 46.9898 51.4812 47.5448 51.4617C48.4115 51.4617 49.1126 51.5104 49.6481 51.6078C50.1837 51.6954 50.5781 51.8415 50.8312 52.046C51.0942 52.2504 51.2256 52.5182 51.2256 52.8493V52.9223V52.9808ZM135.564 39.8582V38.8796H136.908C137.628 38.8796 138.373 38.8844 139.143 38.8942C139.922 38.8942 140.686 38.899 141.436 38.9088C142.195 38.9185 142.906 38.9283 143.568 38.938C144.24 38.938 144.815 38.9429 145.292 38.9526V38.1785C145.292 37.8669 145.297 37.5601 145.306 37.2583C145.316 36.9564 145.321 36.7081 145.321 36.5134C144.824 36.5231 144.24 36.5328 143.568 36.5426C142.906 36.5523 142.195 36.562 141.436 36.5718H139.157H136.922H135.564V35.8707V35.155H136.543C137.215 35.155 137.935 35.1598 138.704 35.1696H141.056C141.854 35.1696 142.633 35.1744 143.393 35.1842H145.482C145.472 35.0186 145.462 34.8093 145.452 34.5561V33.7966V33.0517C145.462 32.7985 145.472 32.5843 145.482 32.409H129.502C129.532 32.7888 129.546 33.1783 129.546 33.5775C129.556 33.9767 129.561 34.4003 129.561 34.8482C129.571 35.2962 129.575 35.7684 129.575 36.265C129.585 36.7617 129.59 37.3021 129.59 37.8863C129.59 38.6653 129.585 39.3762 129.575 40.0189C129.575 40.6518 129.571 41.2409 129.561 41.7862C129.551 42.3315 129.532 42.8573 129.502 43.3637H145.482C145.472 43.1592 145.462 42.9255 145.452 42.6626V41.8738V41.0267C145.462 40.7443 145.472 40.5057 145.482 40.311C144.907 40.311 144.25 40.3158 143.51 40.3256H141.187C140.379 40.3256 139.576 40.3305 138.777 40.3402H136.572H135.564V39.8582ZM108.148 40.9537C108.138 41.8203 108.133 42.6236 108.133 43.3637H113.245C113.236 43.2274 113.226 43.0472 113.216 42.8233C113.216 42.5896 113.211 42.3218 113.202 42.0199C113.202 41.7083 113.197 41.3578 113.187 40.9683C113.187 40.5788 113.182 40.1552 113.172 39.6975C113.163 39.2593 113.148 38.8406 113.129 38.4414C113.109 38.0324 113.085 37.6234 113.056 37.2145C113.054 37.1707 113.051 37.1269 113.049 37.0828L113.085 37.0729C113.276 37.3148 113.481 37.5568 113.698 37.7987C113.971 38.0811 114.248 38.3683 114.531 38.6605C114.901 38.9429 115.31 39.2593 115.758 39.6099C116.215 39.9507 116.678 40.3012 117.145 40.6615C117.622 41.0218 118.075 41.3724 118.504 41.7132C118.932 42.054 119.302 42.3705 119.614 42.6626C119.935 42.945 120.169 43.1787 120.315 43.3637H126.654C126.635 42.6431 126.62 41.8544 126.61 40.9975V37.8717V36.2212V34.7606C126.62 34.3029 126.63 33.8794 126.639 33.4899C126.649 33.0906 126.664 32.7303 126.683 32.409H121.615C121.625 32.5453 121.634 32.7157 121.644 32.9202C121.654 33.1247 121.664 33.3584 121.673 33.6213C121.683 33.8745 121.688 34.1471 121.688 34.4393C121.698 34.7314 121.707 35.0381 121.717 35.3595C121.727 35.6808 121.732 36.0119 121.732 36.3527C121.732 36.6253 121.737 36.9321 121.746 37.2729C121.766 37.6137 121.79 37.974 121.819 38.3537L121.824 38.4166L121.79 38.4343C121.63 38.2216 121.455 38.0244 121.264 37.8425L120.622 37.1998C120.349 36.9954 120.028 36.7519 119.658 36.4695C119.297 36.1774 118.913 35.8707 118.504 35.5493C118.104 35.2183 117.705 34.8921 117.306 34.5707C116.917 34.2494 116.551 33.9427 116.211 33.6505C115.87 33.3584 115.582 33.1052 115.349 32.891C115.125 32.6768 114.979 32.5161 114.911 32.409H108.133C108.153 32.9153 108.163 33.446 108.163 34.0011C108.172 34.5464 108.177 35.1355 108.177 35.7684V37.8863C108.177 39.0548 108.167 40.0773 108.148 40.9537ZM105.26 43.3637H99.2563C99.2758 42.9352 99.2856 42.5165 99.2856 42.1075C99.2953 41.6986 99.3002 41.2799 99.3002 40.8514C99.3099 40.423 99.3148 39.9702 99.3148 39.493V37.8863V36.2943C99.3148 35.8074 99.3099 35.3497 99.3002 34.9213C99.3002 34.4928 99.2953 34.0741 99.2856 33.6651C99.2856 33.2562 99.2758 32.8374 99.2563 32.409H105.26C105.25 32.8277 105.24 33.2416 105.23 33.6505C105.23 34.0595 105.225 34.4782 105.216 34.9067V36.265V37.8717V39.4638C105.225 39.9507 105.23 40.4084 105.23 40.8368C105.24 41.2653 105.245 41.684 105.245 42.0929C105.255 42.5019 105.26 42.9255 105.26 43.3637ZM84.6167 43.3637H97.6017L97.5854 42.8156L97.5724 42.3851V41.3918V40.4132C97.5822 40.0724 97.5919 39.7413 97.6017 39.42C96.9395 39.4395 96.2579 39.4541 95.5568 39.4638C94.8557 39.4736 94.1643 39.4784 93.4827 39.4784H91.5401H90.7075V38.9672V38.0032V36.5864C90.7172 36.1092 90.7221 35.6565 90.7221 35.228C90.7318 34.7996 90.7416 34.4052 90.7513 34.0449C90.7611 33.6749 90.7659 33.3535 90.7659 33.0809C90.7757 32.7985 90.7854 32.5745 90.7951 32.409H84.6167C84.6362 32.7595 84.6508 33.2123 84.6605 33.7674C84.6703 34.3127 84.6751 34.9359 84.6751 35.637C84.6849 36.3283 84.6897 37.0781 84.6897 37.8863C84.6897 38.4706 84.6849 39.0354 84.6751 39.5807C84.6751 40.126 84.6703 40.6372 84.6605 41.1143C84.6508 41.5915 84.641 42.0199 84.6313 42.3997C84.6216 42.7794 84.6167 43.1008 84.6167 43.3637ZM63.3198 43.3637C63.3198 42.6236 63.3247 41.8203 63.3344 40.9537C63.3539 40.0773 63.3636 39.0548 63.3636 37.8863V35.7684C63.3636 35.1355 63.3588 34.5464 63.349 34.0011C63.349 33.446 63.3393 32.9153 63.3198 32.409H70.0971C70.1653 32.5161 70.3113 32.6768 70.5353 32.891C70.769 33.1052 71.0563 33.3584 71.3971 33.6505C71.7379 33.9427 72.1031 34.2494 72.4926 34.5707C72.8918 34.8921 73.291 35.2183 73.6903 35.5493C74.0992 35.8707 74.4839 36.1774 74.8442 36.4695C75.2142 36.7519 75.5355 36.9954 75.8082 37.1998L76.4508 37.8425C76.6414 38.0244 76.8165 38.2216 76.9762 38.4343L77.0108 38.4166L77.0059 38.3537C76.9767 37.974 76.9523 37.6137 76.9328 37.2729C76.9231 36.9321 76.9182 36.6253 76.9182 36.3527C76.9182 36.0119 76.9134 35.6808 76.9036 35.3595C76.8939 35.0381 76.8842 34.7314 76.8744 34.4393C76.8744 34.1471 76.8696 33.8745 76.8598 33.6213C76.8501 33.3584 76.8403 33.1247 76.8306 32.9202C76.8209 32.7157 76.8111 32.5453 76.8014 32.409H81.8698C81.8503 32.7303 81.8357 33.0906 81.8259 33.4899C81.8162 33.8794 81.8065 34.3029 81.7967 34.7606V36.2212V37.8717V40.9975C81.8065 41.8544 81.8211 42.6431 81.8405 43.3637H75.5014C75.3554 43.1787 75.1217 42.945 74.8003 42.6626C74.4887 42.3705 74.1187 42.054 73.6903 41.7132C73.2618 41.3724 72.809 41.0218 72.3319 40.6615C71.8645 40.3012 71.4019 39.9507 70.9443 39.6099C70.4964 39.2593 70.0874 38.9429 69.7174 38.6605C69.435 38.3683 69.1575 38.0811 68.8848 37.7987C68.6671 37.5568 68.4627 37.3148 68.2717 37.0729L68.235 37.0828C68.2377 37.1269 68.24 37.1707 68.2421 37.2145C68.2713 37.6234 68.2957 38.0324 68.3152 38.4414C68.3346 38.8406 68.3492 39.2593 68.359 39.6975C68.3687 40.1552 68.3736 40.5788 68.3736 40.9683C68.3833 41.3578 68.3882 41.7083 68.3882 42.0199C68.3979 42.3218 68.4028 42.5896 68.4028 42.8233C68.4125 43.0472 68.4223 43.2274 68.432 43.3637H63.3198ZM60.8011 39.8436C61.0251 39.2204 61.1371 38.529 61.1371 37.7695C61.1371 36.8055 60.9423 35.968 60.5528 35.2572C60.1633 34.5366 59.5596 33.9329 58.7417 33.446C57.9237 32.9591 56.8672 32.5989 55.5721 32.3652C54.277 32.1217 52.7287 32 50.9273 32C49.4862 32 48.2105 32.0779 47.1005 32.2337C46.0001 32.3895 45.0507 32.6232 44.2523 32.9348C43.4538 33.2367 42.7965 33.6213 42.2804 34.0887C41.7741 34.5464 41.3992 35.0819 41.1557 35.6954C40.922 36.3088 40.8052 37.0002 40.8052 37.7695C40.8052 38.529 40.9123 39.2204 41.1265 39.8436C41.3407 40.4668 41.6913 41.0218 42.1782 41.5087C42.665 41.9955 43.298 42.4094 44.077 42.7502C44.856 43.0813 45.8102 43.3344 46.9398 43.5097C48.0694 43.685 49.3985 43.7726 50.9273 43.7726C52.4464 43.7726 53.7707 43.685 54.9002 43.5097C56.0395 43.3344 57.0035 43.0813 57.7922 42.7502C58.5907 42.4094 59.2334 41.9955 59.7203 41.5087C60.2169 41.0218 60.5772 40.4668 60.8011 39.8436ZM52.8407 40.0773C52.3246 40.1844 51.6917 40.2379 50.9419 40.2379C50.1921 40.2379 49.5592 40.1844 49.0431 40.0773C48.527 39.9701 48.1083 39.8143 47.787 39.6099C47.4754 39.3956 47.2514 39.1376 47.1151 38.8357C46.9788 38.5241 46.9106 38.1687 46.9106 37.7695C46.9106 37.3702 46.9788 37.0246 47.1151 36.7324C47.2514 36.4306 47.4754 36.1774 47.787 35.9729C48.1083 35.7684 48.527 35.6175 49.0431 35.5201C49.5592 35.4227 50.1921 35.374 50.9419 35.374C51.6917 35.374 52.3198 35.4227 52.8261 35.5201C53.3422 35.6175 53.7561 35.7684 54.0676 35.9729C54.389 36.1774 54.6178 36.4306 54.7541 36.7324C54.9002 37.0246 54.9732 37.3702 54.9732 37.7695C54.9732 38.1687 54.9002 38.5241 54.7541 38.8357C54.6178 39.1376 54.3939 39.3956 54.0823 39.6099C53.7707 39.8143 53.3568 39.9701 52.8407 40.0773ZM125.612 75.0069V66.7738H129.041C129.664 66.7738 130.195 66.8803 130.633 67.0933C131.074 67.3025 131.408 67.603 131.637 67.9948C131.869 68.3866 131.985 68.8525 131.985 69.3926V69.4041C131.985 69.9328 131.853 70.4082 131.591 70.8304C131.332 71.2488 130.967 71.5512 130.496 71.7376L132.23 75.0069H130.279L128.744 71.9944H128.704H128.664H127.335V75.0069H125.612ZM127.335 70.7392H128.852C129.282 70.7392 129.617 70.625 129.857 70.3968C130.1 70.1648 130.222 69.8453 130.222 69.4383V69.4269C130.222 69.0275 130.098 68.7099 129.851 68.474C129.604 68.2382 129.263 68.1203 128.83 68.1203H127.335V70.7392ZM119.325 66.7738L116.466 75.007H118.275L118.885 73.01H121.791L122.4 75.007H124.214L121.35 66.7738H120.791H120.392H119.325ZM120.392 68.417H120.289L119.279 71.7205H121.398L120.392 68.417ZM109.784 75.0069V66.7738H115.239V68.1945H111.508V70.18H115.028V71.5037H111.508V73.5862H115.239V75.0069H109.784ZM103.788 71.9316V75.007H105.512V71.9316L108.381 66.7738H106.516L104.707 70.2371H104.604L102.79 66.7738H100.924L103.788 71.9316ZM91.2307 75.0069V66.7738H96.6853V68.1945H92.9538V70.18H96.4742V71.5037H92.9538V73.5862H96.6853V75.0069H91.2307ZM82.0784 66.7738V75.0069H83.8015V71.5379H87.5101V75.0069H89.2332V66.7738H87.5101V70.1172H83.8015V66.7738H82.0784ZM76.3614 75.0069V68.1945H73.8909V66.7738H80.555V68.1945H78.0845V75.0069H76.3614ZM64.3687 66.7738V75.007H66.0918V71.7662H69.4409V70.4026H66.0918V68.1945H69.7604V66.7738H64.3687ZM58.7715 75.2181C57.9575 75.2181 57.2538 75.0431 56.6605 74.6931C56.0671 74.3394 55.6087 73.8392 55.2854 73.1926C54.9659 72.546 54.8062 71.7795 54.8062 70.8932V70.8818C54.8062 69.9918 54.9678 69.2253 55.2911 68.5825C55.6182 67.9359 56.0785 67.4376 56.6719 67.0876C57.2653 66.7377 57.9651 66.5627 58.7715 66.5627C59.5817 66.5627 60.2816 66.7377 60.8712 67.0876C61.4645 67.4376 61.9229 67.9359 62.2462 68.5825C62.5695 69.2291 62.7312 69.9956 62.7312 70.8818V70.8932C62.7312 71.7795 62.5695 72.546 62.2462 73.1926C61.9267 73.8392 61.4703 74.3394 60.8769 74.6931C60.2835 75.0431 59.5817 75.2181 58.7715 75.2181ZM58.7715 73.7574C59.2166 73.7574 59.6045 73.6395 59.9355 73.4037C60.2664 73.1679 60.5212 72.835 60.7 72.4052C60.8826 71.9754 60.9739 71.4714 60.9739 70.8932V70.8818C60.9739 70.2999 60.8826 69.7959 60.7 69.3699C60.5212 68.94 60.2664 68.6091 59.9355 68.3771C59.6045 68.1413 59.2166 68.0233 58.7715 68.0233C58.3265 68.0233 57.9385 68.1413 57.6076 68.3771C57.2767 68.6091 57.0199 68.94 56.8373 69.3699C56.6548 69.7959 56.5635 70.2999 56.5635 70.8818V70.8932C56.5635 71.4714 56.6529 71.9754 56.8316 72.4052C57.0142 72.835 57.2691 73.1679 57.5962 73.4037C57.9271 73.6395 58.3189 73.7574 58.7715 73.7574ZM109.265 90.8106H110.8C111.184 90.3427 111.5 89.8273 111.747 89.2644C111.998 88.7052 112.184 88.1043 112.306 87.4614C112.428 86.8186 112.489 86.1396 112.489 85.4245C112.489 84.698 112.428 84.0153 112.306 83.3762C112.184 82.7334 111.998 82.1324 111.747 81.5733C111.5 81.0141 111.184 80.5044 110.8 80.0442H109.265C109.478 80.3104 109.676 80.6452 109.858 81.0484C110.045 81.4478 110.205 81.889 110.338 82.3721C110.475 82.8513 110.581 83.3515 110.657 83.8726C110.733 84.3937 110.771 84.911 110.771 85.4245C110.771 85.9342 110.733 86.4496 110.657 86.9707C110.581 87.4919 110.475 87.9939 110.338 88.477C110.205 88.9601 110.045 89.4013 109.858 89.8007C109.676 90.2001 109.478 90.5367 109.265 90.8106ZM104.843 88.9107C104.223 88.9107 103.679 88.808 103.211 88.6026C102.747 88.3934 102.38 88.1043 102.11 87.7353C101.84 87.3626 101.684 86.9308 101.642 86.4402L101.636 86.366H103.285L103.291 86.4288C103.317 86.6418 103.395 86.8319 103.525 86.9993C103.658 87.1629 103.836 87.2922 104.061 87.3873C104.285 87.4786 104.546 87.5242 104.843 87.5242C105.135 87.5242 105.39 87.4748 105.607 87.3759C105.828 87.2732 105.997 87.1324 106.115 86.9537C106.237 86.7749 106.297 86.5695 106.297 86.3375V86.3261C106.297 85.9305 106.157 85.6281 105.875 85.4189C105.598 85.2097 105.21 85.1051 104.711 85.1051H103.77V83.8784H104.688C104.978 83.8784 105.229 83.8308 105.442 83.7357C105.655 83.6406 105.82 83.5094 105.938 83.342C106.056 83.1709 106.115 82.975 106.115 82.7544V82.743C106.115 82.5147 106.064 82.3188 105.961 82.1553C105.862 81.9879 105.715 81.8605 105.522 81.773C105.331 81.6817 105.101 81.6361 104.831 81.6361C104.561 81.6361 104.323 81.6817 104.118 81.773C103.913 81.8643 103.749 81.9955 103.627 82.1667C103.506 82.3341 103.433 82.5319 103.41 82.7601L103.405 82.8114H101.819L101.824 82.743C101.866 82.2485 102.014 81.8206 102.269 81.4592C102.528 81.0941 102.874 80.8126 103.308 80.6148C103.745 80.4132 104.253 80.3124 104.831 80.3124C105.421 80.3124 105.934 80.4056 106.372 80.592C106.809 80.7745 107.146 81.0313 107.382 81.3622C107.621 81.6893 107.741 82.0735 107.741 82.5147V82.5261C107.741 82.8685 107.665 83.169 107.513 83.4276C107.361 83.6863 107.155 83.8993 106.897 84.0667C106.638 84.234 106.347 84.3519 106.024 84.4204V84.4546C106.636 84.5117 107.127 84.7095 107.496 85.048C107.865 85.3865 108.049 85.8354 108.049 86.3945V86.4059C108.049 86.9042 107.914 87.3416 107.644 87.7182C107.378 88.0948 107.005 88.3877 106.526 88.5969C106.046 88.8061 105.485 88.9107 104.843 88.9107ZM94.2477 87.5698V88.7281H100.187V87.3416H96.5584V87.2124L98.0818 85.7897C98.5839 85.3256 98.9795 84.9205 99.2686 84.5744C99.5576 84.2283 99.763 83.9069 99.8848 83.6102C100.006 83.3097 100.067 83.0035 100.067 82.6916V82.6745C100.067 82.199 99.9437 81.7825 99.6965 81.4249C99.453 81.0674 99.1145 80.7878 98.6809 80.5862C98.2511 80.3846 97.7528 80.2838 97.186 80.2838C96.585 80.2838 96.0563 80.396 95.5999 80.6205C95.1472 80.8449 94.7916 81.1568 94.5329 81.5562C94.2781 81.9556 94.1507 82.4177 94.1507 82.9426L94.1564 82.9711H95.7482V82.9426C95.7482 82.6802 95.8053 82.4519 95.9194 82.2579C96.0335 82.0602 96.1933 81.9061 96.3987 81.7958C96.6041 81.6817 96.8399 81.6246 97.1061 81.6246C97.3686 81.6246 97.5949 81.676 97.7851 81.7787C97.9753 81.8776 98.1198 82.0164 98.2187 82.1952C98.3214 82.374 98.3728 82.5813 98.3728 82.8171V82.8342C98.3728 83.0282 98.3309 83.2165 98.2473 83.3991C98.1636 83.5778 98.0152 83.7889 97.8022 84.0324C97.5892 84.272 97.2887 84.5782 96.9007 84.951L94.2477 87.5698ZM89.4151 88.9392C88.738 88.9392 88.1541 88.7642 87.6635 88.4143C87.1766 88.0605 86.8019 87.5603 86.5395 86.9137C86.277 86.2671 86.1458 85.5006 86.1458 84.6143V84.6029C86.1458 83.7129 86.277 82.9464 86.5395 82.3036C86.8019 81.657 87.1766 81.1587 87.6635 80.8087C88.1541 80.4588 88.738 80.2838 89.4151 80.2838C90.0959 80.2838 90.6798 80.4588 91.1667 80.8087C91.6536 81.1587 92.0282 81.657 92.2907 82.3036C92.5531 82.9464 92.6844 83.7129 92.6844 84.6029V84.6143C92.6844 85.5006 92.5531 86.2671 92.2907 86.9137C92.0282 87.5603 91.6536 88.0605 91.1667 88.4143C90.6798 88.7642 90.0959 88.9392 89.4151 88.9392ZM89.4151 87.5755C89.7422 87.5755 90.018 87.4576 90.2424 87.2218C90.4706 86.986 90.6437 86.6474 90.7616 86.2062C90.8833 85.765 90.9442 85.2344 90.9442 84.6143V84.6029C90.9442 83.9791 90.8833 83.4485 90.7616 83.0111C90.6437 82.5699 90.4706 82.2332 90.2424 82.0012C90.018 81.7654 89.7422 81.6475 89.4151 81.6475C89.0918 81.6475 88.816 81.7654 88.5878 82.0012C88.3633 82.2332 88.1903 82.5699 88.0686 83.0111C87.9506 83.4485 87.8917 83.9791 87.8917 84.6029V84.6143C87.8917 85.2344 87.9506 85.765 88.0686 86.2062C88.1903 86.6474 88.3633 86.986 88.5878 87.2218C88.816 87.4576 89.0918 87.5755 89.4151 87.5755ZM78.7291 87.5698V88.7281H84.6686V87.3416H81.0399V87.2124L82.5632 85.7897C83.0653 85.3256 83.4609 84.9205 83.75 84.5744C84.0391 84.2283 84.2445 83.9069 84.3662 83.6102C84.4879 83.3097 84.5488 83.0035 84.5488 82.6916V82.6745C84.5488 82.199 84.4252 81.7825 84.1779 81.4249C83.9345 81.0674 83.596 80.7878 83.1623 80.5862C82.7325 80.3846 82.2342 80.2838 81.6675 80.2838C81.0665 80.2838 80.5378 80.396 80.0813 80.6205C79.6287 80.8449 79.273 81.1568 79.0144 81.5562C78.7595 81.9556 78.6321 82.4177 78.6321 82.9426L78.6378 82.9711H80.2297V82.9426C80.2297 82.6802 80.2867 82.4519 80.4008 82.2579C80.5149 82.0602 80.6747 81.9061 80.8801 81.7958C81.0855 81.6817 81.3213 81.6246 81.5876 81.6246C81.8501 81.6246 82.0764 81.676 82.2666 81.7787C82.4567 81.8776 82.6013 82.0164 82.7002 82.1952C82.8029 82.374 82.8542 82.5813 82.8542 82.8171V82.8342C82.8542 83.0282 82.8124 83.2165 82.7287 83.3991C82.645 83.5778 82.4967 83.7889 82.2837 84.0324C82.0707 84.272 81.7702 84.5782 81.3822 84.951L78.7291 87.5698ZM75.8532 90.8106C75.4691 90.3389 75.1515 89.8235 74.9004 89.2644C74.6494 88.7052 74.463 88.1043 74.3413 87.4614C74.2196 86.8186 74.1587 86.1396 74.1587 85.4245C74.1587 84.698 74.2196 84.0153 74.3413 83.3762C74.463 82.7334 74.6494 82.1324 74.9004 81.5733C75.1515 81.0141 75.4691 80.5044 75.8532 80.0442H77.3823C77.1693 80.3104 76.9715 80.6452 76.789 81.0484C76.6064 81.4478 76.4466 81.889 76.3097 82.3721C76.1728 82.8513 76.0663 83.3515 75.9902 83.8726C75.9141 84.3937 75.8761 84.911 75.8761 85.4245C75.8761 85.9342 75.9141 86.4496 75.9902 86.9707C76.0663 87.4919 76.1728 87.9939 76.3097 88.477C76.4466 88.9601 76.6064 89.4013 76.789 89.8007C76.9715 90.2001 77.1693 90.5367 77.3823 90.8106H75.8532ZM123.747 16.3079L120.888 24.541H122.697L123.307 22.5441H126.213L126.822 24.541H128.636L125.772 16.3079H125.213H124.814H123.747ZM124.814 17.9511H124.711L123.701 21.2546H125.82L124.814 17.9511ZM117.755 24.5411V16.3079H119.478V24.5411H117.755ZM111.098 24.4555C111.581 24.6533 112.149 24.7522 112.803 24.7522C113.488 24.7522 114.078 24.6438 114.572 24.4269C115.071 24.2063 115.453 23.8982 115.719 23.5026C115.989 23.1032 116.124 22.6316 116.124 22.0877V22.082C116.124 21.6521 116.037 21.2851 115.862 20.9808C115.687 20.6765 115.415 20.4235 115.046 20.2219C114.681 20.0203 114.207 19.8606 113.625 19.7427L112.752 19.5658C112.269 19.4669 111.919 19.3338 111.702 19.1664C111.489 18.9952 111.383 18.7765 111.383 18.5103V18.5046C111.383 18.2992 111.442 18.1223 111.56 17.9739C111.678 17.8218 111.843 17.7039 112.056 17.6202C112.269 17.5365 112.516 17.4947 112.798 17.4947C113.087 17.4947 113.34 17.5384 113.557 17.6259C113.777 17.7096 113.952 17.8256 114.082 17.9739C114.215 18.1223 114.298 18.2954 114.333 18.4932L114.344 18.5616H115.964L115.959 18.4874C115.924 18.0272 115.778 17.6183 115.519 17.2607C115.261 16.8994 114.901 16.616 114.441 16.4106C113.985 16.2014 113.437 16.0968 112.798 16.0968C112.189 16.0968 111.649 16.2033 111.177 16.4163C110.706 16.6255 110.335 16.9203 110.065 17.3007C109.795 17.6811 109.66 18.1261 109.66 18.6358V18.6415C109.66 19.2653 109.854 19.7769 110.242 20.1763C110.63 20.5757 111.252 20.8629 112.107 21.0378L112.975 21.2147C113.488 21.3212 113.853 21.4562 114.07 21.6198C114.291 21.7834 114.401 22.0002 114.401 22.2702V22.2759C114.401 22.4851 114.334 22.6715 114.201 22.8351C114.072 22.9948 113.891 23.1204 113.659 23.2117C113.427 23.3029 113.157 23.3486 112.849 23.3486C112.53 23.3486 112.246 23.3048 111.999 23.2174C111.752 23.1299 111.554 23.0101 111.406 22.8579C111.261 22.702 111.177 22.5213 111.155 22.3159L111.149 22.2588H109.489L109.494 22.3501C109.528 22.837 109.683 23.2611 109.956 23.6225C110.234 23.98 110.614 24.2577 111.098 24.4555ZM100.713 24.541L103.572 16.3079H104.639H105.038H105.597L108.461 24.541H106.647L106.038 22.5441H103.132L102.522 24.541H100.713ZM104.536 17.9511H104.639L105.645 21.2546H103.526L104.536 17.9511ZM92.0004 16.3079L89.1419 24.5411H90.9505L91.5609 22.5441H94.4671L95.0757 24.5411H96.89L94.0258 16.3079H93.4667H93.0673H92.0004ZM93.0673 17.9511H92.9646L91.955 21.2547H94.0741L93.0673 17.9511ZM79.1292 24.5411V16.3079H81.1033L83.3798 22.333H83.4825L85.7533 16.3079H87.7275V24.5411H86.1927V18.9382H86.0801L83.9675 24.5411H82.8891L80.7806 18.9382H80.664V24.5411H79.1292ZM72.1736 24.4555C72.6605 24.6533 73.2102 24.7522 73.8225 24.7522C74.3817 24.7522 74.8857 24.6704 75.3345 24.5068C75.7872 24.3395 76.1732 24.1017 76.4928 23.7936C76.8123 23.4817 77.0557 23.1071 77.2231 22.6696C77.3904 22.2322 77.4741 21.7415 77.4741 21.1976V20.1535H74.0165V21.4087H75.7967L75.791 21.5627C75.7796 21.9089 75.6921 22.2113 75.5285 22.4699C75.365 22.7286 75.1386 22.9302 74.8495 23.0747C74.5605 23.2193 74.2276 23.2915 73.8511 23.2915C73.5126 23.2915 73.2064 23.225 72.9325 23.0918C72.6586 22.9587 72.4247 22.7666 72.2307 22.5156C72.0367 22.2645 71.8884 21.9621 71.7857 21.6084C71.683 21.2508 71.6316 20.8496 71.6316 20.4045V20.3931C71.6316 19.8111 71.7191 19.309 71.8941 18.8868C72.069 18.4608 72.3163 18.1337 72.6358 17.9055C72.9591 17.6735 73.3414 17.5574 73.7826 17.5574C74.2657 17.5574 74.6746 17.6715 75.0093 17.8998C75.344 18.128 75.5685 18.4475 75.6826 18.8583L75.694 18.9154H77.4056L77.3942 18.8583C77.3144 18.3106 77.1109 17.8294 76.7837 17.4148C76.4604 17.0002 76.042 16.6769 75.5285 16.4449C75.015 16.2128 74.433 16.0968 73.7826 16.0968C72.9876 16.0968 72.2973 16.2737 71.7115 16.6274C71.1257 16.9774 70.6731 17.4757 70.3536 18.1223C70.034 18.7651 69.8743 19.5278 69.8743 20.4102V20.4216C69.8743 21.0911 69.9656 21.694 70.1482 22.2303C70.3307 22.7628 70.5913 23.2174 70.9298 23.5939C71.2722 23.9667 71.6868 24.2539 72.1736 24.4555ZM66.5198 24.5411V16.3079H68.2429V24.5411H66.5198ZM59.8614 24.4555C60.3445 24.6532 60.9131 24.7521 61.5674 24.7521C62.252 24.7521 62.8416 24.6437 63.3361 24.4269C63.8344 24.2063 64.2167 23.8982 64.4829 23.5026C64.753 23.1032 64.888 22.6316 64.888 22.0876V22.0819C64.888 21.6521 64.8005 21.2851 64.6256 20.9808C64.4506 20.6765 64.1786 20.4235 63.8097 20.2219C63.4445 20.0203 62.9709 19.8606 62.389 19.7427L61.516 19.5658C61.033 19.4669 60.683 19.3338 60.4662 19.1664C60.2532 18.9952 60.1467 18.7765 60.1467 18.5103V18.5046C60.1467 18.2992 60.2056 18.1223 60.3236 17.9739C60.4415 17.8218 60.6069 17.7039 60.8199 17.6202C61.033 17.5365 61.2802 17.4947 61.5617 17.4947C61.8508 17.4947 62.1037 17.5384 62.3205 17.6259C62.5411 17.7096 62.7161 17.8256 62.8454 17.9739C62.9786 18.1223 63.0622 18.2953 63.0965 18.4931L63.1079 18.5616H64.7283L64.7226 18.4874C64.6883 18.0272 64.5419 17.6183 64.2832 17.2607C64.0246 16.8994 63.6651 16.616 63.2049 16.4106C62.7484 16.2014 62.2007 16.0968 61.5617 16.0968C60.9531 16.0968 60.4129 16.2033 59.9413 16.4163C59.4696 16.6255 59.0988 16.9203 58.8287 17.3007C58.5586 17.681 58.4236 18.1261 58.4236 18.6358V18.6415C58.4236 19.2653 58.6176 19.7769 59.0056 20.1763C59.3936 20.5757 60.0155 20.8629 60.8713 21.0378L61.7385 21.2147C62.252 21.3212 62.6172 21.4562 62.834 21.6198C63.0546 21.7833 63.1649 22.0002 63.1649 22.2702V22.2759C63.1649 22.4851 63.0984 22.6715 62.9652 22.8351C62.8359 22.9948 62.6552 23.1204 62.4232 23.2116C62.1912 23.3029 61.9211 23.3486 61.613 23.3486C61.2935 23.3486 61.0101 23.3048 60.7629 23.2174C60.5156 23.1299 60.3179 23.01 60.1695 22.8579C60.025 22.7019 59.9413 22.5213 59.9185 22.3159L59.9128 22.2588H58.2524L58.2581 22.3501C58.2924 22.837 58.4464 23.2611 58.7203 23.6224C58.998 23.98 59.3783 24.2577 59.8614 24.4555Z" fill="url(#paint0_linear_2838_6416)"/>
</g>
<defs>
<linearGradient id="paint0_linear_2838_6416" x1="75.644" y1="-8.99999" x2="175.144" y2="92.5" gradientUnits="userSpaceOnUse">
<stop stop-color="#D8B68A"/>
<stop offset="0.5625" stop-color="#E3BC89"/>
<stop offset="1" stop-color="#BE9A6A"/>
</linearGradient>
</defs>
</svg>
