<svg xmlns="http://www.w3.org/2000/svg" viewBox="0 0 254 254"><defs><style>.cls-1{fill:#ffc16b;}.cls-2{fill:#e95f25;}.cls-3{fill:#ffeeba;}.cls-4{fill:#e99625;}.cls-5{fill:#ffdb6b;}.cls-6{fill:#ff8a00;}.cls-7{fill:#ffe38f;}.cls-8{stroke:#000;stroke-miterlimit:10;stroke-width:2px;}</style></defs><g id="Layer_2" data-name="Layer 2"><g id="Layer_4" data-name="Layer 4"><path class="cls-1" d="M107.62,77.8a8.22,8.22,0,0,0,2.13-3.25,8.12,8.12,0,0,0-.47-6.24,9.78,9.78,0,0,0-5.85-4.91l-.87-.23a18.23,18.23,0,0,0,2.84-9.81,23.56,23.56,0,0,0-.15-2.37A9.36,9.36,0,0,0,109,48a9.49,9.49,0,0,0-2-13.28,9.68,9.68,0,0,0-7-1.82A9.14,9.14,0,0,0,94.1,36.2a19.79,19.79,0,0,0-8.47-1.82,20.37,20.37,0,0,0-8.54,1.82,9.38,9.38,0,0,0-7.27-3.4A9.49,9.49,0,0,0,66,51a23.58,23.58,0,0,0-.16,2.37,18.24,18.24,0,0,0,2.85,9.81l-.87.23A10.27,10.27,0,0,0,62,68.31a7.83,7.83,0,0,0-.48,6.24,7.56,7.56,0,0,0,2.14,3.25c-4.67,1.82-8.07,6.8-8.07,12.73C55.58,98,60.88,104,67.44,104a11,11,0,0,0,8.86-4.59,31.39,31.39,0,0,0,18.67,0,11,11,0,0,0,8.85,4.59c6.57,0,11.87-6,11.87-13.45C115.69,84.6,112.29,79.62,107.62,77.8Z"/><path class="cls-2" d="M55.58,202.54a4,4,0,0,1-2.48-.87c-.87-.7-21.32-17.25-21.32-34.82a23.8,23.8,0,1,1,47.6,0c0,17.57-20.45,34.1-21.32,34.82A4,4,0,0,1,55.58,202.54Z"/><path class="cls-2" d="M186.46,67.7a4,4,0,0,1-2.48-.87c-.87-.7-21.32-17.26-21.32-34.82a23.8,23.8,0,1,1,47.59,0c0,17.56-20.45,34.1-21.32,34.82A4,4,0,0,1,186.46,67.7Z"/><circle class="cls-3" cx="186.46" cy="32.01" r="11.73"/><circle class="cls-3" cx="55.58" cy="166.85" r="11.73"/><rect class="cls-4" x="19.29" y="6.29" width="23.23" height="8.16"/><rect class="cls-4" x="146.57" y="150.87" width="23.23" height="8.16"/><rect class="cls-5" x="218.48" y="212.44" width="14.28" height="8.16"/><polygon class="cls-6" points="204.67 146.27 232.29 146.27 231.49 170.81 218.48 158.9 206.3 168.97 204.67 146.27"/><circle class="cls-7" cx="163.72" cy="194.53" r="20.69"/><circle class="cls-1" cx="164.31" cy="194.18" r="9.16"/><rect x="216" y="211" width="5" height="11"/><path d="M131,123H4a4,4,0,0,1-4-4V4A4,4,0,0,1,4,0H131a4,4,0,0,1,4,4V119A4,4,0,0,1,131,123ZM8,115H127V8H8Z"/><path d="M250,254H123a4,4,0,0,1-4-4V135a4,4,0,0,1,4-4H250a4,4,0,0,1,4,4V250A4,4,0,0,1,250,254Zm-123-8H246V139H127Z"/><path d="M234.33,225H202.67a2.66,2.66,0,0,1-2.67-2.67V211.67a2.66,2.66,0,0,1,2.67-2.67h31.66a2.66,2.66,0,0,1,2.67,2.67v10.66A2.66,2.66,0,0,1,234.33,225ZM205,219h27v-5H205Z"/><rect x="167" y="149" width="5" height="11"/><path d="M180.33,163H148.67a2.66,2.66,0,0,1-2.67-2.67V149.67a2.66,2.66,0,0,1,2.67-2.67h31.66a2.66,2.66,0,0,1,2.67,2.67v10.66A2.66,2.66,0,0,1,180.33,163ZM151,157h27v-5H151Z"/><rect x="200" y="230" width="37" height="5"/><path d="M186.53,67.7a4,4,0,0,1-2.47-.87c-.87-.7-21.32-17.26-21.32-34.82a23.8,23.8,0,1,1,47.59,0c0,17.56-20.45,34.12-21.32,34.82A4,4,0,0,1,186.53,67.7Zm0-51.56A15.86,15.86,0,0,0,170.67,32c0,10.63,10.86,21.84,15.86,26.46,5-4.62,15.87-15.83,15.87-26.46A15.86,15.86,0,0,0,186.53,16.14Z"/><path d="M186.53,43.9A11.9,11.9,0,1,1,198.43,32,11.89,11.89,0,0,1,186.53,43.9Zm0-15.86a4,4,0,1,0,4,4A4,4,0,0,0,186.53,28Z"/><path d="M55.66,202.54a4,4,0,0,1-2.48-.87c-.87-.7-21.32-17.25-21.32-34.82a23.8,23.8,0,1,1,47.59,0c0,17.57-20.44,34.1-21.31,34.82A4,4,0,0,1,55.66,202.54Zm0-51.56A15.87,15.87,0,0,0,39.8,166.85c0,10.63,10.85,21.85,15.86,26.46,5-4.61,15.86-15.83,15.86-26.46A15.87,15.87,0,0,0,55.66,151Z"/><path d="M55.66,178.75a11.9,11.9,0,1,1,11.9-11.9A11.9,11.9,0,0,1,55.66,178.75Zm0-15.87a4,4,0,1,0,4,4A4,4,0,0,0,55.66,162.88Z"/><path d="M159,123h-8V111a11.59,11.59,0,0,1,11.17-12c.22,0,.45,0,.67,0h59.21A3.63,3.63,0,0,0,226,95.68a3,3,0,0,0,0-.73V87a3.66,3.66,0,0,0-3.27-4,2.89,2.89,0,0,0-.72,0H182V76h40.23a11,11,0,0,1,11.9,10.85,3.49,3.49,0,0,1-.13.68V95a11.59,11.59,0,0,1-11.17,12c-.22,0-.45,0-.67,0H163a3.62,3.62,0,0,0-3.95,3.28,4.33,4.33,0,0,0,0,.72Z"/><path d="M107,234H63.59s-11.71-4.57-11.9-10.95a.7.7,0,0,1,.31-.68V210h7v12a3.67,3.67,0,0,0,3.32,4,3,3,0,0,0,.73,0h44Z"/><path d="M40,43.32,30.5,33.68l-9.45,9.6a3,3,0,0,1-3.28.74A3,3,0,0,1,16,41.3V5.92A2.92,2.92,0,0,1,18.92,3H42.08A2.92,2.92,0,0,1,45,5.92V41.3a2.88,2.88,0,0,1-5,2ZM31,26.68a3,3,0,0,1,2.12.86L40,34.3V9H22V34.3l6.88-6.76A3,3,0,0,1,31,26.68Z"/><rect x="19" y="14" width="24" height="6"/><path d="M231.7,173.69a3.44,3.44,0,0,1-2.33-.9l-10.87-10-10.8,10a3.43,3.43,0,0,1-2.85.94,3.16,3.16,0,0,1-2.85-3V134.05a3.19,3.19,0,0,1,3.3-3.05h26.4a3.19,3.19,0,0,1,3.3,3.05v36.59A3.19,3.19,0,0,1,231.7,173.69ZM218,155.29a3.54,3.54,0,0,1,2.36.9l7.64,7V137H208v26.18l7.64-7A3.54,3.54,0,0,1,218,155.29Z"/><rect x="205" y="143" width="26" height="6"/><path d="M79.35,59.68A5.19,5.19,0,0,0,82.58,62a6.15,6.15,0,0,0,1.12.15,5.33,5.33,0,0,0,1.88-.37,5.43,5.43,0,0,0,3.07.22,5.11,5.11,0,0,0,3.23-2.32,1.53,1.53,0,0,0-2.63-1.58,2.29,2.29,0,0,1-1.35,1,1.92,1.92,0,0,1-.9,0V56h.75a1.5,1.5,0,0,0,0-3h-4.5a1.5,1.5,0,0,0,0,3H84v3.07a1.69,1.69,0,0,1-.9,0,2.2,2.2,0,0,1-1.35-1,1.57,1.57,0,0,0-2.1-.53A1.71,1.71,0,0,0,79.35,59.68Z"/><circle cx="78.59" cy="49.41" r="1.58"/><circle cx="92.83" cy="49.41" r="1.58"/><path class="cls-8" d="M107.7,77a8.22,8.22,0,0,0,2.13-3.25,8.12,8.12,0,0,0-.47-6.24,9.78,9.78,0,0,0-5.85-4.91c-.32-.08-.56-.16-.87-.23a18.23,18.23,0,0,0,2.84-9.81c0-.79-.08-1.58-.15-2.37a9.36,9.36,0,0,0,3.79-3,9.49,9.49,0,0,0-2-13.29,9.69,9.69,0,0,0-7-1.81,9.18,9.18,0,0,0-5.94,3.32,19.71,19.71,0,0,0-8.46-1.82,20.37,20.37,0,0,0-8.54,1.82A9.39,9.39,0,0,0,69.89,32,9.49,9.49,0,0,0,66.1,50.2a23.58,23.58,0,0,0-.16,2.37,18.24,18.24,0,0,0,2.85,9.81c-.32.07-.56.15-.87.23a10.27,10.27,0,0,0-5.85,4.91,7.83,7.83,0,0,0-.48,6.24A7.56,7.56,0,0,0,63.73,77c-4.67,1.82-8.07,6.8-8.07,12.73,0,7.43,5.3,13.44,11.86,13.44a11,11,0,0,0,8.86-4.58A31.36,31.36,0,0,0,95,98.6a11,11,0,0,0,8.86,4.58c6.57,0,11.86-6,11.86-13.44C115.76,83.81,112.36,78.83,107.7,77Zm-1.19-8.07a5,5,0,0,1,.32,3.8c-1,2.84-4.51,4.27-7.83,3.16a7,7,0,0,1-4-3.32,4.9,4.9,0,0,1-.32-3.8c.95-2.85,4.51-4.27,7.83-3.16A6.8,6.8,0,0,1,106.51,68.94Zm-5.85-33.69a6.17,6.17,0,0,1,4.67,1.19,6.27,6.27,0,0,1,2,7.43,8.11,8.11,0,0,1-.79,1.42,6.9,6.9,0,0,1-2,1.74,19.38,19.38,0,0,0-7.59-10A5.77,5.77,0,0,1,100.66,35.25Zm-15,1.5c9.18,0,16.61,7.12,16.61,15.82a15.05,15.05,0,0,1-3.4,9.57,8.63,8.63,0,0,0-7,5.14,17.7,17.7,0,0,1-12.34,0,8.76,8.76,0,0,0-7-5.14,15.05,15.05,0,0,1-3.4-9.57C69.1,43.87,76.54,36.75,85.71,36.75ZM66.81,47a6.27,6.27,0,0,1-3.24-5.53,6.34,6.34,0,0,1,6.32-6.33,6.44,6.44,0,0,1,4.51,1.9A18.71,18.71,0,0,0,66.81,47Zm-1.9,21.91a6.82,6.82,0,0,1,4-3.32,8.12,8.12,0,0,1,2.29-.4,6.14,6.14,0,0,1,3.4,1,4.8,4.8,0,0,1,2.06,2.61,5,5,0,0,1-.32,3.8,6.8,6.8,0,0,1-4,3.32C69,77,65.47,75.58,64.52,72.74A5.36,5.36,0,0,1,64.91,68.94ZM67.52,100c-4.82,0-8.7-4.59-8.7-10.28s3.88-10.28,8.7-10.28,8.7,4.59,8.7,10.28S72.35,100,67.52,100Zm18.19-3.16a30.4,30.4,0,0,1-7.59-1,15.27,15.27,0,0,0,1.27-6.09,15.45,15.45,0,0,0-1.19-5.85,8.63,8.63,0,0,1,15-.08A14.54,14.54,0,0,0,92,89.74a15.27,15.27,0,0,0,1.26,6.09A30.4,30.4,0,0,1,85.71,96.86Zm0-20.57a11.74,11.74,0,0,0-9.33,4.51,11.56,11.56,0,0,0-2.21-2.21,10.08,10.08,0,0,0,5.06-4.67,8,8,0,0,0,.87-3.24,21.41,21.41,0,0,0,5.53.79,18.51,18.51,0,0,0,5.54-.79A9.29,9.29,0,0,0,92,73.92a10.08,10.08,0,0,0,5.06,4.67,11.56,11.56,0,0,0-2.21,2.21A11.55,11.55,0,0,0,85.71,76.29ZM103.9,100c-4.82,0-8.7-4.59-8.7-10.28s3.88-10.28,8.7-10.28,8.7,4.59,8.7,10.28S108.73,100,103.9,100Z"/><rect x="33" y="79" width="5" height="11"/><path d="M44.71,93H17.29A2.6,2.6,0,0,1,15,90.17V78.83A2.6,2.6,0,0,1,17.29,76H44.71A2.6,2.6,0,0,1,47,78.83V90.17A2.6,2.6,0,0,1,44.71,93ZM19,87H42V81H19Z"/><rect x="15" y="95" width="32" height="8"/><path d="M164.31,207.19a13,13,0,1,0-13-13A13,13,0,0,0,164.31,207.19Zm0-21.29a8.28,8.28,0,1,1-8.28,8.28A8.28,8.28,0,0,1,164.31,185.9Z"/><path d="M140.67,227a7,7,0,0,0,3.06-13.26l1.13-8.27A22.31,22.31,0,0,0,157,215.33v14.83a7.22,7.22,0,0,0,6.82,7.32,7,7,0,0,0,7.18-7V215.33a22.28,22.28,0,0,0,12.15-9.9l1,7.19a7,7,0,0,0-2.86,9.49,7,7,0,0,0,9.26,2.87,7,7,0,0,0-1.78-13l-2.65-19.29s0,0,0,0a22.14,22.14,0,0,0-44.17.22s0,.1-.06.16l-2.75,20.17A7,7,0,0,0,140.67,227Zm26.33,4.2a2.51,2.51,0,0,1-3.54,2.29,2.45,2.45,0,0,1-1.46-2.29V216a23.22,23.22,0,0,0,5,0Zm21-9.8a2.37,2.37,0,1,1,2.37-2.37A2.37,2.37,0,0,1,188,221.38Zm-23.65-44.94a17.74,17.74,0,1,1-17.74,17.74A17.74,17.74,0,0,1,164.31,176.44Zm-23.65,41.39a2.37,2.37,0,1,1-2.37,2.36A2.36,2.36,0,0,1,140.66,217.83Z"/></g></g></svg>