<svg xmlns="http://www.w3.org/2000/svg" viewBox="0 0 253 259"><defs><style>.cls-1,.cls-2{fill:#ff8a00;stroke:#000;stroke-miterlimit:10;}.cls-1{stroke-width:9px;}.cls-2{stroke-width:7px;}.cls-3{fill:#ffdb6b;}</style></defs><g id="Layer_2" data-name="Layer 2"><g id="Layer_3" data-name="Layer 3"><path d="M171.41,221.17l-7.76-7.76L173,204V132.78a5.5,5.5,0,0,0-11-.22V159H152V133a16,16,0,1,1,32-.41v73.7a5.55,5.55,0,0,1-1.59,3.91Z"/><path d="M100.6,221.17l-11-11a5.51,5.51,0,0,1-1.6-3.91v-8.8L69.45,178.91a5,5,0,0,1-1.45-3.5V153.5c0-.63.31-15.6,26-15.6v10.42c-12,0-16,3.68-16,5.65v18.72l19.48,19.48A5.28,5.28,0,0,1,99,195.85V204l9.41,9.4Z"/><path d="M99,175H88V89.91a16,16,0,1,1,32-.24V159H110V89.84a5.43,5.43,0,0,0-3.73-5.24A5.5,5.5,0,0,0,99,89.67Z"/><path d="M141,159H131V127.49a5.43,5.43,0,0,0-3.75-5.25,5.49,5.49,0,0,0-7.25,5V159H109V127.68a16,16,0,1,1,32-.41Z"/><path d="M163,159H152V127.49a5.43,5.43,0,0,0-3.75-5.25,5.49,5.49,0,0,0-7.25,5V159H131V127.68a16,16,0,1,1,32-.41Z"/><path class="cls-1" d="M173.83,254.5H99.17a4.84,4.84,0,0,1-4.67-5v-30a4.84,4.84,0,0,1,4.67-5h74.66a4.84,4.84,0,0,1,4.67,5v30A4.84,4.84,0,0,1,173.83,254.5Z"/><path d="M211.06,79.3a5.23,5.23,0,0,1-2.38-.58l-18.77-9.36-18.77,9.41a5.28,5.28,0,0,1-7.4-6.39l4.49-13.44L159.08,45.2a5.3,5.3,0,0,1,1.51-7.33,5.37,5.37,0,0,1,2.88-.87h13l9-13.48a5.28,5.28,0,0,1,7.34-1.44,5.2,5.2,0,0,1,1.44,1.44L203.34,37h13a5.29,5.29,0,0,1,4.39,8.2l-9.15,13.74,4.5,13.44A5.28,5.28,0,0,1,212.7,79,5.36,5.36,0,0,1,211.06,79.3ZM189.91,58.58a5.17,5.17,0,0,1,2.38.58L202,64l-1.27-3.75a5.28,5.28,0,0,1,.64-4.6L206.68,48h-6.19a5.28,5.28,0,0,1-4.39-2.38l-6.19-9.25-6.18,9.25A5.29,5.29,0,0,1,179.34,48h-6l5.29,7.67a5.28,5.28,0,0,1,.63,4.6L178,64l9.73-4.86A5.2,5.2,0,0,1,189.91,58.58Z"/><path d="M57.5,223a5.47,5.47,0,0,1-3.9-1.6L33.25,201H15.86a5.28,5.28,0,0,1-3.75-1.53L1.53,188.89A5.28,5.28,0,0,1,0,185.14V69.5a5.62,5.62,0,0,1,1.53-3.91l10.56-11A5.21,5.21,0,0,1,15.84,53H132V64H17.4L10,71.4V182.6l7.4,7.4H36.25A5.25,5.25,0,0,1,40,191.52L52,203.6v-8.31A5.29,5.29,0,0,1,57.29,190H74v11H63v16.5A5.5,5.5,0,0,1,57.5,223Z"/><path d="M195.25,121.9a5.27,5.27,0,0,1-5.25-5.3V106H132.29a5.29,5.29,0,0,1-5.29-5.29V5.29A5.29,5.29,0,0,1,132.29,0H247.71A5.29,5.29,0,0,1,253,5.29v95.42a5.29,5.29,0,0,1-5.29,5.29H213.15l-14.22,14.36A5.25,5.25,0,0,1,195.25,121.9ZM137,96h57.71a5.29,5.29,0,0,1,5.29,5.29v3.12l6.82-6.82A5.31,5.31,0,0,1,210.58,96H243V11H137Z"/><path d="M226.5,201H179V190h45.53l7.47-7.75V101h11v84.21a5.19,5.19,0,0,1-1.59,3.74l-11,10.52A5.62,5.62,0,0,1,226.5,201Z"/><rect class="cls-2" x="25.5" y="79.5" width="11" height="11"/><rect class="cls-2" x="47.5" y="79.5" width="32" height="11"/><rect class="cls-2" x="25.5" y="100.5" width="53" height="11"/><rect class="cls-2" x="25.5" y="121.5" width="53" height="11"/><rect class="cls-2" x="25.5" y="142.5" width="32" height="11"/><rect class="cls-2" x="25.5" y="163.5" width="32" height="11"/><path class="cls-2" d="M216.21,179.5H195.5v-10h15v-16h11v20.71A5.29,5.29,0,0,1,216.21,179.5Z"/><rect class="cls-2" x="210.5" y="132.5" width="11" height="11"/><path class="cls-3" d="M181,41.67l6.65-10a2.57,2.57,0,0,1,4.29,0l6.73,10a1.31,1.31,0,0,0,2.19.32h8.34c2,.67,3.31,2.89,2.26,4.64l-5.15,8.58a2.6,2.6,0,0,0-.3,1.91l2.09,9.41a2.59,2.59,0,0,1-3.61,2.93l-13.38-6.23a2.6,2.6,0,0,0-2.23,0l-12.45,6.13a2.59,2.59,0,0,1-3.68-2.82l1.8-9.41a2.61,2.61,0,0,0-.39-1.94l-5.68-8.47A2.35,2.35,0,0,1,170.65,43h8.14A3.24,3.24,0,0,0,181,41.67Z"/></g></g></svg>