<svg xmlns="http://www.w3.org/2000/svg" viewBox="0 0 296.12 253.82"><defs><style>.cls-1{fill:#ff8a00;}.cls-2{fill:#ffc16b;}.cls-3{fill:#ffdb6b;}</style></defs><g id="Layer_2" data-name="Layer 2"><g id="Layer_2-2" data-name="Layer 2"><path d="M223.6,54.39a6.06,6.06,0,0,0-6,6V223.6a6.06,6.06,0,0,0,6,6.05h30.22a6.06,6.06,0,0,0,6-6.05V60.43a6.06,6.06,0,0,0-6-6Zm24.18,163.17H229.65V66.48h18.13Z"/><path d="M163.17,102.74a6.06,6.06,0,0,0-6,6V223.6a6.06,6.06,0,0,0,6,6.05h30.22a6.06,6.06,0,0,0,6-6.05V108.78a6.06,6.06,0,0,0-6-6Zm24.17,114.82H169.21V114.82h18.13Z"/><path d="M102.74,72.52a6.06,6.06,0,0,0-6,6v145a6.06,6.06,0,0,0,6,6.05H133A6.06,6.06,0,0,0,139,223.6v-145a6.06,6.06,0,0,0-6.05-6Zm24.17,145H108.78V84.61h18.13Z"/><path d="M42.3,229.65H72.52a6.06,6.06,0,0,0,6-6.05V133a6.06,6.06,0,0,0-6-6H42.3a6.06,6.06,0,0,0-6,6V223.6A6.06,6.06,0,0,0,42.3,229.65ZM48.35,139H66.48v78.56H48.35Z"/><path d="M290.08,241.73H6a6,6,0,0,0,0,12.09h284a6,6,0,0,0,0-12.09Z"/><path d="M57.41,114.82a21.13,21.13,0,0,0,19-30.33l30.46-27.14a21,21,0,0,0,25.32-2.6l25,12.51c-.06.73-.12,1.45-.12,2.24a21.15,21.15,0,0,0,42.3,0,21.33,21.33,0,0,0-1.63-8.16l29.13-22.66a20.94,20.94,0,0,0,11.84,3.62,21.05,21.05,0,1,0-19.52-12.93L190.12,52a21.2,21.2,0,0,0-28.22,4.11L138.33,44.36a20.31,20.31,0,0,0,.61-5.08,21.16,21.16,0,0,0-42.31,0,21.67,21.67,0,0,0,2.06,9.13L68.29,75.54a20.9,20.9,0,0,0-10.88-3,21.15,21.15,0,1,0,0,42.3ZM238.71,12.09a9.07,9.07,0,1,1,0,18.13,9.16,9.16,0,0,1-7-3.27,8.78,8.78,0,0,1-2.11-5.8A9.05,9.05,0,0,1,238.71,12.09ZM178.28,60.43a9.07,9.07,0,0,1,0,18.13,9.18,9.18,0,0,1-6.95-3.26,8.81,8.81,0,0,1-2.12-5.8A9.06,9.06,0,0,1,178.28,60.43ZM117.84,30.22a9.05,9.05,0,0,1,9.07,9.06,8.5,8.5,0,0,1-1.09,4.29,5.27,5.27,0,0,0-.6,1,9.06,9.06,0,0,1-7.38,3.81,9.19,9.19,0,0,1-7-3.27,8.78,8.78,0,0,1-2.11-5.8A9.05,9.05,0,0,1,117.84,30.22ZM57.41,84.61a9.07,9.07,0,1,1,0,18.13,9.16,9.16,0,0,1-6.95-3.27,8.78,8.78,0,0,1-2.11-5.8A9.05,9.05,0,0,1,57.41,84.61Z"/><circle class="cls-1" cx="57.41" cy="93.67" r="13.5"/><circle class="cls-2" cx="117.84" cy="39.41" r="13.5"/><circle class="cls-3" cx="178.28" cy="69.5" r="13.5"/><circle class="cls-1" cx="238.71" cy="21.15" r="13.5"/><rect class="cls-1" x="43.99" y="135.88" width="26.03" height="86.05"/><rect class="cls-2" x="104.83" y="78.56" width="26.03" height="143.37"/><rect class="cls-3" x="165.26" y="111.88" width="26.03" height="110.06"/><rect class="cls-1" x="225.7" y="62.99" width="26.03" height="158.94"/></g></g></svg>